<?xml version="1.0" encoding="UTF-8"?>
<svg width="26px" height="24px" viewBox="0 0 26 24" version="1.1" xmlns="http://www.w3.org/2000/svg" xmlns:xlink="http://www.w3.org/1999/xlink">
    <!-- Generator: sketchtool 54.1 (76490) - https://sketchapp.com -->
    <g id="Page-1" stroke="none" stroke-width="1" fill="none" fill-rule="evenodd">
        <g id="Homepage" transform="translate(-216.000000, -3195.000000)" fill="#ffffff" fill-rule="nonzero">
            <g id="Content" transform="translate(-12.000000, 568.000000)">
                <g id="When-to-Utilize-InfraLytiks" transform="translate(12.000000, 2308.000000)">
                    <g id="icon" transform="translate(216.000000, 67.000000)">
                        <path d="M12.2382812,271.5 L13.7617188,271.5 L13.7617188,273 L12.2382812,273 L12.2382812,271.5 Z M21.3789062,261 L18.3320312,261 L18.3320312,265.70945 L22.9023438,267.20945 L22.9023438,271.5 L24.4257812,271.5 L24.4257812,273 L19.8554688,273 L19.8554688,271.5 L21.3789062,271.5 L21.3789062,268.2906 L17.4467109,267 L15.2851562,267 L15.2851562,268.5 L16.8085938,268.5 L16.8085938,276 L9.19140625,276 L9.19140625,268.5 L10.7148438,268.5 L10.7148438,267 L8.55328906,267 L4.62109375,268.2906 L4.62109375,271.5 L6.14453125,271.5 L6.14453125,273 L1.57421875,273 L1.57421875,271.5 L3.09765625,271.5 L3.09765625,267.20945 L7.66796875,265.70945 L7.66796875,261 L4.62109375,261 L4.62109375,256.481 C2.21436719,256.36005 0,255.65665 0,254.25 C0,252.6957 2.70349219,252 5.3828125,252 C8.03684375,252 10.7148438,252.6957 10.7148438,254.25 C10.7148438,255.65525 8.52576563,256.35865 6.14453125,256.4806 L6.14453125,259.5 C7.23927344,259.5 8.17253125,259.5 9.26803516,259.5 C9.62192969,257.7904 11.1607031,256.5 13,256.5 C14.8392969,256.5 16.3781211,257.7904 16.7319648,259.5 C17.8273164,259.5 18.7608281,259.5 19.8554688,259.5 L19.8554688,256.4806 C17.4742344,256.35865 15.2851562,255.65525 15.2851562,254.25 C15.2851562,252.6957 17.9631563,252 20.6171875,252 C23.2965078,252 26,252.6957 26,254.25 C26,255.65665 23.7856328,256.36005 21.3789062,256.481 L21.3789062,261 Z M16.877707,254.25 C17.2353594,254.52725 18.5118477,255 20.6171875,255 C22.7303984,255 24.0239492,254.5301 24.3994766,254.25 C24.0239492,253.9699 22.7303984,253.5 20.6171875,253.5 C18.5117969,253.5 17.2353594,253.97275 16.877707,254.25 Z M1.60052344,254.25 C1.97605078,254.5301 3.26960156,255 5.3828125,255 C7.48820313,255 8.76464062,254.52725 9.12229297,254.25 C8.76464062,253.97275 7.48815234,253.5 5.3828125,253.5 C3.26960156,253.5 1.97605078,253.9699 1.60052344,254.25 Z M13,258 C12.0069219,258 11.1597383,258.62695 10.8453516,259.5 L15.1546484,259.5 C14.8402617,258.62695 13.9930781,258 13,258 Z M15.2851562,274.5 L15.2851562,270 L10.7148438,270 L10.7148438,274.5 L15.2851562,274.5 Z M12.2382812,268.5 L13.7617188,268.5 L13.7617188,267 L12.2382812,267 L12.2382812,268.5 Z M16.8085937,265.5 L16.8085937,261 L9.19140625,261 L9.19140625,265.5 C10.0005039,265.5 15.9175859,265.5 16.8085937,265.5 Z" id="drone_icon"></path>
                    </g>
                </g>
            </g>
        </g>
    </g>
</svg>