<?xml version="1.0" encoding="UTF-8"?>
<svg width="19px" height="14px" viewBox="0 0 19 14" version="1.1" xmlns="http://www.w3.org/2000/svg" xmlns:xlink="http://www.w3.org/1999/xlink">
    <!-- Generator: Sketch 54.1 (76490) - https://sketchapp.com -->
    <title>Image-Based</title>
    <desc>Created with Sketch.</desc>
    <g id="Page-1" stroke="none" stroke-width="1" fill="none" fill-rule="evenodd">
        <g id="Homepage" transform="translate(-927.000000, -406.000000)" fill="#FFFFFF" fill-rule="nonzero">
            <g id="Header">
                <g id="pop-up" transform="translate(700.000000, 309.000000)">
                    <g id="Image-Based" transform="translate(153.000000, 84.000000)">
                        <g id="icon" transform="translate(20.000000, 0.000000)">
                            <path d="M65.4196755,19.6220416 C65.4437967,19.744388 65.456785,19.8706513 65.4567479,19.9999815 C65.4567479,21.0760462 64.5807034,21.9483972 63.5000371,21.9483972 C62.4193708,21.9483972 61.5432892,21.0760831 61.5432892,19.9999815 C61.5432892,18.9239169 62.4193708,18.0515658 63.5001113,18.0515658 C63.9565213,18.0515658 64.3761187,18.207649 64.7089911,18.4684896 C64.4777616,18.5778291 64.3174856,18.8117691 64.3174856,19.0835843 C64.3174856,19.4598245 64.6237876,19.7648222 65.0016367,19.7648222 C65.1592409,19.7648222 65.303968,19.7112425 65.4196755,19.6220416 Z M72.6315396,19.5872702 L73,19.9999815 L72.6314654,20.4127298 C72.5898285,20.4593626 71.5938461,21.5667991 69.9834785,22.6822171 C67.8267103,24.1761293 65.5847386,24.965746 63.5,24.965746 C61.4152614,24.965746 59.1733268,24.1760924 57.0165215,22.6822171 C55.4061539,21.5667991 54.4101715,20.4593626 54.3685346,20.4127298 L54,19.9999815 L54.3685718,19.5872702 C54.4102086,19.5406374 55.4062281,18.4332009 57.0165587,17.3177829 C59.1733268,15.8239076 61.4153356,15.034254 63.5000742,15.034254 C65.5848128,15.034254 67.8267474,15.8239076 69.9835527,17.3177829 C71.5939203,18.4332009 72.5899027,19.5406374 72.6315396,19.5872702 Z M59.2368955,22.5741709 C58.7777765,21.8230208 58.5131114,20.9416905 58.5131114,19.9999446 C58.5131114,19.0581986 58.7777765,18.1768684 59.2368955,17.4257182 C58.6800671,17.7148268 58.1800534,18.0264388 57.7539619,18.3203141 C56.8329779,18.9555473 56.1198071,19.5976905 55.7054051,19.9999815 C56.11977,20.4021617 56.8329036,21.0443048 57.7539619,21.6795751 C58.1800905,21.9734873 58.6800671,22.2851363 59.2368955,22.5741709 Z M63.6061332,23.7218106 C65.6191391,23.6656813 67.2393779,22.0177552 67.2393408,19.9999815 C67.2393408,17.9822079 65.6191391,16.3342448 63.6061332,16.2781524 C63.5707679,16.2776351 63.5355138,16.2765635 63.5000371,16.2765635 C63.4645604,16.2765635 63.4293064,16.2776721 63.393941,16.2781524 C61.3809351,16.3343187 59.7606963,17.9822448 59.7606963,19.9999815 C59.7606963,22.0177552 61.3809351,23.6657182 63.393941,23.7218106 C63.4293064,23.7223279 63.4645604,23.7233995 63.5000371,23.7233995 C63.5355138,23.7233995 63.5707679,23.722291 63.6061332,23.7218106 Z M69.2460752,21.679649 C70.1670592,21.0444157 70.8801558,20.4023095 71.294632,20.0000554 C70.8801558,19.5977275 70.1670592,18.9556212 69.2460752,18.320388 C68.8199466,18.0264758 68.31997,17.7148268 67.7631417,17.4257921 C68.2222606,18.1769423 68.4869257,19.0582725 68.4869257,20.0000185 C68.4869257,20.9417644 68.2222606,21.8230947 67.7631417,22.5742448 C68.31997,22.2851363 68.8199837,21.9735242 69.2460752,21.679649 Z M67.3859605,13 L70.5299904,13 L70.5299904,16.1306051 L69.2823683,16.1306051 L69.2823683,14.2423095 L67.3859605,14.2423095 L67.3859605,13 Z M69.2823683,23.869358 L70.5299904,23.869358 L70.5299904,27 L67.3859605,27 L67.3859605,25.7576905 L69.2823683,25.7576905 L69.2823683,23.869358 Z M56.470121,13 L59.6141137,13 L59.6141137,14.2423095 L57.717743,14.2423095 L57.717743,16.1306051 L56.470121,16.1306051 L56.470121,13 Z M57.717743,25.7576905 L59.6141137,25.7576905 L59.6141137,27 L56.470121,27 L56.470121,23.869358 L57.717743,23.869358 L57.717743,25.7576905 Z" id="Image-Based"></path>
                        </g>
                    </g>
                </g>
            </g>
        </g>
    </g>
</svg>