<?xml version="1.0" encoding="UTF-8"?>
<svg width="23px" height="20px" viewBox="0 0 27 24" version="1.1" xmlns="http://www.w3.org/2000/svg" xmlns:xlink="http://www.w3.org/1999/xlink">
    <!-- Generator: Sketch 54.1 (76490) - https://sketchapp.com -->
    <g id="Page-1" stroke="none" stroke-width="1" fill="none" fill-rule="evenodd">
        <g id="Style-Guides" transform="translate(-216.000000, -4962.000000)" fill="#ffffff" fill-rule="nonzero">
            <g id="Icon" transform="translate(147.000000, 4816.000000)">
                <path d="M72.1661719,149.188682 L73.7492578,149.188682 L73.7492578,150.781775 L72.1661719,150.781775 L72.1661719,149.188682 Z M75.3323438,149.188682 L76.9154297,149.188682 L76.9154297,150.781775 L75.3323438,150.781775 L75.3323438,149.188682 Z M78.499043,149.188682 L80.0821289,149.188682 L80.0821289,150.781775 L78.499043,150.781775 L78.499043,149.188682 Z M69,146 L96,146 L96,170 L69,170 L69,146 Z M94.4179687,168.406907 L94.4179687,153.970563 L70.5820312,153.970563 L70.5820312,168.406907 L94.4179687,168.406907 Z M94.4179687,152.37747 L94.4179687,147.593093 L70.5820312,147.593093 L70.5820312,152.37747 L94.4179687,152.37747 Z M72.2079375,155.563656 L78.0120938,155.563656 L78.0120938,166.813867 L72.2079375,166.813867 L72.2079375,155.563656 Z M76.4300625,165.220827 L76.4300625,163.625185 L73.7899687,163.625185 L73.7899687,165.220827 L76.4300625,165.220827 Z M76.4300625,162.032039 L76.4300625,157.156749 L73.7899687,157.156749 L73.7899687,162.032039 L76.4300625,162.032039 Z M79.5991875,155.563656 L85.4033438,155.563656 L85.4033438,166.813867 L79.5991875,166.813867 L79.5991875,155.563656 Z M83.8213125,165.220827 L83.8213125,161.985361 L81.1812187,161.985361 L81.1812187,165.220827 L83.8213125,165.220827 Z M83.8213125,160.392215 L83.8213125,157.156749 L81.1812187,157.156749 L81.1812187,160.392215 L83.8213125,160.392215 Z M86.9879062,155.563656 L92.7920625,155.563656 L92.7920625,166.813867 L86.9879062,166.813867 L86.9879062,155.563656 Z M91.2100312,165.220827 L91.2100312,160.345537 L88.5699375,160.345537 L88.5699375,165.220827 L91.2100312,165.220827 Z M91.2100312,158.752391 L91.2100312,157.156749 L88.5699375,157.156749 L88.5699375,158.752391 L91.2100312,158.752391 Z" id="image-based_icon"></path>
            </g>
        </g>
    </g>
</svg>