<?xml version="1.0" encoding="UTF-8"?>
<svg width="180px" height="16px" viewBox="0 0 180 16" version="1.1" xmlns="http://www.w3.org/2000/svg" xmlns:xlink="http://www.w3.org/1999/xlink">
    <!-- Generator: sketchtool 54.1 (76490) - https://sketchapp.com -->
    <defs>
        <linearGradient x1="0%" y1="49.6330182%" x2="100%" y2="50.3669818%" id="linearGradient-1id">
            <stop stop-color="#6D929C" offset="0%"></stop>
            <stop stop-color="#2A354E" offset="100%"></stop>
        </linearGradient>
        <path d="M1.27897692e-13,8.3637037 L1.27897692e-13,0.66 L3.86138614,0.66 L7.72277228,0.66 L7.72277228,8.3637037 L7.72277228,16.0674074 L3.86138614,16.0674074 L1.27897692e-13,16.0674074 L1.27897692e-13,8.3637037 Z M8.91089109,8.3637037 L8.91089109,0.66 L14.1386139,0.66 C20.1386139,0.66 20.7326733,0.956296296 23.1683168,5.10444444 L24.950495,8.06740741 L24.950495,4.33407407 L24.950495,0.66 L28.8118812,0.66 L32.6732673,0.66 L32.6732673,8.3637037 L32.6732673,16.0674074 L27.5643564,16.0674074 C24.7722772,16.0674074 21.980198,15.8303704 21.3861386,15.4748148 C20.7920792,15.1785185 19.5445545,13.6377778 18.6534653,12.097037 L16.9306931,9.25259259 L16.7524752,12.6303704 L16.5742574,16.0674074 L12.7722772,16.0674074 L8.91089109,16.0674074 L8.91089109,8.3637037 Z M35.4653465,1.72666667 C36.2970297,0.778518519 37.4257426,0.66 44.3762376,0.66 L52.2772277,0.66 L52.2772277,2.73407407 L52.2772277,4.74888889 L47.4059406,4.92666667 C44.6138614,5.04518519 42.4752475,5.34148148 42.4752475,5.69703704 C42.4752475,6.05259259 44.6138614,6.34888889 47.4059406,6.46740741 L52.2772277,6.64518519 L52.2772277,8.66 L52.2772277,10.6748148 L47.4059406,10.8525926 L42.4752475,11.0303704 L42.2970297,13.5192593 L42.1188119,16.0674074 L38.2574257,16.0674074 L34.4554455,16.0674074 L34.4554455,9.43037037 C34.4554455,4.09703704 34.6336634,2.61555556 35.4653465,1.72666667 Z M53.4653465,8.3637037 L53.4653465,0.66 L62.2574257,0.66 C72.4158416,0.66 73.0693069,0.897037037 73.4851485,4.86740741 C73.7227723,6.88222222 73.5445545,7.83037037 72.5940594,8.9562963 L71.4059406,10.4377778 L73.2475248,12.9266667 C74.2574257,14.3488889 75.0891089,15.4748148 75.1485149,15.4748148 C75.2079208,15.4748148 77.8811881,12.1562963 81.029703,8.06740741 L86.7920792,0.66 L92.970297,0.66 L99.2079208,0.66 L99.2079208,8.3637037 L99.2079208,16.0674074 L95.3465347,16.0674074 L91.5445545,16.0674074 L91.3663366,11.5637037 L91.1881188,7.00074074 L87.9207921,11.5637037 L84.7128713,16.0674074 L75.029703,16.0674074 L65.4059406,16.0674074 L63.8019802,13.9933333 C62.970297,12.8674074 62.019802,11.9192593 61.7227723,11.9192593 C61.4257426,11.9192593 61.1881188,12.8674074 61.1881188,13.9933333 L61.1881188,16.0674074 L57.3267327,16.0674074 L53.4653465,16.0674074 L53.4653465,8.3637037 Z M65.049505,6.28962963 C65.049505,5.40074074 64.5742574,5.04518519 63.1485149,4.92666667 C61.3663366,4.74888889 61.1881188,4.86740741 61.1881188,6.28962963 C61.1881188,7.71185185 61.3663366,7.83037037 63.1485149,7.65259259 C64.5742574,7.53407407 65.049505,7.17851852 65.049505,6.28962963 Z M103.425743,7.94888889 L105.861386,0.66 L109.960396,0.66 C112.217822,0.66 114.059406,0.719259259 114.059406,0.837777778 C114.059406,0.956296296 113.405941,2.97111111 112.574257,5.34148148 L111.148515,9.60814815 L116.019802,5.1637037 L120.891089,0.66 L125.524752,0.66 C128.019802,0.66 130.09901,0.778518519 130.09901,0.956296296 C130.09901,1.07481481 126.415842,4.51185185 121.960396,8.66 L113.762376,16.0674074 L107.405941,16.0674074 C103.841584,16.0674074 100.990099,15.8896296 100.990099,15.6525926 C100.990099,15.3562963 102.059406,11.9192593 103.425743,7.94888889 Z M128.376238,7.94888889 L130.811881,0.66 L134.970297,0.66 C138.059406,0.66 139.069307,0.837777778 138.831683,1.37111111 C138.712871,1.78592593 137.524752,5.28222222 136.277228,9.07481481 L134.019802,16.0674074 L129.980198,16.0674074 C127.782178,16.0674074 125.940594,15.8896296 125.940594,15.6525926 C125.940594,15.3562963 127.009901,11.9192593 128.376238,7.94888889 Z M140.851485,2.31925926 C142.455446,0.66 142.514851,0.66 150.475248,0.66 L158.49505,0.66 L157.841584,2.73407407 L157.247525,4.74888889 L152.19802,4.92666667 C148.811881,5.04518519 147.029703,5.34148148 146.851485,5.81555556 C146.673267,6.40814815 147.861386,6.58592593 151.425743,6.58592593 C154.09901,6.58592593 156.237624,6.82296296 156.237624,7.11925926 C156.237624,7.41555556 156,8.3637037 155.643564,9.19333333 C155.108911,10.6748148 154.871287,10.7340741 150.356436,10.7340741 C147.742574,10.7340741 145.425743,10.9711111 145.247525,11.3266667 C145.009901,11.6822222 146.613861,11.9192593 149.643564,11.9192593 C152.316832,11.9192593 154.455446,12.1562963 154.455446,12.4525926 C154.455446,12.7488889 154.217822,13.697037 153.861386,14.5266667 L153.267327,16.0674074 L145.306931,16.0674074 C137.821782,16.0674074 137.227723,16.0081481 136.633663,14.822963 C135.683168,13.1637037 138.594059,4.51185185 140.851485,2.31925926 Z M157.128713,7.11925926 L159.326733,0.66 L163.425743,0.66 C165.683168,0.66 167.524752,0.719259259 167.524752,0.837777778 C167.524752,0.956296296 166.752475,3.38592593 165.742574,6.28962963 C164.792079,9.19333333 163.960396,11.622963 163.960396,11.7414815 C163.960396,11.86 164.851485,11.9192593 165.980198,11.9192593 L168,11.9192593 L169.90099,6.28962963 L171.80198,0.66 L175.960396,0.66 C179.049505,0.66 180.059406,0.837777778 179.821782,1.37111111 C179.70297,1.78592593 178.514851,5.28222222 177.267327,9.07481481 L175.009901,16.0674074 L165.623762,16.0674074 C153.80198,16.0674074 154.039604,16.3637037 157.128713,7.11925926 Z" id="path-id2"></path>
    </defs>
    <g id="Page-1" stroke="none" stroke-width="1" fill="none" fill-rule="evenodd">
        <g id="Homepage" transform="translate(-214.000000, -901.000000)">
            <g id="Content" transform="translate(-12.000000, 568.000000)">
                <g id="Our-Platforms-&amp;-Applications" transform="translate(12.000000, 0.000000)">
                    <g id="Infra-VIEU" transform="translate(214.000000, 332.000000)">
                        <g id="InfraVieu" transform="translate(0.000000, 0.340000)">
                            <mask id="maskid3" fill="white">
                                <use xlink:href="#path-id2"></use>
                            </mask>
                            <use id="Combined-Shape" fill="url(#linearGradient-1id)" xlink:href="#path-id2"></use>
                            <rect id="Rectangle" fill="#0DC9A8" mask="url(#maskid3)" x="76" y="-3.19744231e-14" width="24" height="16.32"></rect>
                        </g>
                    </g>
                </g>
            </g>
        </g>
    </g>
</svg>