<?xml version="1.0" encoding="UTF-8"?>
<svg width="256px" height="23px" viewBox="0 0 256 23" version="1.1" xmlns="http://www.w3.org/2000/svg" xmlns:xlink="http://www.w3.org/1999/xlink">
    <!-- Generator: sketchtool 54.1 (76490) - https://sketchapp.com -->
    <title>674C75AA-6FC1-49D8-B098-72477BB6D2AC</title>
    <desc>Created with sketchtool.</desc>
    <defs>
        <linearGradient x1="0%" y1="49.6372625%" x2="100%" y2="50.3627375%" id="linearGradient-1">
            <stop stop-color="#6D929C" offset="0%"></stop>
            <stop stop-color="#2A354E" offset="100%"></stop>
        </linearGradient>
        <path d="M1.81614728e-13,11.807582 L1.81614728e-13,0.931764743 L5.48316834,0.931764743 L10.9663367,0.931764743 L10.9663367,11.807582 L10.9663367,22.6833992 L5.48316834,22.6833992 L1.81614728e-13,22.6833992 L1.81614728e-13,11.807582 Z M12.6534663,11.807582 L12.6534663,0.931764743 L20.076833,0.931764743 C28.5968334,0.931764743 29.4403978,1.35006541 32.8990118,7.20627469 L35.429705,11.3892813 L35.429705,6.11869297 L35.429705,0.931764743 L40.9128735,0.931764743 L46.3960421,0.931764743 L46.3960421,11.807582 L46.3960421,22.6833992 L39.1413883,22.6833992 C35.1766357,22.6833992 31.211883,22.3487587 30.3683186,21.8467979 C29.5247542,21.4284972 27.753269,19.2533338 26.4879224,17.0781703 L24.0415856,13.062484 L23.7885163,17.8311115 L23.535447,22.6833992 L18.1366349,22.6833992 L12.6534663,22.6833992 L12.6534663,11.807582 Z M50.3607916,2.43764713 C51.5417818,1.09908501 53.1445542,0.931764743 63.0142579,0.931764743 L74.2336647,0.931764743 L74.2336647,3.85986939 L74.2336647,6.70431389 L67.3164365,6.95529429 C63.3516837,7.12261456 60.3148518,7.54091522 60.3148518,8.04287602 C60.3148518,8.54483681 63.3516837,8.96313748 67.3164365,9.13045774 L74.2336647,9.38143814 L74.2336647,12.2258826 L74.2336647,15.0703272 L67.3164365,15.3213076 L60.3148518,15.572288 L60.0617825,19.0860135 L59.8087131,22.6833992 L54.3255444,22.6833992 L48.9267321,22.6833992 L48.9267321,13.3134644 C48.9267321,5.78405244 49.1798015,3.69254912 50.3607916,2.43764713 Z M75.920795,11.807582 L75.920795,0.931764743 L88.4055473,0.931764743 C102.830498,0.931764743 103.758418,1.26640527 104.348914,6.87163416 C104.686339,9.71607867 104.43327,11.0546408 103.083567,12.6441833 L101.396438,14.7356866 L104.011488,18.2494122 C105.445547,20.2572554 106.626537,21.8467979 106.710894,21.8467979 C106.79525,21.8467979 110.59129,17.1618305 115.062181,11.3892813 L123.244755,0.931764743 L132.017824,0.931764743 L140.87525,0.931764743 L140.87525,11.807582 L140.87525,22.6833992 L135.392082,22.6833992 L129.99327,22.6833992 L129.7402,16.3252291 L129.487131,9.88339894 L124.847527,16.3252291 L120.29228,22.6833992 L106.542181,22.6833992 L92.8764384,22.6833992 L90.5988146,19.7552946 C89.4178246,18.1657521 88.0681216,16.8271899 87.6463394,16.8271899 C87.2245572,16.8271899 86.8871315,18.1657521 86.8871315,19.7552946 L86.8871315,22.6833992 L81.4039632,22.6833992 L75.920795,22.6833992 L75.920795,11.807582 Z M92.3703,8.87947697 C92.3703,7.62457505 91.6954485,7.12261429 89.670894,6.95529403 C87.1402009,6.70431365 86.8871316,6.87163391 86.8871316,8.87947697 C86.8871316,10.88732 87.1402009,11.0546403 89.670894,10.8036599 C91.6954485,10.6363396 92.3703,10.1343789 92.3703,8.87947697 Z M146.864555,11.2219611 L150.323169,0.931764743 L156.143764,0.931764743 C159.349308,0.931764743 161.964358,1.01542488 161.964358,1.18274514 C161.964358,1.35006541 161.036437,4.19450992 159.855447,7.54091522 L157.830892,13.5644448 L164.74812,7.28993482 L171.665348,0.931764743 L178.245151,0.931764743 C181.788121,0.931764743 184.740597,1.09908501 184.740597,1.35006541 C184.740597,1.51738567 179.510497,6.36967336 173.183764,12.2258826 L161.542576,22.6833992 L152.516437,22.6833992 C147.45505,22.6833992 143.405941,22.4324188 143.405941,22.0977783 C143.405941,21.6794776 144.924357,16.8271899 146.864555,11.2219611 Z M182.294267,11.2219611 L185.752881,0.931764743 L191.657831,0.931764743 C196.044366,0.931764743 197.478425,1.18274514 197.140999,1.93568633 C196.972286,2.52130726 195.285158,7.45725509 193.513673,12.8115036 L190.308128,22.6833992 L184.57189,22.6833992 C181.450702,22.6833992 178.835653,22.4324188 178.835653,22.0977783 C178.835653,21.6794776 180.354069,16.8271899 182.294267,11.2219611 Z M200.009108,3.27424846 C202.286732,0.931764743 202.371088,0.931764743 213.67485,0.931764743 L225.062969,0.931764743 L224.135048,3.85986939 L223.291484,6.70431389 L216.121187,6.95529429 C211.31287,7.12261456 208.782177,7.54091522 208.529108,8.21019628 C208.276038,9.04679761 209.963167,9.29777801 215.024553,9.29777801 C218.820593,9.29777801 221.857424,9.63241854 221.857424,10.0507192 C221.857424,10.4690199 221.519999,11.807582 221.01386,12.9788238 C220.254652,15.0703272 219.917226,15.1539873 213.506137,15.1539873 C209.794454,15.1539873 206.504553,15.4886278 206.251484,15.9905886 C205.914058,16.4925494 208.191682,16.8271899 212.49386,16.8271899 C216.2899,16.8271899 219.326731,17.1618305 219.326731,17.5801311 C219.326731,17.9984318 218.989306,19.3369939 218.483167,20.5082358 L217.639603,22.6833992 L206.33584,22.6833992 C195.70693,22.6833992 194.863365,22.5997391 194.019801,20.9265364 C192.670098,18.5840527 196.803563,6.36967336 200.009108,3.27424846 Z M223.122784,10.0507189 L226.243973,0.931764743 L232.064567,0.931764743 C235.270112,0.931764743 237.885161,1.01542487 237.885161,1.18274513 C237.885161,1.35006539 236.788527,4.78013073 235.354468,8.87947711 C234.004765,12.9788235 232.823775,16.4088888 232.823775,16.5762091 C232.823775,16.7435293 234.089121,16.8271895 235.691894,16.8271895 L238.560013,16.8271895 L241.259419,8.87947711 L243.958825,0.931764743 L249.863775,0.931764743 C254.25031,0.931764743 255.68437,1.18274513 255.346944,1.9356863 C255.178231,2.52130722 253.491102,7.45725489 251.719617,12.8115032 L248.514072,22.6833986 L235.185755,22.6833986 C218.398824,22.6833986 218.73625,23.1016992 223.122784,10.0507189 Z" id="path-2"></path>
    </defs>
    <g id="Page-1" stroke="none" stroke-width="1" fill="none" fill-rule="evenodd">
        <g id="InfraVIEU" transform="translate(-592.000000, -152.000000)">
            <g id="Header">
                <g id="logo-InfraVieu" transform="translate(592.000000, 152.000000)">
                    <mask id="mask-3" fill="white">
                        <use xlink:href="#path-2"></use>
                    </mask>
                    <use id="Combined-Shape" fill="url(#linearGradient-1)" xlink:href="#path-2"></use>
                    <rect id="Rectangle" fill="#0DC9A8" mask="url(#mask-3)" x="107.920003" y="-4.5140362e-14" width="34.0800008" height="23.0399996"></rect>
                </g>
            </g>
        </g>
    </g>
</svg>