<?xml version="1.0" encoding="UTF-8"?>
<svg width="217px" height="16px" viewBox="0 0 217 16" version="1.1" xmlns="http://www.w3.org/2000/svg" xmlns:xlink="http://www.w3.org/1999/xlink">
    <!-- Generator: sketchtool 53.1 (72631) - https://sketchapp.com -->
    <title>B7A4D907-676E-4AC9-8DAE-53D1C7A2461E</title>
    <desc>Created with sketchtool.</desc>
    <defs>
        <linearGradient x1="0%" y1="49.7281743%" x2="100%" y2="50.2718257%" id="linearGradient-1">
            <stop stop-color="#6D929C" offset="0%"></stop>
            <stop stop-color="#2A354E" offset="100%"></stop>
        </linearGradient>
    </defs>
    <g id="Page-1" stroke="none" stroke-width="1" fill="none" fill-rule="evenodd">
        <g id="Homepage" transform="translate(-59.000000, -37.000000)">
            <g id="Header">
                <g id="header" transform="translate(59.000000, 20.000000)">
                    <g id="logo" transform="translate(0.000000, 17.000000)">
                        <g id="Logo">
                            <g id="Mask" fill="url(#linearGradient-1)">
                                <path d="M0,8 L0,0 L3.96207865,0 L7.9241573,0 L7.9241573,8 L7.9241573,16 L3.96207865,16 L0,16 L0,8 Z M9.75280899,8 L9.75280899,0 L15.1168539,0 C21.2733146,0 21.8828652,0.307692308 24.3820225,4.61538462 L26.2106742,7.69230769 L26.2106742,3.81538462 L26.2106742,0 L30.1727528,0 L34.1348315,0 L34.1348315,8 L34.1348315,16 L28.8926966,16 C26.027809,16 23.1629213,15.7538462 22.5533708,15.3846154 C21.9438202,15.0769231 20.663764,13.4769231 19.7494382,11.8769231 L17.9817416,8.92307692 L17.7988764,12.4307692 L17.6160112,16 L13.7148876,16 L9.75280899,16 L9.75280899,8 Z M36.3901685,1.10769234 C37.2435393,0.123076927 38.4016854,6.153846e-05 45.533427,6.153846e-05 L53.6404494,6.153846e-05 L53.6404494,2.15390776 L53.6404494,4.24621552 L48.6421348,4.43083091 C45.7772472,4.55390784 43.5828652,4.86160015 43.5828652,5.23083093 C43.5828652,5.60000018 45.7772472,5.90769249 48.6421348,6.03076942 L53.6404494,6.21538481 L53.6404494,8.30769257 L53.6404494,10.4000003 L48.6421348,10.5846157 L43.5828652,10.7692311 L43.4,13.3538466 L43.2171348,16.0000005 L39.2550562,16.0000005 L35.3539326,16.0000005 L35.3539326,9.10769259 C35.3539326,3.56923088 35.5367978,2.03076929 36.3901685,1.10769234 Z M54.8595506,8 L54.8595506,0 L63.8808989,0 C74.3042135,0 74.9747191,0.246153846 75.4014045,4.36923077 C75.6452247,6.46153846 75.4623596,7.44615385 74.4870787,8.61538462 L73.2679775,10.1538462 L75.1575843,12.7384615 C76.1938202,14.2153846 77.2300562,15.3846154 77.4129213,15.3846154 C77.6567416,15.3846154 80.5216292,11.9384615 83.7522472,7.69230769 L89.6648876,0 L96.0042135,0 L102.404494,0 L102.404494,8 L102.404494,16 L98.4424157,16 L94.5412921,16 L94.358427,11.3230769 L94.1755618,6.58461538 L90.8230337,11.3230769 L87.5314607,16 L77.2910112,16 L67.1115169,16 L65.4657303,13.8461538 C64.6123596,12.6769231 63.6370787,11.6923077 63.3323034,11.6923077 C63.0275281,11.6923077 62.7837079,12.6769231 62.7837079,13.8461538 L62.7837079,16 L58.8216292,16 L54.8595506,16 L54.8595506,8 Z M66.7457865,5.84615385 C66.7457865,4.92307693 66.2581461,4.55384616 64.7952247,4.43076924 C62.966573,4.24615385 62.7837079,4.36923077 62.7837079,5.84615385 C62.7837079,7.32307692 62.966573,7.44615384 64.7952247,7.26153846 C66.2581461,7.13846153 66.7457865,6.76923077 66.7457865,5.84615385 Z M103.623596,7.26153846 L103.623596,0 L107.585674,0 L111.486798,0 L111.669663,5.66153846 L111.852528,11.3846154 L116.911798,11.5692308 L121.910112,11.7538462 L121.910112,13.8461538 L121.910112,16 L113.498315,16 C107.768539,16 104.842697,15.7538462 104.355056,15.2615385 C103.867416,14.7692308 103.623596,12.0615385 103.623596,7.26153846 Z M123.129213,4.24615385 L123.129213,0 L127.030337,0 L130.992416,0 L131.175281,2.89230769 C131.358146,5.72307692 131.419101,5.84615385 133.186798,5.84615385 C134.954494,5.84615385 135.015449,5.72307692 135.198315,2.89230769 L135.38118,0 L139.343258,0 L143.244382,0 L143.244382,6.83076923 C143.244382,10.5846154 142.939607,14.1538462 142.634831,14.8307692 C142.025281,15.9384615 141.232865,16 132.577247,16 L123.129213,16 L123.129213,13.8461538 L123.129213,11.6923077 L128.858989,11.6923077 C132.089607,11.6923077 134.832584,11.4461538 135.015449,11.0769231 C135.25927,10.7076923 133.674438,10.4615385 130.626685,10.4615385 C123.921629,10.4615385 123.129213,9.84615385 123.129213,4.24615385 Z M145.073034,2.15384615 L145.073034,0 L154.825843,0 L164.578652,0 L164.578652,2.15384615 C164.578652,4.30769231 164.578652,4.30769231 161.835674,4.30769231 L159.092697,4.30769231 L159.092697,10.1538462 L159.092697,16 L154.825843,16 L150.558989,16 L150.558989,10.1538462 L150.558989,4.30769231 L147.816011,4.30769231 C145.073034,4.30769231 145.073034,4.30769231 145.073034,2.15384615 Z M165.797753,8 L165.797753,0 L169.759831,0 L173.72191,0 L173.72191,8 L173.72191,16 L169.759831,16 L165.797753,16 L165.797753,8 Z M175.550562,8 L175.550562,0 L179.51264,0 L183.474719,0 L183.474719,2.15384615 L183.474719,4.36923077 L185.364326,2.15384615 C187.132022,0.123076923 187.436798,0 191.155056,0 L195.05618,0 L195.05618,2.15384615 C195.05618,4 194.873315,4.30769231 193.654213,4.30769231 C191.764607,4.30769231 189.570225,5.96923077 189.570225,7.44615385 C189.570225,9.04615385 192.191292,11.6923077 193.837079,11.6923077 C194.81236,11.6923077 195.05618,12.0615385 195.05618,13.8461538 L195.05618,16 L190.850281,16 C186.888202,16 186.522472,15.8769231 185.059551,14.0923077 L183.474719,12.1846154 L183.474719,14.0923077 L183.474719,16 L179.51264,16 L175.550562,16 L175.550562,8 Z M197.921076,1.10769231 C198.774447,0.123076923 199.932593,0 207.978661,0 L217.000009,0 L217.000009,2.15384615 L217.000009,4.24615385 L211.087369,4.43076923 C207.064335,4.55384615 205.113773,4.86153846 204.930908,5.35384615 C204.748042,5.96923077 205.967144,6.15384615 209.685402,6.15384615 C216.268549,6.15384615 217.000009,6.58461538 217.000009,10.5846154 C217.000009,15.8153846 216.573324,16 205.906189,16 L196.88484,16 L196.88484,13.8461538 L196.88484,11.6923077 L202.614615,11.6923077 C205.845233,11.6923077 208.588211,11.4461538 208.771076,11.0769231 C209.014897,10.7076923 207.36911,10.4615385 204.260402,10.4615385 C200.115458,10.4615385 199.140177,10.2769231 198.103941,9.23076923 C196.519109,7.63076923 196.397199,2.76923077 197.921076,1.10769231 Z" id="Combined-Shape"></path>
                            </g>
                        </g>    
                    </g>
                </g>
            </g>
        </g>
    </g>
</svg>