<?xml version="1.0" encoding="UTF-8"?>
<svg style='max-width: 100%' viewBox="0 0 786 567" version="1.1" xmlns="http://www.w3.org/2000/svg" xmlns:xlink="http://www.w3.org/1999/xlink">
    <!-- Generator: Sketch 54.1 (76490) - https://sketchapp.com -->
    <defs>
        <radialGradient cx="50%" cy="50%" fx="50%" fy="50%" r="50%" id="radialGradient-1">
            <stop stop-color="#42E8E0" offset="0%"></stop>
            <stop stop-color="#3EBDBC" offset="12%"></stop>
            <stop stop-color="#3A959B" offset="25%"></stop>
            <stop stop-color="#37747F" offset="39%"></stop>
            <stop stop-color="#345B6A" offset="53%"></stop>
            <stop stop-color="#32495B" offset="67%"></stop>
            <stop stop-color="#313E52" offset="83%"></stop>
            <stop stop-color="#313B4F" offset="100%"></stop>
        </radialGradient>
        <linearGradient x1="0%" y1="49.9945835%" x2="100%" y2="49.9945835%" id="linearGradient-2">
            <stop stop-color="#313B4F" stop-opacity="0.5" offset="0%"></stop>
            <stop stop-color="#295861" stop-opacity="0.6" offset="8%"></stop>
            <stop stop-color="#217976" stop-opacity="0.71" offset="18%"></stop>
            <stop stop-color="#1A9487" stop-opacity="0.8" offset="28%"></stop>
            <stop stop-color="#15A994" stop-opacity="0.88" offset="39%"></stop>
            <stop stop-color="#11B89E" stop-opacity="0.93" offset="50%"></stop>
            <stop stop-color="#0FC1A3" stop-opacity="0.96" offset="62%"></stop>
            <stop stop-color="#0EC4A5" stop-opacity="0.97" offset="76%"></stop>
        </linearGradient>
        <linearGradient x1="0%" y1="50%" x2="100%" y2="50%" id="linearGradient-3">
            <stop stop-color="#313B4F" stop-opacity="0.5" offset="0%"></stop>
            <stop stop-color="#295861" stop-opacity="0.6" offset="8%"></stop>
            <stop stop-color="#217976" stop-opacity="0.71" offset="18%"></stop>
            <stop stop-color="#1A9487" stop-opacity="0.8" offset="28%"></stop>
            <stop stop-color="#15A994" stop-opacity="0.88" offset="39%"></stop>
            <stop stop-color="#11B89E" stop-opacity="0.93" offset="50%"></stop>
            <stop stop-color="#0FC1A3" stop-opacity="0.96" offset="62%"></stop>
            <stop stop-color="#0EC4A5" stop-opacity="0.97" offset="76%"></stop>
        </linearGradient>
        <linearGradient x1="0%" y1="49.9960415%" x2="100%" y2="49.9960415%" id="linearGradient-4">
            <stop stop-color="#313B4F" stop-opacity="0.5" offset="0%"></stop>
            <stop stop-color="#295861" stop-opacity="0.6" offset="8%"></stop>
            <stop stop-color="#217976" stop-opacity="0.71" offset="18%"></stop>
            <stop stop-color="#1A9487" stop-opacity="0.8" offset="28%"></stop>
            <stop stop-color="#15A994" stop-opacity="0.88" offset="39%"></stop>
            <stop stop-color="#11B89E" stop-opacity="0.93" offset="50%"></stop>
            <stop stop-color="#0FC1A3" stop-opacity="0.96" offset="62%"></stop>
            <stop stop-color="#0EC4A5" stop-opacity="0.97" offset="76%"></stop>
        </linearGradient>
        <linearGradient x1="0%" y1="49.9932714%" x2="100%" y2="49.9932714%" id="linearGradient-5">
            <stop stop-color="#313B4F" stop-opacity="0.5" offset="0%"></stop>
            <stop stop-color="#295861" stop-opacity="0.6" offset="8%"></stop>
            <stop stop-color="#217976" stop-opacity="0.71" offset="18%"></stop>
            <stop stop-color="#1A9487" stop-opacity="0.8" offset="28%"></stop>
            <stop stop-color="#15A994" stop-opacity="0.88" offset="39%"></stop>
            <stop stop-color="#11B89E" stop-opacity="0.93" offset="50%"></stop>
            <stop stop-color="#0FC1A3" stop-opacity="0.96" offset="62%"></stop>
            <stop stop-color="#0EC4A5" stop-opacity="0.97" offset="76%"></stop>
        </linearGradient>
        <linearGradient x1="0%" y1="50.0335796%" x2="100%" y2="50.0335796%" id="linearGradient-6">
            <stop stop-color="#313B4F" stop-opacity="0.5" offset="0%"></stop>
            <stop stop-color="#295861" stop-opacity="0.6" offset="8%"></stop>
            <stop stop-color="#217976" stop-opacity="0.71" offset="18%"></stop>
            <stop stop-color="#1A9487" stop-opacity="0.8" offset="28%"></stop>
            <stop stop-color="#15A994" stop-opacity="0.88" offset="39%"></stop>
            <stop stop-color="#11B89E" stop-opacity="0.93" offset="50%"></stop>
            <stop stop-color="#0FC1A3" stop-opacity="0.96" offset="62%"></stop>
            <stop stop-color="#0EC4A5" stop-opacity="0.97" offset="76%"></stop>
        </linearGradient>
        <linearGradient x1="0%" y1="50.0351865%" x2="100%" y2="50.0351865%" id="linearGradient-7">
            <stop stop-color="#313B4F" stop-opacity="0.5" offset="0%"></stop>
            <stop stop-color="#295861" stop-opacity="0.6" offset="8%"></stop>
            <stop stop-color="#217976" stop-opacity="0.71" offset="18%"></stop>
            <stop stop-color="#1A9487" stop-opacity="0.8" offset="28%"></stop>
            <stop stop-color="#15A994" stop-opacity="0.88" offset="39%"></stop>
            <stop stop-color="#11B89E" stop-opacity="0.93" offset="50%"></stop>
            <stop stop-color="#0FC1A3" stop-opacity="0.96" offset="62%"></stop>
            <stop stop-color="#0EC4A5" stop-opacity="0.97" offset="76%"></stop>
        </linearGradient>
        <linearGradient x1="0%" y1="50%" x2="100%" y2="50%" id="linearGradient-8">
            <stop stop-color="#313B4F" stop-opacity="0.5" offset="0%"></stop>
            <stop stop-color="#295861" stop-opacity="0.6" offset="8%"></stop>
            <stop stop-color="#217976" stop-opacity="0.71" offset="18%"></stop>
            <stop stop-color="#1A9487" stop-opacity="0.8" offset="28%"></stop>
            <stop stop-color="#15A994" stop-opacity="0.88" offset="39%"></stop>
            <stop stop-color="#11B89E" stop-opacity="0.93" offset="50%"></stop>
            <stop stop-color="#0FC1A3" stop-opacity="0.96" offset="62%"></stop>
            <stop stop-color="#0EC4A5" stop-opacity="0.97" offset="76%"></stop>
        </linearGradient>
        <linearGradient x1="0%" y1="49.973531%" x2="100%" y2="49.973531%" id="linearGradient-9">
            <stop stop-color="#313B4F" stop-opacity="0.5" offset="0%"></stop>
            <stop stop-color="#295861" stop-opacity="0.6" offset="8%"></stop>
            <stop stop-color="#217976" stop-opacity="0.71" offset="18%"></stop>
            <stop stop-color="#1A9487" stop-opacity="0.8" offset="28%"></stop>
            <stop stop-color="#15A994" stop-opacity="0.88" offset="39%"></stop>
            <stop stop-color="#11B89E" stop-opacity="0.93" offset="50%"></stop>
            <stop stop-color="#0FC1A3" stop-opacity="0.96" offset="62%"></stop>
            <stop stop-color="#0EC4A5" stop-opacity="0.97" offset="76%"></stop>
        </linearGradient>
        <linearGradient x1="49.7501067%" y1="12.2841139%" x2="50.2497449%" y2="87.7041338%" id="linearGradient-10">
            <stop stop-color="#313B4F" stop-opacity="0.5" offset="0%"></stop>
            <stop stop-color="#295861" stop-opacity="0.6" offset="8%"></stop>
            <stop stop-color="#217976" stop-opacity="0.71" offset="18%"></stop>
            <stop stop-color="#1A9487" stop-opacity="0.8" offset="28%"></stop>
            <stop stop-color="#15A994" stop-opacity="0.88" offset="39%"></stop>
            <stop stop-color="#11B89E" stop-opacity="0.93" offset="50%"></stop>
            <stop stop-color="#0FC1A3" stop-opacity="0.96" offset="62%"></stop>
            <stop stop-color="#0EC4A5" stop-opacity="0.97" offset="76%"></stop>
        </linearGradient>
        <linearGradient x1="0.051894136%" y1="50%" x2="100%" y2="50%" id="linearGradient-11">
            <stop stop-color="#313B4F" stop-opacity="0.5" offset="0%"></stop>
            <stop stop-color="#295861" stop-opacity="0.6" offset="8%"></stop>
            <stop stop-color="#217976" stop-opacity="0.71" offset="18%"></stop>
            <stop stop-color="#1A9487" stop-opacity="0.8" offset="28%"></stop>
            <stop stop-color="#15A994" stop-opacity="0.88" offset="39%"></stop>
            <stop stop-color="#11B89E" stop-opacity="0.93" offset="50%"></stop>
            <stop stop-color="#0FC1A3" stop-opacity="0.96" offset="62%"></stop>
            <stop stop-color="#0EC4A5" stop-opacity="0.97" offset="76%"></stop>
        </linearGradient>
        <linearGradient x1="0%" y1="50.1362699%" x2="100%" y2="50.1362699%" id="linearGradient-12">
            <stop stop-color="#313B4F" stop-opacity="0.5" offset="0%"></stop>
            <stop stop-color="#295861" stop-opacity="0.6" offset="8%"></stop>
            <stop stop-color="#217976" stop-opacity="0.71" offset="18%"></stop>
            <stop stop-color="#1A9487" stop-opacity="0.8" offset="28%"></stop>
            <stop stop-color="#15A994" stop-opacity="0.88" offset="39%"></stop>
            <stop stop-color="#11B89E" stop-opacity="0.93" offset="50%"></stop>
            <stop stop-color="#0FC1A3" stop-opacity="0.96" offset="62%"></stop>
            <stop stop-color="#0EC4A5" stop-opacity="0.97" offset="76%"></stop>
        </linearGradient>
        <linearGradient x1="8.95171951e-13%" y1="49.9624864%" x2="100%" y2="49.9624864%" id="linearGradient-13">
            <stop stop-color="#313B4F" stop-opacity="0.5" offset="0%"></stop>
            <stop stop-color="#295861" stop-opacity="0.6" offset="8%"></stop>
            <stop stop-color="#217976" stop-opacity="0.71" offset="18%"></stop>
            <stop stop-color="#1A9487" stop-opacity="0.8" offset="28%"></stop>
            <stop stop-color="#15A994" stop-opacity="0.88" offset="39%"></stop>
            <stop stop-color="#11B89E" stop-opacity="0.93" offset="50%"></stop>
            <stop stop-color="#0FC1A3" stop-opacity="0.96" offset="62%"></stop>
            <stop stop-color="#0EC4A5" stop-opacity="0.97" offset="76%"></stop>
        </linearGradient>
        <linearGradient x1="0.157294534%" y1="50.1362699%" x2="100.039324%" y2="50.1362699%" id="linearGradient-14">
            <stop stop-color="#313B4F" stop-opacity="0.5" offset="0%"></stop>
            <stop stop-color="#295861" stop-opacity="0.6" offset="8%"></stop>
            <stop stop-color="#217976" stop-opacity="0.71" offset="18%"></stop>
            <stop stop-color="#1A9487" stop-opacity="0.8" offset="28%"></stop>
            <stop stop-color="#15A994" stop-opacity="0.88" offset="39%"></stop>
            <stop stop-color="#11B89E" stop-opacity="0.93" offset="50%"></stop>
            <stop stop-color="#0FC1A3" stop-opacity="0.96" offset="62%"></stop>
            <stop stop-color="#0EC4A5" stop-opacity="0.97" offset="76%"></stop>
        </linearGradient>
        <linearGradient x1="-0.111647479%" y1="50.1362699%" x2="100.111647%" y2="50.1362699%" id="linearGradient-15">
            <stop stop-color="#313B4F" stop-opacity="0.5" offset="0%"></stop>
            <stop stop-color="#295861" stop-opacity="0.6" offset="8%"></stop>
            <stop stop-color="#217976" stop-opacity="0.71" offset="18%"></stop>
            <stop stop-color="#1A9487" stop-opacity="0.8" offset="28%"></stop>
            <stop stop-color="#15A994" stop-opacity="0.88" offset="39%"></stop>
            <stop stop-color="#11B89E" stop-opacity="0.93" offset="50%"></stop>
            <stop stop-color="#0FC1A3" stop-opacity="0.96" offset="62%"></stop>
            <stop stop-color="#0EC4A5" stop-opacity="0.97" offset="76%"></stop>
        </linearGradient>
        <linearGradient x1="0%" y1="49.6894067%" x2="99.5297806%" y2="49.6894067%" id="linearGradient-16">
            <stop stop-color="#313B4F" stop-opacity="0.5" offset="0%"></stop>
            <stop stop-color="#295861" stop-opacity="0.6" offset="8%"></stop>
            <stop stop-color="#217976" stop-opacity="0.71" offset="18%"></stop>
            <stop stop-color="#1A9487" stop-opacity="0.8" offset="28%"></stop>
            <stop stop-color="#15A994" stop-opacity="0.88" offset="39%"></stop>
            <stop stop-color="#11B89E" stop-opacity="0.93" offset="50%"></stop>
            <stop stop-color="#0FC1A3" stop-opacity="0.96" offset="62%"></stop>
            <stop stop-color="#0EC4A5" stop-opacity="0.97" offset="76%"></stop>
        </linearGradient>
        <linearGradient x1="-1.78752889e-12%" y1="49.8633773%" x2="100%" y2="49.8633773%" id="linearGradient-17">
            <stop stop-color="#313B4F" stop-opacity="0.5" offset="0%"></stop>
            <stop stop-color="#295861" stop-opacity="0.6" offset="8%"></stop>
            <stop stop-color="#217976" stop-opacity="0.71" offset="18%"></stop>
            <stop stop-color="#1A9487" stop-opacity="0.8" offset="28%"></stop>
            <stop stop-color="#15A994" stop-opacity="0.88" offset="39%"></stop>
            <stop stop-color="#11B89E" stop-opacity="0.93" offset="50%"></stop>
            <stop stop-color="#0FC1A3" stop-opacity="0.96" offset="62%"></stop>
            <stop stop-color="#0EC4A5" stop-opacity="0.97" offset="76%"></stop>
        </linearGradient>
        <linearGradient x1="49.398815%" y1="12.0114299%" x2="50.6001795%" y2="88.0210766%" id="linearGradient-18">
            <stop stop-color="#313B4F" stop-opacity="0.5" offset="0%"></stop>
            <stop stop-color="#295861" stop-opacity="0.6" offset="8%"></stop>
            <stop stop-color="#217976" stop-opacity="0.71" offset="18%"></stop>
            <stop stop-color="#1A9487" stop-opacity="0.8" offset="28%"></stop>
            <stop stop-color="#15A994" stop-opacity="0.88" offset="39%"></stop>
            <stop stop-color="#11B89E" stop-opacity="0.93" offset="50%"></stop>
            <stop stop-color="#0FC1A3" stop-opacity="0.96" offset="62%"></stop>
            <stop stop-color="#0EC4A5" stop-opacity="0.97" offset="76%"></stop>
        </linearGradient>
        <linearGradient x1="0%" y1="50%" x2="100%" y2="50%" id="linearGradient-19">
            <stop stop-color="#313B4F" stop-opacity="0.5" offset="0%"></stop>
            <stop stop-color="#295861" stop-opacity="0.6" offset="8%"></stop>
            <stop stop-color="#217976" stop-opacity="0.71" offset="18%"></stop>
            <stop stop-color="#1A9487" stop-opacity="0.8" offset="28%"></stop>
            <stop stop-color="#15A994" stop-opacity="0.88" offset="39%"></stop>
            <stop stop-color="#11B89E" stop-opacity="0.93" offset="50%"></stop>
            <stop stop-color="#0FC1A3" stop-opacity="0.96" offset="62%"></stop>
            <stop stop-color="#0EC4A5" stop-opacity="0.97" offset="76%"></stop>
        </linearGradient>
        <linearGradient x1="0%" y1="50.0026697%" x2="100%" y2="50.0026697%" id="linearGradient-20">
            <stop stop-color="#313B4F" stop-opacity="0.5" offset="0%"></stop>
            <stop stop-color="#295861" stop-opacity="0.6" offset="8%"></stop>
            <stop stop-color="#217976" stop-opacity="0.71" offset="18%"></stop>
            <stop stop-color="#1A9487" stop-opacity="0.8" offset="28%"></stop>
            <stop stop-color="#15A994" stop-opacity="0.88" offset="39%"></stop>
            <stop stop-color="#11B89E" stop-opacity="0.93" offset="50%"></stop>
            <stop stop-color="#0FC1A3" stop-opacity="0.96" offset="62%"></stop>
            <stop stop-color="#0EC4A5" stop-opacity="0.97" offset="76%"></stop>
        </linearGradient>
        <linearGradient x1="0%" y1="50%" x2="99.9452055%" y2="50%" id="linearGradient-21">
            <stop stop-color="#313B4F" stop-opacity="0.5" offset="0%"></stop>
            <stop stop-color="#295861" stop-opacity="0.6" offset="8%"></stop>
            <stop stop-color="#217976" stop-opacity="0.71" offset="18%"></stop>
            <stop stop-color="#1A9487" stop-opacity="0.8" offset="28%"></stop>
            <stop stop-color="#15A994" stop-opacity="0.88" offset="39%"></stop>
            <stop stop-color="#11B89E" stop-opacity="0.93" offset="50%"></stop>
            <stop stop-color="#0FC1A3" stop-opacity="0.96" offset="62%"></stop>
            <stop stop-color="#0EC4A5" stop-opacity="0.97" offset="76%"></stop>
        </linearGradient>
        <linearGradient x1="0%" y1="50%" x2="100%" y2="50%" id="linearGradient-22">
            <stop stop-color="#313B4F" stop-opacity="0.5" offset="0%"></stop>
            <stop stop-color="#295861" stop-opacity="0.6" offset="8%"></stop>
            <stop stop-color="#217976" stop-opacity="0.71" offset="18%"></stop>
            <stop stop-color="#1A9487" stop-opacity="0.8" offset="28%"></stop>
            <stop stop-color="#15A994" stop-opacity="0.88" offset="39%"></stop>
            <stop stop-color="#11B89E" stop-opacity="0.93" offset="50%"></stop>
            <stop stop-color="#0FC1A3" stop-opacity="0.96" offset="62%"></stop>
            <stop stop-color="#0EC4A5" stop-opacity="0.97" offset="76%"></stop>
        </linearGradient>
        <linearGradient x1="0%" y1="50%" x2="100%" y2="50%" id="linearGradient-23">
            <stop stop-color="#313B4F" stop-opacity="0.5" offset="0%"></stop>
            <stop stop-color="#295861" stop-opacity="0.6" offset="8%"></stop>
            <stop stop-color="#217976" stop-opacity="0.71" offset="18%"></stop>
            <stop stop-color="#1A9487" stop-opacity="0.8" offset="28%"></stop>
            <stop stop-color="#15A994" stop-opacity="0.88" offset="39%"></stop>
            <stop stop-color="#11B89E" stop-opacity="0.93" offset="50%"></stop>
            <stop stop-color="#0FC1A3" stop-opacity="0.96" offset="62%"></stop>
            <stop stop-color="#0EC4A5" stop-opacity="0.97" offset="76%"></stop>
        </linearGradient>
        <linearGradient x1="0%" y1="50.0059011%" x2="100%" y2="50.0059011%" id="linearGradient-24">
            <stop stop-color="#313B4F" stop-opacity="0.5" offset="0%"></stop>
            <stop stop-color="#295861" stop-opacity="0.6" offset="8%"></stop>
            <stop stop-color="#217976" stop-opacity="0.71" offset="18%"></stop>
            <stop stop-color="#1A9487" stop-opacity="0.8" offset="28%"></stop>
            <stop stop-color="#15A994" stop-opacity="0.88" offset="39%"></stop>
            <stop stop-color="#11B89E" stop-opacity="0.93" offset="50%"></stop>
            <stop stop-color="#0FC1A3" stop-opacity="0.96" offset="62%"></stop>
            <stop stop-color="#0EC4A5" stop-opacity="0.97" offset="76%"></stop>
        </linearGradient>
        <linearGradient x1="0%" y1="50%" x2="100%" y2="50%" id="linearGradient-25">
            <stop stop-color="#F1F2F4" offset="0%"></stop>
            <stop stop-color="#EFF8F6" offset="100%"></stop>
        </linearGradient>
        <linearGradient x1="0.00600456347%" y1="50.0052002%" x2="100%" y2="50.0052002%" id="linearGradient-26">
            <stop stop-color="#42E8E0" offset="0%"></stop>
            <stop stop-color="#43E3E0" offset="15%"></stop>
            <stop stop-color="#45D5DF" offset="33%"></stop>
            <stop stop-color="#49BDDD" offset="52%"></stop>
            <stop stop-color="#4E9CDB" offset="72%"></stop>
            <stop stop-color="#5472D8" offset="93%"></stop>
            <stop stop-color="#5761D7" offset="100%"></stop>
        </linearGradient>
        <linearGradient x1="0%" y1="50%" x2="100%" y2="50%" id="linearGradient-27">
            <stop stop-color="#42E8E0" offset="0%"></stop>
            <stop stop-color="#43E3E0" offset="15%"></stop>
            <stop stop-color="#45D5DF" offset="33%"></stop>
            <stop stop-color="#49BDDD" offset="52%"></stop>
            <stop stop-color="#4E9CDB" offset="72%"></stop>
            <stop stop-color="#5472D8" offset="93%"></stop>
            <stop stop-color="#5761D7" offset="100%"></stop>
        </linearGradient>
        <linearGradient x1="0.0120091269%" y1="50%" x2="100%" y2="50%" id="linearGradient-28">
            <stop stop-color="#42E8E0" offset="0%"></stop>
            <stop stop-color="#43E3E0" offset="15%"></stop>
            <stop stop-color="#45D5DF" offset="33%"></stop>
            <stop stop-color="#49BDDD" offset="52%"></stop>
            <stop stop-color="#4E9CDB" offset="72%"></stop>
            <stop stop-color="#5472D8" offset="93%"></stop>
            <stop stop-color="#5761D7" offset="100%"></stop>
        </linearGradient>
        <linearGradient x1="43.1369607%" y1="40.5082518%" x2="66.4027675%" y2="66.5805299%" id="linearGradient-29">
            <stop stop-color="#BCBEFF" offset="0%"></stop>
            <stop stop-color="#B6B8FC" offset="17%"></stop>
            <stop stop-color="#A4A8F5" offset="40%"></stop>
            <stop stop-color="#868DEA" offset="66%"></stop>
            <stop stop-color="#5E67DA" offset="96%"></stop>
            <stop stop-color="#5761D7" offset="100%"></stop>
        </linearGradient>
        <linearGradient x1="-2.90610612%" y1="543.76415%" x2="48.3115073%" y2="543.76415%" id="linearGradient-30">
            <stop stop-color="#BCBEFF" offset="0%"></stop>
            <stop stop-color="#B6B8FC" offset="17%"></stop>
            <stop stop-color="#A4A8F5" offset="40%"></stop>
            <stop stop-color="#868DEA" offset="66%"></stop>
            <stop stop-color="#5E67DA" offset="96%"></stop>
            <stop stop-color="#5761D7" offset="100%"></stop>
        </linearGradient>
        <linearGradient x1="-0.0108981839%" y1="49.9279238%" x2="99.9965412%" y2="49.9279238%" id="linearGradient-31">
            <stop stop-color="#F1F2F4" offset="0%"></stop>
            <stop stop-color="#EFF8F6" offset="100%"></stop>
        </linearGradient>
        <linearGradient x1="-2.89854894%" y1="512.986321%" x2="43.6335136%" y2="512.986321%" id="linearGradient-32">
            <stop stop-color="#BCBEFF" offset="0%"></stop>
            <stop stop-color="#B6B8FC" offset="17%"></stop>
            <stop stop-color="#A4A8F5" offset="40%"></stop>
            <stop stop-color="#868DEA" offset="66%"></stop>
            <stop stop-color="#5E67DA" offset="96%"></stop>
            <stop stop-color="#5761D7" offset="100%"></stop>
        </linearGradient>
        <linearGradient x1="-15.2689783%" y1="580.813195%" x2="35.9486351%" y2="580.813195%" id="linearGradient-33">
            <stop stop-color="#BCBEFF" offset="0%"></stop>
            <stop stop-color="#B6B8FC" offset="17%"></stop>
            <stop stop-color="#A4A8F5" offset="40%"></stop>
            <stop stop-color="#868DEA" offset="66%"></stop>
            <stop stop-color="#5E67DA" offset="96%"></stop>
            <stop stop-color="#5761D7" offset="100%"></stop>
        </linearGradient>
        <linearGradient x1="-15.2562018%" y1="546.128815%" x2="31.2693907%" y2="546.128815%" id="linearGradient-34">
            <stop stop-color="#BCBEFF" offset="0%"></stop>
            <stop stop-color="#B6B8FC" offset="17%"></stop>
            <stop stop-color="#A4A8F5" offset="40%"></stop>
            <stop stop-color="#868DEA" offset="66%"></stop>
            <stop stop-color="#5E67DA" offset="96%"></stop>
            <stop stop-color="#5761D7" offset="100%"></stop>
        </linearGradient>
        <linearGradient x1="-27.6318505%" y1="617.928637%" x2="23.5922322%" y2="617.928637%" id="linearGradient-35">
            <stop stop-color="#BCBEFF" offset="0%"></stop>
            <stop stop-color="#B6B8FC" offset="17%"></stop>
            <stop stop-color="#A4A8F5" offset="40%"></stop>
            <stop stop-color="#868DEA" offset="66%"></stop>
            <stop stop-color="#5E67DA" offset="96%"></stop>
            <stop stop-color="#5761D7" offset="100%"></stop>
        </linearGradient>
        <linearGradient x1="-0.0107145959%" y1="49.7960719%" x2="99.9965412%" y2="49.7960719%" id="linearGradient-36">
            <stop stop-color="#F1F2F4" offset="0%"></stop>
            <stop stop-color="#EFF8F6" offset="100%"></stop>
        </linearGradient>
        <linearGradient x1="-27.6203246%" y1="579.201258%" x2="18.9052679%" y2="579.201258%" id="linearGradient-37">
            <stop stop-color="#BCBEFF" offset="0%"></stop>
            <stop stop-color="#B6B8FC" offset="17%"></stop>
            <stop stop-color="#A4A8F5" offset="40%"></stop>
            <stop stop-color="#868DEA" offset="66%"></stop>
            <stop stop-color="#5E67DA" offset="96%"></stop>
            <stop stop-color="#5761D7" offset="100%"></stop>
        </linearGradient>
        <linearGradient x1="-39.9882534%" y1="654.945871%" x2="11.22936%" y2="654.945871%" id="linearGradient-38">
            <stop stop-color="#BCBEFF" offset="0%"></stop>
            <stop stop-color="#B6B8FC" offset="17%"></stop>
            <stop stop-color="#A4A8F5" offset="40%"></stop>
            <stop stop-color="#868DEA" offset="66%"></stop>
            <stop stop-color="#5E67DA" offset="96%"></stop>
            <stop stop-color="#5761D7" offset="100%"></stop>
        </linearGradient>
        <linearGradient x1="-0.0107145959%" y1="49.9059485%" x2="99.9965412%" y2="49.9059485%" id="linearGradient-39">
            <stop stop-color="#F1F2F4" offset="0%"></stop>
            <stop stop-color="#EFF8F6" offset="100%"></stop>
        </linearGradient>
    </defs>
    <g id="Page-1" stroke="none" stroke-width="1" fill="none" fill-rule="evenodd">
        <g id="When-to-Utilize-InfraLytiks" transform="translate(-654.000000, -1251.000000)">
            <g id="Content" transform="translate(-13.000000, 569.000000)">
                <g id="Industry-Expertise" transform="translate(0.000000, 531.000000)">
                    <g id="img_when-to-utilize" transform="translate(667.000000, 151.000000)">
                        <path d="M395.525951,353 L395.396197,352.922849 L316,307.493571 L316.389261,307.274975 L395.538926,262 L395.66868,262.077151 L475,307.557864 L474.610739,307.776459 L395.525951,353 Z M317.038028,307.493571 L395.525951,352.408506 L474.013873,307.506429 L395.525951,262.591494 L317.038028,307.493571 Z" id="Shape" fill="#42E8E0" fill-rule="nonzero"></path>
                        <circle id="Oval" fill="url(#radialGradient-1)" fill-rule="nonzero" opacity="0.5" cx="299" cy="225" r="156"></circle>
                        <path d="M73.8215209,493.273687 C72.0462714,494.242104 69.9537286,494.242104 68.1784791,493.273687 C67.4748012,493.019647 67,492.305041 67,491.5 C67,490.694959 67.4748012,489.980353 68.1784791,489.726313 C69.9537286,488.757896 72.0462714,488.757896 73.8215209,489.726313 C74.5251988,489.980353 75,490.694959 75,491.5 C75,492.305041 74.5251988,493.019647 73.8215209,493.273687 Z" id="Path" fill="#0DC9A8" fill-rule="nonzero"></path>
                        <path d="M6.82336938,393.271255 C5.04748528,394.242915 2.95251472,394.242915 1.17663062,393.271255 C0.474056444,393.017563 0,392.303937 0,391.5 C0,390.696063 0.474056444,389.982437 1.17663062,389.728745 C2.95251472,388.757085 5.04748528,388.757085 6.82336938,389.728745 C7.52594356,389.982437 8,390.696063 8,391.5 C8,392.303937 7.52594356,393.017563 6.82336938,393.271255 L6.82336938,393.271255 Z" id="Path"  fill="#0DC9A8" fill-rule="nonzero"></path>
                        <path d="M397.49354,352 L288,288.493512 L397.49354,225 L507,288.506488 L397.49354,352 Z M289.834582,288.493512 L397.49354,350.935935 L505.126659,288.545417 L397.49354,226.128947 L289.834582,288.493512 Z" id="Shape"  fill="#0DC9A8" fill-rule="nonzero"></path>
                        <polygon id="Path" class='ai-line' fill="#0DC9A8" fill-rule="nonzero" points="355.547341 250 279.82388 206.099184 279.82388 134.507085 63 8.79229283 63.4526595 8 280.742132 133.97456 280.742132 205.56666 356 249.207707"></polygon>
                        <polygon id="Path" fill="url(#linearGradient-2)" fill-rule="nonzero" opacity="0.5" style="mix-blend-mode: lighten;" points="259.08457 122 259.08457 56.4036399 167 2.79298018 167.464162 2 260 55.8576536 260 122"></polygon>
                        <polyline id="Path" fill="#202935" fill-rule="nonzero" opacity="0.5" points="141.349212 215 269.380843 215 269.484313 215.064217 343 257.216547 342.534383 258 269.135101 215.924731 141.10347 215.911888 141 215.860514"></polyline>
                        <polygon id="Path" fill="url(#linearGradient-3)" fill-rule="nonzero" opacity="0.5" style="mix-blend-mode: lighten;" points="450.453621 258 450 257.210085 598.437608 171.575564 686.828814 171.575564 742.066838 139.707038 742.066838 88 743 88 743 140.237965 687.075065 172.494973 598.683859 172.494973"></polygon>
                        <polygon id="Path" fill="#202935" fill-rule="nonzero" opacity="0.5" points="433.453942 248 433 247.19854 583.202771 160.770132 583.202771 109.269865 637.533089 78 638 78.80146 584.123624 109.799863 584.136594 161.300129"></polygon>
                        <polygon id="Path" fill="#202935" fill-rule="nonzero" opacity="0.5" points="414.922831 236 414.467294 235.198088 503.075909 184.354281 503.075909 141.193308 349 52.801912 349.468553 52 504 140.663011 504 184.884578"></polygon>
                        <polygon id="Path" fill="#202935" fill-rule="nonzero" opacity="0.5" points="892.039716 433 756.18917 433 756.085812 432.935217 658.387112 376.366398 577.49693 376.366398 577.393572 376.301614 466 311.803314 466.452189 311 577.742404 375.433517 658.632586 375.446474 658.735944 375.498301 756.447564 432.06712 891.794242 432.06712 951.534891 397.485769 952 398.289082"></polygon>
                        <polygon id="Path" class='ai-line' fill="#0DC9A8" fill-rule="nonzero" points="725.53325 394 677.069009 365.99827 583.913425 365.99827 583.796738 365.933391 478 304.804498 478.453785 304 584.159766 365.07699 677.315349 365.07699 677.419072 365.141869 726 393.208478"></polygon>
                        <polygon id="Path" class='ai-line' fill="#0DC9A8" fill-rule="nonzero" points="526.452079 333 526 332.203972 603.499236 287 659.092021 287 659.195353 287.065248 695 307.944681 694.535005 308.740709 658.846607 287.926525 603.74465 287.926525"></polygon>
                        <polygon id="Path" fill="#202935" fill-rule="nonzero" opacity="0.5" points="736.534528 444 693.01293 418.898021 693 397 693.930943 397 693.930943 418.355415 737 443.21193"></polygon>
                        <polygon id="Path" fill="#202935" fill-rule="nonzero" opacity="0.5" points="465 120 429.846002 120 429.742722 119.935585 367 83.7858635 367.464761 83 430.091292 119.085306 465 119.085306"></polygon>
                        <polygon id="Path" fill="#202935" fill-rule="nonzero" opacity="0.5" points="432 227 432 203.54875 475.091596 178.207321 475.078802 154 476 154 476 178.741786 432.908404 204.083214 432.908404 227"></polygon>
                        <polygon id="Path" fill="url(#linearGradient-4)" fill-rule="nonzero" opacity="0.5" style="mix-blend-mode: lighten;" points="187.453878 485 187 484.20798 262.629068 440.478109 262.629068 368.92368 345.546122 321 346 321.79202 263.549792 369.456021 263.549792 441.01045"></polygon>
                        <polygon id="Path" fill="#202935" fill-rule="nonzero" opacity="0.5" points="238.466531 515 238 514.199078 267.702474 497.108442 267.702474 465.730396 296.964335 448.885204 296.964335 365.434327 358.533469 330 359 330.800922 297.884438 365.963969 297.884438 449.414845 268.622577 466.260038 268.622577 497.638084"></polygon>
                        <polygon id="Path" fill="url(#linearGradient-5)" fill-rule="nonzero" opacity="0.5" style="mix-blend-mode: lighten;" points="4.46665503 392 4 391.199031 27.9808834 377.401696 78.6907297 377.401696 170.103265 324.809043 250.471631 324.809043 300.546308 296 301 296.78805 250.717921 325.726282 170.349555 325.726282 78.9370199 378.318934 28.2401362 378.318934"></polygon>
                        <polygon id="Path" fill="url(#linearGradient-6)" fill-rule="nonzero" opacity="0.5" style="mix-blend-mode: lighten;" points="56.450519 355 56 354.221625 87.8066436 336 149 336 149 336.918737 88.0512111 336.918737"></polygon>
                        <polygon id="Path" class='ai-line' fill="#0DC9A8" fill-rule="nonzero" points="71.4662265 492 71 491.198219 188.243017 423.615858 188.243017 388.156455 325.533773 309 326 309.788849 189.162519 388.686665 189.162519 424.146067"></polygon>
                        <polygon id="Path" class='ai-line' fill="#0DC9A8" fill-rule="nonzero" points="326.534307 266 273.704065 235.584743 125.316281 235.584743 125.212794 235.52025 18 173.799723 18.4656926 173 125.574999 234.668932 273.949847 234.668932 274.053334 234.720527 327 265.213176"></polygon>
                        <polygon id="Path" fill="url(#linearGradient-7)" fill-rule="nonzero" opacity="0.5" style="mix-blend-mode: lighten;" points="208.375777 253 126 253 126 252.100633 208.128598 252.100633 238.54467 235 239 235.785362"></polygon>
                        <polygon id="Path" fill="url(#linearGradient-8)" fill-rule="nonzero" opacity="0.5" style="mix-blend-mode: lighten;" points="427 567 427 516.831646 545.082528 448.770901 545.082528 395.067929 433.564448 330.786904 434.029645 330 546 394.539027 546 449.299804 427.917472 517.360549 427.917472 567"></polygon>
                        <polygon id="Path" fill="url(#linearGradient-9)" fill-rule="nonzero" opacity="0.5" style="mix-blend-mode: lighten;" points="403.464146 504 403 503.17946 443.806171 479 492 479 492 479.939651 444.051137 479.939651"></polygon>
                        <polygon id="Rectangle" fill="url(#linearGradient-10)" fill-rule="nonzero" opacity="0.5" style="mix-blend-mode: lighten;" transform="translate(459.002564, 362.945399) rotate(-60.000000) translate(-459.002564, -362.945399) " points="459.006738 315.505206 459.006744 315.505206 458.99839 410.385591 458.998384 410.385591"></polygon>
                        <polygon id="Path" class='ai-line' fill="#0DC9A8" fill-rule="nonzero" points="329.013029 507 329 367.267949 376.530945 340 377 340.80276 329.938111 367.811754 329.938111 507"></polygon>
                        <polygon id="Path" fill="url(#linearGradient-11)" fill-rule="nonzero" opacity="0.5" style="mix-blend-mode: lighten;" points="353.078879 486 353.078879 438.45986 329 424.791272 329.467047 424 354 437.936599 354 486"></polygon>
                        <polygon id="Path" fill="#202935" fill-rule="nonzero" opacity="0.5" points="24.4666578 311 24 310.201349 98.0041427 267.034914 211.9853 267.034914 249.784578 245 268.412001 245 268.515702 245.065463 315 272.167229 314.533342 272.978972 268.165709 245.929577 250.03087 245.929577 212.231592 267.977584 98.263397 267.977584"></polygon>
                        <polygon id="Path" class='ai-line' fill="#0DC9A8" fill-rule="nonzero" points="527 403 497.119934 403 497.016543 402.93505 402 347.805382 402.452337 347 497.365488 402.077708 527 402.077708"></polygon>
                        <polygon id="Path" fill="#202935" fill-rule="nonzero" opacity="0.5" points="446.532083 426 368 380.754033 368 361.477798 391.395854 348 391.863771 348.804257 368.922836 362.022618 368.922836 380.222185 447 425.208714"></polygon>
                        <polygon id="Path" fill="#202935" fill-rule="nonzero" opacity="0.5" points="451.548478 412 416.974803 392.889438 388 392.889438 388 392 417.219915 392 417.32312 392.061767 452 411.234095"></polygon>
                        <polygon id="Path" fill="#202935" fill-rule="nonzero" opacity="0.5" points="452.543936 456 416.032743 435.101692 416.032743 418.530289 375 395.048754 375 385 375.925159 385 375.925159 394.519192 416.957902 418.000728 416.957902 434.57213 453 455.1992"></polygon>
                        <path d="M454.821521,413.273687 C453.046271,414.242104 450.953729,414.242104 449.178479,413.273687 C448.474801,413.019647 448,412.305041 448,411.5 C448,410.694959 448.474801,409.980353 449.178479,409.726313 C450.953729,408.757896 453.046271,408.757896 454.821521,409.726313 C455.525199,409.980353 456,410.694959 456,411.5 C456,412.305041 455.525199,413.019647 454.821521,413.273687 Z" id="Path" fill="#202935" fill-rule="nonzero" opacity="0.5"></path>
                        <path d="M366.828346,420.264696 C365.051711,421.245101 362.948289,421.245101 361.171654,420.264696 C359.609449,419.297179 359.609449,417.716448 361.171654,416.735304 C362.948289,415.754899 365.051711,415.754899 366.828346,416.735304 C368.390551,417.716448 368.390551,419.297179 366.828346,420.264696 Z" id="Path" fill="url(#linearGradient-12)" fill-rule="nonzero" opacity="0.5" style="mix-blend-mode: lighten;"></path>
                        <path d="M191.828346,294.273142 C190.048802,295.242286 187.951198,295.242286 186.171654,294.273142 C184.609449,293.290055 184.609449,291.706193 186.171654,290.73676 C187.948289,289.754413 190.051711,289.754413 191.828346,290.73676 C193.390551,291.706193 193.390551,293.290055 191.828346,294.273142 Z" id="Path" fill="url(#linearGradient-13)" fill-rule="nonzero" opacity="0.5" style="mix-blend-mode: lighten;"></path>
                        <path d="M227.821521,276.273687 C226.046271,277.242104 223.953729,277.242104 222.178479,276.273687 C221.474801,276.019647 221,275.305041 221,274.5 C221,273.694959 221.474801,272.980353 222.178479,272.726313 C223.953729,271.757896 226.046271,271.757896 227.821521,272.726313 C228.525199,272.980353 229,273.694959 229,274.5 C229,275.305041 228.525199,276.019647 227.821521,276.273687 Z" id="Path" fill="#202935" fill-rule="nonzero" opacity="0.5"></path>
                        <path d="M240.821521,305.273687 C239.046271,306.242104 236.953729,306.242104 235.178479,305.273687 C234.474801,305.019647 234,304.305041 234,303.5 C234,302.694959 234.474801,301.980353 235.178479,301.726313 C236.953729,300.757896 239.046271,300.757896 240.821521,301.726313 C241.525199,301.980353 242,302.694959 242,303.5 C242,304.305041 241.525199,305.019647 240.821521,305.273687 L240.821521,305.273687 Z" id="Path" fill="#202935" fill-rule="nonzero" opacity="0.5"></path>
                        <path d="M651.820291,566.264696 C650.045751,567.245101 647.944811,567.245101 646.170271,566.264696 C644.60991,565.297179 644.60991,563.716448 646.170271,562.735304 C647.944811,561.754899 650.045751,561.754899 651.820291,562.735304 C653.393236,563.716448 653.393236,565.297179 651.820291,566.264696 Z" id="Path" fill="url(#linearGradient-14)" fill-rule="nonzero" opacity="0.5" style="mix-blend-mode: lighten;"></path>
                        <path d="M609.834662,470.264696 C608.054059,471.245101 605.945941,471.245101 604.165338,470.264696 C603.46794,470.004856 603,469.296245 603,468.5 C603,467.703755 603.46794,466.995144 604.165338,466.735304 C605.945941,465.754899 608.054059,465.754899 609.834662,466.735304 C610.53206,466.995144 611,467.703755 611,468.5 C611,469.296245 610.53206,470.004856 609.834662,470.264696 L609.834662,470.264696 Z" id="Path" fill="url(#linearGradient-15)" fill-rule="nonzero" opacity="0.5" style="mix-blend-mode: lighten;"></path>
                        <path d="M168.821521,4.27368711 C167.046271,5.2421043 164.953729,5.2421043 163.178479,4.27368711 C162.474801,4.0196472 162,3.30504077 162,2.5 C162,1.69495923 162.474801,0.980352804 163.178479,0.726312889 C164.953729,-0.242104296 167.046271,-0.242104296 168.821521,0.726312889 C169.525199,0.980352804 170,1.69495923 170,2.5 C170,3.30504077 169.525199,4.0196472 168.821521,4.27368711 L168.821521,4.27368711 Z" id="Path"  fill="#0DC9A8" fill-rule="nonzero"></path>
                        <path d="M453.828346,456.273142 C452.048802,457.242286 449.951198,457.242286 448.171654,456.273142 C446.609449,455.290055 446.609449,453.706193 448.171654,452.73676 C449.948289,451.754413 452.051711,451.754413 453.828346,452.73676 C455.390551,453.733501 455.390551,455.290055 453.828346,456.273142 Z" id="Path" fill="#202935" fill-rule="nonzero" opacity="0.5"></path>
                        <path d="M356.796238,487.273142 C355.025062,488.242286 352.93732,488.242286 351.166144,487.273142 C349.611285,486.290055 349.611285,484.706193 351.166144,483.73676 C352.934426,482.754413 355.027957,482.754413 356.796238,483.73676 C358.401254,484.692539 358.401254,486.276401 356.796238,487.273142 Z" id="Path" fill="url(#linearGradient-16)" fill-rule="nonzero" opacity="0.5" style="mix-blend-mode: lighten;"></path>
                        <path d="M27.8283465,312.264696 C26.0517109,313.245101 23.9482891,313.245101 22.1716535,312.264696 C20.6094488,311.297179 20.6094488,309.716448 22.1716535,308.735304 C23.9482891,307.754899 26.0517109,307.754899 27.8283465,308.735304 C29.3905512,309.716448 29.3905512,311.297179 27.8283465,312.264696 Z" id="Path" fill="#202935" fill-rule="nonzero" opacity="0.5"></path>
                        <path d="M529.836421,404.26324 C528.057685,405.245587 525.951775,405.245587 524.173039,404.26324 C522.608987,403.293807 522.608987,401.709945 524.173039,400.726858 C525.954687,399.757714 528.054773,399.757714 529.836421,400.726858 C531.38786,401.709945 531.38786,403.293807 529.836421,404.26324 Z" id="Path" fill="#0DC9A8" fill-rule="nonzero"></path>
                        <path d="M695.821521,309.273687 C694.046271,310.242104 691.953729,310.242104 690.178479,309.273687 C689.474801,309.019647 689,308.305041 689,307.5 C689,306.694959 689.474801,305.980353 690.178479,305.726313 C691.953729,304.757896 694.046271,304.757896 695.821521,305.726313 C696.525199,305.980353 697,306.694959 697,307.5 C697,308.305041 696.525199,309.019647 695.821521,309.273687 L695.821521,309.273687 Z" id="Path" class='ai-line' fill="#0DC9A8" fill-rule="nonzero"></path>
                        <path d="M625.828346,250.264696 C624.051711,251.245101 621.948289,251.245101 620.171654,250.264696 C618.609449,249.283552 618.609449,247.702821 620.171654,246.735304 C621.948289,245.754899 624.051711,245.754899 625.828346,246.735304 C627.390551,247.66194 627.390551,249.242671 625.828346,250.264696 Z" id="Path" fill="#0DC9A8" fill-rule="nonzero"></path>
                        <path d="M585.828346,270.264696 C584.051711,271.245101 581.948289,271.245101 580.171654,270.264696 C578.609449,269.297179 578.609449,267.716448 580.171654,266.735304 C581.948289,265.754899 584.051711,265.754899 585.828346,266.735304 C587.390551,267.743702 587.390551,269.297179 585.828346,270.264696 Z" id="Path" fill="#202935" fill-rule="nonzero" opacity="0.5"></path>
                        <path d="M477.828382,156.263745 C476.054192,157.245418 473.953666,157.245418 472.179476,156.263745 C470.606841,155.281334 470.606841,153.698559 472.179476,152.729792 C473.959999,151.756736 476.060441,151.756736 477.840963,152.729792 C479.388436,153.698559 479.388436,155.281334 477.828382,156.263745 Z" id="Path" fill="#202935" fill-rule="nonzero" opacity="0.5"></path>
                        <path d="M429.828346,162.264696 C428.051711,163.245101 425.948289,163.245101 424.171654,162.264696 C422.609449,161.283552 422.609449,159.702821 424.171654,158.735304 C425.948289,157.754899 428.051711,157.754899 429.828346,158.735304 C431.390551,159.702821 431.390551,161.283552 429.828346,162.264696 Z" id="Path" fill="#202935" fill-rule="nonzero" opacity="0.5"></path>
                        <path d="M423.835962,131.264696 C422.057345,132.245101 419.951577,132.245101 418.17296,131.264696 C416.609013,130.283552 416.609013,128.702821 418.17296,127.735304 C419.951577,126.754899 422.057345,126.754899 423.835962,127.735304 C424.532582,127.995144 425,128.703755 425,129.5 C425,130.296245 424.532582,131.004856 423.835962,131.264696 L423.835962,131.264696 Z" id="Path" fill="#202935" fill-rule="nonzero" opacity="0.5"></path>
                        <path d="M339.828346,96.2646958 C338.051711,97.2451014 335.948289,97.2451014 334.171654,96.2646958 C332.609449,95.2971792 332.609449,93.7164478 334.171654,92.7353042 C335.948289,91.7548986 338.051711,91.7548986 339.828346,92.7353042 C341.390551,93.7164478 341.390551,95.2971792 339.828346,96.2646958 Z" id="Path" fill="#202935" fill-rule="nonzero" opacity="0.5"></path>
                        <path d="M368.830189,85.2692637 C367.050015,86.2435788 364.949985,86.2435788 363.169811,85.2692637 C361.610063,84.2992427 361.610063,82.7144196 363.169811,81.7307363 C364.949985,80.7564212 367.050015,80.7564212 368.830189,81.7307363 C370.389937,82.7144196 370.389937,84.2992427 368.830189,85.2692637 Z" id="Path" fill="#202935" fill-rule="nonzero" opacity="0.5"></path>
                        <path d="M352.828346,54.2632396 C351.051711,55.2455868 348.948289,55.2455868 347.171654,54.2632396 C345.609449,53.2938067 345.609449,51.7099446 347.171654,50.7268578 C348.951198,49.7577141 351.048802,49.7577141 352.828346,50.7268578 C354.390551,51.7099446 354.390551,53.2938067 352.828346,54.2632396 Z" id="Path" fill="#202935" fill-rule="nonzero" opacity="0.5"></path>
                        <path d="M335.828346,205.264696 C334.051711,206.245101 331.948289,206.245101 330.171654,205.264696 C328.609449,204.297179 328.609449,202.716448 330.171654,201.735304 C331.948289,200.754899 334.051711,200.754899 335.828346,201.735304 C337.390551,202.716448 337.390551,204.297179 335.828346,205.264696 Z" id="Path" fill="url(#linearGradient-12)" fill-rule="nonzero" opacity="0.5" style="mix-blend-mode: lighten;"></path>
                        <path d="M166.821521,146.273687 C165.046271,147.242104 162.953729,147.242104 161.178479,146.273687 C160.474801,146.019647 160,145.305041 160,144.5 C160,143.694959 160.474801,142.980353 161.178479,142.726313 C162.953729,141.757896 165.046271,141.757896 166.821521,142.726313 C167.525199,142.980353 168,143.694959 168,144.5 C168,145.305041 167.525199,146.019647 166.821521,146.273687 Z" id="Path" fill="#202935" fill-rule="nonzero" opacity="0.5"></path>
                        <path d="M42.8283465,83.2646958 C41.0517109,84.2451014 38.9482891,84.2451014 37.1716535,83.2646958 C35.6094488,82.2971792 35.6094488,80.7164478 37.1716535,79.7353042 C38.9482891,78.7548986 41.0517109,78.7548986 42.8283465,79.7353042 C44.3905512,80.7164478 44.3905512,82.2971792 42.8283465,83.2646958 Z" id="Path" fill="#202935" fill-rule="nonzero" opacity="0.5"></path>
                        <path d="M81.8215209,73.2736871 C80.0462714,74.2421043 77.9537286,74.2421043 76.1784791,73.2736871 C75.4748012,73.0196472 75,72.3050408 75,71.5 C75,70.6949592 75.4748012,69.9803528 76.1784791,69.7263129 C77.9537286,68.7578957 80.0462714,68.7578957 81.8215209,69.7263129 C82.5251988,69.9803528 83,70.6949592 83,71.5 C83,72.3050408 82.5251988,73.0196472 81.8215209,73.2736871 L81.8215209,73.2736871 Z" id="Path" fill="#202935" fill-rule="nonzero" opacity="0.5"></path>
                        <path d="M600.828346,308.273142 C599.048802,309.242286 596.951198,309.242286 595.171654,308.273142 C593.609449,307.290055 593.609449,305.706193 595.171654,304.73676 C596.948289,303.754413 599.051711,303.754413 600.828346,304.73676 C602.390551,305.706193 602.390551,307.290055 600.828346,308.273142 Z" id="Path"  fill="#0DC9A8" fill-rule="nonzero"></path>
                        <path d="M503.830189,388.269264 C502.050015,389.243579 499.949985,389.243579 498.169811,388.269264 C496.610063,387.28558 496.610063,385.700757 498.169811,384.730736 C499.949985,383.756421 502.050015,383.756421 503.830189,384.730736 C505.389937,385.700757 505.389937,387.28558 503.830189,388.269264 Z" id="Path" fill="url(#linearGradient-17)" fill-rule="nonzero" opacity="0.5" style="mix-blend-mode: lighten;"></path>
                        <polygon id="Rectangle" fill="url(#linearGradient-18)" fill-rule="nonzero" opacity="0.5" style="mix-blend-mode: lighten;" transform="translate(346.766019, 407.871480) rotate(-60.000000) translate(-346.766019, -407.871480) " points="346.767766 387.987221 346.767772 387.987221 346.764271 427.755738 346.764265 427.755738"></polygon>
                        <polygon id="Path" class='ai-line' fill="#0DC9A8" fill-rule="nonzero" points="622.548892 249 574.666953 220.929152 542.444922 220.929152 499.989173 245.833032 473 245.833032 473 244.890794 499.731397 244.890794 542.200034 220 574.911841 220 575.014951 220.065433 623 248.201715"></polygon>
                        <polygon id="Path" fill="#202935" fill-rule="nonzero" opacity="0.5" points="496.464795 285 496 284.20387 544.312866 256 560.632337 256 560.735625 256.065257 582 268.463996 581.535205 269.273177 560.387029 256.926643 544.571085 256.926643"></polygon>
                        <polygon id="Path" fill="#202935" fill-rule="nonzero" opacity="0.5" points="510 276 510 256.44588 545.54611 236 546 236.788368 510.920749 256.975767 510.920749 276"></polygon>
                        <polygon id="Path" fill="url(#linearGradient-19)" fill-rule="nonzero" opacity="0.5" style="mix-blend-mode: lighten;" points="266 316 229.954676 316 229.850499 315.93344 189 291.825346 189.455775 291 230.202097 315.054846 266 315.054846"></polygon>
                        <polygon id="Path" fill="url(#linearGradient-20)" fill-rule="nonzero" opacity="0.5" style="mix-blend-mode: lighten;" points="790.546422 562 666.602972 490.367612 666.602972 444.995675 450 319.804421 450.453578 319 667.523087 444.463719 667.523087 489.822681 791 561.208554"></polygon>
                        <polygon id="Path" fill="#202935" fill-rule="nonzero" opacity="0.5" points="225.456421 275 225 274.23697 256.101849 257 268.907725 257 269.01205 257.062543 285.378013 266.131341 304 266.131341 304 267.019458 285.130241 267.019458 285.025916 266.956915 268.659954 257.888117 256.362661 257.888117"></polygon>
                        <polygon id="Path" fill="#202935" fill-rule="nonzero" opacity="0.5" points="368.610435 242 310 208.200245 310 169.137865 376.080773 131.032326 376.080773 117.791718 336.204444 94.7887472 336.670531 94 377 117.248646 377 131.562467 310.919227 169.668006 310.919227 207.683033 369.076522 241.211253"></polygon>
                        <polygon id="Path" fill="url(#linearGradient-21)" fill-rule="nonzero" opacity="0.5" style="mix-blend-mode: lighten;" points="355.053151 233 355.053151 215.894319 332 202.789891 332.473425 202 355.986849 215.363409 356 233"></polygon>
                        <polygon id="Path" fill="#202935" fill-rule="nonzero" opacity="0.5" points="236.544945 215 97.37599 135.36542 97.37599 114.63208 40 81.798923 40.4550554 81 98.312104 114.10376 98.312104 134.8371 237 214.201077"></polygon>
                        <polygon id="Path" fill="#202935" fill-rule="nonzero" opacity="0.5" points="186 158 185.084368 158 185.084368 133.183479 79 71.8013668 79.4642642 71 186 132.653543"></polygon>
                        <polygon id="Path" fill="#202935" fill-rule="nonzero" opacity="0.5" points="269.534577 215 199.60483 174.337429 199.60483 165.509628 164 144.807262 164.465423 144 200.522747 164.975793 200.522747 173.803594 270 214.192738"></polygon>
                        <polygon id="Path" fill="url(#linearGradient-22)" fill-rule="nonzero" opacity="0.5" style="mix-blend-mode: lighten;" points="606.537197 468 565.399157 444.261609 565.399157 417.978441 546 406.783997 546.462803 406 566.311907 417.451493 566.311907 443.73466 607 467.216003"></polygon>
                        <polygon id="Path" class='ai-line' fill="#0DC9A8" fill-rule="nonzero" points="570.110699 323 543 323 543 322.088369 569.868183 322.088369 597.553261 306 598 306.796073"></polygon>
                        <polygon id="Path" fill="#202935" fill-rule="nonzero" opacity="0.5" points="692.044686 356 566 356 566 355.088535 691.798682 355.088535 791.533887 298 792 298.795927"></polygon>
                        <polygon id="Path" fill="#202935" fill-rule="nonzero" opacity="0.5" points="385 232 385 182.562633 425.535557 159 426 159.805338 385.915985 183.095196 385.915985 232"></polygon>
                        <polygon id="Path" fill="#202935" fill-rule="nonzero" opacity="0.5" points="384.792657 204 355 186.727352 355 166.99462 420.533477 129 421 129.793995 355.920086 167.528289 355.920086 186.193683 385.24622 203.192989"></polygon>
                        <polygon id="Path" class='ai-line' fill="#0DC9A8" fill-rule="nonzero" points="130.464913 387 130 386.20299 203.443358 344 266 344 266 344.912706 203.688729 344.912706"></polygon>
                        <polygon id="Path" fill="url(#linearGradient-23)" fill-rule="nonzero" opacity="0.5" style="mix-blend-mode: lighten;" points="121.400762 318 77 318 77 317.119835 121.154667 317.119835 141.282667 306 213 306 213 306.880165 141.528762 306.880165"></polygon>
                        <polygon id="Path" fill="#202935" fill-rule="nonzero" opacity="0.5" points="239.459507 303 239 302.203597 272.071743 283 297 283 297 283.91201 272.314261 283.91201"></polygon>
                        <polygon id="Path" fill="url(#linearGradient-24)" fill-rule="nonzero" opacity="0.5" style="mix-blend-mode: lighten;" points="648.532258 565 598.834677 536.334828 598.834677 493.778473 533 455.80491 533.467742 455 599.757168 493.246194 599.757168 535.802549 649 564.208073"></polygon>
                        <polygon id="Path" fill="#88A4DB" fill-rule="nonzero" points="535 267 535 283.177443 395 364 255 283.177443 255 267"></polygon>
                        <polygon id="Path" fill="url(#linearGradient-25)" fill-rule="nonzero" points="395 348 255 267 395 186 535 267"></polygon>
                        <polygon id="Path" fill="#FFFFFF" fill-rule="nonzero" points="395 346.106595 256.642343 266 255 266.946703 395 348 535 266.946703 533.357657 266"></polygon>
                        <polygon id="Path" fill="#0F054C" fill-rule="nonzero" points="395.493545 330 288 267.4935 395.493545 205 503 267.5065"></polygon>
                        <polygon id="Path" fill="url(#linearGradient-26)" fill-rule="nonzero" opacity="0.5" points="395.5 330 288 267.5065 395.5 205 503 267.5065"></polygon>
                        <polygon id="Path" fill="url(#linearGradient-27)" fill-rule="nonzero" opacity="0.5" points="395 189 502 251.296346 502 267 395 204.703654"></polygon>
                        <polygon id="Path" fill="url(#linearGradient-28)" fill-rule="nonzero" opacity="0.5" points="394 204.703654 287 267 287 251.283389 394 189"></polygon>
                        <polygon id="Path" class='ai-line' fill="#0DC9A8" fill-rule="nonzero" opacity="0.3" points="395.5 314 288 251.4935 395.5 189 503 251.5065"></polygon>
                        <polygon id="Path" fill="#42E8E0" fill-rule="nonzero" opacity="0.5" points="395 276 352 250.993491 395 226 438 251.006509"></polygon>
                        <polygon id="Path" fill="#42E8E0" fill-rule="nonzero" opacity="0.5" points="395 229.27775 436.022543 253 438 251.861125 395 227 352 251.848183 353.977457 253"></polygon>
                        <polygon id="Path"  fill="#0DC9A8" fill-rule="nonzero" opacity="0.3" points="395 314.293737 395 330 502 267.706263 502 252"></polygon>
                        <polygon id="Path" fill="#0DC9A8" fill-rule="nonzero" opacity="0.3" points="287 252 287 267.716611 394 330 394 314.296346"></polygon>
                        <polygon id="Path" fill="#0DC9A8" fill-rule="nonzero" points="395.5 312.280878 289.484628 251 288 251.853098 395.5 314 503 251.866024 501.515372 251"></polygon>
                        <path d="M400.474246,300.271997 L491.99742,247.63936 C494.003372,246.489272 495.012819,245.054894 494.999877,243.607594 L494.999877,243.607594 L494.999877,227.118705 L491.855062,229.909927 L489.163204,228.346326 C489.460862,228.010345 489.654986,227.713132 489.603219,227.622675 C489.551453,227.532219 488.309057,225.296657 488.309057,225.296657 L423.743288,187.240404 L403.217871,175.313096 L395.194063,173 L301.250805,226.899025 L301.522579,229.069976 L299.024845,230.504354 L295,228.708151 L295,245.106583 L295,245.106583 C295.042098,246.473709 295.860763,247.697368 297.109485,248.259631 L388.231469,300.775967 C391.3504,302.585093 396.850591,302.365413 400.474246,300.271997 Z M437.629652,259.618356 L396.216451,282.206584 L392.657504,282.038593 L323.445692,243.374992 L304.266204,233.489412 L394.559923,181.489969 C395.424237,181.020831 396.458614,180.982578 397.355314,181.38659 L485.241892,232.029189 L437.629652,259.618356 Z" id="Shape" fill="url(#linearGradient-29)" fill-rule="nonzero"></path>
                        <path d="M400.474246,300.271997 L491.99742,247.63936 C494.003372,246.489272 495.012819,245.054894 494.999877,243.607594 L494.999877,243.607594 L494.999877,227.118705 L491.855062,229.909927 L489.163204,228.346326 C489.460862,228.010345 489.654986,227.713132 489.603219,227.622675 C489.551453,227.532219 488.309057,225.296657 488.309057,225.296657 L423.743288,187.240404 L403.217871,175.313096 L395.194063,173 L301.250805,226.899025 L301.522579,229.069976 L299.024845,230.504354 L295,228.708151 L295,245.106583 L295,245.106583 C295.042098,246.473709 295.860763,247.697368 297.109485,248.259631 L388.231469,300.775967 C391.3504,302.585093 396.850591,302.365413 400.474246,300.271997 Z M437.629652,259.618356 L396.216451,282.206584 L392.657504,282.038593 L323.445692,243.374992 L304.266204,233.489412 L394.559923,181.489969 C395.424237,181.020831 396.458614,180.982578 397.355314,181.38659 L485.241892,232.029189 L437.629652,259.618356 Z" id="Shape" fill="#0EE0B8" fill-rule="nonzero"></path>
                        <path d="M393,302 L393,282.07853 L395.301331,282.182085 L436.673579,259.55523 L484.238735,231.970659 L482.661418,231.051605 C484.135305,230.210217 492.46147,227.880221 494,227 L494,243.517087 L494,243.517087 C494,244.915085 493.00448,246.403693 491.000512,247.555747 L399.593702,300.278391 C397.567623,301.37876 395.304771,301.969589 393,302 Z" id="Path" fill="#0DC9A8" fill-rule="nonzero"></path>
                        <path d="M400.498923,284.250003 L491.988059,231.24226 C495.623817,229.133923 496.024915,225.94539 492.880825,224.12337 L401.779848,171.232756 C398.635758,169.410737 393.136836,169.631982 389.501077,171.740319 L298.011941,224.735048 C294.376183,226.843385 293.975085,230.031918 297.119175,231.866952 L388.23309,284.757566 C391.37718,286.5926 396.863164,286.371354 400.498923,284.250003 Z M395.426975,281.152571 C394.565105,281.633221 393.527086,281.671892 392.632229,281.256686 L303.135644,229.303111 C302.41108,228.886649 302.50165,228.157841 303.342662,227.676308 L394.573025,174.824737 C395.437971,174.34174 396.478972,174.298311 397.38071,174.707607 L486.864356,226.661183 C487.58892,227.077644 487.49835,227.806452 486.670277,228.287986 L395.426975,281.152571 Z" id="Shape" fill="url(#linearGradient-30)" fill-rule="nonzero"></path>
                        <path d="M400.498923,284.250003 L491.988059,231.24226 C495.623817,229.133923 496.024915,225.94539 492.880825,224.12337 L401.779848,171.232756 C398.635758,169.410737 393.136836,169.631982 389.501077,171.740319 L298.011941,224.735048 C294.376183,226.843385 293.975085,230.031918 297.119175,231.866952 L388.23309,284.757566 C391.37718,286.5926 396.863164,286.371354 400.498923,284.250003 Z M395.426975,281.152571 C394.565105,281.633221 393.527086,281.671892 392.632229,281.256686 L303.135644,229.303111 C302.41108,228.886649 302.50165,228.157841 303.342662,227.676308 L394.573025,174.824737 C395.437971,174.34174 396.478972,174.298311 397.38071,174.707607 L486.864356,226.661183 C487.58892,227.077644 487.49835,227.806452 486.670277,228.287986 L395.426975,281.152571 Z" id="Shape" fill="#0EE0B8" fill-rule="nonzero"></path>
                        <path d="M485.567116,224.70699 L396.40545,173.28173 C395.508975,172.872633 394.471763,172.910842 393.607868,173.384787 L302.679987,225.711792 C302.009598,226.098254 301.829109,226.639302 302.164303,227 C302.299646,226.812478 302.476014,226.658276 302.679987,226.549127 L393.582084,174.235004 C394.443918,173.756918 395.481172,173.713932 396.379666,174.119065 L485.541331,225.544325 C485.667343,225.609756 485.777385,225.702118 485.863634,225.814849 C485.991213,225.633807 486.031859,225.405547 485.974608,225.191643 C485.917357,224.977739 485.768106,224.800227 485.567116,224.70699 Z" id="Path" fill="#42E8E0" fill-rule="nonzero"></path>
                        <path d="M491.990789,229.526599 L400.485535,282.321862 C396.849136,284.422263 391.362185,284.642676 388.217541,282.827515 L297.087574,230.123009 C296.03812,229.621101 295.275399,228.665894 295.017026,227.529922 C294.868354,229.034732 295.704497,230.464104 297.087574,231.069486 L388.217541,283.761026 C391.362185,285.589153 396.849136,285.36874 400.485535,283.268339 L491.990789,230.460111 C494.190745,229.163567 495.200137,227.529922 494.967201,226 C494.541531,227.557162 493.452666,228.847302 491.990789,229.526599 Z" id="Path" fill="url(#linearGradient-31)" fill-rule="nonzero"></path>
                        <path d="M396.358099,180.91032 C395.46504,180.506806 394.434863,180.545012 393.57406,181.013571 L306.895067,231 L302.487005,228.418723 C301.765217,228.005719 301.85544,227.282961 302.69323,226.805425 L393.57406,174.392596 C394.435692,173.913608 395.472705,173.87054 396.370988,174.276438 L485.511794,225.798727 C486.233582,226.211731 486.143358,226.934489 485.318458,227.412025 L481.090843,229.851332 L396.358099,180.91032 Z" id="Path" fill="#251C72" fill-rule="nonzero"></path>
                        <path d="M485.318553,227.286183 C486.143338,226.809657 486.233549,226.088428 485.511862,225.676297 L396.383543,174.275854 C395.485386,173.870814 394.448519,173.913791 393.587007,174.391765 L302.693133,226.693745 C301.855461,227.170271 301.76525,227.8915 302.486937,228.303631 L391.615255,279.716953 C392.506559,280.127841 393.540456,280.089573 394.398905,279.613921 L485.318553,227.286183 Z" id="Path" fill="#42E8E0" fill-rule="nonzero" opacity="0.7"></path>
                        <path d="M400.486478,271.271997 L491.997809,218.63936 C494.003501,217.489272 495.012817,216.054894 494.999877,214.607594 L494.999877,214.607594 L494.999877,198.118705 L491.855469,200.909927 L489.163959,199.346326 C489.461578,199.010345 489.655678,198.713132 489.603918,198.622675 C489.448638,198.338384 488.309923,196.296657 488.309923,196.296657 L423.726629,158.240404 L403.203867,146.313096 L395.181098,144 L301.249996,197.899025 L301.521735,200.069976 L299.024325,201.504354 L295,199.708151 L295,216.106583 L295,216.106583 C295.042093,217.473709 295.860652,218.697368 297.109212,219.259631 L388.219404,271.775967 C391.363812,273.585093 396.863291,273.365413 400.486478,271.271997 Z M437.637076,230.618356 L396.229234,253.206584 L392.670747,253.038593 L323.467891,214.374992 L304.290885,204.489412 L394.57292,152.55458 C395.437122,152.085442 396.471365,152.047189 397.36795,152.451202 L485.243154,203.080878 L437.637076,230.618356 Z" id="Shape" fill="url(#linearGradient-32)" fill-rule="nonzero"></path>
                        <path d="M400.486478,271.271997 L491.997809,218.63936 C494.003501,217.489272 495.012817,216.054894 494.999877,214.607594 L494.999877,214.607594 L494.999877,198.118705 L491.855469,200.909927 L489.163959,199.346326 C489.461578,199.010345 489.655678,198.713132 489.603918,198.622675 C489.448638,198.338384 488.309923,196.296657 488.309923,196.296657 L423.726629,158.240404 L403.203867,146.313096 L395.181098,144 L301.249996,197.899025 L301.521735,200.069976 L299.024325,201.504354 L295,199.708151 L295,216.106583 L295,216.106583 C295.042093,217.473709 295.860652,218.697368 297.109212,219.259631 L388.219404,271.775967 C391.363812,273.585093 396.863291,273.365413 400.486478,271.271997 Z M437.637076,230.618356 L396.229234,253.206584 L392.670747,253.038593 L323.467891,214.374992 L304.290885,204.489412 L394.57292,152.55458 C395.437122,152.085442 396.471365,152.047189 397.36795,152.451202 L485.243154,203.080878 L437.637076,230.618356 Z" id="Shape" fill="#0EE0B8" fill-rule="nonzero"></path>
                        <path d="M393,273 L393,253.07853 L395.300448,253.182085 L436.656814,230.55523 L484.242482,202.970659 L482.665771,202.051605 C484.139091,201.210217 492.46206,198.880221 494,198 L494,214.491198 L494,214.491198 C494,215.889196 493.004862,217.377805 491.001663,218.529858 L399.591171,271.278391 C397.56587,272.37876 395.303886,272.969589 393,273 L393,273 Z" id="Path"  fill="#0DC9A8" fill-rule="nonzero"></path>
                        <path d="M400.498923,255.309006 L491.988059,202.304077 C495.623817,200.195852 496.024915,197.007488 492.880825,195.185565 L401.779848,142.232691 C398.635758,140.410768 393.136836,140.632002 389.501077,142.740226 L298.011941,195.732142 C294.376183,197.840367 293.975085,201.028731 297.119175,202.863667 L388.23309,255.751473 C391.37718,257.586409 396.863164,257.365175 400.498923,255.309006 Z M395.426975,252.211738 C394.565105,252.692363 393.527086,252.731031 392.632229,252.315848 L303.135644,200.36503 C302.41108,199.948591 302.50165,199.219822 303.342662,198.738314 L394.573025,145.889549 C395.437971,145.406578 396.478972,145.363152 397.38071,145.772426 L486.864356,197.723243 C487.58892,198.139682 487.49835,198.868451 486.670277,199.349959 L395.426975,252.211738 Z" id="Shape" fill="url(#linearGradient-33)" fill-rule="nonzero"></path>
                        <path d="M400.498923,255.309006 L491.988059,202.304077 C495.623817,200.195852 496.024915,197.007488 492.880825,195.185565 L401.779848,142.232691 C398.635758,140.410768 393.136836,140.632002 389.501077,142.740226 L298.011941,195.732142 C294.376183,197.840367 293.975085,201.028731 297.119175,202.863667 L388.23309,255.751473 C391.37718,257.586409 396.863164,257.365175 400.498923,255.309006 Z M395.426975,252.211738 C394.565105,252.692363 393.527086,252.731031 392.632229,252.315848 L303.135644,200.36503 C302.41108,199.948591 302.50165,199.219822 303.342662,198.738314 L394.573025,145.889549 C395.437971,145.406578 396.478972,145.363152 397.38071,145.772426 L486.864356,197.723243 C487.58892,198.139682 487.49835,198.868451 486.670277,199.349959 L395.426975,252.211738 Z" id="Shape" fill="#0EE0B8" fill-rule="nonzero"></path>
                        <path d="M485.553017,195.681226 L396.398199,144.28173 C395.501793,143.872633 394.46466,143.910842 393.600832,144.384787 L302.679934,196.711792 C302.009598,197.098254 301.829122,197.639302 302.164291,198 C302.299623,197.812478 302.475978,197.658276 302.679934,197.549127 L393.575049,145.235004 C394.436817,144.756918 395.473993,144.713932 396.372417,145.119065 L485.527234,196.544325 C485.653236,196.609756 485.763269,196.702118 485.849512,196.814849 C485.986994,196.632468 486.033474,196.397277 485.975694,196.176361 C485.917915,195.955445 485.762219,195.773059 485.553017,195.681226 L485.553017,195.681226 Z" id="Path" fill="#42E8E0" fill-rule="nonzero"></path>
                        <path d="M491.990789,201.526599 L400.485535,254.321862 C396.849136,256.422263 391.362185,256.642676 388.217541,254.827515 L297.087574,202.123009 C296.03812,201.621101 295.275399,200.665894 295.017026,199.529922 C294.868354,201.034732 295.704497,202.464104 297.087574,203.069486 L388.217541,255.761026 C391.362185,257.589153 396.849136,257.36874 400.485535,255.268339 L491.990789,202.460111 C494.190745,201.163567 495.200137,199.529922 494.967201,198 C494.541531,199.557162 493.452666,200.847302 491.990789,201.526599 Z" id="Path" fill="url(#linearGradient-31)" fill-rule="nonzero"></path>
                        <path d="M396.358099,151.91032 C395.46504,151.506806 394.434863,151.545012 393.57406,152.013571 L306.895067,202 L302.487005,199.418723 C301.765217,199.005719 301.85544,198.282961 302.69323,197.805425 L393.57406,145.392596 C394.435692,144.913608 395.472705,144.87054 396.370988,145.276438 L485.511794,196.798727 C486.233582,197.211731 486.143358,197.934489 485.318458,198.412025 L481.090843,200.851332 L396.358099,151.91032 Z" id="Path" fill="#251C72" fill-rule="nonzero"></path>
                        <path d="M485.318553,199.350578 C486.143338,198.874052 486.233549,198.152823 485.511862,197.740692 L396.383543,146.275854 C395.485386,145.870814 394.448519,145.913791 393.587007,146.391765 L302.693133,198.693745 C301.855461,199.170271 301.76525,199.8915 302.486937,200.303631 L391.615255,251.716953 C392.506559,252.127841 393.540456,252.089573 394.398905,251.613921 L485.318553,199.350578 Z" id="Path" fill="#42E8E0" fill-rule="nonzero" opacity="0.7"></path>
                        <path d="M400.486478,243.280222 L491.997809,190.644183 C494.003501,189.494022 495.012817,188.059551 494.999877,186.612157 L494.999877,186.612157 L494.999877,170.122202 L491.855469,172.913605 L489.163959,171.349902 C489.461578,171.0139 489.655678,170.716668 489.603918,170.626205 C489.448638,170.341896 488.309923,168.300036 488.309923,168.300036 L423.752509,130.241324 L403.229747,118.313246 L395.206978,116 L301.249996,169.850816 L301.521735,172.021907 L299.024325,173.456378 L295,171.660058 L295,188.059551 L295,188.059551 C295.042093,189.426765 295.860652,190.650502 297.109212,191.212802 L388.219404,243.732532 C391.363812,245.593468 396.863291,245.373774 400.486478,243.280222 Z M437.637076,202.623954 L396.229234,225.213641 L392.670747,225.04564 L323.467891,186.37954 L304.290885,176.493321 L394.5988,124.54221 C395.463002,124.073042 396.497245,124.034786 397.393829,124.438825 L485.269034,175.084696 L437.637076,202.623954 Z" id="Shape" fill="url(#linearGradient-34)" fill-rule="nonzero"></path>
                        <path d="M400.486478,243.280222 L491.997809,190.644183 C494.003501,189.494022 495.012817,188.059551 494.999877,186.612157 L494.999877,186.612157 L494.999877,170.122202 L491.855469,172.913605 L489.163959,171.349902 C489.461578,171.0139 489.655678,170.716668 489.603918,170.626205 C489.448638,170.341896 488.309923,168.300036 488.309923,168.300036 L423.752509,130.241324 L403.229747,118.313246 L395.206978,116 L301.249996,169.850816 L301.521735,172.021907 L299.024325,173.456378 L295,171.660058 L295,188.059551 L295,188.059551 C295.042093,189.426765 295.860652,190.650502 297.109212,191.212802 L388.219404,243.732532 C391.363812,245.593468 396.863291,245.373774 400.486478,243.280222 Z M437.637076,202.623954 L396.229234,225.213641 L392.670747,225.04564 L323.467891,186.37954 L304.290885,176.493321 L394.5988,124.54221 C395.463002,124.073042 396.497245,124.034786 397.393829,124.438825 L485.269034,175.084696 L437.637076,202.623954 Z" id="Shape" fill="#0EE0B8" fill-rule="nonzero"></path>
                        <path d="M393,245 L393,225.07853 L395.301331,225.182085 L436.673579,202.55523 L484.238735,174.970659 L482.661418,174.051605 C484.135305,173.210217 492.46147,170.880221 494,170 L494,186.55592 L494,186.55592 C494,187.953918 493.00448,189.442527 491.000512,190.594581 L399.593702,243.278391 C397.567623,244.37876 395.304771,244.969589 393,245 Z" id="Path" fill="#0DC9A8" fill-rule="nonzero"></path>
                        <path d="M400.498923,226.261815 L491.988059,173.254629 C495.623817,171.146315 496.024915,167.957815 492.880825,166.135815 L401.779848,113.232743 C398.635758,111.410743 393.136836,111.631986 389.501077,113.7403 L298.011941,166.734472 C294.376183,168.842786 293.975085,172.031286 297.119175,173.866301 L388.23309,226.756358 C391.37718,228.591373 396.863164,228.37013 400.498923,226.261815 Z M395.426975,223.164415 C394.565105,223.645061 393.527086,223.683731 392.632229,223.26853 L303.135644,171.315501 C302.41108,170.899044 302.50165,170.170244 303.342662,169.688715 L394.573025,116.8377 C395.437971,116.354708 396.478972,116.311281 397.38071,116.720572 L486.864356,168.673601 C487.58892,169.090058 487.49835,169.818858 486.670277,170.300386 L395.426975,223.164415 Z" id="Shape" fill="url(#linearGradient-35)" fill-rule="nonzero"></path>
                        <path d="M400.498923,226.261815 L491.988059,173.254629 C495.623817,171.146315 496.024915,167.957815 492.880825,166.135815 L401.779848,113.232743 C398.635758,111.410743 393.136836,111.631986 389.501077,113.7403 L298.011941,166.734472 C294.376183,168.842786 293.975085,172.031286 297.119175,173.866301 L388.23309,226.756358 C391.37718,228.591373 396.863164,228.37013 400.498923,226.261815 Z M395.426975,223.164415 C394.565105,223.645061 393.527086,223.683731 392.632229,223.26853 L303.135644,171.315501 C302.41108,170.899044 302.50165,170.170244 303.342662,169.688715 L394.573025,116.8377 C395.437971,116.354708 396.478972,116.311281 397.38071,116.720572 L486.864356,168.673601 C487.58892,169.090058 487.49835,169.818858 486.670277,170.300386 L395.426975,223.164415 Z" id="Shape" fill="#0EE0B8" fill-rule="nonzero"></path>
                        <path d="M485.58665,168.745636 L396.415496,117.28173 C395.518926,116.872633 394.481603,116.910842 393.617616,117.384787 L302.680059,169.711792 C302.009599,170.098254 301.829091,170.639302 302.164321,171 C302.295957,170.809131 302.473238,170.654147 302.680059,170.549127 L393.591829,118.235004 C394.453755,117.756918 395.49112,117.713932 396.38971,118.119065 L485.560863,169.544325 C485.686888,169.609756 485.796941,169.702118 485.883199,169.814849 C485.996794,169.636387 486.029367,169.418186 485.972839,169.214372 C485.916311,169.010559 485.775977,168.84023 485.58665,168.745636 Z" id="Path" fill="#42E8E0" fill-rule="nonzero"></path>
                        <path d="M491.990794,172.448806 L400.485708,225.24407 C396.849316,227.344471 391.362375,227.564883 388.217737,225.749722 L297.087937,173.110044 C296.038485,172.608136 295.275765,171.652928 295.017394,170.516956 C294.867031,172.025389 295.702817,173.459386 297.087937,174.069486 L388.217737,226.761026 C391.362375,228.589153 396.849316,228.36874 400.485708,226.268339 L491.990794,173.460111 C494.190747,172.163567 495.200137,170.529922 494.967201,169 C494.521613,170.52788 493.435456,171.786426 491.990794,172.448806 Z" id="Path" fill="url(#linearGradient-36)" fill-rule="nonzero"></path>
                        <path d="M396.358099,123.91032 C395.46504,123.506806 394.434863,123.545012 393.57406,124.013571 L306.895067,174 L302.487005,171.418723 C301.765217,171.005719 301.85544,170.282961 302.69323,169.805425 L393.57406,117.392596 C394.435692,116.913608 395.472705,116.87054 396.370988,117.276438 L485.511794,168.798727 C486.233582,169.211731 486.143358,169.934489 485.318458,170.412025 L481.090843,172.851332 L396.358099,123.91032 Z" id="Path" fill="#251C72" fill-rule="nonzero"></path>
                        <path d="M485.318553,170.299062 C486.143338,169.822536 486.233549,169.101307 485.511862,168.689176 L396.383543,117.275854 C395.485386,116.870814 394.448519,116.913791 393.587007,117.391765 L302.693133,169.693745 C301.855461,170.170271 301.76525,170.8915 302.486937,171.303631 L391.615255,222.716953 C392.506559,223.127841 393.540456,223.089573 394.398905,222.613921 L485.318553,170.299062 Z" id="Path" fill="#42E8E0" fill-rule="nonzero" opacity="0.7"></path>
                        <path d="M400.486478,214.269913 L491.997809,161.586449 C494.003501,160.436381 495.012817,159.002026 494.999877,157.554749 L494.999877,157.554749 L494.999877,141.117818 L491.855469,143.908995 L489.163959,142.345419 C489.461578,142.009444 489.655678,141.712236 489.603918,141.621781 C489.552158,141.531326 488.309923,139.2958 488.309923,139.2958 L423.726629,101.240171 L403.203867,89.3130586 L395.181098,87 L301.249996,140.911065 L301.521735,143.08198 L299.024325,144.516335 L295,142.720161 L295,159.118325 L295,159.118325 C295.042093,160.485428 295.860652,161.709067 297.109212,162.271321 L388.219404,214.786797 C391.363812,216.582971 396.863291,216.363295 400.486478,214.269913 Z M437.637076,173.616938 L396.229234,196.204796 L392.670747,196.036808 L323.467891,157.373839 L304.290885,147.488421 L394.5988,95.5415181 C395.463002,95.0723879 396.497245,95.0341354 397.393829,95.4381412 L485.243154,146.079911 L437.637076,173.616938 Z" id="Shape" fill="url(#linearGradient-37)" fill-rule="nonzero"></path>
                        <path d="M400.486478,214.269913 L491.997809,161.586449 C494.003501,160.436381 495.012817,159.002026 494.999877,157.554749 L494.999877,157.554749 L494.999877,141.117818 L491.855469,143.908995 L489.163959,142.345419 C489.461578,142.009444 489.655678,141.712236 489.603918,141.621781 C489.552158,141.531326 488.309923,139.2958 488.309923,139.2958 L423.726629,101.240171 L403.203867,89.3130586 L395.181098,87 L301.249996,140.911065 L301.521735,143.08198 L299.024325,144.516335 L295,142.720161 L295,159.118325 L295,159.118325 C295.042093,160.485428 295.860652,161.709067 297.109212,162.271321 L388.219404,214.786797 C391.363812,216.582971 396.863291,216.363295 400.486478,214.269913 Z M437.637076,173.616938 L396.229234,196.204796 L392.670747,196.036808 L323.467891,157.373839 L304.290885,147.488421 L394.5988,95.5415181 C395.463002,95.0723879 396.497245,95.0341354 397.393829,95.4381412 L485.243154,146.079911 L437.637076,173.616938 Z" id="Shape" fill="#0EE0B8" fill-rule="nonzero"></path>
                        <path d="M393,216 L393,196.07853 L395.300448,196.182085 L436.656814,173.55523 L484.242482,145.970659 L482.665771,145.051605 C484.139091,144.210217 492.46206,141.880221 494,141 L494,157.517087 L494,157.517087 C494,158.915085 493.004862,160.403693 491.001663,161.555747 L399.591171,214.278391 C397.56587,215.37876 395.303886,215.969589 393,216 L393,216 Z" id="Path" fill="#0DC9A8" fill-rule="nonzero"></path>
                        <path d="M400.498923,198.26201 L491.988059,145.260771 C495.623817,143.152693 496.024915,139.964551 492.880825,138.142755 L401.779848,85.232605 C398.635758,83.4108094 393.136836,83.6320274 389.501077,85.7401052 L298.011941,138.741345 C294.376183,140.849423 293.975085,144.037565 297.119175,145.872373 L388.23309,198.756498 C391.37718,200.591306 396.863164,200.370088 400.498923,198.26201 Z M395.426975,195.164958 C394.565105,195.645549 393.527086,195.684215 392.632229,195.26906 L303.135644,143.32186 C302.41108,142.905449 302.50165,142.176731 303.342662,141.695256 L394.573025,88.8501706 C395.437971,88.3672324 396.478972,88.3238097 397.38071,88.7330552 L486.864356,140.680256 C487.58892,141.096666 487.49835,141.825385 486.670277,142.306859 L395.426975,195.164958 Z" id="Shape" fill="url(#linearGradient-38)" fill-rule="nonzero"></path>
                        <path d="M400.498923,198.26201 L491.988059,145.260771 C495.623817,143.152693 496.024915,139.964551 492.880825,138.142755 L401.779848,85.232605 C398.635758,83.4108094 393.136836,83.6320274 389.501077,85.7401052 L298.011941,138.741345 C294.376183,140.849423 293.975085,144.037565 297.119175,145.872373 L388.23309,198.756498 C391.37718,200.591306 396.863164,200.370088 400.498923,198.26201 Z M395.426975,195.164958 C394.565105,195.645549 393.527086,195.684215 392.632229,195.26906 L303.135644,143.32186 C302.41108,142.905449 302.50165,142.176731 303.342662,141.695256 L394.573025,88.8501706 C395.437971,88.3672324 396.478972,88.3238097 397.38071,88.7330552 L486.864356,140.680256 C487.58892,141.096666 487.49835,141.825385 486.670277,142.306859 L395.426975,195.164958 Z" id="Shape" fill="#0EE0B8" fill-rule="nonzero"></path>
                        <path d="M485.567116,139.70699 L396.40545,88.2817301 C395.508975,87.8726335 394.471763,87.910842 393.607868,88.3847867 L302.679987,140.711792 C302.009598,141.098254 301.829109,141.639302 302.164303,142 C302.295925,141.809131 302.473188,141.654147 302.679987,141.549127 L393.582084,89.2350039 C394.443918,88.7569181 395.481172,88.7139317 396.379666,89.1190652 L485.541331,140.544325 C485.667343,140.609756 485.777385,140.702118 485.863634,140.814849 C485.991213,140.633807 486.031859,140.405547 485.974608,140.191643 C485.917357,139.977739 485.768106,139.800227 485.567116,139.70699 Z" id="Path" fill="#42E8E0" fill-rule="nonzero"></path>
                        <path d="M491.990794,143.513634 L400.485708,196.308897 C396.849316,198.409298 391.362375,198.62971 388.217737,196.814549 L297.087937,144.110044 C296.038485,143.608136 295.275765,142.652928 295.017394,141.516956 C294.867031,143.025389 295.702817,144.459386 297.087937,145.069486 L388.217737,197.761026 C391.362375,199.589153 396.849316,199.36874 400.485708,197.268339 L491.990794,144.460111 C494.190747,143.163567 495.200137,141.529922 494.967201,140 C494.53818,141.552284 493.449773,142.837142 491.990794,143.513634 L491.990794,143.513634 Z" id="Path" fill="url(#linearGradient-39)" fill-rule="nonzero"></path>
                        <path d="M396.358099,94.9103201 C395.46504,94.5068061 394.434863,94.5450121 393.57406,95.0135712 L306.895067,145 L302.487005,142.418723 C301.765217,142.005719 301.85544,141.282961 302.69323,140.805425 L393.57406,88.3925957 C394.435692,87.9136078 395.472705,87.8705403 396.370988,88.2764383 L485.511794,139.798727 C486.233582,140.211731 486.143358,140.934489 485.318458,141.412025 L481.090843,143.851332 L396.358099,94.9103201 Z" id="Path" class='ai-line' fill="#0DC9A8" fill-rule="nonzero"></path>
                        <path d="M485.318553,142.299062 C486.143338,141.822536 486.233549,141.101307 485.511862,140.689176 L396.383543,89.2758536 C395.485386,88.8708141 394.448519,88.9137905 393.587007,89.3917654 L302.693133,141.693745 C301.855461,142.170271 301.76525,142.8915 302.486937,143.303631 L391.615255,194.716953 C392.506559,195.127841 393.540456,195.089573 394.398905,194.613921 L485.318553,142.299062 Z" id="Path" fill="#0DC9A8" fill-rule="nonzero" opacity="0.3"></path>
                        <path d="M395.857143,170 L357,136.311081 L366.268556,131 L425,153.311749 L416.727781,158.063084 L403.408329,152.686916 L394.965683,157.54239 L404.19491,165.183578 L395.857143,170 Z M390.049547,153.728304 L396.604396,149.979306 L373.269134,140.346462 L390.049547,153.728304 Z" id="Shape" fill="#FFFFFF" fill-rule="nonzero"></path>
                        <polygon id="Path" fill="#FFFFFF" fill-rule="nonzero" points="429.308603 151 381 123.043839 389.678425 118 438 146.03436"></polygon>
                        <rect id="Rectangle" x="6" y="42" width="776" height="518"></rect>
                    </g>
                </g>
            </g>
        </g>
    </g>
</svg>