<svg xmlns="http://www.w3.org/2000/svg" xmlns:xlink="http://www.w3.org/1999/xlink" viewBox="0 0 136.13 140.99"><defs><style>.sho-1{isolation:isolate;}.sho-2{fill:url(#radial-gradient-sho);}.sho-3{fill:url(#linear-gradient-sho);}.sho-4{fill:url(#linear-gradient-sho-2);}.sho-5{fill:url(#linear-gradient-sho-3);}.sho-6{fill:url(#linear-gradient-sho-4);}.sho-7{fill:url(#linear-gradient-sho-5);}.sho-8{fill:url(#linear-gradient-sho-6);}.sho-9{fill:url(#linear-gradient-sho-7);}.sho-10{fill:url(#linear-gradient-sho-8);}.sho-11{fill:url(#linear-gradient-sho-9);}.sho-12{fill:url(#linear-gradient-sho-10);}.sho-13{fill:url(#linear-gradient-sho-11);}.sho-14{fill:url(#linear-gradient-sho-12);}.sho-15{fill:url(#linear-gradient-sho-13);}.sho-16{fill:url(#linear-gradient-sho-14);}.sho-17{fill:url(#linear-gradient-sho-15);}.sho-18{fill:url(#linear-gradient-sho-16);}.sho-19{fill:url(#linear-gradient-sho-17);}.sho-20{fill:url(#linear-gradient-sho-18);}.sho-21{fill:url(#linear-gradient-sho-19);}.sho-22{fill:url(#linear-gradient-sho-20);}.sho-23{fill:url(#linear-gradient-sho-21);}.sho-24{fill:url(#linear-gradient-sho-22);}.sho-25{fill:url(#linear-gradient-sho-23);}.sho-26{fill:url(#linear-gradient-sho-24);}.sho-27{fill:#fff;}.sho-27,.sho-59,.sho-60,.sho-65{opacity:0.1;}.sho-28{fill:url(#linear-gradient-sho-25);}.sho-29{fill:#00258a;mix-blend-mode:multiply;}.sho-29,.sho-63,.sho-73{opacity:0.5;}.sho-30{fill:#88a4db;}.sho-31{fill:url(#radial-gradient-sho-2);}.sho-32{fill:url(#radial-gradient-sho-3);}.sho-33{fill:url(#linear-gradient-sho-26);}.sho-34{fill:url(#linear-gradient-sho-27);}.sho-35{fill:url(#linear-gradient-sho-28);}.sho-36{fill:url(#linear-gradient-sho-29);}.sho-37{fill:url(#linear-gradient-sho-30);}.sho-38{fill:url(#linear-gradient-sho-31);}.sho-39{fill:url(#linear-gradient-sho-32);}.sho-40{fill:url(#linear-gradient-sho-33);}.sho-41{fill:url(#linear-gradient-sho-34);}.sho-42{fill:url(#linear-gradient-sho-35);}.sho-43{fill:url(#linear-gradient-sho-36);}.sho-44{fill:url(#linear-gradient-sho-37);}.sho-45{fill:url(#linear-gradient-sho-38);}.sho-46{fill:url(#linear-gradient-sho-39);}.sho-47{fill:url(#linear-gradient-sho-40);}.sho-48{fill:url(#linear-gradient-sho-41);}.sho-49{fill:url(#linear-gradient-sho-42);}.sho-50{fill:url(#linear-gradient-sho-43);}.sho-51{fill:url(#linear-gradient-sho-44);}.sho-52{fill:url(#linear-gradient-sho-45);}.sho-53{fill:url(#linear-gradient-sho-46);}.sho-54{fill:url(#linear-gradient-sho-47);}.sho-55{fill:url(#linear-gradient-sho-48);}.sho-56{fill:url(#linear-gradient-sho-49);}.sho-57{opacity:0.45;}.sho-58,.sho-59,.sho-61,.sho-63,.sho-66,.sho-72,.sho-73{fill:#4ceaf5;}.sho-58,.sho-64,.sho-67,.sho-68,.sho-70,.sho-72,.sho-75,.sho-77{opacity:0.3;}.sho-58,.sho-59,.sho-60,.sho-61,.sho-62,.sho-63,.sho-64,.sho-65,.sho-66,.sho-69,.sho-79{mix-blend-mode:color-dodge;}.sho-60{fill:#4cb0f5;}.sho-62,.sho-64,.sho-65,.sho-74{fill:#d4ffff;}.sho-66{opacity:0.2;}.sho-67,.sho-68,.sho-77{mix-blend-mode:lighten;}.sho-67{fill:url(#linear-gradient-sho-50);}.sho-68{fill:url(#linear-gradient-sho-51);}.sho-69{opacity:0.4;fill:url(#linear-gradient-sho-52);}.sho-70,.sho-76{fill:#0dc9a8;}.sho-71{opacity:0.28;}.sho-78{fill:url(#linear-gradient-sho-53);}.sho-80{fill:url(#radial-gradient-sho-4);}.sho-81{fill:url(#radial-gradient-sho-5);}</style><radialGradient id="radial-gradient-sho" cx="371.26" cy="31" r="15.04" gradientTransform="translate(-294.47 -58.77) rotate(9.41)" gradientUnits="userSpaceOnUse"><stop offset="0.02" stop-color="#60749b" stop-opacity="0"/><stop offset="1" stop-color="#60749b"/></radialGradient><linearGradient id="linear-gradient-sho" x1="151.07" y1="41.33" x2="156.44" y2="41.33" gradientTransform="translate(-85.16 -24.09) rotate(9.41)" gradientUnits="userSpaceOnUse"><stop offset="0" stop-color="#fff"/><stop offset="1" stop-color="#88a4db"/></linearGradient><linearGradient id="linear-gradient-sho-2" x1="154.49" y1="39.36" x2="159.86" y2="39.36" xlink:href="#linear-gradient-sho"/><linearGradient id="linear-gradient-sho-3" x1="148.75" y1="37.97" x2="154.12" y2="37.97" xlink:href="#linear-gradient-sho"/><linearGradient id="linear-gradient-sho-4" x1="152.18" y1="36" x2="157.54" y2="36" xlink:href="#linear-gradient-sho"/><linearGradient id="linear-gradient-sho-5" x1="146.26" y1="34.35" x2="151.62" y2="34.35" xlink:href="#linear-gradient-sho"/><linearGradient id="linear-gradient-sho-6" x1="149.68" y1="32.37" x2="155.04" y2="32.37" xlink:href="#linear-gradient-sho"/><linearGradient id="linear-gradient-sho-7" x1="143.94" y1="30.99" x2="149.31" y2="30.99" xlink:href="#linear-gradient-sho"/><linearGradient id="linear-gradient-sho-8" x1="147.36" y1="29.01" x2="152.73" y2="29.01" xlink:href="#linear-gradient-sho"/><linearGradient id="linear-gradient-sho-9" x1="158.26" y1="37.16" x2="163.63" y2="37.16" xlink:href="#linear-gradient-sho"/><linearGradient id="linear-gradient-sho-10" x1="161.68" y1="35.19" x2="167.05" y2="35.19" xlink:href="#linear-gradient-sho"/><linearGradient id="linear-gradient-sho-11" x1="155.95" y1="33.8" x2="161.31" y2="33.8" xlink:href="#linear-gradient-sho"/><linearGradient id="linear-gradient-sho-12" x1="159.37" y1="31.83" x2="164.74" y2="31.83" xlink:href="#linear-gradient-sho"/><linearGradient id="linear-gradient-sho-13" x1="153.45" y1="30.17" x2="158.82" y2="30.17" xlink:href="#linear-gradient-sho"/><linearGradient id="linear-gradient-sho-14" x1="156.87" y1="28.2" x2="162.24" y2="28.2" xlink:href="#linear-gradient-sho"/><linearGradient id="linear-gradient-sho-15" x1="151.13" y1="26.81" x2="156.5" y2="26.81" xlink:href="#linear-gradient-sho"/><linearGradient id="linear-gradient-sho-16" x1="154.55" y1="24.84" x2="159.92" y2="24.84" xlink:href="#linear-gradient-sho"/><linearGradient id="linear-gradient-sho-17" x1="165.46" y1="32.99" x2="170.82" y2="32.99" xlink:href="#linear-gradient-sho"/><linearGradient id="linear-gradient-sho-18" x1="168.88" y1="31.01" x2="174.24" y2="31.01" xlink:href="#linear-gradient-sho"/><linearGradient id="linear-gradient-sho-19" x1="163.14" y1="29.63" x2="168.51" y2="29.63" xlink:href="#linear-gradient-sho"/><linearGradient id="linear-gradient-sho-20" x1="166.56" y1="27.65" x2="171.93" y2="27.65" xlink:href="#linear-gradient-sho"/><linearGradient id="linear-gradient-sho-21" x1="160.64" y1="26" x2="166.01" y2="26" xlink:href="#linear-gradient-sho"/><linearGradient id="linear-gradient-sho-22" x1="164.06" y1="24.03" x2="169.43" y2="24.03" xlink:href="#linear-gradient-sho"/><linearGradient id="linear-gradient-sho-23" x1="158.33" y1="22.64" x2="163.69" y2="22.64" xlink:href="#linear-gradient-sho"/><linearGradient id="linear-gradient-sho-24" x1="161.75" y1="20.67" x2="167.11" y2="20.67" xlink:href="#linear-gradient-sho"/><linearGradient id="linear-gradient-sho-25" x1="132.65" y1="40.97" x2="152.44" y2="40.97" xlink:href="#linear-gradient-sho"/><radialGradient id="radial-gradient-sho-2" cx="338.92" cy="48.46" r="9.46" xlink:href="#radial-gradient-sho"/><radialGradient id="radial-gradient-sho-3" cx="336.7" cy="50.45" r="15.04" xlink:href="#radial-gradient-sho"/><linearGradient id="linear-gradient-sho-26" x1="131.49" y1="32.9" x2="112.88" y2="75.1" xlink:href="#linear-gradient-sho"/><linearGradient id="linear-gradient-sho-27" x1="133.62" y1="33.84" x2="115.01" y2="76.04" xlink:href="#linear-gradient-sho"/><linearGradient id="linear-gradient-sho-28" x1="128.31" y1="31.5" x2="109.7" y2="73.7" xlink:href="#linear-gradient-sho"/><linearGradient id="linear-gradient-sho-29" x1="130.45" y1="32.44" x2="111.83" y2="74.64" xlink:href="#linear-gradient-sho"/><linearGradient id="linear-gradient-sho-30" x1="124.88" y1="29.99" x2="106.27" y2="72.18" xlink:href="#linear-gradient-sho"/><linearGradient id="linear-gradient-sho-31" x1="127.01" y1="30.93" x2="108.4" y2="73.13" xlink:href="#linear-gradient-sho"/><linearGradient id="linear-gradient-sho-32" x1="121.7" y1="28.59" x2="103.09" y2="70.78" xlink:href="#linear-gradient-sho"/><linearGradient id="linear-gradient-sho-33" x1="123.84" y1="29.53" x2="105.22" y2="71.72" xlink:href="#linear-gradient-sho"/><linearGradient id="linear-gradient-sho-34" x1="135.97" y1="34.88" x2="117.36" y2="77.08" xlink:href="#linear-gradient-sho"/><linearGradient id="linear-gradient-sho-35" x1="138.11" y1="35.82" x2="119.49" y2="78.02" xlink:href="#linear-gradient-sho"/><linearGradient id="linear-gradient-sho-36" x1="132.79" y1="33.48" x2="114.18" y2="75.67" xlink:href="#linear-gradient-sho"/><linearGradient id="linear-gradient-sho-37" x1="134.93" y1="34.42" x2="116.31" y2="76.62" xlink:href="#linear-gradient-sho"/><linearGradient id="linear-gradient-sho-38" x1="129.36" y1="31.96" x2="110.75" y2="74.16" xlink:href="#linear-gradient-sho"/><linearGradient id="linear-gradient-sho-39" x1="131.5" y1="32.9" x2="112.88" y2="75.1" xlink:href="#linear-gradient-sho"/><linearGradient id="linear-gradient-sho-40" x1="126.18" y1="30.56" x2="107.57" y2="72.76" xlink:href="#linear-gradient-sho"/><linearGradient id="linear-gradient-sho-41" x1="128.32" y1="31.5" x2="109.7" y2="73.7" xlink:href="#linear-gradient-sho"/><linearGradient id="linear-gradient-sho-42" x1="140.45" y1="36.86" x2="121.84" y2="79.05" xlink:href="#linear-gradient-sho"/><linearGradient id="linear-gradient-sho-43" x1="142.59" y1="37.8" x2="123.97" y2="79.99" xlink:href="#linear-gradient-sho"/><linearGradient id="linear-gradient-sho-44" x1="137.27" y1="35.45" x2="118.66" y2="77.65" xlink:href="#linear-gradient-sho"/><linearGradient id="linear-gradient-sho-45" x1="139.41" y1="36.39" x2="120.79" y2="78.59" xlink:href="#linear-gradient-sho"/><linearGradient id="linear-gradient-sho-46" x1="133.84" y1="33.94" x2="115.23" y2="76.14" xlink:href="#linear-gradient-sho"/><linearGradient id="linear-gradient-sho-47" x1="135.98" y1="34.88" x2="117.36" y2="77.08" xlink:href="#linear-gradient-sho"/><linearGradient id="linear-gradient-sho-48" x1="130.66" y1="32.54" x2="112.05" y2="74.74" xlink:href="#linear-gradient-sho"/><linearGradient id="linear-gradient-sho-49" x1="132.8" y1="33.48" x2="114.18" y2="75.68" xlink:href="#linear-gradient-sho"/><linearGradient id="linear-gradient-sho-50" x1="410.29" y1="93.46" x2="361.46" y2="48.56" gradientTransform="translate(-294.47 -58.77) rotate(9.41)" gradientUnits="userSpaceOnUse"><stop offset="0" stop-color="#313b4f" stop-opacity="0"/><stop offset="0.85" stop-color="#0dc9a8"/></linearGradient><linearGradient id="linear-gradient-sho-51" x1="412.2" y1="94.16" x2="344.85" y2="32.22" xlink:href="#linear-gradient-sho-50"/><linearGradient id="linear-gradient-sho-52" x1="411.39" y1="93.91" x2="367.1" y2="53.19" gradientTransform="translate(-294.47 -58.77) rotate(9.41)" gradientUnits="userSpaceOnUse"><stop offset="0"/><stop offset="1" stop-color="#4ceaf5"/></linearGradient><linearGradient id="linear-gradient-sho-53" x1="83.65" y1="91.31" x2="93.05" y2="91.31" gradientTransform="matrix(1, 0, 0, 1, 0, 0)" xlink:href="#linear-gradient-sho-50"/><radialGradient id="radial-gradient-sho-4" cx="380.76" cy="65.68" r="1.89" gradientTransform="translate(-294.47 -58.77) rotate(9.41)" gradientUnits="userSpaceOnUse"><stop offset="0" stop-color="#fff"/><stop offset="1"/></radialGradient><radialGradient id="radial-gradient-sho-5" cx="375.94" cy="61.33" r="1.35" xlink:href="#radial-gradient-sho-4"/></defs><g class="sho-1"><g id="_ÎÓÈ_1" data-name="—ÎÓÈ_1"><polygon class="sho-2" points="50.91 28.96 74.98 19.88 82.54 36.03 58.47 45.11 50.91 28.96"/><path class="sho-3" d="M60.7,39.43l.36.78-.78.29-.36-.78Zm-.9.34.36.78-.78.29L59,40.06Zm.42.89.36.79-.78.29L59.44,41Zm.11,0,.78-.29.37.78-.78.29Zm-1.43-.51.36.78-.77.29-.37-.78Zm.42.89.36.78-.78.29-.36-.78Zm.42.9.36.78-.78.29L59,42.19Zm.11,0,.78-.29.36.78-.77.29Zm.9-.33.78-.3.36.78-.78.3Zm-3.52-.79.77-.29.37.78-.78.3Zm.41.9.78-.29.36.78-.77.29Zm.42.9.78-.3.36.79-.78.29Zm.78,1.67-.36-.78.77-.29.37.78Zm.9-.33-.37-.78.78-.3.36.78Zm.89-.34-.36-.78.78-.29.36.78Zm.9-.34-.36-.78.78-.29.36.78Z"/><path class="sho-4" d="M64.39,38l.37.78-.78.29-.37-.78Zm-.89.34.36.78-.78.29-.36-.78Zm.41.89.37.79-.78.29-.37-.78Zm.12,0,.78-.29.36.78-.78.29Zm-1.43-.51.36.78-.78.29L61.82,39Zm.42.89.36.78-.78.29-.36-.78Zm.41.9.37.78-.78.29-.37-.78Zm.12,0,.78-.29.36.78-.78.29Zm.9-.33.78-.3.36.78-.78.3Zm-3.53-.79.78-.29.37.78-.78.3Zm.42.9.78-.29.36.78L61.7,41Zm.42.9.78-.3.36.79-.78.29Zm.78,1.67L62.17,42l.78-.29.37.78Zm.89-.33-.36-.78.78-.3.36.78Zm.9-.34L64,41.36l.78-.29.36.78Zm.9-.34L64.86,41l.78-.29.37.78Z"/><path class="sho-5" d="M59,35.74l.36.78-.77.29L58.18,36Zm-.9.34.37.78-.78.29-.36-.78Zm.42.89.36.78-.77.3-.37-.79Zm.12,0,.78-.3.36.79-.78.29Zm-1.43-.52.36.78-.78.3-.36-.78Zm.41.9.37.78-.78.29-.36-.78Zm.42.89.36.79-.77.29-.37-.78Zm.12,0,.78-.29.36.78-.78.29Zm.9-.34.77-.29.37.78-.78.29ZM55.49,37l.78-.29.36.78-.77.29Zm.42.9.78-.29.36.78-.78.29Zm.42.89.77-.29.37.78-.78.3Zm.78,1.68-.37-.78.78-.29.36.78Zm.89-.34-.36-.78.78-.29.36.78Zm.9-.33-.36-.78.77-.3.37.79Zm.9-.34-.37-.78.78-.29.36.78Z"/><path class="sho-6" d="M62.66,34.35l.36.78-.78.29-.36-.78Zm-.9.34.36.78-.77.29L61,35Zm.42.89.36.78-.78.29-.36-.78Zm.12,0,.77-.3.37.79-.78.29ZM60.86,35l.37.78-.78.3-.36-.79Zm.42.9.36.78-.77.29-.37-.78Zm.42.89.36.79-.78.29-.36-.78Zm.12,0,.77-.29.37.78-.78.29Zm.89-.34.78-.29.36.78-.77.29Zm-3.52-.78.78-.29.36.78-.78.29Zm.42.9.77-.29.37.78-.78.29Zm.41.89.78-.29.36.78-.77.3Zm.78,1.68-.36-.78.78-.29.36.78Zm.9-.34L61.34,38l.77-.29.37.78Zm.9-.33-.37-.78.78-.3.36.79Zm.89-.34-.36-.78.78-.29.36.78Z"/><path class="sho-7" d="M57.09,31.75l.36.78-.78.29L56.31,32Zm-.9.34.36.78-.77.29-.37-.78Zm.42.89.36.79-.78.29-.36-.78Zm.12,0,.78-.29.36.78-.78.29Zm-1.44-.51.37.78-.78.29-.36-.78Zm.42.89.36.78-.77.29-.37-.78Zm.42.9.36.78-.78.29-.36-.78Zm.12,0,.78-.29.36.78-.78.29Zm.89-.33.78-.3.37.78-.78.3Zm-3.52-.79.78-.29.36.78-.78.3ZM54,34l.77-.29.37.78-.78.29Zm.41.9.78-.3.36.79-.77.29Zm.78,1.67-.36-.78.78-.29.36.78Zm.9-.33-.36-.78.77-.3.37.78Zm.9-.34-.37-.78.78-.29.37.78Zm.89-.34-.36-.78.78-.29.36.78Z"/><path class="sho-8" d="M60.79,30.36l.36.78-.78.29L60,30.65Zm-.9.34.36.78-.78.29L59.11,31Zm.42.89.36.79-.78.29-.36-.78Zm.11,0,.78-.29.37.78-.78.29ZM59,31l.37.79-.78.29-.37-.78Zm.42.9.36.78L59,33l-.36-.78Zm.42.9.36.78-.78.29-.36-.78Zm.11,0,.78-.29.37.78-.78.29Zm.9-.33.78-.3.36.78-.78.3Zm-3.52-.79.78-.29.36.78-.78.3Zm.41.9.78-.29.37.78-.78.29Zm.42.9.78-.3.36.79-.78.29Zm.78,1.67-.36-.78.78-.29.36.78Zm.9-.33L59.46,34l.78-.3.36.78Zm.89-.34-.36-.78.78-.29.36.78Zm.9-.34-.36-.78.78-.29.36.78Z"/><path class="sho-9" d="M55.35,28.06l.37.78-.78.29-.36-.78Zm-.89.34.36.78-.78.29-.36-.78Zm.41.89.37.78-.78.29-.36-.78Zm.12,0,.78-.3.36.79-.77.29Zm-1.43-.52.36.78-.77.3L52.78,29Zm.42.9.36.78-.78.29-.36-.78Zm.41.89.37.79L54,31.6l-.36-.78Zm.12,0,.78-.29.36.78-.77.29Zm.9-.34.78-.29.36.78-.78.29Zm-3.52-.78.77-.29.37.78-.78.29Zm.41.9.78-.29.36.78-.77.29Zm.42.89.78-.29.36.78-.78.29Zm.78,1.68-.36-.78.77-.29.37.78Zm.9-.34L54,31.71l.78-.29.36.78Zm.89-.33-.36-.78.78-.3.36.78Zm.9-.34L55.83,31l.77-.29.37.78Z"/><path class="sho-10" d="M59.05,26.67l.36.78-.77.29L58.27,27Zm-.9.34.37.78-.78.29-.36-.78Zm.42.89.36.78-.77.29-.37-.78Zm.12,0,.78-.3.36.79-.78.29Zm-1.43-.52.36.78-.78.3-.36-.79Zm.41.9L58,29l-.78.29-.36-.78Zm.42.89.36.79-.77.29-.37-.78Zm.12,0L59,28.8l.36.78-.78.29Zm.9-.34.77-.29.37.78-.78.29ZM55.58,28l.78-.29.36.78-.77.29Zm.42.9.78-.29.36.78-.78.29Zm.42.89.77-.29.37.78-.78.3Zm.78,1.68-.37-.78.78-.29.36.78Zm.89-.34-.36-.78.78-.29.36.78Zm.9-.33L58.63,30l.77-.3.37.78Zm.9-.34-.37-.78.78-.29.36.78Z"/><path class="sho-11" d="M68.47,36.49l.37.78-.78.29-.36-.78Zm-.89.34.36.78-.78.29-.36-.78Zm.41.89.37.79-.78.29L67.22,38Zm.12,0,.78-.29.36.78-.77.29Zm-1.43-.51L67,38l-.78.29-.36-.78Zm.42.89.36.78-.78.29-.36-.78Zm.41.9.37.78L67.1,40l-.36-.78Zm.12-.05.78-.29.36.78-.77.29Zm.9-.33.78-.3.36.78-.78.3ZM65,37.79l.77-.29.37.78-.78.3Zm.41.9.78-.29.36.78-.77.29Zm.42.9.78-.3.36.79-.78.29Zm.78,1.67-.37-.78.78-.29.37.78Zm.89-.33-.36-.78.78-.3.36.78Zm.9-.34-.36-.78.78-.29.36.78Zm.9-.34L69,39.47l.77-.29.37.78Z"/><path class="sho-12" d="M72.17,35.1l.36.78-.77.29-.37-.78Zm-.9.34.37.78-.78.29-.36-.78Zm.42.89.36.79-.77.29-.37-.78Zm.12,0,.78-.29.36.78-.78.29Zm-1.43-.51.36.78-.78.29-.36-.78Zm.41.89.37.78-.78.29L70,37Zm.42.9.36.78-.77.29-.37-.78Zm.12,0,.78-.29.36.78-.78.29Zm.9-.33.77-.3.37.78-.78.3ZM68.7,36.4l.78-.29.36.78-.77.3Zm.42.9L69.9,37l.36.78-.78.29Zm.42.9.77-.3.37.79L69.9,39Zm.78,1.67L70,39.09l.78-.29.36.78Zm.89-.33-.36-.78.78-.3.36.78Zm.9-.34-.36-.78.77-.29.37.78Zm.9-.34-.37-.78.78-.29.36.78Z"/><path class="sho-13" d="M66.74,32.8l.36.78-.78.29L66,33.09Zm-.9.34.36.78-.77.29-.37-.78Zm.42.89.36.78-.78.3-.36-.79Zm.12,0,.78-.29.36.78-.78.29Zm-1.44-.52.37.78-.78.3-.36-.78Zm.42.9.36.78-.77.29-.37-.78Zm.42.9.36.78-.78.29L65,35.56Zm.12-.05.78-.29.36.78-.78.29Zm.89-.34.78-.29.37.78-.78.29Zm-3.52-.78.78-.29.36.78-.78.29Zm.42.9.77-.29.37.78-.78.29Zm.41.89.78-.29.36.78-.77.3Zm.78,1.68-.36-.78.78-.29.36.78Zm.9-.34-.36-.78.77-.29.37.78Zm.9-.33-.37-.78.78-.3.36.79Zm.89-.34-.36-.78.78-.29.36.78Z"/><path class="sho-14" d="M70.44,31.41l.36.78-.78.29-.36-.78Zm-.9.34.36.78-.78.29L68.76,32Zm.42.89.36.78-.78.3-.36-.79Zm.11,0,.78-.3.37.79-.78.29Zm-1.43-.52.37.78-.78.3-.37-.78Zm.42.9.36.78-.78.29-.36-.78Zm.42.9.36.78-.78.29-.36-.78Zm.11-.05.78-.29.37.78-.78.29Zm.9-.34.78-.29.36.78-.78.29ZM67,32.71l.78-.29.36.78-.78.29Zm.41.9.78-.29.37.78-.78.29Zm.42.89.78-.29.36.78-.78.3Zm.78,1.68-.36-.78.78-.29.36.78Zm.9-.34-.37-.78.78-.29.37.78Zm.89-.33L70,34.73l.78-.3.36.79Zm.9-.34-.36-.78.78-.29.36.78Z"/><path class="sho-15" d="M64.87,28.81l.36.78-.78.29-.36-.78Zm-.9.34.36.78-.77.29-.37-.78Zm.42.89.36.79-.78.29-.36-.78Zm.12,0,.77-.29.37.78-.78.29Zm-1.44-.51.37.78-.78.29-.36-.78Zm.42.89.36.78-.77.29-.37-.78Zm.42.9.36.78-.78.29-.36-.78Zm.12-.05.77-.29.37.78-.78.29Zm.89-.33.78-.3.36.78-.77.3Zm-3.52-.79.78-.29.36.78-.78.3Zm.42.9.77-.29.37.78-.78.29Zm.41.9.78-.3.36.79-.78.29ZM63,33.58l-.36-.78.78-.29.36.78Zm.9-.33-.36-.78.77-.3.37.78Zm.89-.34-.36-.78.78-.29.36.78Zm.9-.34-.36-.78.78-.29.36.78Z"/><path class="sho-16" d="M68.56,27.42l.37.78-.78.29-.36-.78Zm-.89.34.36.78-.78.29-.36-.78Zm.41.89.37.79-.78.29L67.31,29Zm.12,0,.78-.29.36.78-.77.29Zm-1.43-.51.36.78-.77.29L66,28.39Zm.42.89.36.78-.78.29-.36-.78Zm.41.9.37.78-.78.29-.36-.78Zm.12-.05.78-.29.36.78-.77.29Zm.9-.33.78-.3.36.78-.78.3Zm-3.52-.79.77-.29.37.78-.78.3Zm.41.9.78-.29.36.78-.77.29Zm.42.9.78-.3.36.79-.78.29Zm.78,1.67-.36-.78.77-.29.37.78Zm.9-.33-.37-.78.78-.3.36.78Zm.89-.34-.36-.78.78-.29.36.78Zm.9-.34L69,30.4l.77-.29.37.78Z"/><path class="sho-17" d="M63.13,25.12l.37.78-.78.29-.37-.78Zm-.89.34.36.78-.78.29-.36-.78Zm.41.89.36.78-.77.3-.37-.79Zm.12,0,.78-.29.36.78-.78.29Zm-1.43-.52.36.78-.78.3-.36-.78Zm.42.9.36.78-.78.29L61,27Zm.41.89.36.79-.77.29-.37-.78Zm.12,0,.78-.29.36.78-.78.29Zm.9-.34.78-.29.36.78-.78.29Zm-3.53-.78.78-.29.36.78L60,27.2Zm.42.9.78-.29.36.78-.78.29Zm.42.89.77-.29.37.78-.78.3Zm.78,1.68-.37-.78.78-.29.36.78Zm.89-.34-.36-.78.78-.29.36.78Zm.9-.33-.36-.78.78-.3.36.79Zm.9-.34-.37-.78.78-.29.36.78Z"/><path class="sho-18" d="M66.83,23.73l.36.78-.78.29L66.05,24Zm-.9.34.37.78-.78.29-.37-.78Zm.42.89.36.78-.78.3-.36-.79Zm.12,0,.78-.3.36.79-.78.29ZM65,24.4l.36.78-.78.3-.36-.79Zm.41.9.37.78-.78.29-.37-.78Zm.42.89.36.79-.78.29-.36-.78Zm.12,0,.78-.29.36.78-.78.29Zm.89-.34.78-.29.37.78-.78.29ZM63.36,25l.78-.29.36.78-.78.29Zm.42.9.78-.29.36.78-.78.29Zm.41.89.78-.29.37.78-.78.3ZM65,28.5l-.36-.78.78-.29.36.78Zm.9-.34-.36-.78.78-.29.36.78Zm.9-.33-.37-.78.78-.3.37.79Zm.89-.34-.36-.78.78-.29.36.78Z"/><path class="sho-19" d="M76.25,33.55l.36.78-.77.3-.37-.79Zm-.9.34.37.78-.78.29-.36-.78Zm.42.89.36.79-.77.29L75,35.08Zm.12,0,.78-.29.36.78-.78.29Zm-1.43-.51.36.78L74,35.3l-.36-.78Zm.41.89.37.78-.78.3-.36-.79Zm.42.9.36.78-.77.29-.37-.78Zm.12-.05.78-.29.36.78-.78.29Zm.9-.33.77-.3.37.79-.78.29Zm-3.53-.78.78-.3.36.78-.77.3Zm.42.89.78-.29.36.78-.78.29Zm.42.9.77-.3.37.79-.78.29Zm.78,1.67L74,37.54l.78-.29.36.78Zm.89-.33-.36-.78.78-.3.36.79Zm.9-.34-.36-.78.77-.29.37.78Zm.9-.34-.37-.78.78-.29.36.78Z"/><path class="sho-20" d="M80,32.16l.36.78-.78.29-.36-.78Zm-.9.34.37.78-.78.29-.37-.78Zm.42.89.36.79-.78.29-.36-.78Zm.12,0,.78-.29.36.78-.78.29Zm-1.43-.51.36.78-.78.29-.36-.78Zm.41.89.37.78-.78.3L77.79,34Zm.42.9.36.78-.78.29-.36-.78Zm.12-.05.78-.29.36.78-.78.29Zm.89-.33.78-.3.37.79-.78.29Zm-3.52-.79.78-.29.36.78-.78.3Zm.42.9.77-.29.37.78-.78.29Zm.41.9.78-.3.36.79-.77.29Zm.78,1.67-.36-.78.78-.29.36.78Zm.9-.33-.36-.78.78-.3.36.79Zm.9-.34-.37-.78.78-.29.36.78Zm.89-.34-.36-.78.78-.29.36.78Z"/><path class="sho-21" d="M74.52,29.86l.36.78-.78.29-.36-.78Zm-.9.34L74,31l-.77.29-.37-.78Zm.42.89.36.78-.78.3-.36-.79Zm.12,0,.77-.29.37.78-.78.29Zm-1.44-.52.37.78-.78.3L72,30.83Zm.42.9.36.78-.78.29-.36-.78Zm.42.9.36.78-.78.29-.36-.78Zm.12,0,.77-.29.37.78-.78.29Zm.89-.34.78-.29.36.78-.77.29Zm-3.52-.78.78-.29.36.78-.78.29Zm.41.9.78-.29.37.78-.78.29Zm.42.89.78-.29.36.78-.78.3Zm.78,1.68-.36-.78.78-.29.36.78Zm.9-.34-.37-.78.78-.29.37.78Zm.89-.33-.36-.78.78-.3.36.79Zm.9-.34L75,32.84l.78-.29.36.78Z"/><path class="sho-22" d="M78.21,28.47l.37.78-.78.29-.36-.78Zm-.89.34.36.78-.78.29-.36-.78Zm.41.89.37.78-.78.3L77,30Zm.12,0,.78-.29.36.78-.77.29Zm-1.43-.52.36.78-.77.3-.37-.78Zm.42.9.36.78-.78.29-.36-.78Zm.41.9.37.78-.78.29-.36-.78Zm.12-.05.78-.29.36.78-.77.29Zm.9-.34.78-.29.36.78-.78.29Zm-3.52-.78.77-.29.37.78-.78.29Zm.41.9.78-.29.36.78-.77.29Zm.42.89.78-.29.36.78-.78.3Zm.78,1.68L76,32.46l.77-.29.37.78Zm.9-.34-.37-.78.78-.29.36.78Zm.89-.33-.36-.78.78-.3.36.79Zm.9-.34-.36-.78.77-.29.37.78Z"/><path class="sho-23" d="M72.65,25.87l.36.78-.78.29-.36-.78Zm-.9.34.36.78-.78.29L71,26.5Zm.41.89.37.79-.78.29-.36-.78Zm.12,0,.78-.29.36.78-.77.29Zm-1.43-.51.36.78-.77.29-.37-.78Zm.42.89.36.78-.78.29-.36-.78Zm.41.9.37.78-.78.29-.36-.78Zm.12-.05.78-.29.36.78-.77.29Zm.9-.33.78-.3.36.78-.78.3Zm-3.52-.79.77-.29.37.78-.78.3Zm.41.9.78-.29.36.78-.77.29ZM70,29l.78-.3.36.79-.78.29Zm.78,1.67-.36-.78.77-.29.37.78Zm.9-.33-.37-.78.78-.3.36.79Zm.89-.34-.36-.78L73,28.9l.36.78Zm.9-.34-.36-.78.78-.29.36.78Z"/><path class="sho-24" d="M76.34,24.48l.37.78-.78.29-.37-.78Zm-.89.34.36.78-.78.29-.36-.78Zm.41.89.37.79-.78.29L75.08,26Zm.12,0,.78-.29.36.78-.78.29Zm-1.43-.51.36.78-.78.29-.36-.78Zm.42.89.36.78-.78.29-.36-.78Zm.41.9.37.78L75,28l-.37-.78Zm.12-.05.78-.29.36.78-.78.29Zm.9-.33.78-.3.36.78-.78.3Zm-3.53-.79.78-.29.36.78-.77.3Zm.42.9.78-.29.36.78-.78.29Zm.42.9.78-.3.36.79-.78.29Zm.78,1.67-.37-.78.78-.29.36.78Zm.89-.33L75,28.14l.78-.3.36.78Zm.9-.34-.36-.78.78-.29.36.78Zm.9-.34-.37-.78.78-.29L78,28Z"/><path class="sho-25" d="M70.91,22.18l.36.78-.77.29-.37-.78Zm-.9.34.37.78-.78.29-.36-.78Zm.42.89.36.78-.78.3-.36-.79Zm.12,0,.78-.29.36.78-.78.29Zm-1.43-.52.36.78-.78.3-.36-.78Zm.41.9.37.78-.78.29L68.76,24Zm.42.9.36.78-.78.29-.36-.78Zm.12,0,.78-.29.36.78-.78.29Zm.9-.34.77-.29.37.78-.78.29Zm-3.53-.78.78-.29.36.78-.77.29Zm.42.9.78-.29.36.78-.78.29Zm.42.89.77-.29.37.78-.78.3ZM69.05,27l-.36-.78.78-.29.36.78Zm.9-.34-.36-.78.78-.29.36.78Zm.9-.33-.36-.78.77-.3.37.79Zm.9-.34-.37-.78.78-.29.36.78Z"/><path class="sho-26" d="M74.61,20.79l.36.78-.78.29-.36-.78Zm-.9.34.36.78-.77.29-.37-.78Zm.42.89.36.78-.78.3-.36-.79Zm.12,0,.77-.29.37.78-.78.29Zm-1.44-.52.37.78-.78.3L72,21.76Zm.42.9.36.78-.77.29-.37-.78Zm.42.9L74,24l-.78.29-.36-.78Zm.12-.05.77-.29.37.78-.78.29Zm.89-.34.78-.29.36.78-.77.29Zm-3.52-.78.78-.29.36.78-.78.29Zm.42.9.77-.29.37.78-.78.29Zm.41.89.78-.29.36.78-.77.3Zm.78,1.68-.36-.78.78-.29.36.78Zm.9-.34-.36-.78.77-.29.37.78Zm.9-.33-.37-.78.78-.3.36.79Zm.89-.34-.36-.78.78-.29.36.78Z"/><polygon class="sho-27" points="58.16 26.23 75.97 38.51 82.54 36.03 74.98 19.88 58.16 26.23"/><path class="sho-28" d="M49.3,30.09c-.44-.57-1.52-.64-3-.07a13.84,13.84,0,0,0-6.7,5.71c-.45.92-.47,1.62-.14,2l9.13,11.74c-.33-.42-.3-1.12.14-2a13.91,13.91,0,0,1,6.71-5.71c1.52-.57,2.59-.5,3,.07Z"/><path class="sho-29" d="M43.22,42.62l1-2.21-2.3.57C42.79,42.08,42.63,41.86,43.22,42.62Z"/><path class="sho-30" d="M55.4,41.76c2.65-1,4,0,2.9,2.11a13.91,13.91,0,0,1-6.71,5.71c-2.65,1-4,.05-2.9-2.11A13.91,13.91,0,0,1,55.4,41.76Z"/><polygon class="sho-31" points="44.24 40.41 43.76 39.38 19.69 48.47 20.17 49.49 44.24 40.41"/><polygon class="sho-32" points="13.63 42.5 37.7 33.42 45.27 49.57 21.2 58.65 13.63 42.5"/><path class="sho-33" d="M23.42,53l.36.78L23,54l-.37-.78Zm-.9.34.37.78-.78.29-.36-.78Zm.42.89.36.78-.77.3-.37-.78Zm.12,0,.78-.29.36.78-.78.29Zm-1.43-.52.36.78-.78.3-.36-.78Zm.41.9.37.78-.78.29-.36-.78Zm.42.9.36.78-.77.29-.37-.78Zm.12,0,.78-.29.36.78-.78.29Zm.9-.34.77-.29.37.78-.78.3ZM20,54.27l.78-.29.36.78-.77.29Zm.42.9.78-.29.36.78-.78.29Zm.42.9.77-.3.37.78-.78.3Zm.78,1.67L21.2,57l.78-.29.36.78Zm.89-.33-.36-.79.78-.29.36.78Zm.9-.34L23,56.29l.77-.29.37.78Zm.9-.34L23.89,56l.78-.29.36.78Z"/><path class="sho-34" d="M27.12,51.58l.36.78-.78.29-.36-.78Zm-.9.34.36.78-.77.29-.37-.78Zm.42.89.36.78-.78.3-.36-.78Zm.12,0,.77-.29.37.78-.78.29Zm-1.44-.52.37.78-.78.3-.36-.78Zm.42.9.36.78-.77.29L25,53.44Zm.42.9.36.78-.78.29-.36-.78Zm.12,0,.77-.29.37.78-.78.29Zm.89-.34.78-.29.36.78-.77.3Zm-3.52-.78.78-.29.36.78-.78.29Zm.42.9.77-.29.37.78-.78.29Zm.41.9.78-.3.36.78-.77.3Zm.78,1.67-.36-.78.78-.29.36.78Zm.9-.33-.36-.79.77-.29.37.78Zm.9-.34-.37-.78.78-.29.36.78Zm.89-.34-.36-.78.78-.29.36.78Z"/><path class="sho-35" d="M21.69,49.28l.36.78-.78.29-.36-.78Zm-.9.33.36.79-.78.29L20,49.91Zm.42.9.36.78-.78.29-.36-.78Zm.11,0,.78-.3.37.78-.78.3ZM19.89,50l.37.78-.78.29-.37-.78Zm.42.9.36.78-.78.29-.36-.78Zm.42.89.36.78-.78.3L20,52Zm.11,0,.78-.29.37.78-.78.29Zm.9-.34.78-.29.36.78-.78.29Zm-3.52-.78.78-.29.36.78-.78.29Zm.41.9.78-.3.36.79-.77.29Zm.42.89.78-.29.36.78-.78.29Zm.78,1.68-.36-.78.78-.29.36.78Zm.9-.34-.37-.78.78-.29.36.78Zm.89-.33-.36-.79L22,52.3l.36.78Zm.9-.34-.36-.78.78-.29.36.78Z"/><path class="sho-36" d="M25.38,47.89l.37.78L25,49l-.36-.78Zm-.89.33.36.79-.78.29-.36-.78Zm.41.9.37.78-.78.29-.37-.78Zm.12,0,.78-.3.36.78-.78.3Zm-1.43-.52.36.78-.78.29-.36-.78Zm.42.9.36.78-.78.29-.36-.78Zm.41.89.37.78-.78.3-.37-.78Zm.12,0,.78-.29.36.78-.78.29Zm.9-.34.78-.29.36.78-.78.29Zm-3.53-.78.78-.29.37.78-.78.29Zm.42.9.78-.3.36.79-.78.29Zm.42.89.78-.29.36.78-.78.29Zm.78,1.68-.37-.78.78-.29.37.78Zm.89-.34-.36-.78.78-.29.36.78Zm.9-.33L25,51.2l.78-.29.36.78Zm.9-.34-.36-.78.77-.29.37.78Z"/><path class="sho-37" d="M19.81,45.29l.37.78-.78.29L19,45.58Zm-.89.34.36.78-.78.29-.36-.78Zm.41.89.37.78-.78.3-.36-.79Zm.12,0,.78-.29.36.78-.77.29ZM18,46l.36.78-.77.3-.37-.78Zm.42.9.36.78-.78.29-.36-.78Zm.41.9.37.78-.78.29-.36-.78Zm.12,0,.78-.29.36.78-.77.29Zm.9-.34.78-.29.36.78-.78.3Zm-3.52-.78.77-.29.37.78-.78.29Zm.41.9.78-.29.36.78-.78.29Zm.42.9.78-.3.36.78-.78.3ZM18,50.06l-.36-.78.77-.29.37.78Zm.9-.33-.37-.79.78-.29.36.78Zm.89-.34-.36-.78.78-.3.36.79Zm.9-.34-.36-.78.77-.29.37.78Z"/><path class="sho-38" d="M23.51,43.9l.36.78L23.1,45l-.37-.78Zm-.9.34L23,45l-.78.29-.36-.78Zm.42.89.36.78-.77.3-.37-.79Zm.12,0,.78-.29.36.78-.78.29Zm-1.43-.52.36.78-.78.3-.36-.78Zm.41.9.37.78-.78.29-.36-.78Zm.42.9.36.78-.77.29-.37-.78Zm.12,0,.78-.29.36.78L23,47.1Zm.9-.34.77-.29.37.78-.78.3ZM20,45.2l.78-.29.36.78-.77.29Zm.42.9.78-.29.36.78-.78.29Zm.42.89.77-.29.37.78-.78.3Zm.78,1.68-.37-.78.78-.29.36.78Zm.89-.33-.36-.79.78-.29.36.78Zm.9-.34-.36-.78.77-.3.37.79Zm.9-.34L24,46.88l.78-.29.36.78Z"/><path class="sho-39" d="M18.08,41.6l.36.78-.78.29-.36-.78Zm-.9.33.37.78-.78.3-.37-.78Zm.42.9.36.78-.78.29-.36-.78Zm.12,0,.78-.3.36.78-.78.3Zm-1.43-.52.36.78-.78.29-.36-.78Zm.41.9.37.78-.78.29-.37-.78Zm.42.89.36.78-.78.3-.36-.78Zm.12,0,.78-.29.36.78-.78.29Zm.89-.34.78-.29.37.78-.78.29Zm-3.52-.78.78-.29.36.78-.78.29Zm.42.9.78-.3.36.78-.78.3Zm.41.89.78-.29.36.78-.77.29Zm.78,1.68-.36-.78.78-.29.36.78Zm.9-.34-.36-.78.78-.29.36.78Zm.9-.33-.37-.79.78-.29.37.78Zm.89-.34-.36-.78.78-.29.36.78Z"/><path class="sho-40" d="M21.78,40.21l.36.78-.78.29L21,40.5Zm-.9.33.36.78-.78.3-.36-.78Zm.42.9.36.78-.78.29-.36-.78Zm.12,0,.77-.3.37.78-.78.3ZM20,40.88l.37.78-.78.29-.37-.78Zm.42.9.36.78-.78.29-.36-.78Zm.42.89.36.78-.78.3L20,43Zm.11,0,.78-.29.37.78-.78.29Zm.9-.34.78-.29.36.78-.78.29Zm-3.52-.78.78-.29.36.78-.78.29Zm.41.9.78-.3.37.78-.78.3Zm.42.89.78-.29.36.78-.78.29ZM19.92,45l-.36-.78.78-.29.36.78Zm.9-.34-.37-.78.78-.29.37.78Zm.89-.33-.36-.79.78-.29.36.78Zm.9-.34-.36-.78L23,42.9l.36.78Z"/><path class="sho-41" d="M31.2,50l.36.78-.78.29-.36-.78Zm-.9.34.36.78-.77.29-.37-.78Zm.42.89.36.78-.78.3-.36-.78Zm.12,0,.78-.29.36.78L31.2,52ZM29.4,50.7l.37.78-.78.3L28.63,51Zm.42.9.36.78-.77.29L29,51.89Zm.42.9.36.78-.78.29-.36-.78Zm.12,0,.78-.29.36.78-.78.29Zm.89-.34.78-.29.37.78-.78.3Zm-3.52-.78.78-.29.36.78-.78.29Zm.42.9.77-.29.37.78-.78.29Zm.41.9.78-.3.36.78-.77.3Zm.78,1.67L29,54l.78-.29.36.78Zm.9-.33-.36-.79.77-.29.37.78Zm.9-.34-.37-.78.78-.29.36.78Zm.89-.34L31.67,53l.78-.29.36.78Z"/><path class="sho-42" d="M34.9,48.64l.36.78-.78.29-.36-.78ZM34,49l.36.78-.78.29-.36-.78Zm.42.89.36.78L34,51l-.36-.78Zm.11,0,.78-.29.37.78-.78.29Zm-1.43-.52.37.78-.78.3-.37-.78Zm.42.9.36.78-.78.29-.36-.78Zm.42.9.36.78-.78.29-.36-.78Zm.11,0,.78-.29.37.78-.78.29Zm.9-.34.78-.29.36.78-.78.3Zm-3.52-.78.78-.29.36.78-.78.29Zm.41.9.78-.29.37.78-.78.29Zm.42.9.78-.3.36.78-.78.3ZM33,53.41l-.36-.78.77-.29.37.78Zm.9-.33-.37-.79.78-.29.37.78Zm.89-.34L34.47,52l.78-.29.36.78Zm.9-.34-.36-.78.78-.29.36.78Z"/><path class="sho-43" d="M29.46,46.34l.37.78-.78.29-.36-.78Zm-.89.33.36.79-.78.29L27.79,47Zm.41.9.37.78-.78.29-.36-.78Zm.12,0,.78-.3.36.78-.77.3ZM27.67,47l.36.78-.77.29-.37-.78Zm.42.9.36.78-.78.29-.36-.78Zm.41.89.37.78-.78.3-.36-.78Zm.12,0,.78-.29.36.78-.77.29Zm.9-.34.78-.29.36.78-.78.29ZM26,47.64l.77-.29.37.78-.78.29Zm.41.9.78-.3.36.79-.77.29Zm.42.89.78-.29.36.78-.78.29Zm.78,1.68-.36-.78L28,50l.37.78Zm.9-.34L28.14,50l.78-.29.36.78Zm.89-.33L29,49.66l.78-.3.36.78Zm.9-.34-.36-.78.77-.29.37.78Z"/><path class="sho-44" d="M33.16,45l.36.78-.77.29-.37-.78Zm-.9.33.37.79-.78.29-.36-.78Zm.42.9L33,47l-.77.29-.37-.78Zm.12,0,.78-.3.36.78-.78.3Zm-1.43-.52.36.78-.78.29-.36-.78Zm.41.9.37.78-.78.29L31,46.81Zm.42.89.36.78-.77.3-.37-.78Zm.12,0,.78-.29.36.78-.78.29Zm.9-.34.77-.29.37.78-.78.29Zm-3.53-.78.78-.29.36.78-.77.29Zm.42.9.78-.3.36.79-.78.29Zm.42.89.77-.29.37.78-.78.29Zm.78,1.68-.37-.78.78-.29.36.78Zm.89-.34-.36-.78.78-.29.36.78Zm.9-.33-.36-.79.77-.29.37.78Zm.9-.34-.37-.78.78-.29.36.78Z"/><path class="sho-45" d="M27.59,42.35l.37.78-.78.29-.37-.78Zm-.89.34.36.78-.78.29L25.92,43Zm.41.89.36.78-.77.3-.37-.78Zm.12,0,.78-.29.36.78-.78.29ZM25.8,43l.36.78-.78.3L25,43.32Zm.41.9.37.78L25.8,45l-.36-.78Zm.42.9.36.78-.77.29-.37-.78Zm.12,0,.78-.29.36.78-.78.29Zm.9-.34.78-.29.36.78-.78.3Zm-3.53-.78.78-.29.36.78-.77.29Zm.42.9.78-.29.36.78-.78.29Zm.42.9.77-.3.37.78-.78.3Zm.78,1.67-.37-.78.78-.29.36.78Zm.89-.33L26.27,46l.78-.29.36.78Zm.9-.34-.36-.78.78-.29.36.78Zm.9-.34-.37-.78.78-.29.36.78Z"/><path class="sho-46" d="M31.29,41l.36.78-.78.29-.36-.78Zm-.9.34.37.78-.78.29-.37-.78Zm.42.89.36.78-.78.3L30,42.49Zm.12,0,.78-.29.36.78-.78.29Zm-1.43-.52.36.78-.78.3-.36-.78Zm.41.9.37.78-.78.29-.37-.78Zm.42.9.36.78-.78.29-.36-.78Zm.12,0,.78-.29.36.78-.78.29Zm.89-.34.78-.29.37.78-.78.3Zm-3.52-.78L28.6,42l.36.78-.78.29Zm.42.9.78-.29.36.78-.78.29Zm.41.9.78-.3.37.78-.78.3Zm.78,1.67L29.07,45l.78-.29.36.78Zm.9-.33L30,44.61l.78-.29.36.78Zm.9-.34-.37-.78.78-.29.37.78Zm.89-.34-.36-.78.78-.29.36.78Z"/><path class="sho-47" d="M25.86,38.66l.36.78-.78.29L25.08,39ZM25,39l.36.79-.77.29-.37-.78Zm.42.9.36.78L25,41l-.36-.78Zm.12,0,.77-.3.37.78-.78.3Zm-1.44-.52.37.78-.78.29-.36-.78Zm.42.9.36.78-.77.29-.37-.78Zm.42.89.36.78-.78.3-.36-.78Zm.12,0,.77-.29.37.78-.78.29Zm.89-.34.78-.29.36.78-.77.29ZM22.39,40l.78-.29.36.78-.78.29Zm.42.9.77-.3.37.79-.78.29Zm.41.89.78-.29.36.78-.78.29ZM24,43.43l-.36-.78.78-.29.36.78Zm.9-.34-.36-.78.77-.29.37.78Zm.9-.33L25.43,42l.78-.29.36.78Zm.89-.34-.36-.78.78-.29.36.78Z"/><path class="sho-48" d="M29.55,37.27l.37.78-.78.29-.36-.78Zm-.89.33.36.79-.78.29-.36-.78Zm.41.9.37.78-.78.29-.36-.78Zm.12,0,.78-.3.36.78-.77.3Zm-1.43-.52.36.78-.77.29L27,38.23Zm.42.9.36.78-.78.29-.36-.78Zm.41.89.37.78-.78.3L27.82,40Zm.12,0,.78-.29.36.78-.77.29Zm.9-.34.78-.29.36.78-.78.29Zm-3.52-.78.77-.29.37.78-.78.29Zm.41.9.78-.3.36.79-.77.29Zm.42.89.78-.29.36.78-.78.29ZM27.7,42l-.36-.78.77-.29.37.78Zm.9-.34-.37-.78.78-.29.36.78Zm.89-.33-.36-.79.78-.29.36.78Zm.9-.34L30,40.25,30.8,40l.37.78Z"/><path class="sho-49" d="M39,47.09l.36.78-.78.29-.36-.78Zm-.9.34.36.78-.77.29-.37-.78Zm.42.89.36.78-.78.3-.36-.78Zm.12,0,.77-.29.37.78-.78.29Zm-1.44-.52.37.79-.78.29-.36-.78Zm.42.9.36.78-.78.29L36.82,49Zm.42.9.36.78-.78.29-.36-.78Zm.12-.05.77-.29.37.78-.78.29Zm.89-.34.78-.29.36.78-.77.3Zm-3.52-.78.78-.29.36.78-.78.29Zm.41.9L36.7,49l.37.78-.78.29Zm.42.9.78-.3.36.78-.78.3Zm.78,1.67-.36-.78.78-.29.36.78Zm.9-.33-.37-.79.78-.29.37.78Zm.89-.34-.36-.78.78-.29.36.78Zm.9-.34-.36-.78.78-.29.36.78Z"/><path class="sho-50" d="M42.67,45.7l.37.78-.78.29L41.9,46Zm-.89.34.36.78-.78.29L41,46.33Zm.41.89.37.78-.78.3-.36-.78Zm.12,0,.78-.29.36.78-.77.29Zm-1.43-.52.36.79-.77.29-.37-.78Zm.42.9.36.78-.78.29-.36-.78Zm.41.9.37.78-.78.29-.36-.78Zm.12-.05.78-.29.36.78-.77.29Zm.9-.34.78-.29.36.78-.78.3ZM39.21,47l.77-.29.37.78-.78.29Zm.41.9.78-.29.36.78-.77.29Zm.42.9.78-.3.36.78-.78.3Zm.78,1.67-.36-.78.77-.29.37.78Zm.9-.33-.37-.79.78-.29.36.78Zm.89-.34L42.25,49l.78-.29.36.78Zm.9-.34-.36-.78.77-.29.37.78Z"/><path class="sho-51" d="M37.24,43.4l.37.78-.78.29-.37-.78Zm-.9.33.37.79-.78.29L35.57,44Zm.42.9.36.78-.77.29L36,44.92Zm.12,0,.78-.3.36.78-.78.3Zm-1.43-.52.36.78-.78.29-.36-.78Zm.41.9.37.78-.78.29-.36-.78Zm.42.89.36.78-.77.3-.37-.78Zm.12,0,.78-.29.36.78-.78.29Zm.9-.34.78-.29.36.78-.78.29Zm-3.53-.78.78-.29.36.78-.77.29Zm.42.9.78-.3.36.79-.78.29Zm.42.89.77-.29.37.78-.78.29Zm.78,1.68L35,47.39l.78-.29.36.78Zm.89-.34-.36-.78.78-.29.36.78Zm.9-.33-.36-.78.77-.3.37.78Zm.9-.34-.37-.78.78-.29.36.78Z"/><path class="sho-52" d="M40.94,42l.36.78-.78.29-.36-.78Zm-.9.33.37.79-.78.29-.37-.78Zm.42.9.36.78-.78.29-.36-.78Zm.12,0,.78-.3.36.78-.78.3Zm-1.43-.52.36.78-.78.29L38.37,43Zm.41.9.37.78-.78.29-.37-.78Zm.42.89.36.78-.78.3-.36-.78Zm.12,0,.78-.29.36.78-.78.29Zm.89-.34.78-.29.37.78-.78.29Zm-3.52-.78.78-.29.36.78-.78.29Zm.42.9.78-.3.36.79-.78.29Zm.41.89.78-.29.37.78-.78.29Zm.78,1.68L38.72,46l.78-.29.36.78Zm.9-.34-.36-.78.78-.29.36.78Zm.9-.33-.37-.78.78-.3.37.78Zm.89-.34L41.41,45l.78-.29.36.78Z"/><path class="sho-53" d="M35.37,39.41l.36.78-.77.29-.37-.78Zm-.9.34.37.78-.78.29L33.7,40Zm.42.89.36.78-.78.3-.36-.78Zm.12,0,.78-.29.36.78-.78.29Zm-1.43-.52.36.78-.78.3-.36-.78ZM34,41l.37.78-.78.29-.36-.78Zm.42.9.36.78L34,43l-.36-.78Zm.12-.05.78-.29.36.78-.78.29Zm.9-.34.77-.29.37.78-.78.3Zm-3.53-.78.78-.29.36.78-.78.29Zm.42.9.78-.29.36.78-.78.29Zm.41.9.78-.3.37.78-.78.3Zm.78,1.67-.36-.78.78-.29.36.78Zm.9-.33-.36-.79.78-.29.36.78Zm.9-.34L35,42.73l.77-.29.37.78Zm.9-.34-.37-.78.78-.29.36.78Z"/><path class="sho-54" d="M39.07,38l.36.78-.78.29-.36-.78Zm-.9.34.36.78-.77.29-.37-.78Zm.42.89L39,40l-.78.3-.36-.78Zm.12,0,.77-.29.37.78-.78.29Zm-1.44-.52.37.78-.78.3L36.5,39Zm.42.9.36.78-.77.29-.37-.78Zm.42.9.36.78-.78.29-.36-.78Zm.12-.05.77-.29.37.78-.78.29Zm.89-.34.78-.29.36.78-.77.3Zm-3.52-.78.78-.29.36.78L36,40.1Zm.42.9.77-.29.37.78-.78.29Zm.41.9.78-.3.36.78-.77.3Zm.78,1.67L36.85,42l.78-.29.36.78Zm.9-.33-.36-.79.77-.29.37.78Zm.9-.34-.37-.78.78-.29.36.78Zm.89-.34L39.54,41l.78-.29.36.78Z"/><path class="sho-55" d="M33.64,35.72l.36.78-.78.29L32.86,36Zm-.9.33.36.79-.78.29L32,36.35Zm.42.9.36.78-.78.29-.36-.78Zm.11,0,.78-.3.37.78-.78.3Zm-1.43-.52.36.78-.77.29-.37-.78Zm.42.9.36.78-.78.29-.36-.78Zm.41.89L33,39l-.78.3-.36-.78Zm.12,0,.78-.29.36.78-.77.29Zm.9-.34.78-.29.36.78-.78.29ZM30.17,37l.77-.29.37.78-.78.29Zm.41.9.78-.3.36.79L31,38.7Zm.42.89.78-.29.36.78-.78.29Zm.78,1.68-.36-.78.77-.29.37.78Zm.9-.34-.37-.78.78-.29.36.78Zm.89-.33L33.21,39l.78-.3.36.78Zm.9-.34-.36-.78.78-.29.36.78Z"/><path class="sho-56" d="M37.33,34.33l.37.78-.78.29-.37-.78Zm-.89.33.36.79-.78.29L35.66,35Zm.41.9.37.78-.78.29-.37-.78Zm.12,0,.78-.3.36.78-.78.3ZM35.54,35l.36.78-.78.29-.36-.78Zm.42.9.36.78-.78.29-.36-.78Zm.41.89.37.78-.78.3-.37-.78Zm.12,0,.78-.29.36.78-.78.29Zm.9-.34.78-.29.36.78-.78.29Zm-3.53-.78.78-.29.37.78-.78.29Zm.42.9.78-.3.36.79-.78.29Zm.42.89.78-.29.36.78-.78.29Zm.78,1.68-.37-.78.78-.29.36.78Zm.89-.34L36,38l.78-.29.36.78Zm.9-.33-.36-.78.78-.3.36.78Zm.9-.34-.37-.78.78-.29.37.78Z"/><polygon class="sho-27" points="20.89 39.76 38.69 52.05 45.27 49.57 37.7 33.42 20.89 39.76"/><path class="sho-30" d="M46.73,58c2.63-5.41,10.16-11.82,16.8-14.32,2.56-1,4.62-1.2,6-.82a15.33,15.33,0,0,0-16.13,1.71c-5.58,4.06-9.57,12.7-7.43,17.87C45.61,61.36,45.82,59.85,46.73,58Z"/><g class="sho-57"><path class="sho-58" d="M70.14,52.23C63.5,54.72,56,61.13,53.34,66.54s.61,7.77,7.26,5.27,14.17-8.9,16.8-14.31S76.79,49.73,70.14,52.23Zm6,5.73c-2.36,4.85-9.12,10.61-15.08,12.85s-8.89.12-6.52-4.73,9.12-10.61,15.08-12.85S78.54,53.1,76.17,58Z"/><path class="sho-59" d="M74.11,57.06c-6.64,2.5-14.17,8.91-16.8,14.32s.61,7.77,7.26,5.27,14.17-8.91,16.8-14.31S80.76,54.57,74.11,57.06Zm5.29,6C77.2,67.6,70.91,73,65.35,75s-8.27.12-6.07-4.4,8.49-9.88,14-12S81.6,58.56,79.4,63.08Z"/><path class="sho-60" d="M64.42,44.85c-6.65,2.5-14.17,8.91-16.81,14.32s.62,7.76,7.26,5.27S69,55.53,71.68,50.12,71.06,42.36,64.42,44.85Zm5.28,6c-2.2,4.52-8.49,9.87-14,12s-8.28.12-6.07-4.41,8.49-9.87,14-12S71.91,46.35,69.7,50.87Z"/><path class="sho-61" d="M70,52.6C63.57,55,56.34,61.17,53.8,66.36s.59,7.47,7,5.07S74.4,62.87,76.94,57.67,76.35,50.2,70,52.6Zm6.53,5.24c-2.43,5-9.39,10.92-15.53,13.23s-9.15.12-6.71-4.87S63.64,55.28,69.78,53,78.93,52.84,76.49,57.84Z"/><path class="sho-62" d="M69.88,52.76C63.6,55.12,56.48,61.18,54,66.29s.58,7.35,6.87,5,13.4-8.42,15.89-13.54S76.17,50.39,69.88,52.76Zm6.71,5c-2.46,5.05-9.47,11-15.67,13.35s-9.23.13-6.77-4.92,9.47-11,15.67-13.34S79.05,52.76,76.59,57.8Z"/><path class="sho-63" d="M70.05,52.41c-6.52,2.45-13.9,8.74-16.48,14s.6,7.62,7.12,5.17,13.9-8.73,16.48-14S76.57,50,70.05,52.41Zm6.28,5.49c-2.4,4.93-9.25,10.76-15.31,13s-9,.12-6.61-4.8,9.25-10.77,15.31-13S78.73,53,76.33,57.9Z"/><path class="sho-58" d="M65.17,46.55c-6.08,2.29-13,8.16-15.38,13.1s.56,7.11,6.65,4.83,13-8.15,15.38-13.1S71.25,44.27,65.17,46.55Zm5.52,5.25c-2.16,4.45-8.34,9.71-13.81,11.76s-8.13.12-6-4.33,8.34-9.71,13.81-11.76S72.86,47.36,70.69,51.8Z"/><path class="sho-58" d="M65,46.9c-5.84,2.2-12.46,7.84-14.78,12.59s.54,6.84,6.39,4.64S69.07,56.3,71.39,51.54,70.85,44.7,65,46.9Zm6,4.79c-2.23,4.58-8.59,10-14.21,12.11s-8.37.11-6.14-4.46,8.59-10,14.21-12.11S73.21,47.12,71,51.69Z"/><path class="sho-64" d="M64.94,47c-5.76,2.16-12.27,7.71-14.55,12.39s.53,6.72,6.28,4.56S68.94,56.28,71.22,51.6,70.69,44.88,64.94,47Zm6.13,4.62c-2.25,4.61-8.67,10.08-14.34,12.21s-8.44.12-6.19-4.5S59.2,49.29,64.88,47.16,73.32,47,71.07,51.66Z"/><path class="sho-58" d="M65.09,46.73c-6,2.24-12.72,8-15.09,12.84s.56,7,6.52,4.74,12.72-8,15.09-12.85S71.05,44.49,65.09,46.73Zm5.75,5c-2.2,4.51-8.47,9.85-14,11.93s-8.26.12-6.06-4.39,8.47-9.86,14-11.94S73,47.24,70.84,51.75Z"/><path class="sho-59" d="M75.26,64.08c-4.48,1.68-9.55,6-11.32,9.64s.41,5.24,4.89,3.56,9.55-6,11.32-9.65S79.74,62.4,75.26,64.08Zm4.06,3.86c-1.59,3.28-6.14,7.15-10.16,8.66s-6,.09-4.39-3.19,6.14-7.14,10.16-8.66S80.92,64.67,79.32,67.94Z"/><path class="sho-59" d="M75.14,64.34C70.83,66,66,70.1,64.25,73.61s.4,5,4.71,3.41,9.17-5.77,10.88-9.27S79.44,62.72,75.14,64.34Zm4.4,3.52c-1.64,3.37-6.33,7.36-10.47,8.91s-6.16.09-4.52-3.28S70.88,66.14,75,64.58,81.18,64.5,79.54,67.86Z"/><path class="sho-65" d="M75.09,64.44c-4.24,1.59-9,5.67-10.71,9.12s.39,5,4.62,3.36,9-5.68,10.71-9.12S79.32,62.85,75.09,64.44Zm4.51,3.4c-1.65,3.4-6.38,7.42-10.55,9s-6.22.09-4.56-3.31,6.38-7.42,10.55-9S81.26,64.44,79.6,67.84Z"/><path class="sho-59" d="M75.2,64.21c-4.39,1.65-9.37,5.88-11.11,9.46s.41,5.13,4.8,3.48S78.25,71.26,80,67.69,79.59,62.56,75.2,64.21Zm4.23,3.69c-1.62,3.32-6.23,7.26-10.31,8.79s-6.08.08-4.46-3.24S70.89,66.2,75,64.67,81.05,64.58,79.43,67.9Z"/><path class="sho-59" d="M71.81,56.65c-5.67,2.13-12.1,7.6-14.34,12.22s.52,6.63,6.2,4.5S75.76,65.77,78,61.15,77.48,54.52,71.81,56.65ZM77,61.54c-2,4.15-7.79,9.06-12.88,11s-7.58.11-5.57-4,7.79-9,12.88-11S79,57.4,77,61.54Z"/><path class="sho-66" d="M71.73,56.81c-5.56,2.09-11.86,7.46-14.07,12s.52,6.51,6.08,4.41,11.86-7.45,14.07-12S77.29,54.72,71.73,56.81Zm5.36,4.68c-2,4.21-7.89,9.19-13.06,11.13s-7.7.11-5.65-4.1,7.9-9.18,13.07-11.13S79.14,57.29,77.09,61.49Z"/></g><path class="sho-67" d="M71.15,43.83c-1.11-1.43-3.8-1.59-7.62-.16-6.64,2.5-14.17,8.91-16.8,14.32-1.13,2.3-1.18,4-.36,5.11C65.89,88.18,63,85.46,82.47,110.54l24.78-19.27C87.73,66.19,90.67,68.91,71.15,43.83Z"/><path class="sho-68" d="M71,48.82c-.83-1.08-2.88-1.2-5.77-.12-5,1.89-10.73,6.75-12.73,10.85-.85,1.74-.89,3.07-.27,3.87,14.79,19,20.4,26.73,35.19,45.74l18.77-14.61C91.4,75.55,85.79,67.82,71,48.82Z"/><path class="sho-69" d="M60.33,57.07c14.79,19,20.15,26,34.94,45,.67-1.56.66-2.75.09-3.49-14.79-19-20.15-26-34.94-45C61,54.33,61,55.52,60.33,57.07Z"/><path class="sho-70" d="M84.53,78.07a.75.75,0,0,0,.25.09.64.64,0,0,0,.74-.53.64.64,0,0,0-.08-.43L69.54,56.76a2,2,0,0,1-.06,2Q77,68.39,84.53,78.07Z"/><path class="sho-70" d="M76.74,87.68a.22.22,0,0,0,.12,0,.32.32,0,0,0,.37-.26.41.41,0,0,0,0-.22q-3.94-5-7.87-10.1a1,1,0,0,1,0,1Z"/><path class="sho-70" d="M71.18,85.25a1,1,0,0,0,.21.08.53.53,0,0,0,.61-.44.49.49,0,0,0-.07-.36l-13.2-17a1.61,1.61,0,0,1,0,1.63Q64.93,77.22,71.18,85.25Z"/><path class="sho-70" d="M93.49,84.43a.44.44,0,0,0,.16.06.43.43,0,0,0,.5-.35.49.49,0,0,0-.06-.29L83.47,70.2a1.29,1.29,0,0,1,0,1.31Z"/><g class="sho-71"><path class="sho-72" d="M82.06,81.39a1.79,1.79,0,1,1-1.48-2.06A1.8,1.8,0,0,1,82.06,81.39Z"/><path class="sho-73" d="M81.63,81.32a1.36,1.36,0,1,1-1.12-1.56A1.36,1.36,0,0,1,81.63,81.32Z"/><path class="sho-74" d="M81.2,81.25a.92.92,0,0,1-1.82-.3.92.92,0,1,1,1.82.3Z"/><g class="sho-75"><path class="sho-76" d="M83.72,81.67a3.48,3.48,0,1,1-2.86-4A3.49,3.49,0,0,1,83.72,81.67Z"/></g><path class="sho-72" d="M90.74,91.7a2.42,2.42,0,1,1-2-2.78A2.43,2.43,0,0,1,90.74,91.7Z"/><path class="sho-73" d="M90.16,91.61a1.83,1.83,0,1,1-1.51-2.11A1.83,1.83,0,0,1,90.16,91.61Z"/><path class="sho-74" d="M89.58,91.51a1.25,1.25,0,1,1-1-1.43A1.24,1.24,0,0,1,89.58,91.51Z"/><g class="sho-77"><path class="sho-78" d="M93,92.08a4.7,4.7,0,1,1-3.87-5.41A4.71,4.71,0,0,1,93,92.08Z"/></g><path class="sho-72" d="M76.29,74.65a1.28,1.28,0,1,1-1.05-1.48A1.27,1.27,0,0,1,76.29,74.65Z"/><path class="sho-73" d="M76,74.6a1,1,0,1,1-.8-1.12A1,1,0,0,1,76,74.6Z"/><path class="sho-74" d="M75.68,74.54a.67.67,0,0,1-.76.55.66.66,0,0,1-.54-.76.67.67,0,0,1,.76-.55A.66.66,0,0,1,75.68,74.54Z"/><g class="sho-75"><path class="sho-76" d="M77.48,74.84a2.48,2.48,0,1,1-2-2.86A2.48,2.48,0,0,1,77.48,74.84Z"/></g><path class="sho-72" d="M71.39,68.43a1,1,0,0,1-1.12.8,1,1,0,1,1,.32-1.92A1,1,0,0,1,71.39,68.43Z"/><path class="sho-73" d="M71.16,68.39a.75.75,0,0,1-.85.61.74.74,0,0,1,.24-1.46A.75.75,0,0,1,71.16,68.39Z"/><path class="sho-74" d="M70.92,68.35a.5.5,0,1,1-1-.17.5.5,0,0,1,1,.17Z"/><g class="sho-79"><path class="sho-80" d="M72.29,68.58a1.89,1.89,0,1,1-1.55-2.18A1.88,1.88,0,0,1,72.29,68.58Z"/></g><path class="sho-72" d="M67.08,63.3a.72.72,0,0,1-.81.58.71.71,0,0,1-.57-.81.69.69,0,0,1,.8-.57A.7.7,0,0,1,67.08,63.3Z"/><path class="sho-73" d="M66.91,63.27a.53.53,0,0,1-.61.44.52.52,0,0,1-.43-.61.51.51,0,0,1,.6-.43A.52.52,0,0,1,66.91,63.27Z"/><path class="sho-74" d="M66.74,63.25a.35.35,0,0,1-.41.29.36.36,0,0,1-.3-.41.36.36,0,0,1,.42-.3A.36.36,0,0,1,66.74,63.25Z"/><g class="sho-79"><path class="sho-81" d="M67.72,63.41a1.34,1.34,0,0,1-1.55,1.11,1.35,1.35,0,1,1,1.55-1.11Z"/></g></g></g></g></svg>