<svg xmlns="http://www.w3.org/2000/svg" xmlns:xlink="http://www.w3.org/1999/xlink" viewBox="0 0 124 121"><defs><style>.clsh-1{isolation:isolate;}.clsh-2{fill:url(#linear-gradient);}.clsh-3{fill:url(#linear-gradient-2);}.clsh-4{fill:url(#linear-gradient-3);}.clsh-5{fill:url(#linear-gradient-4);}.clsh-6{fill:#607e9b;}.clsh-7{fill:#60749b;}.clsh-8{fill:url(#linear-gradient-5);}.clsh-10,.clsh-11,.clsh-19,.clsh-9{fill:#313b4f;}.clsh-10,.clsh-11,.clsh-12,.clsh-14,.clsh-16,.clsh-18,.clsh-22,.clsh-24,.clsh-26,.clsh-31,.clsh-32,.clsh-34,.clsh-38,.clsh-42,.clsh-44,.clsh-46,.clsh-47,.clsh-48{opacity:0.1;}.clsh-11,.clsh-12,.clsh-14,.clsh-16,.clsh-18,.clsh-19,.clsh-20,.clsh-22,.clsh-24,.clsh-25,.clsh-26,.clsh-28,.clsh-31,.clsh-32,.clsh-33,.clsh-34,.clsh-38,.clsh-39,.clsh-42,.clsh-44,.clsh-46,.clsh-47,.clsh-48{mix-blend-mode:color-dodge;}.clsh-12{fill:url(#linear-gradient-6);}.clsh-13,.clsh-15,.clsh-17,.clsh-23,.clsh-29,.clsh-37,.clsh-40,.clsh-50{opacity:0.3;}.clsh-13,.clsh-15,.clsh-17,.clsh-23,.clsh-27,.clsh-29,.clsh-35,.clsh-36,.clsh-37,.clsh-40,.clsh-43,.clsh-45,.clsh-49,.clsh-50{mix-blend-mode:lighten;}.clsh-13{fill:url(#linear-gradient-7);}.clsh-14{fill:url(#linear-gradient-8);}.clsh-15{fill:url(#linear-gradient-9);}.clsh-16{fill:url(#linear-gradient-10);}.clsh-17{fill:url(#linear-gradient-11);}.clsh-18{fill:url(#linear-gradient-12);}.clsh-19,.clsh-25,.clsh-28,.clsh-33,.clsh-39{opacity:0.15;}.clsh-20{opacity:0.2;fill:url(#linear-gradient-13);}.clsh-21{fill:url(#linear-gradient-14);}.clsh-22{fill:url(#linear-gradient-15);}.clsh-23{fill:url(#linear-gradient-16);}.clsh-24{fill:url(#linear-gradient-17);}.clsh-25{fill:url(#linear-gradient-18);}.clsh-26{fill:url(#linear-gradient-19);}.clsh-27,.clsh-35,.clsh-36,.clsh-43,.clsh-45,.clsh-49{opacity:0.5;}.clsh-27{fill:url(#linear-gradient-20);}.clsh-28{fill:url(#linear-gradient-21);}.clsh-29{fill:url(#linear-gradient-22);}.clsh-30{fill:url(#linear-gradient-23);}.clsh-31{fill:url(#linear-gradient-24);}.clsh-32{fill:url(#linear-gradient-25);}.clsh-33{fill:url(#linear-gradient-26);}.clsh-34{fill:url(#linear-gradient-27);}.clsh-35{fill:url(#linear-gradient-28);}.clsh-36{fill:url(#linear-gradient-29);}.clsh-37{fill:url(#linear-gradient-30);}.clsh-38{fill:url(#linear-gradient-31);}.clsh-39{fill:url(#linear-gradient-32);}.clsh-40{fill:url(#linear-gradient-33);}.clsh-41{fill:url(#linear-gradient-34);}.clsh-42{fill:url(#linear-gradient-35);}.clsh-43{fill:url(#linear-gradient-36);}.clsh-44{fill:url(#linear-gradient-37);}.clsh-45{fill:url(#linear-gradient-38);}.clsh-46{fill:url(#linear-gradient-39);}.clsh-47{fill:url(#linear-gradient-40);}.clsh-48{fill:url(#linear-gradient-41);}.clsh-49{fill:url(#linear-gradient-42);}.clsh-50{fill:url(#linear-gradient-43);}.clsh-51{fill:url(#linear-gradient-44);}</style><linearGradient id="linear-gradient" x1="61.89" y1="67.7" x2="61.89" y2="42.15" gradientUnits="userSpaceOnUse"><stop offset="0" stop-color="#ebf2f6"/><stop offset="1" stop-color="#d2d9dd"/></linearGradient><linearGradient id="linear-gradient-2" x1="30.92" y1="60.64" x2="92.85" y2="60.64" gradientUnits="userSpaceOnUse"><stop offset="0" stop-color="#f1f2f4"/><stop offset="1" stop-color="#eff8f6"/></linearGradient><linearGradient id="linear-gradient-3" x1="73.68" y1="53.86" x2="93.15" y2="53.86" gradientUnits="userSpaceOnUse"><stop offset="0" stop-color="#fff"/><stop offset="1" stop-color="#88a4db"/></linearGradient><linearGradient id="linear-gradient-4" x1="30.62" y1="53.65" x2="50.09" y2="53.65" xlink:href="#linear-gradient-3"/><linearGradient id="linear-gradient-5" x1="71.85" y1="59.83" x2="51.33" y2="59.83" xlink:href="#linear-gradient-2"/><linearGradient id="linear-gradient-6" x1="100.03" y1="76.68" x2="97.45" y2="67.57" gradientUnits="userSpaceOnUse"><stop offset="0"/><stop offset="1" stop-color="#48d8f5"/></linearGradient><linearGradient id="linear-gradient-7" x1="348.74" y1="27.85" x2="357.58" y2="27.85" gradientTransform="matrix(-0.71, -0.71, -0.71, 0.71, 366.98, 300.43)" gradientUnits="userSpaceOnUse"><stop offset="0" stop-color="#313b4f" stop-opacity="0"/><stop offset="0.85" stop-color="#0dc9a8"/></linearGradient><linearGradient id="linear-gradient-8" x1="77.31" y1="70.05" x2="77.96" y2="80.26" xlink:href="#linear-gradient-6"/><linearGradient id="linear-gradient-9" x1="-53.49" y1="956.85" x2="-44.66" y2="956.85" gradientTransform="matrix(0.71, 0.71, 0.71, -0.71, -563.03, 787.9)" xlink:href="#linear-gradient-7"/><linearGradient id="linear-gradient-10" x1="89.71" y1="83.9" x2="95.43" y2="78.3" xlink:href="#linear-gradient-6"/><linearGradient id="linear-gradient-11" x1="93.49" y1="81.96" x2="95.77" y2="78.03" gradientTransform="matrix(1, 0, 0, 1, 0, 0)" xlink:href="#linear-gradient-7"/><linearGradient id="linear-gradient-12" x1="99.73" y1="67.28" x2="80.96" y2="67.28" xlink:href="#linear-gradient-6"/><linearGradient id="linear-gradient-13" x1="-284.8" y1="558.94" x2="-280.21" y2="558.94" gradientTransform="matrix(-0.71, 0.71, 0.71, 0.71, -513.43, -127.33)" gradientUnits="userSpaceOnUse"><stop offset="0"/><stop offset="1" stop-color="#00a2ff"/></linearGradient><linearGradient id="linear-gradient-14" x1="181.75" y1="71.68" x2="176.87" y2="71.68" gradientTransform="matrix(-1, 0, 0, 1, 267.61, 0)" xlink:href="#linear-gradient-2"/><linearGradient id="linear-gradient-15" x1="100.27" y1="46.41" x2="97.69" y2="37.31" xlink:href="#linear-gradient-6"/><linearGradient id="linear-gradient-16" x1="369.98" y1="6.28" x2="378.81" y2="6.28" xlink:href="#linear-gradient-7"/><linearGradient id="linear-gradient-17" x1="77.55" y1="39.78" x2="78.2" y2="49.99" xlink:href="#linear-gradient-6"/><linearGradient id="linear-gradient-18" x1="-74.72" y1="978.42" x2="-65.89" y2="978.42" gradientTransform="matrix(0.71, 0.71, 0.71, -0.71, -563.03, 787.9)" xlink:href="#linear-gradient-13"/><linearGradient id="linear-gradient-19" x1="79.75" y1="49.47" x2="99.95" y2="49.47" xlink:href="#linear-gradient-6"/><linearGradient id="linear-gradient-20" x1="93.73" y1="51.7" x2="96" y2="47.76" gradientTransform="matrix(1, 0, 0, 1, 0, 0)" xlink:href="#linear-gradient-7"/><linearGradient id="linear-gradient-21" x1="-312" y1="537.7" x2="-301.53" y2="537.7" gradientTransform="matrix(-0.71, 0.71, 0.71, 0.71, -513.43, -127.33)" xlink:href="#linear-gradient-6"/><linearGradient id="linear-gradient-22" x1="-306.37" y1="537.7" x2="-301.78" y2="537.7" gradientTransform="matrix(-0.71, 0.71, 0.71, 0.71, -513.43, -127.33)" xlink:href="#linear-gradient-7"/><linearGradient id="linear-gradient-23" x1="181.52" y1="41.41" x2="176.63" y2="41.41" gradientTransform="matrix(-1, 0, 0, 1, 267.61, 0)" xlink:href="#linear-gradient-2"/><linearGradient id="linear-gradient-24" x1="48.37" y1="80.96" x2="45.33" y2="69.05" xlink:href="#linear-gradient-6"/><linearGradient id="linear-gradient-25" x1="47.47" y1="76.97" x2="44.89" y2="67.87" xlink:href="#linear-gradient-6"/><linearGradient id="linear-gradient-26" x1="385.71" y1="65.23" x2="394.54" y2="65.23" gradientTransform="matrix(-0.71, -0.71, -0.71, 0.71, 366.98, 300.43)" xlink:href="#linear-gradient-13"/><linearGradient id="linear-gradient-27" x1="23.32" y1="67.79" x2="26.46" y2="80.92" xlink:href="#linear-gradient-6"/><linearGradient id="linear-gradient-28" x1="-90.45" y1="919.47" x2="-81.62" y2="919.47" gradientTransform="matrix(0.71, 0.71, 0.71, -0.71, -563.03, 787.9)" xlink:href="#linear-gradient-7"/><linearGradient id="linear-gradient-29" x1="26.95" y1="80.03" x2="47.15" y2="80.03" gradientTransform="matrix(1, 0, 0, 1, 0, 0)" xlink:href="#linear-gradient-7"/><linearGradient id="linear-gradient-30" x1="35.64" y1="79.2" x2="50.89" y2="79.2" gradientTransform="matrix(1, 0, 0, 1, 0, 0)" xlink:href="#linear-gradient-7"/><linearGradient id="linear-gradient-31" x1="47.16" y1="67.58" x2="28.39" y2="67.58" xlink:href="#linear-gradient-6"/><linearGradient id="linear-gradient-32" x1="-253.05" y1="521.97" x2="-242.59" y2="521.97" gradientTransform="matrix(-0.71, 0.71, 0.71, 0.71, -513.43, -127.33)" xlink:href="#linear-gradient-6"/><linearGradient id="linear-gradient-33" x1="-247.43" y1="521.97" x2="-242.83" y2="521.97" gradientTransform="matrix(-0.71, 0.71, 0.71, 0.71, -513.43, -127.33)" xlink:href="#linear-gradient-7"/><linearGradient id="linear-gradient-34" x1="234.32" y1="71.97" x2="229.43" y2="71.97" gradientTransform="matrix(-1, 0, 0, 1, 267.61, 0)" xlink:href="#linear-gradient-2"/><linearGradient id="linear-gradient-35" x1="47.65" y1="46.41" x2="45.07" y2="37.3" xlink:href="#linear-gradient-6"/><linearGradient id="linear-gradient-36" x1="407.19" y1="43.49" x2="416.03" y2="43.49" xlink:href="#linear-gradient-7"/><linearGradient id="linear-gradient-37" x1="23.5" y1="37.22" x2="26.65" y2="50.35" xlink:href="#linear-gradient-6"/><linearGradient id="linear-gradient-38" x1="-111.94" y1="941.22" x2="-103.1" y2="941.22" gradientTransform="matrix(0.71, 0.71, 0.71, -0.71, -563.03, 787.9)" xlink:href="#linear-gradient-7"/><linearGradient id="linear-gradient-39" x1="27.13" y1="49.46" x2="47.33" y2="49.46" xlink:href="#linear-gradient-6"/><linearGradient id="linear-gradient-40" x1="37.33" y1="53.63" x2="43.05" y2="48.03" xlink:href="#linear-gradient-6"/><linearGradient id="linear-gradient-41" x1="41.11" y1="51.69" x2="43.38" y2="47.76" gradientTransform="matrix(1, 0, 0, 1, 0, 0)" xlink:href="#linear-gradient-13"/><linearGradient id="linear-gradient-42" x1="-274.8" y1="500.49" x2="-264.33" y2="500.49" gradientTransform="matrix(-0.71, 0.71, 0.71, 0.71, -513.43, -127.33)" xlink:href="#linear-gradient-7"/><linearGradient id="linear-gradient-43" x1="-269.17" y1="500.49" x2="-264.58" y2="500.49" gradientTransform="matrix(-0.71, 0.71, 0.71, 0.71, -513.43, -127.33)" xlink:href="#linear-gradient-7"/><linearGradient id="linear-gradient-44" x1="234.13" y1="41.41" x2="229.25" y2="41.41" gradientTransform="matrix(-1, 0, 0, 1, 267.61, 0)" xlink:href="#linear-gradient-2"/></defs><title>drone-01</title><g class="clsh-1"><g id="Layer_1" data-name="Layer 1"><path class="clsh-2" d="M84.59,43.6a3.69,3.69,0,0,0-.87.67l-.1.11a27,27,0,0,1-6.19,5.49A28.75,28.75,0,0,1,62.89,54h0c-.67,0-1.35,0-2,0h0a28.74,28.74,0,0,1-14.54-4.11,27.25,27.25,0,0,1-6.19-5.5L40,44.2a4.39,4.39,0,0,0-.8-.6,7.86,7.86,0,0,0-7.1,0c-2,1.13-2,3,0,4.1a6.15,6.15,0,0,0,1.17.5l.18.06A50.36,50.36,0,0,1,43,51.83c4.33,2.5,7.34,5.52,7.13,8.4h0a3.82,3.82,0,0,0,0,1.17h0c.21,2.87-2.8,5.9-7.13,8.4a50.36,50.36,0,0,1-9.51,3.57l-.3.1a5.75,5.75,0,0,0-1,.46c-2,1.13-2,3,0,4.1a7.86,7.86,0,0,0,7.1,0,4.15,4.15,0,0,0,.87-.67l.1-.11a27,27,0,0,1,6.18-5.49,28.75,28.75,0,0,1,14.54-4.12h0c.67,0,1.34,0,2,0h0a28.68,28.68,0,0,1,14.54,4.11,27,27,0,0,1,6.19,5.5l.18.17a4.07,4.07,0,0,0,.8.6,7.84,7.84,0,0,0,7.09,0c2-1.13,2-3,0-4.1a5.8,5.8,0,0,0-1.16-.5l-.18-.06a50.45,50.45,0,0,1-9.52-3.57c-4.32-2.5-7.33-5.52-7.13-8.4h0a4.58,4.58,0,0,0,0-1.17h0c-.21-2.87,2.8-5.9,7.13-8.4a50.36,50.36,0,0,1,9.51-3.57l.3-.1a5.75,5.75,0,0,0,1-.46c2-1.13,2-3,0-4.1A7.84,7.84,0,0,0,84.59,43.6Z"/><path class="clsh-3" d="M91.53,74a5,5,0,0,0-1.1-.47l-.17-.06a51.32,51.32,0,0,1-9.59-3.6c-4.58-2.64-7.13-5.51-7.28-8.14v-.55a3.91,3.91,0,0,0,0-1.08v-.56c.15-2.62,2.7-5.49,7.28-8.13a52.2,52.2,0,0,1,9.58-3.6l.29-.1a5.19,5.19,0,0,0,1-.44,2.21,2.21,0,0,0,1.32-1.79,2.23,2.23,0,0,0-1.32-1.79,7.6,7.6,0,0,0-6.79,0,4.11,4.11,0,0,0-.81.62l-.09.1A27.42,27.42,0,0,1,77.58,50a29.15,29.15,0,0,1-14.2,4.17h-.5q-.51,0-1,0l-1,0H60.4A29.24,29.24,0,0,1,46.2,50,27.55,27.55,0,0,1,40,44.41l-.17-.16a3.68,3.68,0,0,0-.74-.56,7.63,7.63,0,0,0-6.8,0,2.23,2.23,0,0,0-1.32,1.79,2.21,2.21,0,0,0,1.32,1.79,5.63,5.63,0,0,0,1.11.48l.17,0a52.46,52.46,0,0,1,9.58,3.6c4.58,2.65,7.14,5.52,7.28,8.14v.56a3.56,3.56,0,0,0,0,1.08v.55c-.15,2.63-2.71,5.49-7.29,8.14a52.14,52.14,0,0,1-9.57,3.6l-.29.1a5.58,5.58,0,0,0-1,.43,1.87,1.87,0,0,0,0,3.58,7.54,7.54,0,0,0,6.8,0,3.21,3.21,0,0,0,.8-.62l.1-.1a27.56,27.56,0,0,1,6.25-5.55A29.27,29.27,0,0,1,60.4,67.15h.49c.33,0,.67,0,1,0s.66,0,1,0h.49a29.15,29.15,0,0,1,14.2,4.17,27.66,27.66,0,0,1,6.26,5.54L84,77a3.65,3.65,0,0,0,.74.55,7.52,7.52,0,0,0,6.79,0,1.87,1.87,0,0,0,0-3.58Z"/><path class="clsh-4" d="M91.68,47.7a5.75,5.75,0,0,1-1,.46l-.3.1a50.36,50.36,0,0,0-9.51,3.57c-4.33,2.5-7.34,5.53-7.13,8.4h0a4.58,4.58,0,0,1,0,1.17h0a4.51,4.51,0,0,0,0,.52c0-2.79,3-5.71,7.14-8.12a49.73,49.73,0,0,1,9.51-3.58l.3-.1a5.75,5.75,0,0,0,1-.46,2.57,2.57,0,0,0,1.47-1.94V45.83A2.6,2.6,0,0,1,91.68,47.7Z"/><path class="clsh-5" d="M32.09,49.64a6.15,6.15,0,0,0,1.17.5l.18.06A50.36,50.36,0,0,1,43,53.77c4.07,2.35,7,5.17,7.13,7.89a2.53,2.53,0,0,0,0-.28h0a3.82,3.82,0,0,1,0-1.17h0c.21-2.88-2.8-5.9-7.13-8.4a50.36,50.36,0,0,0-9.51-3.57l-.18-.06a6.15,6.15,0,0,1-1.17-.5,2.5,2.5,0,0,1-1.47-2.05h0v1.94A2.5,2.5,0,0,0,32.09,49.64Z"/><polygon class="clsh-6" points="93.14 45.46 93.14 45.46 93.14 45.46 93.14 45.46"/><path class="clsh-7" d="M91.68,78a7.84,7.84,0,0,1-7.09,0,4.07,4.07,0,0,1-.8-.6l-.18-.17a27,27,0,0,0-6.19-5.5,28.68,28.68,0,0,0-14.54-4.11h0c-.68,0-1.35,0-2,0h0a28.75,28.75,0,0,0-14.54,4.12,27,27,0,0,0-6.18,5.49l-.1.11a4.15,4.15,0,0,1-.87.67,7.86,7.86,0,0,1-7.1,0,2.5,2.5,0,0,1-1.47-2h0v2a2.53,2.53,0,0,0,1.47,2,7.86,7.86,0,0,0,7.1,0,3.84,3.84,0,0,0,.87-.67l.1-.11a27,27,0,0,1,6.18-5.49c4.33-2.5,7.85-1.81,12.81-1.37a30.51,30.51,0,0,0,4.32.08c5-.49,9.08-.66,14,1.29,2.61,1,4.91,4,6.19,5.5l.18.17a3.71,3.71,0,0,0,.8.6,7.84,7.84,0,0,0,7.09,0,2.5,2.5,0,0,0,1.47-2V76.09A2.61,2.61,0,0,1,91.68,78Z"/><path class="clsh-7" d="M69.7,56.09c4.32,2.5,4.32,6.54,0,9a17.29,17.29,0,0,1-15.63,0c-4.31-2.49-4.31-6.53,0-9A17.29,17.29,0,0,1,69.7,56.09Z"/><path class="clsh-8" d="M69.7,55.31c4.32,2.5,4.32,6.54,0,9a17.29,17.29,0,0,1-15.63,0c-4.31-2.49-4.31-6.53,0-9A17.29,17.29,0,0,1,69.7,55.31Z"/><path class="clsh-7" d="M67.17,54.41c2.92,1.68,2.92,4.41,0,6.09a11.63,11.63,0,0,1-10.56,0c-2.92-1.68-2.92-4.41,0-6.09A11.63,11.63,0,0,1,67.17,54.41Z"/><path class="clsh-7" d="M50.15,68.79l-.08,0-2-1.38a.16.16,0,0,1,0-.21.16.16,0,0,1,.21,0l2.05,1.38a.15.15,0,0,1,0,.21A.17.17,0,0,1,50.15,68.79Z"/><path class="clsh-7" d="M49.34,69.2l-.09,0-1.94-1.32a.16.16,0,0,1,0-.21.16.16,0,0,1,.21,0l1.94,1.32a.15.15,0,0,1,0,.21A.14.14,0,0,1,49.34,69.2Z"/><path class="clsh-7" d="M48.52,69.62a.11.11,0,0,1-.08,0L46.6,68.34a.15.15,0,0,1,0-.21.17.17,0,0,1,.21,0l1.84,1.25a.16.16,0,0,1,0,.21A.15.15,0,0,1,48.52,69.62Z"/><path class="clsh-7" d="M47.71,70a.15.15,0,0,1-.09,0l-1.73-1.19a.14.14,0,0,1,0-.2.15.15,0,0,1,.21,0l1.73,1.18a.15.15,0,0,1,0,.21A.16.16,0,0,1,47.71,70Z"/><path class="clsh-7" d="M46.89,70.45a.16.16,0,0,1-.09,0L45.18,69.3a.14.14,0,0,1,0-.2.15.15,0,0,1,.21,0L47,70.18a.15.15,0,0,1,0,.21A.14.14,0,0,1,46.89,70.45Z"/><path class="clsh-7" d="M46.07,70.87a.11.11,0,0,1-.08,0l-1.53-1a.16.16,0,0,1,0-.21.15.15,0,0,1,.21,0l1.52,1a.15.15,0,0,1,0,.21A.15.15,0,0,1,46.07,70.87Z"/><path class="clsh-7" d="M45.26,71.28l-.09,0-1.42-1a.16.16,0,0,1,0-.21.15.15,0,0,1,.21,0l1.42,1a.15.15,0,0,1,0,.21A.14.14,0,0,1,45.26,71.28Z"/><path class="clsh-7" d="M73.59,68.79a.13.13,0,0,0,.08,0l2-1.38a.15.15,0,0,0,0-.21.16.16,0,0,0-.21,0l-2,1.38a.15.15,0,0,0,0,.21A.17.17,0,0,0,73.59,68.79Z"/><path class="clsh-7" d="M74.4,69.2l.09,0,1.94-1.32a.15.15,0,0,0,0-.21.16.16,0,0,0-.21,0l-1.94,1.32a.15.15,0,0,0,0,.21A.14.14,0,0,0,74.4,69.2Z"/><path class="clsh-7" d="M75.22,69.62a.11.11,0,0,0,.08,0l1.84-1.25a.15.15,0,0,0,0-.21.17.17,0,0,0-.21,0l-1.84,1.25a.16.16,0,0,0,0,.21A.15.15,0,0,0,75.22,69.62Z"/><path class="clsh-7" d="M76,70a.13.13,0,0,0,.08,0l1.73-1.19a.14.14,0,0,0,0-.2.15.15,0,0,0-.21,0L76,69.76a.15.15,0,0,0,0,.21A.16.16,0,0,0,76,70Z"/><path class="clsh-7" d="M76.85,70.45a.16.16,0,0,0,.09,0l1.62-1.12a.14.14,0,0,0,0-.2.15.15,0,0,0-.21,0l-1.62,1.12a.15.15,0,0,0,0,.21A.14.14,0,0,0,76.85,70.45Z"/><path class="clsh-7" d="M77.67,70.87a.11.11,0,0,0,.08,0l1.53-1a.16.16,0,0,0,0-.21.15.15,0,0,0-.21,0l-1.53,1a.16.16,0,0,0,0,.21A.15.15,0,0,0,77.67,70.87Z"/><path class="clsh-7" d="M78.48,71.28l.09,0,1.42-1a.16.16,0,0,0,0-.21.15.15,0,0,0-.21,0L78.4,71a.15.15,0,0,0,0,.21A.16.16,0,0,0,78.48,71.28Z"/><path class="clsh-7" d="M50.15,52.55a.13.13,0,0,0-.08,0L48,54a.16.16,0,0,0,0,.21.15.15,0,0,0,.21,0l2.05-1.38a.15.15,0,0,0,0-.21A.16.16,0,0,0,50.15,52.55Z"/><path class="clsh-7" d="M49.34,52.13l-.09,0-1.94,1.31a.16.16,0,0,0,0,.21.15.15,0,0,0,.21,0l1.94-1.31a.15.15,0,0,0,0-.21A.13.13,0,0,0,49.34,52.13Z"/><path class="clsh-7" d="M48.52,51.71a.11.11,0,0,0-.08,0L46.6,53a.15.15,0,0,0,0,.21.16.16,0,0,0,.21,0L48.61,52a.16.16,0,0,0,0-.21A.17.17,0,0,0,48.52,51.71Z"/><path class="clsh-7" d="M47.71,51.3l-.09,0-1.73,1.19a.15.15,0,0,0,0,.21.16.16,0,0,0,.21,0l1.73-1.19a.15.15,0,0,0,0-.21A.16.16,0,0,0,47.71,51.3Z"/><path class="clsh-7" d="M46.89,50.88l-.09,0L45.18,52a.15.15,0,0,0,0,.21.16.16,0,0,0,.21,0L47,51.16A.16.16,0,0,0,47,51,.13.13,0,0,0,46.89,50.88Z"/><path class="clsh-7" d="M46.07,50.47a.11.11,0,0,0-.08,0l-1.53,1.06a.15.15,0,0,0,0,.21.14.14,0,0,0,.21,0l1.52-1a.15.15,0,0,0,0-.21A.16.16,0,0,0,46.07,50.47Z"/><path class="clsh-7" d="M45.26,50.05l-.09,0-1.42,1a.15.15,0,1,0,.17.24l1.42-1a.15.15,0,0,0,0-.21A.14.14,0,0,0,45.26,50.05Z"/><path class="clsh-7" d="M73.59,52.55a.12.12,0,0,1,.08,0l2,1.38a.15.15,0,0,1-.17.25l-2-1.38a.15.15,0,0,1,0-.21A.16.16,0,0,1,73.59,52.55Z"/><path class="clsh-7" d="M74.4,52.13l.09,0,1.94,1.31a.15.15,0,1,1-.17.25l-1.94-1.31a.15.15,0,0,1,0-.21A.13.13,0,0,1,74.4,52.13Z"/><path class="clsh-7" d="M75.22,51.71a.11.11,0,0,1,.08,0L77.14,53a.15.15,0,0,1,0,.21.16.16,0,0,1-.21,0L75.13,52a.16.16,0,0,1,0-.21A.17.17,0,0,1,75.22,51.71Z"/><path class="clsh-7" d="M76,51.3l.08,0,1.73,1.19a.15.15,0,0,1,0,.21.16.16,0,0,1-.21,0L76,51.57a.15.15,0,0,1,0-.21A.16.16,0,0,1,76,51.3Z"/><path class="clsh-7" d="M76.85,50.88l.09,0L78.56,52a.15.15,0,0,1,0,.21.16.16,0,0,1-.21,0l-1.62-1.12a.15.15,0,0,1,0-.21A.13.13,0,0,1,76.85,50.88Z"/><path class="clsh-7" d="M77.67,50.47a.11.11,0,0,1,.08,0l1.53,1.06a.16.16,0,0,1,0,.21.15.15,0,0,1-.21,0l-1.53-1a.16.16,0,0,1,0-.21A.16.16,0,0,1,77.67,50.47Z"/><path class="clsh-7" d="M78.48,50.05a.16.16,0,0,1,.09,0l1.42,1a.15.15,0,1,1-.17.24l-1.42-1a.15.15,0,0,1,0-.21A.16.16,0,0,1,78.48,50.05Z"/><path class="clsh-7" d="M34,75a3.66,3.66,0,0,1,3.32,0,1,1,0,0,1,0,1.92,3.66,3.66,0,0,1-3.32,0A1,1,0,0,1,34,75Z"/><path class="clsh-9" d="M36.75,72.41a2.42,2.42,0,0,0-2.22,0,.77.77,0,0,0-.46.64V76a.78.78,0,0,0,.46.64,2.5,2.5,0,0,0,2.22,0,.78.78,0,0,0,.46-.64V73.05A.77.77,0,0,0,36.75,72.41Z"/><path class="clsh-7" d="M34.17,44.48a3.66,3.66,0,0,1,3.32,0,1,1,0,0,1,0,1.91,3.66,3.66,0,0,1-3.32,0A1,1,0,0,1,34.17,44.48Z"/><path class="clsh-9" d="M36.94,41.89a2.25,2.25,0,0,0-1.11-.27,2.23,2.23,0,0,0-1.11.27.75.75,0,0,0-.46.64v2.91a.78.78,0,0,0,.46.64,2.33,2.33,0,0,0,1.11.26,2.36,2.36,0,0,0,1.11-.26.8.8,0,0,0,.46-.64V42.53A.77.77,0,0,0,36.94,41.89Z"/><path class="clsh-7" d="M89.87,74.7a3.66,3.66,0,0,0-3.32,0,1,1,0,0,0,0,1.92,3.66,3.66,0,0,0,3.32,0A1,1,0,0,0,89.87,74.7Z"/><path class="clsh-9" d="M87.1,72.11a2.42,2.42,0,0,1,2.22,0,.78.78,0,0,1,.46.64v2.91a.78.78,0,0,1-.46.64,2.42,2.42,0,0,1-2.22,0,.78.78,0,0,1-.46-.64V72.75A.78.78,0,0,1,87.1,72.11Z"/><path class="clsh-7" d="M90.1,44.48a3.64,3.64,0,0,0-3.31,0,1,1,0,0,0,0,1.91,3.64,3.64,0,0,0,3.31,0A1,1,0,0,0,90.1,44.48Z"/><path class="clsh-9" d="M87.34,41.89a2.23,2.23,0,0,1,1.11-.27,2.25,2.25,0,0,1,1.11.27.77.77,0,0,1,.46.64v2.91a.8.8,0,0,1-.46.64,2.36,2.36,0,0,1-1.11.26,2.33,2.33,0,0,1-1.11-.26.78.78,0,0,1-.46-.64V42.53A.75.75,0,0,1,87.34,41.89Z"/><path class="clsh-10" d="M73,64.7c-8.42,4.86-8.42,12.75,0,17.61s22.08,4.86,30.5,0,8.42-12.75,0-17.61S81.38,59.84,73,64.7Z"/><path class="clsh-11" d="M108.88,77.06,88.21,73.51l15.25-8.81C109.25,68.05,111.06,72.82,108.88,77.06Z"/><path class="clsh-12" d="M88.21,73.51l15.25-8.81c3.22,1.86,5.2,4.16,6,6.56Z"/><path class="clsh-13" d="M88.21,73.51l15.25-8.81a16.91,16.91,0,0,1,3.45,2.6Z"/><path class="clsh-11" d="M67.54,70l20.67,3.56L73,82.31C67.17,79,65.36,74.19,67.54,70Z"/><path class="clsh-14" d="M88.21,73.51,73,82.31c-3.22-1.86-5.21-4.16-6-6.56Z"/><path class="clsh-15" d="M88.21,73.51,73,82.31a16,16,0,0,1-3.45-2.6Z"/><path class="clsh-11" d="M82.05,85.44l6.16-11.93,15.25,8.8C97.66,85.66,89.39,86.7,82.05,85.44Z"/><path class="clsh-16" d="M88.21,73.51l15.25,8.8A28.9,28.9,0,0,1,92.1,85.75Z"/><path class="clsh-17" d="M88.21,73.51l15.25,8.8a23.8,23.8,0,0,1-4.5,2Z"/><path class="clsh-18" d="M94.37,61.57,88.21,73.51,73,64.7C78.75,61.36,87,60.31,94.37,61.57Z"/><path class="clsh-19" d="M88.21,73.51,73,64.7a29.06,29.06,0,0,1,11.36-3.44Z"/><path class="clsh-20" d="M88.21,73.51,73,64.7a24.45,24.45,0,0,1,4.5-2Z"/><path class="clsh-21" d="M90.77,73.57c0,.38-.25.76-.75,1.05a4,4,0,0,1-3.62,0,1.27,1.27,0,0,1-.76-1.05s0-3.61,2.57-5.27C88.21,68.3,90.51,69.64,90.77,73.57Z"/><path class="clsh-7" d="M86.4,74.08a4,4,0,0,0,3.62,0,1.43,1.43,0,0,0,.73-.81c0,.1,0,.2,0,.3,0,.38-.25.76-.75,1.05a4,4,0,0,1-3.62,0,1.27,1.27,0,0,1-.76-1.05s0-.13,0-.36A1.38,1.38,0,0,0,86.4,74.08Z"/><path class="clsh-10" d="M73.2,34.43c-8.42,4.87-8.42,12.75,0,17.61s22.07,4.87,30.5,0,8.42-12.74,0-17.61S81.62,29.57,73.2,34.43Z"/><path class="clsh-11" d="M109.12,46.79,88.45,43.24l15.25-8.81C109.49,37.78,111.3,42.56,109.12,46.79Z"/><path class="clsh-22" d="M88.45,43.24l15.25-8.81c3.21,1.86,5.2,4.16,6,6.57Z"/><path class="clsh-23" d="M88.45,43.24l15.25-8.81a16.91,16.91,0,0,1,3.45,2.6Z"/><path class="clsh-11" d="M67.77,39.69l20.68,3.55L73.2,52C67.4,48.7,65.59,43.92,67.77,39.69Z"/><path class="clsh-24" d="M88.45,43.24,73.2,52c-3.22-1.85-5.21-4.15-6-6.56Z"/><path class="clsh-25" d="M88.45,43.24,73.2,52a16.35,16.35,0,0,1-3.45-2.59Z"/><path class="clsh-26" d="M82.29,55.18l6.16-11.94L103.7,52C97.9,55.39,89.63,56.43,82.29,55.18Z"/><path class="clsh-11" d="M88.45,43.24,103.7,52a29.07,29.07,0,0,1-11.37,3.45Z"/><path class="clsh-27" d="M88.45,43.24,103.7,52a24.78,24.78,0,0,1-4.5,2Z"/><path class="clsh-11" d="M94.6,31.3,88.45,43.24,73.2,34.43C79,31.09,87.26,30.05,94.6,31.3Z"/><path class="clsh-28" d="M88.45,43.24,73.2,34.43A29.18,29.18,0,0,1,84.56,31Z"/><path class="clsh-29" d="M88.45,43.24,73.2,34.43a24.83,24.83,0,0,1,4.5-2Z"/><path class="clsh-30" d="M91,43.31c0,.38-.25.76-.75,1a4.07,4.07,0,0,1-3.63,0,1.28,1.28,0,0,1-.75-1s0-3.62,2.57-5.28C88.45,38,90.75,39.38,91,43.31Z"/><path class="clsh-7" d="M86.63,43.82a4.07,4.07,0,0,0,3.63,0A1.46,1.46,0,0,0,91,43a2.83,2.83,0,0,1,0,.3c0,.38-.25.76-.75,1a4.07,4.07,0,0,1-3.63,0,1.28,1.28,0,0,1-.75-1s0-.14,0-.37A1.4,1.4,0,0,0,86.63,43.82Z"/><path class="clsh-10" d="M20.4,65C12,69.86,12,77.74,20.4,82.61s22.07,4.86,30.49,0,8.43-12.75,0-17.61S28.82,60.13,20.4,65Z"/><path class="clsh-31" d="M56.32,77.36,35.64,73.8,50.89,65C56.69,68.34,58.5,73.12,56.32,77.36Z"/><path class="clsh-32" d="M35.64,73.8,50.89,65c3.22,1.86,5.21,4.15,6,6.56Z"/><path class="clsh-33" d="M35.64,73.8,50.89,65a16.37,16.37,0,0,1,3.46,2.6Z"/><path class="clsh-34" d="M15,70.25,35.64,73.8,20.4,82.61C14.6,79.26,12.79,74.48,15,70.25Z"/><path class="clsh-11" d="M35.64,73.8,20.4,82.61c-3.22-1.86-5.21-4.16-6-6.56Z"/><path class="clsh-35" d="M35.64,73.8,20.4,82.61A16.71,16.71,0,0,1,16.94,80Z"/><path class="clsh-36" d="M29.49,85.74,35.64,73.8l15.25,8.81C45.1,86,36.83,87,29.49,85.74Z"/><path class="clsh-37" d="M35.64,73.8l15.25,8.81a24.83,24.83,0,0,1-4.5,2Z"/><path class="clsh-38" d="M41.8,61.87,35.64,73.8,20.4,65C26.19,61.65,34.46,60.61,41.8,61.87Z"/><path class="clsh-39" d="M35.64,73.8,20.4,65a29,29,0,0,1,11.36-3.45Z"/><path class="clsh-40" d="M35.64,73.8,20.4,65a24.18,24.18,0,0,1,4.5-2Z"/><path class="clsh-41" d="M38.21,73.87c0,.38-.25.76-.75,1a4,4,0,0,1-3.63,0,1.28,1.28,0,0,1-.75-1s0-3.62,2.56-5.28C35.64,68.59,37.94,69.94,38.21,73.87Z"/><path class="clsh-7" d="M33.83,74.38a4,4,0,0,0,3.63,0,1.4,1.4,0,0,0,.72-.81l0,.3c0,.38-.25.76-.75,1a4,4,0,0,1-3.63,0,1.28,1.28,0,0,1-.75-1s0-.14,0-.37A1.4,1.4,0,0,0,33.83,74.38Z"/><path class="clsh-10" d="M20.58,34.43c-8.42,4.86-8.42,12.75,0,17.61s22.07,4.86,30.5,0,8.42-12.75,0-17.61S29,29.57,20.58,34.43Z"/><path class="clsh-11" d="M56.5,46.79,35.83,43.24l15.25-8.81C56.87,37.78,58.68,42.55,56.5,46.79Z"/><path class="clsh-42" d="M35.83,43.24l15.25-8.81c3.21,1.86,5.2,4.16,6,6.56Z"/><path class="clsh-43" d="M35.83,43.24l15.25-8.81A16.91,16.91,0,0,1,54.53,37Z"/><path class="clsh-44" d="M15.15,39.68l20.68,3.56L20.58,52C14.78,48.69,13,43.92,15.15,39.68Z"/><path class="clsh-11" d="M35.83,43.24,20.58,52c-3.22-1.86-5.21-4.16-6-6.56Z"/><path class="clsh-45" d="M35.83,43.24,20.58,52a16,16,0,0,1-3.45-2.6Z"/><path class="clsh-46" d="M29.67,55.17l6.16-11.93L51.08,52C45.28,55.39,37,56.43,29.67,55.17Z"/><path class="clsh-47" d="M35.83,43.24,51.08,52a29.06,29.06,0,0,1-11.37,3.44Z"/><path class="clsh-48" d="M35.83,43.24,51.08,52a24.75,24.75,0,0,1-4.5,2Z"/><path class="clsh-11" d="M42,31.3,35.83,43.24,20.58,34.43C26.37,31.09,34.64,30,42,31.3Z"/><path class="clsh-49" d="M35.83,43.24,20.58,34.43A29.06,29.06,0,0,1,31.94,31Z"/><path class="clsh-50" d="M35.83,43.24,20.58,34.43a24.16,24.16,0,0,1,4.5-2Z"/><path class="clsh-51" d="M38.39,43.3c0,.38-.25.76-.75,1.05a4,4,0,0,1-3.63,0,1.28,1.28,0,0,1-.75-1.05s0-3.61,2.57-5.27C35.83,38,38.12,39.37,38.39,43.3Z"/><path class="clsh-7" d="M34,43.81a4,4,0,0,0,3.63,0,1.43,1.43,0,0,0,.73-.81c0,.1,0,.2,0,.3,0,.38-.25.76-.75,1.05a4,4,0,0,1-3.63,0,1.28,1.28,0,0,1-.75-1.05s0-.13,0-.36A1.36,1.36,0,0,0,34,43.81Z"/></g></g></svg>