<svg xmlns="http://www.w3.org/2000/svg" xmlns:xlink="http://www.w3.org/1999/xlink" viewBox="0 0 124 121">
    <defs>
        <style>
            .cls-p-1 {
                isolation: isolate;
            }
            
            .cls-p-2,
            .cls-p-3 {
                opacity: 0.3;
                mix-blend-mode: lighten;
            }
            
            .cls-p-2 {
                fill: url(#p-linear-gradient);
            }
            
            .cls-p-3 {
                fill: url(#p-linear-gradient-2);
            }
            
            .cls-p-4 {
                fill: url(#p-linear-gradient-3);
            }
            
            .cls-p-5 {
                fill: url(#p-linear-gradient-4);
            }
            
            .cls-p-6 {
                fill: #fff;
            }
            
            .cls-p-7 {
                fill: url(#p-linear-gradient-5);
            }
            
            .cls-p-8 {
                fill: url(#p-linear-gradient-6);
            }
            
            .cls-p-9 {
                fill: url(#p-linear-gradient-7);
            }
            
            .cls-p-10 {
                fill: url(#p-linear-gradient-8);
            }
            
            .cls-p-11 {
                fill: url(#p-linear-gradient-9);
            }
            
            .cls-p-12 {
                fill: url(#p-linear-gradient-10);
            }
            
            .cls-p-13 {
                fill: url(#p-linear-gradient-11);
            }
            
            .cls-p-14 {
                fill: url(#p-linear-gradient-12);
            }
            
            .cls-p-15 {
                fill: url(#p-linear-gradient-13);
            }
            
            .cls-p-16 {
                fill: #313b4f;
            }
        </style>
        <linearGradient id="p-linear-gradient" x1="14.94" y1="54.11" x2="46.09" y2="28.16" gradientUnits="userSpaceOnUse">
            <stop offset="0.68" stop-color="#0dc9a8" />
            <stop offset="1" stop-color="#313b4f" stop-opacity="0" />
        </linearGradient>
        <linearGradient id="p-linear-gradient-2" x1="80.27" y1="79.74" x2="106.7" y2="60.39" xlink:href="#p-linear-gradient" />
        <linearGradient id="p-linear-gradient-3" x1="26.4" y1="54.62" x2="34.35" y2="54.62" gradientUnits="userSpaceOnUse">
            <stop offset="0.02" stop-color="#88a4db" />
            <stop offset="1" stop-color="#fff" />
        </linearGradient>
        <linearGradient id="p-linear-gradient-4" x1="25.91" y1="56.16" x2="29.23" y2="56.16" xlink:href="#p-linear-gradient-3" />
        <linearGradient id="p-linear-gradient-5" x1="56.78" y1="42.34" x2="69.89" y2="42.34" gradientUnits="userSpaceOnUse">
            <stop offset="0.03" stop-color="#fff" />
            <stop offset="1" stop-color="#88a4db" />
        </linearGradient>
        <linearGradient id="p-linear-gradient-6" x1="49.56" y1="66.67" x2="42.7" y2="56.22" gradientUnits="userSpaceOnUse">
            <stop offset="0.02" stop-color="#88a4db" />
            <stop offset="0.44" stop-color="#8ca7dc" />
            <stop offset="1" stop-color="#fff" />
        </linearGradient>
        <linearGradient id="p-linear-gradient-7" x1="21.33" y1="71.3" x2="28.87" y2="71.3" gradientUnits="userSpaceOnUse">
            <stop offset="0" stop-color="#313b4f" />
            <stop offset="1" stop-color="#0fc0a2" />
        </linearGradient>
        <linearGradient id="p-linear-gradient-8" x1="53.77" y1="71.4" x2="61.72" y2="71.4" xlink:href="#p-linear-gradient-3" />
        <linearGradient id="p-linear-gradient-9" x1="53.28" y1="72.94" x2="56.6" y2="72.94" xlink:href="#p-linear-gradient-3" />
        <linearGradient id="p-linear-gradient-10" x1="43.54" y1="61.34" x2="87.95" y2="78.96" gradientUnits="userSpaceOnUse">
            <stop offset="0" stop-color="#88a4db" />
            <stop offset="1" stop-color="#fff" />
        </linearGradient>
        <linearGradient id="p-linear-gradient-11" x1="70.49" y1="35.59" x2="73.79" y2="35.59" xlink:href="#p-linear-gradient-6" />
        <linearGradient id="p-linear-gradient-12" x1="64.24" y1="42.16" x2="71" y2="42.16" xlink:href="#p-linear-gradient-6" />
        <linearGradient id="p-linear-gradient-13" x1="66.31" y1="48.59" x2="84.91" y2="48.59" gradientUnits="userSpaceOnUse">
            <stop offset="0.2" stop-color="#88a4db" />
            <stop offset="1" stop-color="#fff" />
        </linearGradient>
    </defs>
    <title>plane</title>
    <g class="cls-p-1">
        <g id="Layer_1" data-name="Layer 1">
            <polygon class="cls-p-2" points="21.62 39.35 54.13 22.78 60.18 25.59 20.65 42.16 21.62 39.35" />
            <polygon class="cls-p-3" points="78.79 76.18 108.77 56.94 116.06 58.18 81.91 77.03 78.79 76.18" />
            <g class="cls-p-1">
                <path class="cls-p-4" d="M32.69,51.28a1.17,1.17,0,0,0-1.18-.11l-5.11,3a1.15,1.15,0,0,1,1.18.12,3.62,3.62,0,0,1,1.65,2.86,1.14,1.14,0,0,1-.48,1.06l5.11-3a1.15,1.15,0,0,0,.49-1.06A3.65,3.65,0,0,0,32.69,51.28Z" />
                <path class="cls-p-5" d="M27.58,54.26a3.62,3.62,0,0,1,1.65,2.86c0,1.05-.75,1.48-1.66,1a3.65,3.65,0,0,1-1.66-2.87C25.92,54.15,26.66,53.73,27.58,54.26Z" />
            </g>
            <polygon class="cls-p-6" points="21.62 39.35 36.97 50.22 50.28 56.51 36.93 64.28 19.5 40.59 21.62 39.35" />
            <polygon class="cls-p-7" points="69.89 42.71 64.24 47.77 56.78 37.94 58.54 36.92 69.89 42.71" />
            <path class="cls-p-8" d="M69.89,42.71l-9.36,4.07a20.88,20.88,0,0,0-2.11,1.07L23.5,68a2.34,2.34,0,0,0-.86.85l-.19.33-.21.36-.14.24-.19.33-.13.23-.11.2L21,71.74l-.07.12c-.06.12-.13.23-.2.35l-.11.19-.22.39h0s-3.07,4-1.18,5.31,7.25-.11,8.45-.49l.16,0,.09,0v0a2,2,0,0,0,.36-.17L63.94,55.13a20.27,20.27,0,0,0,3.3-2.54L73,47.16V44.52Z" />
            <path class="cls-p-9" d="M28.82,72.81h0A1,1,0,0,0,28,71.53c-3.57-.3-4.95-1.5-5.48-2.39l0,0-.21.36-.14.24-.19.33-.13.23-.11.2-.34.59.73,1.29a1.76,1.76,0,0,0,1.48.89l4.33.15A1,1,0,0,0,28.82,72.81Z" />
            <g class="cls-p-1">
                <path class="cls-p-10" d="M60.06,68.06a1.18,1.18,0,0,0-1.18-.12l-5.11,3A1.17,1.17,0,0,1,55,71,3.67,3.67,0,0,1,56.6,73.9,1.17,1.17,0,0,1,56.12,75l5.11-3a1.15,1.15,0,0,0,.49-1.06A3.65,3.65,0,0,0,60.06,68.06Z" />
                <path class="cls-p-11" d="M55,71A3.67,3.67,0,0,1,56.6,73.9c0,1-.75,1.47-1.66.95A3.67,3.67,0,0,1,53.28,72C53.29,70.93,54,70.5,55,71Z" />
            </g>
            <path class="cls-p-12" d="M84,75.79,81.91,77,44.26,67.81a1.37,1.37,0,0,1-.36-2.52l9.65-5.61a1.37,1.37,0,0,1,1.48.07l10.2,7.19Z" />
            <g class="cls-p-1">
                <polygon class="cls-p-13" points="71 36.55 70.48 36.25 73.28 34.64 73.79 34.94 71 36.55" />
                <polygon class="cls-p-14" points="64.76 48.07 64.24 47.77 70.48 36.25 71 36.55 64.76 48.07" />
                <polygon class="cls-p-6" points="71 36.55 73.79 34.94 71.95 43.91 68.08 46.15 64.76 48.07 71 36.55" />
            </g>
            <polygon class="cls-p-15" points="73 44.52 84.91 51.63 83.15 52.65 66.31 48.45 73 44.52" />
            <path class="cls-p-16" d="M32.62,69.91c.22-.14.42,0,.42.23l0,.38a.91.91,0,0,1-.39.73c-.23.14-.42,0-.43-.22v-.39A.93.93,0,0,1,32.62,69.91Z" />
            <path class="cls-p-16" d="M34,69c.22-.13.41,0,.42.23v.39a.9.9,0,0,1-.39.73c-.22.14-.41,0-.42-.23l0-.38A.92.92,0,0,1,34,69Z" />
            <path class="cls-p-16" d="M35.41,68.18c.23-.14.41,0,.42.22l0,.39a.93.93,0,0,1-.39.73c-.23.14-.42,0-.43-.22v-.39A.89.89,0,0,1,35.41,68.18Z" />
            <path class="cls-p-16" d="M36.8,67.31c.23-.14.42,0,.43.22v.39a.89.89,0,0,1-.39.73c-.22.14-.41,0-.42-.22l0-.39A.93.93,0,0,1,36.8,67.31Z" />
            <path class="cls-p-16" d="M38.2,66.44c.22-.14.41,0,.42.23l0,.38a.91.91,0,0,1-.39.73c-.23.14-.42,0-.43-.22v-.39A.9.9,0,0,1,38.2,66.44Z" />
            <path class="cls-p-16" d="M39.59,65.58c.23-.14.42,0,.43.22v.39a.9.9,0,0,1-.39.73c-.22.14-.41,0-.42-.23l0-.38A.91.91,0,0,1,39.59,65.58Z" />
            <path class="cls-p-16" d="M41,64.71c.22-.14.41,0,.42.22l0,.39a.93.93,0,0,1-.39.73c-.23.14-.42,0-.43-.22v-.39A.89.89,0,0,1,41,64.71Z" />
            <path class="cls-p-16" d="M42.38,63.84c.23-.14.42,0,.43.22v.39a.9.9,0,0,1-.39.73c-.22.14-.41,0-.42-.22l0-.39A1,1,0,0,1,42.38,63.84Z" />
            <path class="cls-p-16" d="M43.78,63c.22-.14.41,0,.42.23l0,.38a.91.91,0,0,1-.39.73c-.23.14-.42,0-.43-.22V63.7A.9.9,0,0,1,43.78,63Z" />
            <path class="cls-p-16" d="M52.71,57c.23-.13.42,0,.42.23v.39a1,1,0,0,1-.4.73c-.23.13-.42,0-.43-.23v-.39A.9.9,0,0,1,52.71,57Z" />
            <path class="cls-p-16" d="M54.12,56.16c.23-.14.42,0,.42.23v.39a.93.93,0,0,1-.4.72c-.23.14-.42,0-.43-.23v-.39A.89.89,0,0,1,54.12,56.16Z" />
            <path class="cls-p-16" d="M55.53,55.31c.23-.13.41,0,.42.24v.38a.93.93,0,0,1-.41.73.26.26,0,0,1-.42-.23V56A.9.9,0,0,1,55.53,55.31Z" />
            <path class="cls-p-16" d="M56.94,54.47c.23-.14.41,0,.42.23v.39a.92.92,0,0,1-.41.72c-.22.14-.41,0-.42-.23v-.39A.89.89,0,0,1,56.94,54.47Z" />
            <path class="cls-p-16" d="M58.35,53.63c.22-.14.41,0,.42.23v.39a.89.89,0,0,1-.4.72c-.23.13-.41,0-.42-.23v-.39A.92.92,0,0,1,58.35,53.63Z" />
            <path class="cls-p-16" d="M59.76,52.78a.26.26,0,0,1,.42.23v.39a.88.88,0,0,1-.4.72c-.23.14-.41,0-.42-.23v-.38A.93.93,0,0,1,59.76,52.78Z" />
            <path class="cls-p-16" d="M61.16,51.94c.23-.14.42,0,.43.23v.39a.89.89,0,0,1-.4.72c-.23.14-.42,0-.42-.23v-.39A.93.93,0,0,1,61.16,51.94Z" />
            <path class="cls-p-16" d="M62.57,51.09c.23-.13.42,0,.43.23v.39a.9.9,0,0,1-.4.73c-.23.13-.42,0-.42-.24v-.38A1,1,0,0,1,62.57,51.09Z" />
            <path class="cls-p-16" d="M64,50.25c.23-.14.42,0,.42.23v.39a.89.89,0,0,1-.4.72c-.23.14-.42,0-.42-.23V51A1,1,0,0,1,64,50.25Z" />
        </g>
    </g>
</svg>