<?xml version="1.0" encoding="utf-8"?>
<!-- Generator: Adobe Illustrator 23.0.0, SVG Export Plug-In . SVG Version: 6.00 Build 0)  -->
<svg version="1.1" id="Слой_1" xmlns:x="&ns_extend;" xmlns:i="&ns_ai;" xmlns:graph="&ns_graphs;"
	 xmlns="http://www.w3.org/2000/svg" xmlns:xlink="http://www.w3.org/1999/xlink" x="0px" y="0px" viewBox="0 0 200.615 830.769"
	 style="enable-background:new 0 0 976.615 830.769;" xml:space="preserve">
<metadata>
	<sfw  xmlns="&ns_sfw;">
		<slices></slices>
		<sliceSourceBounds  bottomLeftOrigin="true" height="773.02" width="886.669" x="-104.602" y="-727.89"></sliceSourceBounds>
	</sfw>
</metadata>
<g>
	<g>
		<g>
			<rect x="590.638" y="35.464" style="fill:#9EA1A2;" width="0.735" height="232.958"/>
			<circle style="fill:#9EA1A2;" cx="590.951" cy="80.831" r="5.391"/>
			<circle style="fill:#9EA1A2;" cx="591.005" cy="268.422" r="3.431"/>
			<circle style="fill:#9EA1A2;" cx="591.3" cy="208.055" r="4.901"/>
			<path style="fill:#9EA1A2;" d="M593.456,39.708c-2.344,1.353-5.341,0.55-6.694-1.794c-1.353-2.344-0.55-5.341,1.794-6.694
				c2.344-1.353,5.341-0.55,6.695,1.794C596.603,35.358,595.8,38.355,593.456,39.708z"/>
			<circle style="fill:#9EA1A2;" cx="591.096" cy="138.341" r="2.695"/>
			<path style="fill:#9EA1A2;" d="M591.892,57.894c-0.812,0.469-1.849,0.191-2.318-0.621c-0.469-0.812-0.19-1.849,0.621-2.318
				c0.811-0.468,1.849-0.191,2.318,0.621C592.982,56.388,592.704,57.426,591.892,57.894z"/>
		</g>
		<g style="opacity:0.4803;">
			<rect x="579.057" y="138.776" style="fill:#9EA1A2;" width="0.589" height="186.726"/>
			<path style="fill:#9EA1A2;" d="M581.469,178.882c-2.067,1.193-4.709,0.485-5.903-1.582c-1.193-2.067-0.485-4.709,1.582-5.902
				c2.067-1.193,4.709-0.485,5.903,1.582C584.244,175.046,583.536,177.689,581.469,178.882z"/>
			<circle style="fill:#9EA1A2;" cx="579.352" cy="325.502" r="2.75"/>
			<path style="fill:#9EA1A2;" d="M581.552,280.517c-1.879,1.085-4.281,0.441-5.366-1.438c-1.085-1.879-0.441-4.281,1.438-5.366
				c1.879-1.085,4.281-0.441,5.366,1.438C584.074,277.03,583.431,279.432,581.552,280.517z"/>
			<path style="fill:#9EA1A2;" d="M581.316,142.178c-1.879,1.085-4.281,0.441-5.366-1.438c-1.085-1.879-0.441-4.281,1.438-5.366
				c1.879-1.085,4.281-0.441,5.366,1.438C583.838,138.691,583.195,141.094,581.316,142.178z"/>
			<path style="fill:#9EA1A2;" d="M580.505,223.107c-1.033,0.597-2.355,0.243-2.951-0.791c-0.597-1.033-0.242-2.355,0.791-2.951
				s2.355-0.243,2.951,0.791C581.892,221.189,581.538,222.511,580.505,223.107z"/>
			<path style="fill:#9EA1A2;" d="M580.063,156.755c-0.65,0.376-1.482,0.153-1.858-0.498s-0.153-1.482,0.498-1.858
				c0.651-0.376,1.482-0.153,1.858,0.498S580.713,156.38,580.063,156.755z"/>
		</g>
		<g style="opacity:0.2189;">
			<rect x="587.011" y="269.064" style="fill:#9EA1A2;" width="0.279" height="88.525"/>
			<path style="fill:#9EA1A2;" d="M588.155,288.078c-0.98,0.566-2.233,0.23-2.798-0.75c-0.566-0.98-0.23-2.233,0.75-2.798
				c0.98-0.566,2.233-0.23,2.798,0.75C589.47,286.259,589.134,287.512,588.155,288.078z"/>
			<path style="fill:#9EA1A2;" d="M587.803,358.718c-0.624,0.36-1.421,0.146-1.781-0.477c-0.36-0.624-0.146-1.421,0.477-1.781
				c0.623-0.36,1.421-0.146,1.781,0.477C588.64,357.561,588.426,358.358,587.803,358.718z"/>
			<circle style="fill:#9EA1A2;" cx="587.263" cy="334.649" r="1.862"/>
			<circle style="fill:#9EA1A2;" cx="587.151" cy="269.064" r="1.862"/>
			<path style="fill:#9EA1A2;" d="M587.697,309.045c-0.49,0.283-1.116,0.115-1.399-0.375c-0.283-0.49-0.115-1.116,0.375-1.399
				c0.49-0.283,1.116-0.115,1.399,0.375C588.355,308.135,588.187,308.762,587.697,309.045z"/>
			<path style="fill:#9EA1A2;" d="M587.488,277.587c-0.308,0.178-0.703,0.072-0.881-0.236c-0.178-0.308-0.072-0.703,0.236-0.881
				c0.308-0.178,0.703-0.072,0.881,0.236S587.796,277.409,587.488,277.587z"/>
		</g>
		<g style="opacity:0.8952;">
			<rect x="560.375" y="246.275" style="fill:#9EA1A2;" width="0.706" height="223.941"/>
			<path style="fill:#9EA1A2;" d="M563.267,294.373c-2.479,1.431-5.648,0.582-7.079-1.897c-1.431-2.479-0.582-5.648,1.897-7.079
				c2.479-1.431,5.648-0.582,7.079,1.897C566.595,289.773,565.746,292.942,563.267,294.373z"/>
			<circle style="fill:#9EA1A2;" cx="560.728" cy="470.215" r="3.298"/>
			<circle style="fill:#9EA1A2;" cx="561.011" cy="412.185" r="4.711"/>
			<path style="fill:#9EA1A2;" d="M563.084,250.355c-2.253,1.301-5.134,0.529-6.435-1.724c-1.301-2.253-0.529-5.134,1.724-6.435
				c2.253-1.301,5.135-0.529,6.435,1.724C566.109,246.173,565.337,249.054,563.084,250.355z"/>
			<path style="fill:#9EA1A2;" d="M562.111,347.413c-1.239,0.716-2.824,0.291-3.539-0.948c-0.715-1.239-0.291-2.824,0.948-3.539
				c1.239-0.716,2.824-0.291,3.539,0.948C563.775,345.113,563.35,346.697,562.111,347.413z"/>
			<circle style="fill:#9EA1A2;" cx="560.765" cy="266.424" r="1.631"/>
		</g>
		<g>
			<rect x="297.695" y="122.757" style="fill:#9EA1A2;" width="0.735" height="232.958"/>
			<circle style="fill:#9EA1A2;" cx="298.008" cy="168.124" r="5.391"/>
			<circle style="fill:#9EA1A2;" cx="298.063" cy="355.715" r="3.431"/>
			<path style="fill:#9EA1A2;" d="M300.807,299.592c-2.344,1.353-5.341,0.55-6.694-1.794c-1.353-2.344-0.55-5.341,1.794-6.695
				c2.344-1.353,5.341-0.55,6.695,1.794C303.954,295.241,303.151,298.238,300.807,299.592z"/>
			<circle style="fill:#9EA1A2;" cx="298.063" cy="122.757" r="4.901"/>
			<circle style="fill:#9EA1A2;" cx="298.153" cy="225.633" r="2.695"/>
			<path style="fill:#9EA1A2;" d="M298.95,145.187c-0.811,0.469-1.849,0.19-2.318-0.621c-0.469-0.812-0.191-1.849,0.621-2.318
				c0.812-0.469,1.849-0.191,2.318,0.621C300.039,143.681,299.761,144.719,298.95,145.187z"/>
		</g>
		<g>
			<rect x="359.7" y="322.981" style="fill:#9EA1A2;" width="0.735" height="232.958"/>
			<path style="fill:#9EA1A2;" d="M362.709,373.017c-2.578,1.489-5.875,0.605-7.364-1.973c-1.489-2.578-0.605-5.875,1.973-7.364
				c2.578-1.489,5.875-0.605,7.364,1.973C366.17,368.231,365.287,371.528,362.709,373.017z"/>
			<circle style="fill:#9EA1A2;" cx="360.067" cy="555.939" r="3.43"/>
			<path style="fill:#9EA1A2;" d="M362.812,499.816c-2.344,1.353-5.341,0.55-6.694-1.794s-0.55-5.341,1.794-6.694
				c2.344-1.353,5.341-0.55,6.695,1.794S365.156,498.463,362.812,499.816z"/>
			<path style="fill:#9EA1A2;" d="M362.518,327.226c-2.344,1.353-5.341,0.55-6.694-1.794c-1.353-2.344-0.55-5.341,1.794-6.695
				c2.344-1.353,5.341-0.55,6.695,1.794C365.665,322.875,364.862,325.872,362.518,327.226z"/>
			<circle style="fill:#9EA1A2;" cx="360.158" cy="425.858" r="2.695"/>
			<path style="fill:#9EA1A2;" d="M360.954,345.411c-0.811,0.469-1.849,0.19-2.318-0.621c-0.469-0.811-0.19-1.849,0.621-2.318
				c0.812-0.469,1.849-0.191,2.318,0.621C362.044,343.905,361.766,344.943,360.954,345.411z"/>
		</g>
		<g style="opacity:0.6791;">
			<rect x="432.297" y="240.249" style="fill:#9EA1A2;" width="0.735" height="232.958"/>
			<path style="fill:#9EA1A2;" d="M435.306,290.284c-2.578,1.489-5.875,0.605-7.364-1.973c-1.489-2.578-0.605-5.875,1.973-7.364
				c2.578-1.489,5.875-0.605,7.364,1.973C438.767,285.499,437.884,288.796,435.306,290.284z"/>
			<circle style="fill:#9EA1A2;" cx="432.664" cy="473.207" r="3.431"/>
			<path style="fill:#9EA1A2;" d="M435.409,417.084c-2.344,1.353-5.341,0.55-6.695-1.794c-1.353-2.344-0.55-5.341,1.794-6.694
				c2.344-1.353,5.341-0.55,6.694,1.794C438.556,412.733,437.753,415.73,435.409,417.084z"/>
			<circle style="fill:#9EA1A2;" cx="432.664" cy="240.249" r="4.901"/>
			<circle style="fill:#9EA1A2;" cx="432.755" cy="343.125" r="2.695"/>
			<circle style="fill:#9EA1A2;" cx="432.703" cy="261.21" r="1.697"/>
		</g>
		<g style="opacity:0.301;">
			<rect x="458.006" y="372.479" style="fill:#9EA1A2;" width="0.41" height="129.932"/>
			<circle style="fill:#9EA1A2;" cx="458.181" cy="397.782" r="3.007"/>
			<path style="fill:#9EA1A2;" d="M459.167,504.069c-0.915,0.528-2.085,0.215-2.614-0.7c-0.528-0.915-0.215-2.085,0.7-2.614
				c0.915-0.528,2.085-0.215,2.614,0.7C460.396,502.37,460.083,503.54,459.167,504.069z"/>
			<circle style="fill:#9EA1A2;" cx="458.375" cy="468.742" r="2.733"/>
			<path style="fill:#9EA1A2;" d="M459.578,374.846c-1.307,0.755-2.979,0.307-3.734-1c-0.755-1.307-0.307-2.979,1.001-3.734
				c1.307-0.755,2.979-0.307,3.734,1.001C461.333,372.42,460.885,374.092,459.578,374.846z"/>
			<path style="fill:#9EA1A2;" d="M459.013,431.161c-0.719,0.415-1.638,0.169-2.054-0.55c-0.415-0.719-0.169-1.638,0.55-2.054
				c0.719-0.415,1.638-0.169,2.054,0.55C459.978,429.826,459.732,430.745,459.013,431.161z"/>
			<circle style="fill:#9EA1A2;" cx="458.232" cy="384.17" r="0.946"/>
		</g>
		<g style="opacity:0.5099;">
			<rect x="470.552" y="426.988" style="fill:#9EA1A2;" width="0.588" height="186.577"/>
			<circle style="fill:#9EA1A2;" cx="470.803" cy="463.322" r="4.317"/>
			<circle style="fill:#9EA1A2;" cx="470.846" cy="613.565" r="2.747"/>
			<path style="fill:#9EA1A2;" d="M473.044,568.616c-1.877,1.084-4.278,0.441-5.362-1.437c-1.084-1.877-0.441-4.278,1.437-5.362
				c1.877-1.084,4.278-0.441,5.362,1.437C475.565,565.131,474.922,567.532,473.044,568.616z"/>
			<circle style="fill:#9EA1A2;" cx="470.846" cy="426.988" r="3.925"/>
			<path style="fill:#9EA1A2;" d="M471.998,511.252c-1.033,0.596-2.353,0.242-2.949-0.79s-0.242-2.353,0.79-2.949
				c1.032-0.596,2.353-0.242,2.949,0.79S473.03,510.656,471.998,511.252z"/>
			<path style="fill:#9EA1A2;" d="M471.556,444.952c-0.65,0.375-1.481,0.152-1.856-0.497c-0.375-0.65-0.153-1.481,0.497-1.856
				c0.65-0.375,1.481-0.153,1.856,0.497C472.429,443.746,472.206,444.577,471.556,444.952z"/>
		</g>
		<g style="opacity:0.9437;">
			<rect x="685.554" y="225.902" style="fill:#9EA1A2;" width="0.735" height="232.958"/>
			<circle style="fill:#9EA1A2;" cx="685.867" cy="271.269" r="5.391"/>
			<circle style="fill:#9EA1A2;" cx="685.921" cy="458.86" r="3.431"/>
			<path style="fill:#9EA1A2;" d="M688.666,402.737c-2.344,1.353-5.341,0.55-6.695-1.794c-1.353-2.344-0.55-5.341,1.794-6.694
				c2.344-1.353,5.341-0.55,6.694,1.794C691.813,398.386,691.01,401.384,688.666,402.737z"/>
			<circle style="fill:#9EA1A2;" cx="685.921" cy="225.902" r="4.901"/>
			<circle style="fill:#9EA1A2;" cx="686.012" cy="328.779" r="2.695"/>
			<path style="fill:#9EA1A2;" d="M686.808,248.332c-0.812,0.469-1.849,0.19-2.318-0.621c-0.469-0.812-0.191-1.849,0.621-2.318
				c0.811-0.469,1.849-0.19,2.318,0.621C687.898,246.826,687.62,247.864,686.808,248.332z"/>
		</g>
		<g style="opacity:0.9021;">
			<rect x="518.51" y="364.844" style="fill:#9EA1A2;" width="0.651" height="206.481"/>
			<path style="fill:#9EA1A2;" d="M521.177,409.193c-2.285,1.319-5.208,0.536-6.527-1.749c-1.319-2.285-0.536-5.208,1.749-6.527
				c2.285-1.319,5.207-0.536,6.527,1.749C524.245,404.951,523.462,407.873,521.177,409.193z"/>
			<circle style="fill:#9EA1A2;" cx="518.836" cy="571.325" r="3.041"/>
			<circle style="fill:#9EA1A2;" cx="519.097" cy="517.818" r="4.344"/>
			<circle style="fill:#9EA1A2;" cx="518.836" cy="364.844" r="4.344"/>
			<path style="fill:#9EA1A2;" d="M520.111,458.097c-1.143,0.66-2.604,0.268-3.264-0.874c-0.66-1.143-0.268-2.604,0.875-3.263
				c1.143-0.66,2.604-0.268,3.263,0.874C521.645,455.976,521.253,457.437,520.111,458.097z"/>
			<path style="fill:#9EA1A2;" d="M519.622,384.725c-0.719,0.415-1.639,0.169-2.054-0.55c-0.415-0.719-0.169-1.639,0.55-2.054
				c0.719-0.415,1.639-0.169,2.054,0.55C520.588,383.39,520.341,384.31,519.622,384.725z"/>
		</g>
		<g style="opacity:0.95;">
			<rect x="531.156" y="518.871" style="fill:#9EA1A2;" width="0.711" height="225.463"/>
			<circle style="fill:#9EA1A2;" cx="531.459" cy="562.778" r="5.217"/>
			<path style="fill:#9EA1A2;" d="M533.172,747.209c-1.588,0.917-3.619,0.373-4.535-1.215c-0.917-1.588-0.373-3.619,1.215-4.535
				c1.588-0.917,3.619-0.373,4.535,1.215C535.304,744.262,534.76,746.292,533.172,747.209z"/>
			<path style="fill:#9EA1A2;" d="M534.168,690.016c-2.269,1.31-5.169,0.533-6.479-1.736c-1.31-2.269-0.533-5.169,1.736-6.479
				s5.169-0.532,6.479,1.736C537.214,685.806,536.437,688.707,534.168,690.016z"/>
			<path style="fill:#9EA1A2;" d="M533.883,522.979c-2.269,1.31-5.169,0.532-6.479-1.736c-1.31-2.269-0.533-5.169,1.736-6.479
				s5.169-0.532,6.479,1.736S536.152,521.669,533.883,522.979z"/>
			<circle style="fill:#9EA1A2;" cx="531.599" cy="618.438" r="2.609"/>
			<path style="fill:#9EA1A2;" d="M532.37,540.58c-0.785,0.453-1.79,0.184-2.243-0.601c-0.453-0.785-0.184-1.79,0.601-2.243
				c0.785-0.453,1.79-0.184,2.243,0.601C533.425,539.122,533.156,540.126,532.37,540.58z"/>
		</g>
		<g style="opacity:0.5188;">
			<rect x="401.579" y="442.294" style="fill:#9EA1A2;" width="0.524" height="166.049"/>
			<path style="fill:#9EA1A2;" d="M403.723,477.958c-1.838,1.061-4.188,0.431-5.249-1.406c-1.061-1.838-0.431-4.188,1.406-5.249
				c1.838-1.061,4.188-0.431,5.249,1.406C406.191,474.547,405.561,476.897,403.723,477.958z"/>
			<circle style="fill:#9EA1A2;" cx="401.841" cy="608.342" r="2.445"/>
			<path style="fill:#9EA1A2;" d="M403.797,568.338c-1.671,0.965-3.807,0.392-4.772-1.279c-0.965-1.671-0.392-3.807,1.279-4.772
				c1.671-0.965,3.807-0.392,4.772,1.279C406.04,565.237,405.468,567.374,403.797,568.338z"/>
			<path style="fill:#9EA1A2;" d="M403.587,445.319c-1.671,0.965-3.807,0.392-4.772-1.279c-0.965-1.671-0.392-3.807,1.279-4.772
				c1.671-0.965,3.807-0.392,4.772,1.279C405.83,442.218,405.258,444.354,403.587,445.319z"/>
			<path style="fill:#9EA1A2;" d="M402.866,517.286c-0.919,0.531-2.094,0.216-2.624-0.703c-0.53-0.919-0.216-2.094,0.703-2.624
				c0.919-0.531,2.094-0.216,2.624,0.703C404.099,515.581,403.785,516.756,402.866,517.286z"/>
			<path style="fill:#9EA1A2;" d="M402.473,458.281c-0.578,0.334-1.318,0.136-1.652-0.443c-0.334-0.578-0.136-1.318,0.443-1.652
				c0.578-0.334,1.318-0.136,1.652,0.443C403.249,457.208,403.051,457.948,402.473,458.281z"/>
		</g>
		<g style="opacity:0.0926;">
			<rect x="407.392" y="573.333" style="fill:#9EA1A2;" width="0.57" height="180.632"/>
			<circle style="fill:#9EA1A2;" cx="407.635" cy="608.509" r="4.18"/>
			<path style="fill:#9EA1A2;" d="M409.007,756.268c-1.272,0.735-2.899,0.299-3.634-0.974c-0.735-1.272-0.299-2.899,0.974-3.634
				c1.272-0.734,2.899-0.299,3.634,0.974C410.715,753.907,410.279,755.533,409.007,756.268z"/>
			<path style="fill:#9EA1A2;" d="M409.805,710.447c-1.818,1.049-4.141,0.427-5.191-1.391c-1.049-1.817-0.427-4.141,1.391-5.191
				c1.817-1.049,4.141-0.427,5.191,1.391C412.245,707.074,411.622,709.398,409.805,710.447z"/>
			<path style="fill:#9EA1A2;" d="M409.577,576.623c-1.817,1.049-4.141,0.427-5.191-1.391c-1.049-1.817-0.427-4.141,1.391-5.191
				c1.818-1.049,4.142-0.427,5.191,1.391C412.017,573.25,411.394,575.574,409.577,576.623z"/>
			<path style="fill:#9EA1A2;" d="M408.792,654.911c-1,0.577-2.278,0.235-2.855-0.765c-0.577-1-0.235-2.278,0.765-2.855
				c1-0.577,2.278-0.235,2.855,0.765C410.134,653.056,409.791,654.334,408.792,654.911z"/>
			<path style="fill:#9EA1A2;" d="M408.364,590.724c-0.629,0.363-1.434,0.148-1.797-0.482c-0.363-0.629-0.148-1.434,0.481-1.797
				c0.629-0.363,1.434-0.148,1.797,0.482C409.209,589.557,408.994,590.361,408.364,590.724z"/>
		</g>
		<g style="opacity:0.1791;">
			<rect x="511.329" y="488.101" style="fill:#9EA1A2;" width="0.39" height="123.667"/>
			<path style="fill:#9EA1A2;" d="M512.926,514.662c-1.369,0.79-3.119,0.321-3.909-1.047c-0.79-1.369-0.321-3.119,1.047-3.909
				c1.369-0.79,3.119-0.321,3.909,1.047C514.764,512.122,514.295,513.872,512.926,514.662z"/>
			<circle style="fill:#9EA1A2;" cx="511.524" cy="611.768" r="1.821"/>
			<path style="fill:#9EA1A2;" d="M512.981,581.974c-1.244,0.718-2.835,0.292-3.554-0.952c-0.718-1.244-0.292-2.835,0.952-3.554
				c1.244-0.718,2.835-0.292,3.554,0.952C514.652,579.665,514.226,581.256,512.981,581.974z"/>
			<path style="fill:#9EA1A2;" d="M512.825,490.354c-1.244,0.718-2.835,0.292-3.554-0.952c-0.718-1.244-0.292-2.835,0.952-3.554
				c1.244-0.718,2.835-0.292,3.554,0.952C514.496,488.044,514.069,489.636,512.825,490.354z"/>
			<path style="fill:#9EA1A2;" d="M512.288,543.952c-0.684,0.395-1.559,0.161-1.955-0.524c-0.395-0.684-0.161-1.559,0.524-1.954
				c0.684-0.395,1.559-0.161,1.955,0.524C513.206,542.682,512.972,543.557,512.288,543.952z"/>
			<path style="fill:#9EA1A2;" d="M511.995,500.008c-0.431,0.249-0.982,0.101-1.23-0.33c-0.249-0.431-0.101-0.982,0.33-1.23
				c0.431-0.249,0.982-0.101,1.23,0.33C512.573,499.208,512.426,499.759,511.995,500.008z"/>
		</g>
		<g style="opacity:0.0255;">
			<rect x="415.499" y="473.774" style="fill:#9EA1A2;" width="0.735" height="232.958"/>
			<path style="fill:#9EA1A2;" d="M418.507,523.809c-2.578,1.489-5.875,0.605-7.364-1.973c-1.489-2.578-0.605-5.875,1.973-7.364
				c2.578-1.489,5.875-0.605,7.364,1.973C421.969,519.023,421.085,522.32,418.507,523.809z"/>
			<circle style="fill:#9EA1A2;" cx="415.866" cy="706.732" r="3.431"/>
			<circle style="fill:#9EA1A2;" cx="416.16" cy="646.364" r="4.901"/>
			<circle style="fill:#9EA1A2;" cx="415.866" cy="473.774" r="4.901"/>
			<circle style="fill:#9EA1A2;" cx="415.956" cy="576.65" r="2.695"/>
			<path style="fill:#9EA1A2;" d="M416.753,496.204c-0.811,0.469-1.849,0.191-2.318-0.621c-0.469-0.812-0.19-1.849,0.621-2.318
				c0.812-0.469,1.849-0.191,2.318,0.621C417.842,494.697,417.564,495.735,416.753,496.204z"/>
		</g>
		<g style="opacity:0.544;">
			<rect x="438.398" y="624.548" style="fill:#9EA1A2;" width="0.556" height="176.436"/>
			<path style="fill:#9EA1A2;" d="M440.677,662.443c-1.953,1.127-4.45,0.458-5.577-1.494c-1.127-1.953-0.458-4.45,1.494-5.577
				c1.953-1.127,4.45-0.458,5.577,1.495C443.299,658.819,442.63,661.316,440.677,662.443z"/>
			<path style="fill:#9EA1A2;" d="M439.976,803.234c-1.243,0.717-2.832,0.292-3.549-0.951c-0.717-1.243-0.292-2.832,0.951-3.549
				c1.243-0.717,2.832-0.292,3.549,0.951C441.644,800.928,441.218,802.517,439.976,803.234z"/>
			<circle style="fill:#9EA1A2;" cx="438.899" cy="755.263" r="3.712"/>
			<path style="fill:#9EA1A2;" d="M440.532,627.762c-1.775,1.025-4.045,0.417-5.07-1.358s-0.417-4.045,1.359-5.07
				c1.775-1.025,4.045-0.417,5.07,1.359C442.916,624.467,442.308,626.737,440.532,627.762z"/>
			<circle style="fill:#9EA1A2;" cx="438.745" cy="702.464" r="2.041"/>
			<path style="fill:#9EA1A2;" d="M439.348,641.536c-0.615,0.355-1.401,0.144-1.755-0.47c-0.355-0.615-0.144-1.401,0.47-1.755
				c0.615-0.355,1.401-0.144,1.755,0.47C440.174,640.395,439.963,641.181,439.348,641.536z"/>
		</g>
		<g style="opacity:0.2618;">
			<rect x="600.183" y="344.059" style="fill:#9EA1A2;" width="0.7" height="221.831"/>
			<circle style="fill:#9EA1A2;" cx="600.481" cy="387.259" r="5.133"/>
			<path style="fill:#9EA1A2;" d="M602.166,568.719c-1.563,0.902-3.56,0.367-4.462-1.196c-0.902-1.562-0.367-3.56,1.196-4.462
				c1.562-0.902,3.56-0.367,4.462,1.196S603.729,567.816,602.166,568.719z"/>
			<path style="fill:#9EA1A2;" d="M603.147,512.447c-2.232,1.289-5.086,0.524-6.375-1.708c-1.289-2.232-0.524-5.086,1.708-6.375
				c2.232-1.289,5.086-0.524,6.375,1.708C606.143,508.304,605.379,511.158,603.147,512.447z"/>
			<path style="fill:#9EA1A2;" d="M602.866,348.1c-2.232,1.289-5.086,0.524-6.375-1.708s-0.524-5.086,1.708-6.375
				c2.232-1.289,5.086-0.524,6.375,1.708C605.863,343.957,605.098,346.811,602.866,348.1z"/>
			<path style="fill:#9EA1A2;" d="M601.902,444.244c-1.228,0.709-2.797,0.288-3.506-0.939c-0.709-1.228-0.288-2.797,0.94-3.506
				c1.228-0.709,2.797-0.288,3.506,0.939C603.551,441.966,603.13,443.535,601.902,444.244z"/>
			<circle style="fill:#9EA1A2;" cx="600.57" cy="364.018" r="1.616"/>
		</g>
		<g style="opacity:0.1554;">
			<rect x="632.523" y="489.301" style="fill:#9EA1A2;" width="0.681" height="216.066"/>
			<circle style="fill:#9EA1A2;" cx="632.814" cy="531.378" r="5"/>
			<path style="fill:#9EA1A2;" d="M634.455,708.122c-1.522,0.879-3.468,0.357-4.346-1.165c-0.879-1.522-0.357-3.468,1.165-4.346
				s3.468-0.357,4.346,1.165S635.977,707.244,634.455,708.122z"/>
			<path style="fill:#9EA1A2;" d="M635.41,653.313c-2.174,1.255-4.954,0.51-6.209-1.664c-1.255-2.174-0.51-4.954,1.664-6.209
				c2.174-1.255,4.954-0.51,6.209,1.664C638.329,649.278,637.584,652.058,635.41,653.313z"/>
			<circle style="fill:#9EA1A2;" cx="632.864" cy="489.301" r="4.545"/>
			<path style="fill:#9EA1A2;" d="M634.198,586.883c-1.196,0.69-2.725,0.281-3.415-0.915s-0.281-2.725,0.915-3.415
				c1.196-0.69,2.725-0.281,3.415,0.915C635.803,584.663,635.393,586.192,634.198,586.883z"/>
			<path style="fill:#9EA1A2;" d="M633.687,510.104c-0.753,0.435-1.715,0.177-2.15-0.576c-0.435-0.753-0.177-1.715,0.576-2.15
				c0.753-0.435,1.715-0.177,2.15,0.576C634.697,508.707,634.439,509.67,633.687,510.104z"/>
		</g>
		<g>
			<rect x="694.374" y="385.677" style="fill:#9EA1A2;" width="0.64" height="202.888"/>
			<path style="fill:#9EA1A2;" d="M696.994,429.254c-2.246,1.297-5.117,0.527-6.413-1.718c-1.296-2.245-0.527-5.117,1.719-6.413
				c2.245-1.296,5.117-0.527,6.413,1.718S699.24,427.957,696.994,429.254z"/>
			<circle style="fill:#9EA1A2;" cx="694.694" cy="588.565" r="2.988"/>
			<path style="fill:#9EA1A2;" d="M697.084,539.686c-2.041,1.179-4.652,0.479-5.83-1.562c-1.179-2.042-0.479-4.652,1.562-5.83
				s4.652-0.479,5.83,1.562C699.825,535.897,699.126,538.507,697.084,539.686z"/>
			<path style="fill:#9EA1A2;" d="M696.828,389.373c-2.041,1.179-4.652,0.479-5.83-1.562c-1.179-2.041-0.479-4.652,1.562-5.83
				c2.041-1.179,4.652-0.479,5.83,1.562C699.569,385.584,698.869,388.195,696.828,389.373z"/>
			<path style="fill:#9EA1A2;" d="M695.946,477.307c-1.123,0.648-2.558,0.264-3.207-0.859c-0.648-1.123-0.263-2.558,0.859-3.207
				s2.558-0.264,3.207,0.859C697.454,475.223,697.069,476.659,695.946,477.307z"/>
			<path style="fill:#9EA1A2;" d="M695.466,405.212c-0.707,0.408-1.611,0.166-2.019-0.541c-0.408-0.707-0.166-1.61,0.541-2.018
				c0.707-0.408,1.61-0.166,2.019,0.541C696.415,403.9,696.173,404.804,695.466,405.212z"/>
		</g>
		<g style="opacity:0.5942;">
			<rect x="580.109" y="492.134" style="fill:#9EA1A2;" width="0.268" height="85.019"/>
			<circle style="fill:#9EA1A2;" cx="580.223" cy="508.691" r="1.967"/>
			<path style="fill:#9EA1A2;" d="M580.869,578.237c-0.599,0.346-1.364,0.141-1.71-0.458c-0.346-0.599-0.141-1.364,0.458-1.71
				c0.599-0.346,1.365-0.141,1.71,0.458C581.673,577.126,581.468,577.891,580.869,578.237z"/>
			<circle style="fill:#9EA1A2;" cx="580.35" cy="555.121" r="1.788"/>
			<circle style="fill:#9EA1A2;" cx="580.243" cy="492.134" r="1.788"/>
			<path style="fill:#9EA1A2;" d="M580.767,530.531c-0.47,0.272-1.072,0.11-1.344-0.36c-0.272-0.47-0.11-1.072,0.36-1.344
				c0.471-0.272,1.072-0.11,1.344,0.36C581.399,529.658,581.238,530.259,580.767,530.531z"/>
			<path style="fill:#9EA1A2;" d="M580.566,500.32c-0.296,0.171-0.675,0.07-0.846-0.227c-0.171-0.296-0.07-0.675,0.227-0.846
				c0.296-0.171,0.675-0.069,0.846,0.227C580.964,499.77,580.862,500.149,580.566,500.32z"/>
		</g>
		<g style="opacity:0.9662;">
			<rect x="583.284" y="535.326" style="fill:#9EA1A2;" width="0.656" height="208.067"/>
			<circle style="fill:#9EA1A2;" cx="583.563" cy="575.845" r="4.815"/>
			<path style="fill:#9EA1A2;" d="M585.144,746.046c-1.465,0.846-3.339,0.344-4.185-1.121c-0.846-1.465-0.344-3.339,1.121-4.185
				c1.465-0.846,3.339-0.344,4.185,1.122C587.111,743.326,586.609,745.2,585.144,746.046z"/>
			<circle style="fill:#9EA1A2;" cx="583.875" cy="689.475" r="4.377"/>
			<circle style="fill:#9EA1A2;" cx="583.612" cy="535.326" r="4.377"/>
			<circle style="fill:#9EA1A2;" cx="583.692" cy="627.21" r="2.407"/>
			<path style="fill:#9EA1A2;" d="M584.404,555.359c-0.725,0.418-1.652,0.17-2.07-0.555c-0.418-0.725-0.17-1.652,0.555-2.07
				c0.725-0.418,1.652-0.17,2.07,0.555C585.377,554.014,585.129,554.941,584.404,555.359z"/>
		</g>
	</g>
	<g style="opacity:0.5;">
		<g>
			<rect x="644.006" y="512.795" style="fill:#9EA1A2;" width="267.207" height="0.843"/>
			<path style="fill:#9EA1A2;" d="M853.822,516.246c-1.708-2.958-0.694-6.739,2.263-8.447c2.957-1.707,6.739-0.694,8.447,2.263
				c1.707,2.957,0.694,6.739-2.263,8.447C859.312,520.216,855.53,519.203,853.822,516.246z"/>
			<path style="fill:#9EA1A2;" d="M640.599,515.183c-1.087-1.882-0.442-4.288,1.44-5.375c1.882-1.087,4.289-0.442,5.375,1.44
				c1.087,1.882,0.442,4.289-1.44,5.375C644.092,517.71,641.686,517.065,640.599,515.183z"/>
			<circle style="fill:#9EA1A2;" cx="713.249" cy="513.554" r="5.621"/>
			<circle style="fill:#9EA1A2;" cx="911.214" cy="513.216" r="5.621"/>
			<path style="fill:#9EA1A2;" d="M790.535,514.866c-0.854-1.479-0.347-3.37,1.132-4.223c1.479-0.854,3.37-0.347,4.223,1.132
				c0.854,1.479,0.347,3.37-1.132,4.223C793.28,516.851,791.389,516.344,790.535,514.866z"/>
			<circle style="fill:#9EA1A2;" cx="887.172" cy="513.26" r="1.946"/>
		</g>
		<g style="opacity:0.4803;">
			<rect x="578.534" y="499.512" style="fill:#9EA1A2;" width="214.178" height="0.675"/>
			<path style="fill:#9EA1A2;" d="M746.711,502.278c-1.369-2.37-0.556-5.402,1.814-6.77c2.371-1.369,5.402-0.556,6.77,1.814
				c1.369,2.371,0.556,5.402-1.814,6.77C751.111,505.46,748.08,504.648,746.711,502.278z"/>
			<path style="fill:#9EA1A2;" d="M575.803,501.426c-0.871-1.509-0.354-3.437,1.154-4.308c1.509-0.871,3.438-0.354,4.308,1.154
				c0.871,1.509,0.354,3.437-1.155,4.308C578.603,503.452,576.674,502.935,575.803,501.426z"/>
			<path style="fill:#9EA1A2;" d="M630.133,502.373c-1.244-2.155-0.506-4.911,1.649-6.155s4.911-0.506,6.155,1.649
				c1.244,2.155,0.506,4.911-1.649,6.155C634.133,505.266,631.378,504.528,630.133,502.373z"/>
			<path style="fill:#9EA1A2;" d="M788.811,502.102c-1.244-2.155-0.506-4.911,1.649-6.155c2.155-1.244,4.911-0.506,6.155,1.649
				c1.244,2.155,0.506,4.911-1.649,6.155C792.811,504.996,790.055,504.257,788.811,502.102z"/>
			<circle style="fill:#9EA1A2;" cx="698.13" cy="499.932" r="2.478"/>
			<circle style="fill:#9EA1A2;" cx="773.442" cy="499.885" r="1.56"/>
		</g>
		<g style="opacity:0.2189;">
			<rect x="541.73" y="508.635" style="fill:#9EA1A2;" width="101.54" height="0.32"/>
			<circle style="fill:#9EA1A2;" cx="623.496" cy="508.771" r="2.35"/>
			<path style="fill:#9EA1A2;" d="M540.435,509.543c-0.413-0.715-0.168-1.63,0.547-2.043s1.63-0.168,2.043,0.547
				s0.168,1.63-0.547,2.042C541.763,510.503,540.848,510.258,540.435,509.543z"/>
			<circle style="fill:#9EA1A2;" cx="568.043" cy="508.923" r="2.136"/>
			
				<ellipse transform="matrix(0.9917 -0.1285 0.1285 0.9917 -60.0531 86.8884)" style="fill:#9EA1A2;" cx="643.271" cy="508.795" rx="2.136" ry="2.136"/>
			<path style="fill:#9EA1A2;" d="M597.412,509.422c-0.324-0.562-0.132-1.28,0.43-1.605c0.562-0.324,1.281-0.132,1.605,0.43
				c0.324,0.562,0.132,1.28-0.43,1.605C598.455,510.176,597.736,509.984,597.412,509.422z"/>
			<path style="fill:#9EA1A2;" d="M633.494,509.182c-0.204-0.354-0.083-0.806,0.271-1.01c0.354-0.204,0.806-0.083,1.01,0.271
				c0.204,0.354,0.083,0.806-0.271,1.01C634.15,509.657,633.698,509.535,633.494,509.182z"/>
		</g>
		<g style="opacity:0.8952;">
			<rect x="412.546" y="478.083" style="fill:#9EA1A2;" width="256.864" height="0.81"/>
			<circle style="fill:#9EA1A2;" cx="619.388" cy="478.428" r="5.944"/>
			<path style="fill:#9EA1A2;" d="M409.27,480.379c-1.045-1.809-0.425-4.123,1.385-5.167c1.809-1.045,4.122-0.425,5.167,1.385
				c1.044,1.809,0.425,4.122-1.384,5.167C412.628,482.808,410.315,482.188,409.27,480.379z"/>
			<path style="fill:#9EA1A2;" d="M474.429,481.514c-1.492-2.585-0.607-5.889,1.978-7.382c2.584-1.492,5.889-0.607,7.381,1.978
				c1.492,2.585,0.607,5.889-1.978,7.381C479.226,484.984,475.921,484.098,474.429,481.514z"/>
			<path style="fill:#9EA1A2;" d="M664.73,481.19c-1.492-2.585-0.607-5.889,1.978-7.382c2.584-1.492,5.889-0.607,7.382,1.978
				c1.492,2.584,0.607,5.889-1.978,7.381C669.527,484.66,666.223,483.774,664.73,481.19z"/>
			<circle style="fill:#9EA1A2;" cx="555.977" cy="478.587" r="2.972"/>
			<path style="fill:#9EA1A2;" d="M644.678,479.466c-0.517-0.895-0.21-2.039,0.685-2.555s2.039-0.21,2.556,0.685
				c0.517,0.895,0.21,2.039-0.685,2.556C646.339,480.667,645.195,480.36,644.678,479.466z"/>
		</g>
		<g>
			<rect x="543.88" y="176.784" style="fill:#9EA1A2;" width="267.207" height="0.843"/>
			<path style="fill:#9EA1A2;" d="M753.696,180.235c-1.707-2.957-0.694-6.739,2.263-8.447c2.958-1.708,6.739-0.694,8.447,2.263
				c1.708,2.957,0.694,6.739-2.263,8.447C759.185,184.205,755.403,183.192,753.696,180.235z"/>
			<path style="fill:#9EA1A2;" d="M540.472,179.173c-1.087-1.882-0.442-4.288,1.44-5.375c1.882-1.087,4.289-0.442,5.375,1.44
				c1.087,1.882,0.442,4.289-1.44,5.375C543.966,181.699,541.559,181.055,540.472,179.173z"/>
			<circle style="fill:#9EA1A2;" cx="613.123" cy="177.543" r="5.621"/>
			<circle style="fill:#9EA1A2;" cx="811.087" cy="177.205" r="5.621"/>
			<circle style="fill:#9EA1A2;" cx="693.086" cy="177.309" r="3.092"/>
			
				<ellipse transform="matrix(0.866 -0.5 0.5 0.866 16.8193 417.2695)" style="fill:#9EA1A2;" cx="787.045" cy="177.25" rx="1.946" ry="1.946"/>
		</g>
		<g>
			<rect x="314.219" y="247.905" style="fill:#9EA1A2;" width="267.207" height="0.843"/>
			<circle style="fill:#9EA1A2;" cx="529.39" cy="248.264" r="6.183"/>
			<path style="fill:#9EA1A2;" d="M310.811,250.293c-1.087-1.882-0.442-4.288,1.44-5.375c1.882-1.087,4.288-0.442,5.375,1.44
				c1.087,1.882,0.442,4.289-1.44,5.375C314.304,252.82,311.898,252.175,310.811,250.293z"/>
			<circle style="fill:#9EA1A2;" cx="383.462" cy="248.663" r="5.621"/>
			<circle style="fill:#9EA1A2;" cx="581.426" cy="248.326" r="5.621"/>
			<path style="fill:#9EA1A2;" d="M460.748,249.975c-0.854-1.479-0.347-3.37,1.132-4.223c1.479-0.854,3.37-0.347,4.223,1.132
				c0.854,1.479,0.347,3.369-1.132,4.223C463.492,251.961,461.601,251.454,460.748,249.975z"/>
			<circle style="fill:#9EA1A2;" cx="557.384" cy="248.37" r="1.946"/>
		</g>
		<g style="opacity:0.6791;">
			<rect x="409.115" y="331.175" style="fill:#9EA1A2;" width="267.207" height="0.843"/>
			<path style="fill:#9EA1A2;" d="M618.93,334.625c-1.707-2.957-0.694-6.739,2.263-8.447c2.957-1.707,6.739-0.694,8.447,2.263
				c1.708,2.957,0.694,6.739-2.263,8.447C624.42,338.596,620.638,337.583,618.93,334.625z"/>
			<path style="fill:#9EA1A2;" d="M405.707,333.563c-1.087-1.882-0.442-4.288,1.44-5.375c1.882-1.087,4.289-0.442,5.375,1.44
				c1.087,1.882,0.442,4.289-1.44,5.375C409.2,336.09,406.794,335.445,405.707,333.563z"/>
			<path style="fill:#9EA1A2;" d="M473.489,334.744c-1.552-2.689-0.631-6.126,2.057-7.679s6.127-0.631,7.679,2.057
				c1.552,2.689,0.631,6.126-2.058,7.679C478.479,338.354,475.041,337.433,473.489,334.744z"/>
			<path style="fill:#9EA1A2;" d="M671.454,334.407c-1.552-2.689-0.631-6.126,2.057-7.679c2.689-1.552,6.127-0.631,7.679,2.057
				c1.552,2.689,0.631,6.127-2.058,7.679C676.444,338.016,673.006,337.095,671.454,334.407z"/>
			<path style="fill:#9EA1A2;" d="M555.643,333.246c-0.854-1.479-0.347-3.37,1.132-4.223c1.479-0.854,3.37-0.347,4.223,1.132
				c0.854,1.479,0.347,3.37-1.132,4.223S556.497,334.724,555.643,333.246z"/>
			<circle style="fill:#9EA1A2;" cx="652.28" cy="331.64" r="1.946"/>
		</g>
		<g style="opacity:0.301;">
			<rect x="375.616" y="360.663" style="fill:#9EA1A2;" width="149.035" height="0.47"/>
			<path style="fill:#9EA1A2;" d="M492.641,362.588c-0.952-1.65-0.387-3.759,1.262-4.711c1.65-0.952,3.759-0.387,4.711,1.262
				s0.387,3.759-1.262,4.711C495.703,364.803,493.593,364.237,492.641,362.588z"/>
			<path style="fill:#9EA1A2;" d="M373.716,361.996c-0.606-1.05-0.246-2.392,0.803-2.998s2.392-0.246,2.998,0.803
				c0.606,1.05,0.246,2.392-0.803,2.998S374.322,363.045,373.716,361.996z"/>
			<path style="fill:#9EA1A2;" d="M411.521,362.654c-0.866-1.5-0.352-3.417,1.148-4.283c1.5-0.866,3.417-0.352,4.283,1.148
				c0.866,1.5,0.352,3.417-1.148,4.283C414.304,364.668,412.387,364.154,411.521,362.654z"/>
			<path style="fill:#9EA1A2;" d="M521.936,362.466c-0.866-1.5-0.352-3.417,1.148-4.283c1.5-0.866,3.417-0.352,4.283,1.148
				c0.866,1.5,0.352,3.417-1.148,4.283S522.802,363.965,521.936,362.466z"/>
			<path style="fill:#9EA1A2;" d="M457.343,361.818c-0.476-0.825-0.194-1.879,0.631-2.355c0.825-0.476,1.879-0.194,2.356,0.631
				c0.476,0.825,0.194,1.879-0.631,2.356C458.873,362.926,457.819,362.643,457.343,361.818z"/>
			<path style="fill:#9EA1A2;" d="M510.302,361.466c-0.3-0.519-0.122-1.183,0.397-1.483c0.519-0.3,1.183-0.122,1.483,0.397
				c0.3,0.519,0.122,1.183-0.397,1.483S510.601,361.985,510.302,361.466z"/>
		</g>
		<g style="opacity:0.5099;">
			<rect x="248.121" y="375.054" style="fill:#9EA1A2;" width="214.008" height="0.675"/>
			<path style="fill:#9EA1A2;" d="M416.164,377.817c-1.368-2.369-0.556-5.397,1.813-6.765c2.369-1.367,5.397-0.556,6.765,1.813
				c1.368,2.369,0.556,5.397-1.813,6.765C420.56,380.998,417.531,380.186,416.164,377.817z"/>
			<path style="fill:#9EA1A2;" d="M245.392,376.967c-0.87-1.507-0.354-3.435,1.154-4.305c1.507-0.87,3.435-0.354,4.305,1.154
				c0.87,1.507,0.354,3.435-1.153,4.305C248.189,378.991,246.262,378.474,245.392,376.967z"/>
			<path style="fill:#9EA1A2;" d="M299.679,377.913c-1.243-2.153-0.505-4.907,1.648-6.15c2.153-1.243,4.907-0.505,6.15,1.648
				c1.243,2.153,0.505,4.907-1.648,6.15C303.675,380.804,300.922,380.066,299.679,377.913z"/>
			<path style="fill:#9EA1A2;" d="M458.23,377.642c-1.243-2.153-0.505-4.907,1.648-6.15c2.153-1.243,4.907-0.505,6.15,1.648
				c1.243,2.153,0.505,4.907-1.648,6.15S459.473,379.795,458.23,377.642z"/>
			<path style="fill:#9EA1A2;" d="M365.477,376.712c-0.684-1.184-0.278-2.699,0.906-3.383c1.184-0.684,2.699-0.278,3.383,0.906
				c0.684,1.184,0.278,2.699-0.906,3.382C367.675,378.302,366.16,377.897,365.477,376.712z"/>
			<path style="fill:#9EA1A2;" d="M441.523,376.206c-0.43-0.746-0.175-1.699,0.57-2.129c0.745-0.43,1.699-0.175,2.129,0.571
				c0.43,0.745,0.175,1.699-0.571,2.129C442.907,377.207,441.954,376.951,441.523,376.206z"/>
		</g>
		<g style="opacity:0.9437;">
			<rect x="425.57" y="621.665" style="fill:#9EA1A2;" width="267.207" height="0.843"/>
			
				<ellipse transform="matrix(0.9236 -0.3833 0.3833 0.9236 -189.4841 293.1028)" style="fill:#9EA1A2;" cx="640.741" cy="622.024" rx="6.183" ry="6.183"/>
			<path style="fill:#9EA1A2;" d="M422.163,624.054c-1.087-1.882-0.442-4.289,1.44-5.375c1.882-1.087,4.288-0.442,5.375,1.44
				c1.087,1.882,0.442,4.289-1.44,5.375C425.656,626.581,423.249,625.936,422.163,624.054z"/>
			<path style="fill:#9EA1A2;" d="M489.945,625.234c-1.552-2.689-0.631-6.126,2.057-7.679c2.689-1.552,6.126-0.631,7.679,2.057
				c1.552,2.689,0.631,6.127-2.057,7.679C494.935,628.844,491.497,627.923,489.945,625.234z"/>
			<circle style="fill:#9EA1A2;" cx="692.778" cy="622.086" r="5.621"/>
			<path style="fill:#9EA1A2;" d="M572.099,623.736c-0.854-1.479-0.347-3.37,1.132-4.223c1.479-0.854,3.37-0.347,4.223,1.132
				c0.854,1.479,0.347,3.37-1.132,4.223C574.844,625.721,572.953,625.215,572.099,623.736z"/>
			<path style="fill:#9EA1A2;" d="M667.05,623.104c-0.537-0.931-0.219-2.121,0.712-2.658c0.931-0.537,2.121-0.219,2.658,0.712
				c0.537,0.931,0.219,2.121-0.712,2.659C668.778,624.354,667.588,624.035,667.05,623.104z"/>
		</g>
		<g style="opacity:0.9021;">
			<rect x="296.571" y="430.063" style="fill:#9EA1A2;" width="236.837" height="0.747"/>
			<path style="fill:#9EA1A2;" d="M482.54,433.122c-1.513-2.621-0.615-5.973,2.006-7.487c2.621-1.513,5.973-0.615,7.487,2.006
				c1.513,2.621,0.615,5.973-2.006,7.487C487.406,436.641,484.054,435.743,482.54,433.122z"/>
			<path style="fill:#9EA1A2;" d="M293.551,432.18c-0.963-1.668-0.392-3.801,1.277-4.764c1.668-0.963,3.801-0.392,4.764,1.276
				c0.963,1.668,0.391,3.801-1.277,4.764C296.647,434.42,294.514,433.848,293.551,432.18z"/>
			<path style="fill:#9EA1A2;" d="M353.63,433.227c-1.376-2.383-0.559-5.43,1.824-6.806c2.383-1.376,5.43-0.559,6.806,1.824
				c1.376,2.383,0.559,5.43-1.824,6.806C358.052,436.426,355.005,435.61,353.63,433.227z"/>
			<path style="fill:#9EA1A2;" d="M529.094,432.928c-1.376-2.383-0.559-5.43,1.824-6.806c2.383-1.376,5.43-0.559,6.806,1.824
				c1.376,2.383,0.559,5.43-1.824,6.806C533.517,436.127,530.47,435.311,529.094,432.928z"/>
			<circle style="fill:#9EA1A2;" cx="428.819" cy="430.528" r="2.74"/>
			<path style="fill:#9EA1A2;" d="M510.605,431.338c-0.476-0.825-0.194-1.88,0.631-2.356c0.825-0.476,1.88-0.194,2.356,0.631
				c0.476,0.825,0.194,1.88-0.631,2.356C512.137,432.446,511.082,432.163,510.605,431.338z"/>
		</g>
		<g style="opacity:0.95;">
			<rect x="98.127" y="444.568" style="fill:#9EA1A2;" width="258.61" height="0.816"/>
			<path style="fill:#9EA1A2;" d="M301.192,447.908c-1.652-2.862-0.672-6.522,2.19-8.175c2.862-1.652,6.522-0.672,8.175,2.19
				c1.653,2.862,0.672,6.522-2.19,8.175C306.504,451.751,302.844,450.77,301.192,447.908z"/>
			<path style="fill:#9EA1A2;" d="M94.829,446.88c-1.052-1.822-0.428-4.151,1.394-5.202c1.821-1.052,4.15-0.428,5.202,1.394
				c1.052,1.821,0.428,4.15-1.394,5.202C98.209,449.325,95.88,448.701,94.829,446.88z"/>
			<path style="fill:#9EA1A2;" d="M160.43,448.023c-1.502-2.602-0.611-5.929,1.991-7.432c2.602-1.502,5.929-0.611,7.432,1.991
				c1.502,2.602,0.611,5.929-1.991,7.432C165.26,451.516,161.932,450.625,160.43,448.023z"/>
			<path style="fill:#9EA1A2;" d="M352.025,447.696c-1.502-2.602-0.611-5.929,1.991-7.432c2.602-1.502,5.929-0.611,7.432,1.991
				c1.502,2.602,0.611,5.929-1.991,7.432C356.855,451.19,353.527,450.298,352.025,447.696z"/>
			<circle style="fill:#9EA1A2;" cx="242.532" cy="445.076" r="2.992"/>
			<circle style="fill:#9EA1A2;" cx="333.468" cy="445.019" r="1.883"/>
		</g>
		<g style="opacity:0.5188;">
			<rect x="254.112" y="295.94" style="fill:#9EA1A2;" width="190.461" height="0.601"/>
			<path style="fill:#9EA1A2;" d="M403.665,298.4c-1.217-2.108-0.495-4.803,1.613-6.021c2.108-1.217,4.804-0.495,6.021,1.613
				c1.217,2.108,0.495,4.804-1.613,6.021C407.577,301.23,404.882,300.508,403.665,298.4z"/>
			<circle style="fill:#9EA1A2;" cx="254.112" cy="296.241" r="2.805"/>
			<circle style="fill:#9EA1A2;" cx="303.467" cy="296.481" r="4.007"/>
			<circle style="fill:#9EA1A2;" cx="444.573" cy="296.241" r="4.007"/>
			<circle style="fill:#9EA1A2;" cx="360.463" cy="296.315" r="2.204"/>
			<circle style="fill:#9EA1A2;" cx="427.436" cy="296.272" r="1.387"/>
		</g>
		<g style="opacity:0.0926;">
			<rect x="87.08" y="302.608" style="fill:#9EA1A2;" width="207.188" height="0.653"/>
			<path style="fill:#9EA1A2;" d="M249.768,305.284c-1.324-2.293-0.538-5.225,1.755-6.549s5.225-0.538,6.549,1.755
				c1.324,2.293,0.538,5.225-1.755,6.549S251.092,307.577,249.768,305.284z"/>
			<circle style="fill:#9EA1A2;" cx="87.08" cy="302.935" r="3.051"/>
			<circle style="fill:#9EA1A2;" cx="140.77" cy="303.196" r="4.359"/>
			<path style="fill:#9EA1A2;" d="M290.494,305.114c-1.204-2.085-0.489-4.75,1.595-5.954c2.085-1.204,4.75-0.489,5.954,1.595
				c1.204,2.085,0.489,4.75-1.595,5.954C294.363,307.913,291.697,307.199,290.494,305.114z"/>
			<path style="fill:#9EA1A2;" d="M200.696,304.214c-0.662-1.147-0.269-2.613,0.878-3.275c1.147-0.662,2.613-0.269,3.275,0.877
				c0.662,1.147,0.269,2.613-0.877,3.275C202.824,305.753,201.358,305.36,200.696,304.214z"/>
			<path style="fill:#9EA1A2;" d="M274.32,303.723c-0.417-0.722-0.169-1.645,0.552-2.061c0.722-0.417,1.645-0.169,2.061,0.552
				c0.417,0.722,0.169,1.645-0.552,2.061C275.659,304.692,274.736,304.445,274.32,303.723z"/>
		</g>
		<g style="opacity:0.1791;">
			<rect x="250.183" y="421.826" style="fill:#9EA1A2;" width="141.848" height="0.447"/>
			<path style="fill:#9EA1A2;" d="M361.564,423.658c-0.906-1.57-0.368-3.577,1.201-4.484c1.57-0.906,3.578-0.369,4.484,1.201
				c0.906,1.57,0.369,3.578-1.201,4.484C364.478,425.766,362.471,425.228,361.564,423.658z"/>
			<path style="fill:#9EA1A2;" d="M248.374,423.094c-0.577-0.999-0.234-2.277,0.765-2.853c0.999-0.577,2.277-0.234,2.853,0.765
				c0.577,0.999,0.235,2.277-0.765,2.853C250.228,424.436,248.951,424.093,248.374,423.094z"/>
			<path style="fill:#9EA1A2;" d="M284.356,423.721c-0.824-1.427-0.335-3.252,1.092-4.076c1.427-0.824,3.252-0.335,4.076,1.092
				c0.824,1.427,0.335,3.252-1.092,4.076C287.005,425.637,285.18,425.148,284.356,423.721z"/>
			<path style="fill:#9EA1A2;" d="M389.447,423.542c-0.824-1.427-0.335-3.252,1.092-4.076c1.427-0.824,3.252-0.335,4.076,1.092
				c0.824,1.427,0.335,3.252-1.092,4.076C392.096,425.458,390.271,424.969,389.447,423.542z"/>
			<path style="fill:#9EA1A2;" d="M327.968,422.925c-0.453-0.785-0.184-1.789,0.601-2.242c0.785-0.453,1.789-0.184,2.242,0.601
				c0.453,0.785,0.184,1.789-0.601,2.242C329.425,423.979,328.421,423.71,327.968,422.925z"/>
			<circle style="fill:#9EA1A2;" cx="379.268" cy="422.073" r="1.033"/>
		</g>
		<g style="opacity:0.0255;">
			<rect x="141.257" y="311.906" style="fill:#9EA1A2;" width="267.207" height="0.843"/>
			<path style="fill:#9EA1A2;" d="M351.073,315.357c-1.708-2.957-0.694-6.739,2.263-8.447c2.957-1.707,6.739-0.694,8.447,2.263
				c1.707,2.957,0.694,6.739-2.263,8.447C356.562,319.328,352.781,318.315,351.073,315.357z"/>
			<path style="fill:#9EA1A2;" d="M137.85,314.295c-1.087-1.882-0.442-4.289,1.44-5.375c1.882-1.087,4.288-0.442,5.375,1.44
				c1.087,1.882,0.442,4.289-1.44,5.375C141.343,316.822,138.936,316.177,137.85,314.295z"/>
			<path style="fill:#9EA1A2;" d="M205.632,315.476c-1.552-2.689-0.631-6.126,2.058-7.679c2.689-1.552,6.126-0.631,7.679,2.057
				c1.552,2.689,0.631,6.127-2.057,7.679C210.622,319.086,207.184,318.165,205.632,315.476z"/>
			<circle style="fill:#9EA1A2;" cx="408.465" cy="312.328" r="5.621"/>
			<path style="fill:#9EA1A2;" d="M287.786,313.977c-0.854-1.479-0.347-3.369,1.132-4.223s3.37-0.347,4.223,1.132
				c0.854,1.479,0.347,3.37-1.132,4.223C290.531,315.963,288.64,315.456,287.786,313.977z"/>
			<path style="fill:#9EA1A2;" d="M382.737,313.345c-0.537-0.931-0.218-2.121,0.712-2.658c0.931-0.537,2.121-0.219,2.658,0.712
				c0.537,0.931,0.219,2.121-0.712,2.659C384.465,314.595,383.274,314.276,382.737,313.345z"/>
		</g>
		<g style="opacity:0.544;">
			<rect x="33.148" y="338.173" style="fill:#9EA1A2;" width="202.376" height="0.638"/>
			<path style="fill:#9EA1A2;" d="M192.057,340.787c-1.293-2.24-0.526-5.104,1.714-6.397c2.24-1.293,5.104-0.526,6.397,1.714
				c1.293,2.24,0.526,5.104-1.714,6.397C196.214,343.794,193.35,343.026,192.057,340.787z"/>
			<path style="fill:#9EA1A2;" d="M30.567,339.982c-0.823-1.425-0.335-3.248,1.091-4.071c1.425-0.823,3.248-0.335,4.071,1.091
				s0.335,3.248-1.091,4.071C33.213,341.896,31.39,341.408,30.567,339.982z"/>
			<path style="fill:#9EA1A2;" d="M81.903,340.876c-1.176-2.036-0.478-4.64,1.558-5.816c2.036-1.176,4.64-0.478,5.816,1.558
				s0.478,4.64-1.558,5.816C85.683,343.61,83.079,342.913,81.903,340.876z"/>
			<path style="fill:#9EA1A2;" d="M231.837,340.621c-1.176-2.036-0.478-4.64,1.558-5.816c2.036-1.176,4.64-0.478,5.816,1.558
				c1.176,2.036,0.478,4.64-1.558,5.816C235.616,343.355,233.012,342.657,231.837,340.621z"/>
			<path style="fill:#9EA1A2;" d="M144.125,339.741c-0.647-1.12-0.263-2.552,0.857-3.199c1.12-0.647,2.552-0.263,3.199,0.857
				c0.647,1.12,0.263,2.552-0.857,3.199C146.204,341.245,144.771,340.861,144.125,339.741z"/>
			<path style="fill:#9EA1A2;" d="M216.038,339.263c-0.407-0.705-0.166-1.606,0.539-2.013c0.705-0.407,1.606-0.166,2.014,0.54
				c0.407,0.705,0.165,1.606-0.54,2.013C217.347,340.209,216.445,339.968,216.038,339.263z"/>
		</g>
		<g style="opacity:0.2618;">
			<rect x="302.806" y="523.743" style="fill:#9EA1A2;" width="254.444" height="0.802"/>
			<circle style="fill:#9EA1A2;" cx="507.699" cy="524.085" r="5.888"/>
			<circle style="fill:#9EA1A2;" cx="302.806" cy="524.145" r="3.747"/>
			
				<ellipse transform="matrix(0.934 -0.3573 0.3573 0.934 -163.0454 166.3631)" style="fill:#9EA1A2;" cx="368.741" cy="524.466" rx="5.353" ry="5.353"/>
			<path style="fill:#9EA1A2;" d="M552.615,526.821c-1.478-2.56-0.601-5.834,1.959-7.312c2.56-1.478,5.834-0.601,7.312,1.959
				c1.478,2.56,0.601,5.834-1.959,7.312C557.366,530.258,554.093,529.381,552.615,526.821z"/>
			<path style="fill:#9EA1A2;" d="M442.336,525.715c-0.813-1.408-0.33-3.209,1.078-4.022c1.408-0.813,3.209-0.331,4.022,1.078
				c0.813,1.408,0.33,3.209-1.078,4.022C444.949,527.606,443.149,527.123,442.336,525.715z"/>
			<path style="fill:#9EA1A2;" d="M532.751,525.113c-0.512-0.886-0.208-2.02,0.678-2.531c0.886-0.512,2.02-0.208,2.531,0.678
				c0.512,0.886,0.208,2.02-0.678,2.531C534.396,526.303,533.263,526,532.751,525.113z"/>
		</g>
		<g style="opacity:0.1554;">
			<rect x="142.822" y="560.838" style="fill:#9EA1A2;" width="247.832" height="0.782"/>
			<path style="fill:#9EA1A2;" d="M337.425,564.039c-1.584-2.743-0.644-6.25,2.099-7.834c2.743-1.584,6.25-0.644,7.834,2.099
				c1.584,2.743,0.644,6.25-2.099,7.834C342.516,567.721,339.008,566.782,337.425,564.039z"/>
			<circle style="fill:#9EA1A2;" cx="142.823" cy="561.229" r="3.649"/>
			<path style="fill:#9EA1A2;" d="M202.529,564.149c-1.44-2.494-0.585-5.682,1.908-7.122c2.494-1.44,5.682-0.585,7.122,1.908
				c1.44,2.494,0.585,5.682-1.908,7.122S203.969,566.642,202.529,564.149z"/>
			<path style="fill:#9EA1A2;" d="M386.14,563.836c-1.44-2.494-0.585-5.682,1.908-7.122c2.494-1.44,5.682-0.585,7.122,1.908
				c1.44,2.494,0.585,5.682-1.908,7.122C390.768,567.184,387.579,566.329,386.14,563.836z"/>
			<circle style="fill:#9EA1A2;" cx="281.21" cy="561.325" r="2.868"/>
			<circle style="fill:#9EA1A2;" cx="368.356" cy="561.27" r="1.805"/>
		</g>
		<g>
			<rect x="276.797" y="631.782" style="fill:#9EA1A2;" width="232.717" height="0.734"/>
			
				<ellipse transform="matrix(0.9342 -0.3567 0.3567 0.9342 -194.9157 207.1308)" style="fill:#9EA1A2;" cx="464.194" cy="632.095" rx="5.385" ry="5.385"/>
			<path style="fill:#9EA1A2;" d="M273.829,633.862c-0.946-1.639-0.385-3.735,1.254-4.681c1.639-0.946,3.735-0.385,4.681,1.254
				c0.946,1.639,0.385,3.735-1.254,4.681C276.871,636.063,274.775,635.501,273.829,633.862z"/>
			<path style="fill:#9EA1A2;" d="M332.862,634.891c-1.352-2.342-0.55-5.336,1.792-6.688c2.341-1.352,5.336-0.55,6.688,1.792
				s0.55,5.336-1.792,6.688C337.208,638.034,334.214,637.232,332.862,634.891z"/>
			<path style="fill:#9EA1A2;" d="M505.273,634.597c-1.352-2.341-0.55-5.336,1.792-6.688c2.341-1.352,5.336-0.55,6.688,1.792
				c1.352,2.342,0.55,5.336-1.792,6.688C509.62,637.741,506.625,636.938,505.273,634.597z"/>
			<circle style="fill:#9EA1A2;" cx="406.744" cy="632.239" r="2.693"/>
			
				<ellipse transform="matrix(0.9347 -0.3554 0.3554 0.9347 -192.7776 214.9041)" style="fill:#9EA1A2;" cx="488.574" cy="632.188" rx="1.695" ry="1.695"/>
		</g>
		<g style="opacity:0.5942;">
			<rect x="289.887" y="500.717" style="fill:#9EA1A2;" width="97.518" height="0.307"/>
			<circle style="fill:#9EA1A2;" cx="368.414" cy="500.848" r="2.257"/>
			<path style="fill:#9EA1A2;" d="M288.643,501.589c-0.397-0.687-0.161-1.565,0.526-1.962c0.687-0.397,1.565-0.161,1.962,0.526
				c0.397,0.687,0.161,1.565-0.526,1.962C289.918,502.511,289.04,502.276,288.643,501.589z"/>
			<circle style="fill:#9EA1A2;" cx="315.157" cy="500.994" r="2.052"/>
			<circle style="fill:#9EA1A2;" cx="387.405" cy="500.871" r="2.052"/>
			<path style="fill:#9EA1A2;" d="M343.363,501.473c-0.312-0.54-0.127-1.23,0.413-1.541c0.54-0.312,1.23-0.127,1.541,0.413
				c0.312,0.54,0.127,1.23-0.413,1.541C344.364,502.198,343.674,502.013,343.363,501.473z"/>
			<path style="fill:#9EA1A2;" d="M378.015,501.242c-0.196-0.34-0.08-0.774,0.26-0.97c0.34-0.196,0.774-0.08,0.97,0.26
				c0.196,0.34,0.08,0.774-0.26,0.97C378.646,501.699,378.212,501.582,378.015,501.242z"/>
		</g>
		<g style="opacity:0.9662;">
			<rect x="99.207" y="504.359" style="fill:#9EA1A2;" width="238.656" height="0.753"/>
			<path style="fill:#9EA1A2;" d="M286.604,507.441c-1.525-2.641-0.62-6.019,2.021-7.544c2.641-1.525,6.019-0.62,7.544,2.021
				c1.525,2.641,0.62,6.019-2.021,7.544C291.507,510.988,288.129,510.083,286.604,507.441z"/>
			<path style="fill:#9EA1A2;" d="M96.163,506.493c-0.97-1.681-0.395-3.83,1.286-4.801c1.681-0.971,3.83-0.395,4.801,1.286
				c0.97,1.681,0.395,3.83-1.286,4.801C99.283,508.75,97.134,508.174,96.163,506.493z"/>
			<circle style="fill:#9EA1A2;" cx="161.051" cy="505.037" r="5.021"/>
			<circle style="fill:#9EA1A2;" cx="337.863" cy="504.736" r="5.021"/>
			<circle style="fill:#9EA1A2;" cx="232.47" cy="504.828" r="2.761"/>
			<circle style="fill:#9EA1A2;" cx="316.39" cy="504.775" r="1.738"/>
		</g>
	</g>
	<g style="opacity:0.5;">
		<g>
			<rect x="590.782" y="507.988" style="fill:#9EA1A2;" width="195.819" height="0.617"/>
			<path style="fill:#9EA1A2;" d="M744.543,510.516c-1.251-2.167-0.509-4.939,1.659-6.19c2.167-1.251,4.939-0.509,6.19,1.659
				c1.251,2.167,0.509,4.939-1.659,6.19C748.565,513.426,745.794,512.684,744.543,510.516z"/>
			<path style="fill:#9EA1A2;" d="M588.285,509.738c-0.796-1.379-0.324-3.143,1.055-3.939c1.379-0.796,3.143-0.324,3.939,1.055
				c0.796,1.379,0.324,3.143-1.055,3.939C590.845,511.59,589.081,511.117,588.285,509.738z"/>
			<path style="fill:#9EA1A2;" d="M637.958,510.603c-1.138-1.97-0.462-4.49,1.508-5.627c1.97-1.138,4.49-0.462,5.627,1.508
				c1.138,1.97,0.462,4.49-1.508,5.627C641.615,513.249,639.096,512.574,637.958,510.603z"/>
			<circle style="fill:#9EA1A2;" cx="786.601" cy="508.296" r="4.119"/>
			<path style="fill:#9EA1A2;" d="M698.164,509.505c-0.626-1.084-0.254-2.469,0.829-3.095c1.084-0.626,2.469-0.254,3.095,0.829
				c0.626,1.084,0.254,2.469-0.829,3.095S698.789,510.589,698.164,509.505z"/>
			<path style="fill:#9EA1A2;" d="M767.747,509.042c-0.394-0.682-0.16-1.554,0.522-1.948c0.682-0.394,1.554-0.16,1.948,0.522
				c0.394,0.682,0.16,1.554-0.522,1.948C769.013,509.958,768.141,509.724,767.747,509.042z"/>
		</g>
		<g style="opacity:0.4803;">
			<rect x="542.802" y="498.253" style="fill:#9EA1A2;" width="156.958" height="0.495"/>
			<circle style="fill:#9EA1A2;" cx="669.193" cy="498.464" r="3.632"/>
			<path style="fill:#9EA1A2;" d="M540.8,499.656c-0.638-1.105-0.259-2.519,0.846-3.157c1.105-0.638,2.519-0.259,3.157,0.846
				c0.638,1.105,0.26,2.519-0.846,3.157C542.852,501.141,541.439,500.762,540.8,499.656z"/>
			<path style="fill:#9EA1A2;" d="M580.616,500.35c-0.912-1.579-0.371-3.599,1.209-4.51c1.579-0.912,3.599-0.371,4.51,1.209
				s0.371,3.599-1.208,4.51C583.547,502.47,581.527,501.929,580.616,500.35z"/>
			<circle style="fill:#9EA1A2;" cx="699.759" cy="498.501" r="3.302"/>
			<path style="fill:#9EA1A2;" d="M628.873,499.47c-0.501-0.869-0.204-1.979,0.665-2.481c0.869-0.501,1.979-0.204,2.481,0.665
				c0.501,0.869,0.204,1.979-0.665,2.481C630.485,500.636,629.374,500.338,628.873,499.47z"/>
			<path style="fill:#9EA1A2;" d="M684.647,499.098c-0.316-0.547-0.128-1.246,0.418-1.562c0.547-0.316,1.246-0.128,1.562,0.418
				c0.316,0.547,0.128,1.246-0.418,1.561C685.662,499.832,684.963,499.645,684.647,499.098z"/>
		</g>
		<g style="opacity:0.2189;">
			<rect x="515.831" y="504.939" style="fill:#9EA1A2;" width="74.412" height="0.235"/>
			<path style="fill:#9EA1A2;" d="M574.26,505.9c-0.476-0.824-0.193-1.877,0.63-2.352c0.824-0.476,1.877-0.193,2.352,0.63
				c0.476,0.824,0.193,1.877-0.63,2.352C575.789,507.006,574.736,506.724,574.26,505.9z"/>
			<circle style="fill:#9EA1A2;" cx="515.831" cy="505.056" r="1.096"/>
			<path style="fill:#9EA1A2;" d="M533.758,505.933c-0.432-0.749-0.176-1.706,0.573-2.138c0.749-0.432,1.706-0.176,2.138,0.573
				c0.432,0.749,0.176,1.706-0.573,2.138C535.147,506.938,534.19,506.682,533.758,505.933z"/>
			
				<ellipse transform="matrix(0.9347 -0.3554 0.3554 0.9347 -140.9649 242.7514)" style="fill:#9EA1A2;" cx="590.243" cy="505.056" rx="1.565" ry="1.565"/>
			<circle style="fill:#9EA1A2;" cx="557.382" cy="505.085" r="0.861"/>
			<path style="fill:#9EA1A2;" d="M583.078,505.34c-0.15-0.259-0.061-0.591,0.198-0.74c0.259-0.15,0.591-0.061,0.74,0.198
				c0.15,0.259,0.061,0.591-0.198,0.74C583.559,505.688,583.228,505.599,583.078,505.34z"/>
		</g>
		<g style="opacity:0.8952;">
			<rect x="421.16" y="482.549" style="fill:#9EA1A2;" width="188.239" height="0.594"/>
			<path style="fill:#9EA1A2;" d="M568.968,484.98c-1.203-2.083-0.489-4.748,1.594-5.95c2.083-1.203,4.748-0.489,5.95,1.594
				c1.203,2.083,0.489,4.747-1.594,5.95C572.835,487.777,570.171,487.064,568.968,484.98z"/>
			<circle style="fill:#9EA1A2;" cx="421.16" cy="482.846" r="2.772"/>
			<path style="fill:#9EA1A2;" d="M466.51,485.064c-1.094-1.894-0.445-4.316,1.449-5.409c1.894-1.094,4.316-0.444,5.409,1.45
				c1.093,1.894,0.445,4.316-1.449,5.409C470.025,487.607,467.603,486.958,466.51,485.064z"/>
			<path style="fill:#9EA1A2;" d="M605.969,484.826c-1.094-1.894-0.445-4.316,1.449-5.409c1.894-1.093,4.316-0.445,5.409,1.449
				c1.094,1.894,0.444,4.316-1.45,5.409C609.485,487.369,607.063,486.72,605.969,484.826z"/>
			<path style="fill:#9EA1A2;" d="M524.385,484.008c-0.601-1.042-0.245-2.374,0.797-2.975c1.042-0.601,2.374-0.244,2.975,0.797
				c0.601,1.042,0.245,2.374-0.797,2.975C526.318,485.407,524.986,485.05,524.385,484.008z"/>
			<circle style="fill:#9EA1A2;" cx="592.462" cy="482.877" r="1.371"/>
		</g>
		<g>
			<rect x="517.406" y="261.747" style="fill:#9EA1A2;" width="195.819" height="0.617"/>
			<path style="fill:#9EA1A2;" d="M671.167,264.276c-1.251-2.167-0.509-4.939,1.659-6.19c2.167-1.251,4.939-0.509,6.19,1.659
				c1.251,2.167,0.509,4.939-1.659,6.19S672.418,266.443,671.167,264.276z"/>
			<circle style="fill:#9EA1A2;" cx="517.406" cy="262.056" r="2.884"/>
			<circle style="fill:#9EA1A2;" cx="568.15" cy="262.303" r="4.119"/>
			<path style="fill:#9EA1A2;" d="M709.657,264.115c-1.137-1.97-0.462-4.49,1.508-5.627c1.97-1.138,4.49-0.462,5.627,1.508
				c1.138,1.97,0.463,4.49-1.508,5.627C713.314,266.761,710.795,266.086,709.657,264.115z"/>
			<path style="fill:#9EA1A2;" d="M624.787,263.265c-0.626-1.084-0.254-2.469,0.829-3.095c1.084-0.626,2.469-0.254,3.095,0.829
				s0.254,2.469-0.829,3.095C626.799,264.72,625.413,264.348,624.787,263.265z"/>
			<path style="fill:#9EA1A2;" d="M694.371,262.801c-0.394-0.682-0.16-1.554,0.522-1.948c0.682-0.394,1.554-0.16,1.948,0.522
				c0.394,0.682,0.16,1.554-0.522,1.948C695.637,263.717,694.765,263.483,694.371,262.801z"/>
		</g>
		<g>
			<rect x="349.102" y="313.867" style="fill:#9EA1A2;" width="195.819" height="0.617"/>
			<path style="fill:#9EA1A2;" d="M502.863,316.396c-1.251-2.167-0.509-4.939,1.659-6.19c2.167-1.251,4.939-0.509,6.19,1.659
				c1.251,2.167,0.509,4.939-1.659,6.19C506.885,319.305,504.114,318.563,502.863,316.396z"/>
			<circle style="fill:#9EA1A2;" cx="349.102" cy="314.175" r="2.884"/>
			<path style="fill:#9EA1A2;" d="M396.278,316.483c-1.138-1.97-0.463-4.49,1.508-5.627c1.97-1.138,4.49-0.462,5.627,1.508
				c1.138,1.97,0.462,4.49-1.508,5.627C399.935,319.128,397.416,318.453,396.278,316.483z"/>
			<circle style="fill:#9EA1A2;" cx="544.921" cy="314.176" r="4.119"/>
			<path style="fill:#9EA1A2;" d="M456.484,315.384c-0.626-1.084-0.254-2.469,0.829-3.095c1.084-0.626,2.469-0.254,3.095,0.829
				c0.626,1.084,0.254,2.469-0.829,3.095S457.109,316.468,456.484,315.384z"/>
			<path style="fill:#9EA1A2;" d="M526.067,314.921c-0.394-0.682-0.16-1.554,0.522-1.948c0.682-0.394,1.554-0.16,1.948,0.522
				c0.394,0.682,0.16,1.554-0.522,1.948C527.333,315.837,526.461,315.603,526.067,314.921z"/>
		</g>
		<g style="opacity:0.6791;">
			<rect x="418.645" y="374.89" style="fill:#9EA1A2;" width="195.819" height="0.617"/>
			<path style="fill:#9EA1A2;" d="M572.406,377.419c-1.251-2.167-0.509-4.939,1.659-6.19c2.167-1.251,4.939-0.509,6.19,1.659
				c1.251,2.167,0.509,4.939-1.659,6.19C576.428,380.329,573.657,379.586,572.406,377.419z"/>
			<circle style="fill:#9EA1A2;" cx="418.645" cy="375.199" r="2.884"/>
			<path style="fill:#9EA1A2;" d="M465.821,377.506c-1.138-1.97-0.463-4.49,1.508-5.627c1.97-1.138,4.49-0.462,5.627,1.508
				c1.138,1.97,0.462,4.49-1.508,5.627C469.478,380.151,466.959,379.476,465.821,377.506z"/>
			<path style="fill:#9EA1A2;" d="M610.896,377.258c-1.138-1.97-0.462-4.49,1.508-5.627c1.97-1.137,4.49-0.462,5.627,1.508
				c1.138,1.97,0.462,4.49-1.508,5.627C614.553,379.904,612.034,379.229,610.896,377.258z"/>
			<path style="fill:#9EA1A2;" d="M526.027,376.408c-0.626-1.084-0.254-2.469,0.829-3.095c1.084-0.626,2.469-0.254,3.095,0.829
				c0.626,1.084,0.254,2.469-0.829,3.095C528.038,377.863,526.652,377.491,526.027,376.408z"/>
			<path style="fill:#9EA1A2;" d="M595.61,375.944c-0.394-0.682-0.16-1.554,0.522-1.948c0.682-0.394,1.554-0.16,1.948,0.522
				c0.394,0.682,0.16,1.554-0.522,1.948C596.876,376.86,596.004,376.626,595.61,375.944z"/>
		</g>
		<g style="opacity:0.301;">
			<rect x="394.096" y="396.5" style="fill:#9EA1A2;" width="109.218" height="0.344"/>
			<path style="fill:#9EA1A2;" d="M479.856,397.911c-0.698-1.209-0.284-2.755,0.925-3.452c1.209-0.698,2.755-0.284,3.452,0.925
				c0.698,1.209,0.284,2.755-0.925,3.452C482.1,399.534,480.554,399.12,479.856,397.911z"/>
			<circle style="fill:#9EA1A2;" cx="394.096" cy="396.672" r="1.608"/>
			<circle style="fill:#9EA1A2;" cx="422.399" cy="396.81" r="2.298"/>
			<circle style="fill:#9EA1A2;" cx="503.314" cy="396.672" r="2.298"/>
			<circle style="fill:#9EA1A2;" cx="455.083" cy="396.715" r="1.264"/>
			<path style="fill:#9EA1A2;" d="M492.799,397.088c-0.22-0.38-0.089-0.867,0.291-1.087c0.38-0.22,0.867-0.089,1.087,0.291
				c0.22,0.38,0.089,0.867-0.291,1.087C493.505,397.599,493.018,397.469,492.799,397.088z"/>
		</g>
		<g style="opacity:0.5099;">
			<rect x="300.663" y="407.046" style="fill:#9EA1A2;" width="156.832" height="0.495"/>
			<path style="fill:#9EA1A2;" d="M423.811,409.071c-1.002-1.736-0.407-3.955,1.328-4.958c1.736-1.002,3.955-0.407,4.958,1.328
				c1.002,1.736,0.407,3.955-1.328,4.958C427.033,411.402,424.813,410.807,423.811,409.071z"/>
			<circle style="fill:#9EA1A2;" cx="300.663" cy="407.293" r="2.309"/>
			<path style="fill:#9EA1A2;" d="M338.447,409.141c-0.911-1.578-0.37-3.596,1.208-4.507c1.578-0.911,3.596-0.37,4.507,1.208
				c0.911,1.578,0.37,3.596-1.208,4.507C341.376,411.26,339.358,410.719,338.447,409.141z"/>
			<path style="fill:#9EA1A2;" d="M454.638,408.943c-0.911-1.578-0.37-3.596,1.208-4.507c1.578-0.911,3.596-0.37,4.507,1.208
				s0.37,3.596-1.208,4.507C457.567,411.062,455.55,410.521,454.638,408.943z"/>
			<circle style="fill:#9EA1A2;" cx="388.237" cy="407.354" r="1.815"/>
			<path style="fill:#9EA1A2;" d="M442.395,407.891c-0.315-0.546-0.128-1.245,0.418-1.56c0.546-0.315,1.245-0.128,1.56,0.418
				c0.315,0.546,0.128,1.245-0.418,1.56C443.409,408.624,442.711,408.437,442.395,407.891z"/>
		</g>
		<g style="opacity:0.9437;">
			<rect x="430.705" y="587.772" style="fill:#9EA1A2;" width="195.819" height="0.618"/>
			<path style="fill:#9EA1A2;" d="M584.465,590.3c-1.251-2.167-0.509-4.939,1.659-6.19c2.167-1.251,4.939-0.509,6.19,1.659
				c1.251,2.167,0.509,4.939-1.659,6.19C588.488,593.21,585.716,592.468,584.465,590.3z"/>
			<circle style="fill:#9EA1A2;" cx="430.705" cy="588.08" r="2.884"/>
			<path style="fill:#9EA1A2;" d="M477.881,590.387c-1.138-1.97-0.462-4.49,1.508-5.627c1.97-1.138,4.49-0.462,5.627,1.508
				c1.138,1.97,0.462,4.49-1.508,5.627C481.538,593.033,479.018,592.358,477.881,590.387z"/>
			<path style="fill:#9EA1A2;" d="M622.956,590.14c-1.138-1.97-0.462-4.49,1.508-5.627c1.97-1.138,4.49-0.463,5.627,1.508
				c1.138,1.97,0.463,4.49-1.508,5.627C626.613,592.785,624.094,592.11,622.956,590.14z"/>
			<path style="fill:#9EA1A2;" d="M538.086,589.289c-0.626-1.084-0.254-2.469,0.829-3.095c1.084-0.626,2.469-0.254,3.095,0.829
				c0.626,1.084,0.254,2.469-0.829,3.095C540.097,590.744,538.712,590.373,538.086,589.289z"/>
			<circle style="fill:#9EA1A2;" cx="608.905" cy="588.113" r="1.426"/>
		</g>
		<g style="opacity:0.9021;">
			<rect x="336.17" y="447.359" style="fill:#9EA1A2;" width="173.563" height="0.547"/>
			<path style="fill:#9EA1A2;" d="M472.454,449.6c-1.109-1.921-0.451-4.377,1.47-5.486c1.921-1.109,4.377-0.451,5.486,1.47
				c1.109,1.921,0.451,4.377-1.47,5.486S473.563,451.521,472.454,449.6z"/>
			<path style="fill:#9EA1A2;" d="M333.956,448.91c-0.706-1.223-0.287-2.786,0.935-3.491c1.222-0.706,2.786-0.287,3.491,0.936
				c0.706,1.222,0.287,2.786-0.936,3.491C336.225,450.552,334.662,450.133,333.956,448.91z"/>
			<path style="fill:#9EA1A2;" d="M377.984,449.677c-1.008-1.746-0.41-3.979,1.336-4.988c1.746-1.008,3.979-0.41,4.988,1.336
				c1.008,1.746,0.41,3.979-1.337,4.988C381.225,452.022,378.992,451.424,377.984,449.677z"/>
			<circle style="fill:#9EA1A2;" cx="509.732" cy="447.633" r="3.651"/>
			<circle style="fill:#9EA1A2;" cx="433.086" cy="447.7" r="2.008"/>
			<circle style="fill:#9EA1A2;" cx="494.116" cy="447.661" r="1.264"/>
		</g>
		<g style="opacity:0.95;">
			<rect x="190.742" y="457.989" style="fill:#9EA1A2;" width="189.519" height="0.598"/>
			<circle style="fill:#9EA1A2;" cx="343.354" cy="458.243" r="4.386"/>
			<path style="fill:#9EA1A2;" d="M188.325,459.683c-0.771-1.335-0.313-3.042,1.022-3.812c1.335-0.771,3.042-0.313,3.812,1.021
				c0.771,1.335,0.313,3.042-1.021,3.812C190.803,461.475,189.096,461.018,188.325,459.683z"/>
			<circle style="fill:#9EA1A2;" cx="239.853" cy="458.527" r="3.987"/>
			<circle style="fill:#9EA1A2;" cx="380.261" cy="458.287" r="3.987"/>
			<path style="fill:#9EA1A2;" d="M294.669,459.457c-0.606-1.049-0.246-2.39,0.803-2.995c1.049-0.605,2.39-0.246,2.995,0.803
				c0.605,1.049,0.246,2.39-0.803,2.995C296.615,460.865,295.274,460.506,294.669,459.457z"/>
			<circle style="fill:#9EA1A2;" cx="363.209" cy="458.319" r="1.38"/>
		</g>
		<g style="opacity:0.5188;">
			<rect x="305.054" y="349.069" style="fill:#9EA1A2;" width="139.576" height="0.44"/>
			<path style="fill:#9EA1A2;" d="M414.652,350.871c-0.892-1.545-0.363-3.52,1.182-4.412c1.545-0.892,3.52-0.363,4.412,1.182
				c0.892,1.545,0.363,3.52-1.182,4.412C417.519,352.946,415.543,352.416,414.652,350.871z"/>
			<circle style="fill:#9EA1A2;" cx="305.054" cy="349.289" r="2.055"/>
			<path style="fill:#9EA1A2;" d="M338.68,350.933c-0.811-1.404-0.33-3.2,1.075-4.011c1.404-0.811,3.2-0.33,4.011,1.075
				c0.811,1.404,0.33,3.2-1.075,4.011C341.286,352.819,339.491,352.338,338.68,350.933z"/>
			<path style="fill:#9EA1A2;" d="M442.087,350.757c-0.811-1.404-0.33-3.2,1.075-4.011c1.404-0.811,3.2-0.33,4.011,1.075
				c0.811,1.404,0.33,3.2-1.075,4.011C444.694,352.643,442.898,352.162,442.087,350.757z"/>
			<path style="fill:#9EA1A2;" d="M381.593,350.151c-0.446-0.772-0.181-1.76,0.591-2.206c0.772-0.446,1.76-0.181,2.206,0.591
				c0.446,0.772,0.181,1.76-0.591,2.206C383.027,351.188,382.039,350.923,381.593,350.151z"/>
			<path style="fill:#9EA1A2;" d="M431.191,349.82c-0.281-0.486-0.114-1.108,0.372-1.389c0.486-0.281,1.108-0.114,1.389,0.372
				c0.281,0.486,0.114,1.108-0.372,1.389C432.094,350.473,431.472,350.307,431.191,349.82z"/>
		</g>
		<g style="opacity:0.0926;">
			<rect x="182.647" y="353.955" style="fill:#9EA1A2;" width="151.835" height="0.479"/>
			<path style="fill:#9EA1A2;" d="M301.871,355.916c-0.97-1.681-0.394-3.829,1.286-4.8c1.681-0.97,3.829-0.394,4.8,1.286
				c0.97,1.681,0.394,3.829-1.286,4.8C304.99,358.172,302.841,357.597,301.871,355.916z"/>
			<circle style="fill:#9EA1A2;" cx="182.647" cy="354.195" r="2.236"/>
			<path style="fill:#9EA1A2;" d="M219.227,355.984c-0.882-1.528-0.359-3.481,1.169-4.363s3.481-0.359,4.363,1.169
				c0.882,1.528,0.359,3.481-1.169,4.363S220.109,357.511,219.227,355.984z"/>
			<circle style="fill:#9EA1A2;" cx="334.482" cy="354.195" r="3.194"/>
			<path style="fill:#9EA1A2;" d="M265.909,355.132c-0.485-0.84-0.197-1.915,0.643-2.4c0.84-0.485,1.915-0.197,2.4,0.643
				c0.485,0.84,0.197,1.915-0.643,2.4C267.468,356.26,266.394,355.972,265.909,355.132z"/>
			<path style="fill:#9EA1A2;" d="M319.863,354.773c-0.305-0.529-0.124-1.205,0.405-1.511c0.529-0.305,1.205-0.124,1.511,0.405
				c0.305,0.529,0.124,1.205-0.405,1.511C320.844,355.483,320.168,355.302,319.863,354.773z"/>
		</g>
		<g style="opacity:0.1791;">
			<rect x="302.174" y="441.322" style="fill:#9EA1A2;" width="103.951" height="0.328"/>
			<circle style="fill:#9EA1A2;" cx="385.882" cy="441.462" r="2.405"/>
			<path style="fill:#9EA1A2;" d="M300.849,442.252c-0.423-0.732-0.172-1.668,0.56-2.091c0.732-0.423,1.668-0.172,2.091,0.56
				c0.423,0.732,0.172,1.668-0.56,2.091C302.208,443.235,301.271,442.984,300.849,442.252z"/>
			<circle style="fill:#9EA1A2;" cx="329.112" cy="441.618" r="2.187"/>
			<path style="fill:#9EA1A2;" d="M404.232,442.58c-0.604-1.046-0.246-2.383,0.8-2.987c1.046-0.604,2.383-0.245,2.987,0.801
				c0.604,1.046,0.245,2.383-0.8,2.987C406.173,443.984,404.836,443.626,404.232,442.58z"/>
			<path style="fill:#9EA1A2;" d="M359.178,442.128c-0.332-0.575-0.135-1.311,0.44-1.643c0.575-0.332,1.311-0.135,1.643,0.44
				c0.332,0.575,0.135,1.311-0.44,1.643C360.246,442.9,359.51,442.703,359.178,442.128z"/>
			<circle style="fill:#9EA1A2;" cx="396.772" cy="441.504" r="0.757"/>
		</g>
		<g style="opacity:0.0255;">
			<rect x="222.35" y="360.77" style="fill:#9EA1A2;" width="195.819" height="0.617"/>
			<path style="fill:#9EA1A2;" d="M376.11,363.298c-1.251-2.167-0.509-4.939,1.659-6.19c2.167-1.251,4.939-0.509,6.19,1.659
				c1.251,2.167,0.509,4.939-1.659,6.19C380.133,366.208,377.362,365.466,376.11,363.298z"/>
			<circle style="fill:#9EA1A2;" cx="222.35" cy="361.078" r="2.884"/>
			<path style="fill:#9EA1A2;" d="M269.526,363.385c-1.138-1.97-0.462-4.49,1.508-5.627c1.97-1.138,4.49-0.463,5.627,1.508
				c1.138,1.97,0.462,4.49-1.508,5.627C273.183,366.031,270.663,365.356,269.526,363.385z"/>
			<path style="fill:#9EA1A2;" d="M414.601,363.138c-1.138-1.97-0.462-4.49,1.508-5.627c1.97-1.138,4.49-0.462,5.627,1.508
				c1.138,1.97,0.463,4.49-1.508,5.627C418.258,365.783,415.739,365.108,414.601,363.138z"/>
			<circle style="fill:#9EA1A2;" cx="331.693" cy="361.154" r="2.266"/>
			<path style="fill:#9EA1A2;" d="M399.315,361.824c-0.394-0.682-0.16-1.554,0.522-1.948c0.682-0.394,1.554-0.16,1.948,0.522
				c0.394,0.682,0.16,1.554-0.522,1.948C400.581,362.74,399.708,362.506,399.315,361.824z"/>
		</g>
		<g style="opacity:0.544;">
			<rect x="143.124" y="380.019" style="fill:#9EA1A2;" width="148.308" height="0.468"/>
			<path style="fill:#9EA1A2;" d="M259.578,381.934c-0.948-1.641-0.385-3.74,1.256-4.688c1.641-0.948,3.74-0.385,4.688,1.256
				c0.948,1.641,0.385,3.74-1.256,4.688C262.624,384.138,260.525,383.575,259.578,381.934z"/>
			<path style="fill:#9EA1A2;" d="M141.232,381.344c-0.603-1.045-0.245-2.38,0.799-2.983c1.045-0.603,2.38-0.245,2.983,0.799
				c0.603,1.045,0.245,2.38-0.799,2.983C143.171,382.747,141.835,382.389,141.232,381.344z"/>
			<path style="fill:#9EA1A2;" d="M178.853,382c-0.861-1.492-0.35-3.4,1.142-4.262s3.4-0.35,4.262,1.142
				c0.862,1.492,0.35,3.4-1.142,4.262C181.623,384.003,179.715,383.492,178.853,382z"/>
			<path style="fill:#9EA1A2;" d="M288.73,381.812c-0.862-1.492-0.35-3.4,1.142-4.262c1.492-0.862,3.4-0.35,4.262,1.142
				c0.862,1.492,0.35,3.4-1.142,4.262S289.591,383.305,288.73,381.812z"/>
			<path style="fill:#9EA1A2;" d="M224.451,381.168c-0.474-0.821-0.193-1.87,0.628-2.344c0.821-0.474,1.87-0.193,2.344,0.628
				c0.474,0.821,0.193,1.87-0.628,2.344C225.975,382.27,224.925,381.989,224.451,381.168z"/>
			<path style="fill:#9EA1A2;" d="M277.152,380.817c-0.298-0.517-0.121-1.177,0.395-1.475c0.517-0.298,1.177-0.121,1.475,0.395
				c0.298,0.517,0.121,1.177-0.395,1.476C278.111,381.511,277.45,381.334,277.152,380.817z"/>
		</g>
		<g style="opacity:0.2618;">
			<rect x="340.738" y="516.011" style="fill:#9EA1A2;" width="186.466" height="0.588"/>
			<path style="fill:#9EA1A2;" d="M487.154,518.419c-1.191-2.064-0.484-4.703,1.579-5.894c2.064-1.192,4.703-0.484,5.894,1.579
				c1.192,2.064,0.484,4.703-1.579,5.894C490.985,521.19,488.346,520.483,487.154,518.419z"/>
			<path style="fill:#9EA1A2;" d="M338.36,517.678c-0.758-1.313-0.308-2.993,1.005-3.751s2.993-0.308,3.751,1.005
				c0.758,1.313,0.308,2.993-1.005,3.751C340.798,519.441,339.119,518.991,338.36,517.678z"/>
			<path style="fill:#9EA1A2;" d="M385.661,518.502c-1.083-1.876-0.44-4.275,1.436-5.358s4.275-0.44,5.358,1.436
				c1.083,1.876,0.44,4.275-1.436,5.358S386.744,520.378,385.661,518.502z"/>
			<path style="fill:#9EA1A2;" d="M523.807,518.266c-1.083-1.876-0.44-4.275,1.436-5.358c1.876-1.083,4.275-0.44,5.359,1.436
				c1.083,1.876,0.44,4.275-1.436,5.358C527.289,520.785,524.89,520.143,523.807,518.266z"/>
			<path style="fill:#9EA1A2;" d="M442.991,517.456c-0.596-1.032-0.242-2.351,0.79-2.947c1.032-0.596,2.351-0.242,2.947,0.79
				c0.596,1.032,0.242,2.351-0.79,2.947C444.906,518.842,443.586,518.488,442.991,517.456z"/>
			<path style="fill:#9EA1A2;" d="M509.25,517.015c-0.375-0.65-0.152-1.48,0.497-1.855c0.65-0.375,1.48-0.152,1.855,0.497
				c0.375,0.65,0.153,1.48-0.497,1.855C510.456,517.887,509.625,517.665,509.25,517.015z"/>
		</g>
		<g style="opacity:0.1554;">
			<rect x="223.497" y="543.195" style="fill:#9EA1A2;" width="181.62" height="0.573"/>
			<circle style="fill:#9EA1A2;" cx="369.748" cy="543.439" r="4.203"/>
			<circle style="fill:#9EA1A2;" cx="223.497" cy="543.482" r="2.674"/>
			<path style="fill:#9EA1A2;" d="M267.252,545.622c-1.055-1.828-0.429-4.164,1.398-5.219c1.827-1.055,4.164-0.429,5.219,1.398
				c1.055,1.827,0.429,4.164-1.399,5.219C270.644,548.075,268.307,547.449,267.252,545.622z"/>
			<path style="fill:#9EA1A2;" d="M401.808,545.392c-1.055-1.828-0.429-4.164,1.399-5.219c1.827-1.055,4.164-0.429,5.219,1.399
				c1.055,1.827,0.429,4.164-1.398,5.219C405.2,547.846,402.863,547.219,401.808,545.392z"/>
			<circle style="fill:#9EA1A2;" cx="324.912" cy="543.552" r="2.101"/>
			<path style="fill:#9EA1A2;" d="M387.63,544.173c-0.365-0.633-0.149-1.442,0.484-1.807c0.633-0.365,1.442-0.148,1.807,0.484
				c0.365,0.633,0.149,1.442-0.484,1.807C388.804,545.023,387.995,544.806,387.63,544.173z"/>
		</g>
		<g>
			<rect x="321.678" y="595.186" style="fill:#9EA1A2;" width="170.543" height="0.538"/>
			<circle style="fill:#9EA1A2;" cx="459.009" cy="595.415" r="3.947"/>
			<path style="fill:#9EA1A2;" d="M319.503,596.71c-0.694-1.201-0.282-2.737,0.919-3.431c1.201-0.694,2.737-0.282,3.431,0.919
				c0.693,1.201,0.282,2.737-0.919,3.431C321.733,598.323,320.197,597.911,319.503,596.71z"/>
			<circle style="fill:#9EA1A2;" cx="365.872" cy="595.67" r="3.588"/>
			<circle style="fill:#9EA1A2;" cx="492.221" cy="595.454" r="3.588"/>
			<path style="fill:#9EA1A2;" d="M415.199,596.507c-0.545-0.944-0.222-2.151,0.722-2.695c0.944-0.545,2.151-0.221,2.695,0.722
				s0.222,2.151-0.722,2.695C416.951,597.774,415.744,597.451,415.199,596.507z"/>
			<circle style="fill:#9EA1A2;" cx="476.876" cy="595.483" r="1.242"/>
		</g>
		<g style="opacity:0.5942;">
			<rect x="331.271" y="499.137" style="fill:#9EA1A2;" width="71.465" height="0.225"/>
			<path style="fill:#9EA1A2;" d="M387.386,500.06c-0.457-0.791-0.186-1.802,0.605-2.259c0.791-0.457,1.802-0.186,2.259,0.605
				c0.457,0.791,0.186,1.802-0.605,2.259C388.854,501.122,387.843,500.851,387.386,500.06z"/>
			<circle style="fill:#9EA1A2;" cx="331.271" cy="499.249" r="1.052"/>
			<circle style="fill:#9EA1A2;" cx="349.79" cy="499.34" r="1.503"/>
			<circle style="fill:#9EA1A2;" cx="402.736" cy="499.25" r="1.503"/>
			<path style="fill:#9EA1A2;" d="M370.46,499.691c-0.228-0.396-0.093-0.901,0.303-1.13c0.395-0.228,0.901-0.093,1.129,0.303
				c0.228,0.395,0.093,0.901-0.303,1.129C371.194,500.222,370.688,500.086,370.46,499.691z"/>
			<path style="fill:#9EA1A2;" d="M395.855,499.522c-0.144-0.249-0.058-0.567,0.19-0.711c0.249-0.144,0.567-0.058,0.711,0.191
				c0.144,0.249,0.058,0.567-0.191,0.711C396.317,499.856,395.998,499.771,395.855,499.522z"/>
		</g>
		<g style="opacity:0.9662;">
			<rect x="191.534" y="501.806" style="fill:#9EA1A2;" width="174.896" height="0.551"/>
			<path style="fill:#9EA1A2;" d="M328.865,504.064c-1.118-1.936-0.454-4.411,1.481-5.529c1.936-1.118,4.411-0.454,5.529,1.481
				c1.118,1.936,0.454,4.411-1.481,5.529C332.458,506.663,329.983,506,328.865,504.064z"/>
			<circle style="fill:#9EA1A2;" cx="191.534" cy="502.081" r="2.575"/>
			<path style="fill:#9EA1A2;" d="M233.669,504.142c-1.016-1.76-0.413-4.01,1.347-5.026c1.76-1.016,4.01-0.413,5.026,1.347
				c1.016,1.76,0.413,4.01-1.347,5.026C236.935,506.505,234.685,505.902,233.669,504.142z"/>
			<path style="fill:#9EA1A2;" d="M363.243,503.921c-1.016-1.76-0.413-4.01,1.347-5.026c1.76-1.016,4.01-0.413,5.026,1.347
				s0.413,4.01-1.347,5.026C366.509,506.284,364.259,505.681,363.243,503.921z"/>
			<circle style="fill:#9EA1A2;" cx="289.194" cy="502.149" r="2.024"/>
			<path style="fill:#9EA1A2;" d="M349.59,502.747c-0.352-0.609-0.143-1.388,0.466-1.74s1.388-0.143,1.74,0.466
				c0.352,0.609,0.143,1.388-0.466,1.74S349.942,503.357,349.59,502.747z"/>
		</g>
	</g>
</g>
</svg>
