<svg xmlns="http://www.w3.org/2000/svg" xmlns:xlink="http://www.w3.org/1999/xlink" viewBox="0 0 529.47 439.56"><defs><style>.cls-1{fill:url(#linear-gradient);}.cls-2{fill:url(#linear-gradient-2);}.cls-3{fill:url(#linear-gradient-3);}.cls-4{fill:url(#linear-gradient-4);}.cls-5{fill:url(#linear-gradient-5);}.cls-6{fill:url(#linear-gradient-6);}.cls-7{isolation:isolate;}.cls-10,.cls-36,.cls-44,.cls-45,.cls-52,.cls-54,.cls-58,.cls-8,.cls-9{opacity:0.5;}.cls-10,.cls-22,.cls-24,.cls-26,.cls-32,.cls-36,.cls-38,.cls-44,.cls-45,.cls-46,.cls-49,.cls-52,.cls-54,.cls-58,.cls-59,.cls-8,.cls-9{mix-blend-mode:lighten;}.cls-8{fill:url(#linear-gradient-7);}.cls-9{fill:url(#linear-gradient-8);}.cls-10{fill:url(#linear-gradient-9);}.cls-11{fill:url(#linear-gradient-10);}.cls-12{fill:url(#linear-gradient-11);}.cls-13{fill:url(#linear-gradient-12);}.cls-14{fill:url(#linear-gradient-13);}.cls-15{fill:#607e9b;}.cls-16{fill:#60749b;}.cls-17{fill:url(#linear-gradient-14);}.cls-18,.cls-19,.cls-20,.cls-28{fill:#313b4f;}.cls-19,.cls-20,.cls-21,.cls-23,.cls-25,.cls-27,.cls-31,.cls-33,.cls-35,.cls-40,.cls-41,.cls-43,.cls-47,.cls-51,.cls-53,.cls-55,.cls-56,.cls-57,.cls-86{opacity:0.1;}.cls-20,.cls-21,.cls-23,.cls-25,.cls-27,.cls-28,.cls-29,.cls-31,.cls-33,.cls-34,.cls-35,.cls-37,.cls-40,.cls-41,.cls-42,.cls-43,.cls-47,.cls-48,.cls-51,.cls-53,.cls-55,.cls-56,.cls-57{mix-blend-mode:color-dodge;}.cls-21{fill:url(#linear-gradient-15);}.cls-22,.cls-24,.cls-26,.cls-32,.cls-38,.cls-46,.cls-49,.cls-59,.cls-63,.cls-70{opacity:0.3;}.cls-22{fill:url(#linear-gradient-16);}.cls-23{fill:url(#linear-gradient-17);}.cls-24{fill:url(#linear-gradient-18);}.cls-25{fill:url(#linear-gradient-19);}.cls-26{fill:url(#linear-gradient-20);}.cls-27{fill:url(#linear-gradient-21);}.cls-28,.cls-34,.cls-37,.cls-42,.cls-48{opacity:0.15;}.cls-29{opacity:0.2;fill:url(#linear-gradient-22);}.cls-30{fill:url(#linear-gradient-23);}.cls-31{fill:url(#linear-gradient-24);}.cls-32{fill:url(#linear-gradient-25);}.cls-33{fill:url(#linear-gradient-26);}.cls-34{fill:url(#linear-gradient-27);}.cls-35{fill:url(#linear-gradient-28);}.cls-36{fill:url(#linear-gradient-29);}.cls-37{fill:url(#linear-gradient-30);}.cls-38{fill:url(#linear-gradient-31);}.cls-39{fill:url(#linear-gradient-32);}.cls-40{fill:url(#linear-gradient-33);}.cls-41{fill:url(#linear-gradient-34);}.cls-42{fill:url(#linear-gradient-35);}.cls-43{fill:url(#linear-gradient-36);}.cls-44{fill:url(#linear-gradient-37);}.cls-45{fill:url(#linear-gradient-38);}.cls-46{fill:url(#linear-gradient-39);}.cls-47{fill:url(#linear-gradient-40);}.cls-48{fill:url(#linear-gradient-41);}.cls-49{fill:url(#linear-gradient-42);}.cls-50{fill:url(#linear-gradient-43);}.cls-51{fill:url(#linear-gradient-44);}.cls-52{fill:url(#linear-gradient-45);}.cls-53{fill:url(#linear-gradient-46);}.cls-54{fill:url(#linear-gradient-47);}.cls-55{fill:url(#linear-gradient-48);}.cls-56{fill:url(#linear-gradient-49);}.cls-57{fill:url(#linear-gradient-50);}.cls-58{fill:url(#linear-gradient-51);}.cls-59{fill:url(#linear-gradient-52);}.cls-60{fill:url(#linear-gradient-53);}.cls-61{fill:#202935;}.cls-62,.cls-63{fill:#0dc9a8;}.cls-64{fill:#88a4db;}.cls-65{fill:url(#linear-gradient-54);}.cls-66{fill:#fff;}.cls-67{fill:#42e8e0;}.cls-68{fill:url(#linear-gradient-55);}.cls-69{mask:url(#mask);}.cls-71{fill:#0ee0b8;}.cls-72{mask:url(#mask-2);}.cls-73{fill:url(#linear-gradient-56);}.cls-74{fill:url(#linear-gradient-57);}.cls-75{fill:url(#linear-gradient-58);}.cls-76{mask:url(#mask-3);}.cls-77{fill:url(#linear-gradient-59);}.cls-78{fill:url(#linear-gradient-60);}.cls-79{mask:url(#mask-4);}.cls-80{fill:url(#linear-gradient-61);}.cls-81{fill:url(#linear-gradient-62);}.cls-82{mask:url(#mask-5);}.cls-83{fill:url(#linear-gradient-63);}.cls-84{mask:url(#mask-6);}.cls-85{fill:url(#linear-gradient-64);}.cls-86{mix-blend-mode:multiply;}.cls-87{fill:url(#linear-gradient-65);}.cls-88{fill:url(#linear-gradient-66);}.cls-89{fill:url(#linear-gradient-67);}.cls-90{fill:url(#linear-gradient-68);}.cls-91{fill:url(#linear-gradient-69);}.cls-92{fill:url(#linear-gradient-70);}.cls-93{fill:url(#linear-gradient-71);}.cls-94{fill:#c3eaff;}.cls-95{fill:url(#linear-gradient-72);}.cls-96{fill:url(#linear-gradient-73);}.cls-97{fill:url(#linear-gradient-74);}.cls-98{fill:#0a208f;}.cls-99{fill:url(#linear-gradient-75);}.cls-100{fill:url(#linear-gradient-76);}.cls-101{fill:url(#linear-gradient-77);}</style><linearGradient id="linear-gradient" x1="456.22" y1="19.73" x2="456.22" y2="353.02" gradientUnits="userSpaceOnUse"><stop offset="0" stop-color="#fff"/><stop offset="0.54"/></linearGradient><linearGradient id="linear-gradient-2" x1="343.65" y1="227.6" x2="343.65" y2="424.35" gradientUnits="userSpaceOnUse"><stop offset="0" stop-color="#fff"/><stop offset="0.57"/></linearGradient><linearGradient id="linear-gradient-3" x1="410.16" y1="168.9" x2="410.16" y2="344.91" xlink:href="#linear-gradient-2"/><linearGradient id="linear-gradient-4" x1="366.22" y1="245.46" x2="366.22" y2="407.81" xlink:href="#linear-gradient-2"/><linearGradient id="linear-gradient-5" x1="450.22" y1="266.21" x2="450.22" y2="428.56" xlink:href="#linear-gradient-2"/><linearGradient id="linear-gradient-6" x1="401.94" y1="311.8" x2="401.94" y2="433.5" xlink:href="#linear-gradient-2"/><linearGradient id="linear-gradient-7" x1="108.61" y1="334.81" x2="333.22" y2="334.81" gradientUnits="userSpaceOnUse"><stop offset="0" stop-color="#0dc9a8"/><stop offset="1" stop-color="#313b4f" stop-opacity="0"/></linearGradient><linearGradient id="linear-gradient-8" x1="78.43" y1="334.81" x2="363.4" y2="334.81" xlink:href="#linear-gradient-7"/><linearGradient id="linear-gradient-9" x1="132.38" y1="334.81" x2="309.45" y2="334.81" gradientUnits="userSpaceOnUse"><stop offset="0" stop-color="#313b4f" stop-opacity="0"/><stop offset="0.76" stop-color="#0ec4a5" stop-opacity="0.97"/></linearGradient><linearGradient id="linear-gradient-10" x1="190.98" y1="144.85" x2="190.98" y2="80" gradientUnits="userSpaceOnUse"><stop offset="0" stop-color="#ebf2f6"/><stop offset="1" stop-color="#d2d9dd"/></linearGradient><linearGradient id="linear-gradient-11" x1="112.4" y1="126.93" x2="269.56" y2="126.93" gradientUnits="userSpaceOnUse"><stop offset="0" stop-color="#f1f2f4"/><stop offset="1" stop-color="#eff8f6"/></linearGradient><linearGradient id="linear-gradient-12" x1="220.92" y1="109.74" x2="270.31" y2="109.74" gradientUnits="userSpaceOnUse"><stop offset="0" stop-color="#fff"/><stop offset="1" stop-color="#88a4db"/></linearGradient><linearGradient id="linear-gradient-13" x1="111.64" y1="109.21" x2="161.04" y2="109.21" xlink:href="#linear-gradient-12"/><linearGradient id="linear-gradient-14" x1="216.26" y1="124.87" x2="164.19" y2="124.87" xlink:href="#linear-gradient-11"/><linearGradient id="linear-gradient-15" x1="287.78" y1="167.63" x2="281.23" y2="144.53" gradientUnits="userSpaceOnUse"><stop offset="0"/><stop offset="1" stop-color="#48d8f5"/></linearGradient><linearGradient id="linear-gradient-16" x1="-1730.82" y1="-825.6" x2="-1708.4" y2="-825.6" gradientTransform="matrix(-0.71, -0.71, -0.71, 0.71, -1518.21, -480.44)" gradientUnits="userSpaceOnUse"><stop offset="0" stop-color="#313b4f" stop-opacity="0"/><stop offset="0.85" stop-color="#0dc9a8"/></linearGradient><linearGradient id="linear-gradient-17" x1="230.13" y1="150.81" x2="231.76" y2="176.71" xlink:href="#linear-gradient-15"/><linearGradient id="linear-gradient-18" x1="178.79" y1="845.22" x2="201.21" y2="845.22" gradientTransform="matrix(0.71, 0.71, 0.71, -0.71, -497.96, 630.77)" xlink:href="#linear-gradient-16"/><linearGradient id="linear-gradient-19" x1="261.59" y1="185.96" x2="276.11" y2="171.75" xlink:href="#linear-gradient-15"/><linearGradient id="linear-gradient-20" x1="271.17" y1="181.05" x2="276.95" y2="171.05" gradientTransform="matrix(1, 0, 0, 1, 0, 0)" xlink:href="#linear-gradient-16"/><linearGradient id="linear-gradient-21" x1="287" y1="143.79" x2="239.37" y2="143.79" xlink:href="#linear-gradient-15"/><linearGradient id="linear-gradient-22" x1="-1567.91" y1="1232.78" x2="-1556.25" y2="1232.78" gradientTransform="matrix(-0.71, 0.71, 0.71, 0.71, -1735.36, 378.81)" gradientUnits="userSpaceOnUse"><stop offset="0"/><stop offset="1" stop-color="#00a2ff"/></linearGradient><linearGradient id="linear-gradient-23" x1="-1804.31" y1="154.94" x2="-1816.71" y2="154.94" gradientTransform="matrix(-1, 0, 0, 1, -1552.51, 0)" xlink:href="#linear-gradient-11"/><linearGradient id="linear-gradient-24" x1="288.38" y1="90.83" x2="281.84" y2="67.72" xlink:href="#linear-gradient-15"/><linearGradient id="linear-gradient-25" x1="-1676.93" y1="-880.34" x2="-1654.51" y2="-880.34" xlink:href="#linear-gradient-16"/><linearGradient id="linear-gradient-26" x1="230.73" y1="74.01" x2="232.37" y2="99.9" xlink:href="#linear-gradient-15"/><linearGradient id="linear-gradient-27" x1="124.9" y1="899.96" x2="147.32" y2="899.96" gradientTransform="matrix(0.71, 0.71, 0.71, -0.71, -497.96, 630.77)" xlink:href="#linear-gradient-22"/><linearGradient id="linear-gradient-28" x1="236.31" y1="98.58" x2="287.57" y2="98.58" xlink:href="#linear-gradient-15"/><linearGradient id="linear-gradient-29" x1="271.78" y1="104.24" x2="277.56" y2="94.25" gradientTransform="matrix(1, 0, 0, 1, 0, 0)" xlink:href="#linear-gradient-16"/><linearGradient id="linear-gradient-30" x1="-1636.93" y1="1178.89" x2="-1610.36" y2="1178.89" gradientTransform="matrix(-0.71, 0.71, 0.71, 0.71, -1735.36, 378.81)" xlink:href="#linear-gradient-15"/><linearGradient id="linear-gradient-31" x1="-1622.65" y1="1178.89" x2="-1610.99" y2="1178.89" gradientTransform="matrix(-0.71, 0.71, 0.71, 0.71, -1735.36, 378.81)" xlink:href="#linear-gradient-16"/><linearGradient id="linear-gradient-32" x1="-1804.91" y1="78.13" x2="-1817.31" y2="78.13" gradientTransform="matrix(-1, 0, 0, 1, -1552.51, 0)" xlink:href="#linear-gradient-11"/><linearGradient id="linear-gradient-33" x1="156.67" y1="178.51" x2="148.97" y2="148.28" xlink:href="#linear-gradient-15"/><linearGradient id="linear-gradient-34" x1="154.39" y1="168.38" x2="147.84" y2="145.28" xlink:href="#linear-gradient-15"/><linearGradient id="linear-gradient-35" x1="-1637.02" y1="-730.74" x2="-1614.6" y2="-730.74" gradientTransform="matrix(-0.71, -0.71, -0.71, 0.71, -1518.21, -480.44)" xlink:href="#linear-gradient-22"/><linearGradient id="linear-gradient-36" x1="93.09" y1="145.07" x2="101.09" y2="178.39" xlink:href="#linear-gradient-15"/><linearGradient id="linear-gradient-37" x1="84.99" y1="750.37" x2="107.41" y2="750.37" gradientTransform="matrix(0.71, 0.71, 0.71, -0.71, -497.96, 630.77)" xlink:href="#linear-gradient-16"/><linearGradient id="linear-gradient-38" x1="102.32" y1="176.13" x2="153.58" y2="176.13" gradientTransform="matrix(1, 0, 0, 1, 0, 0)" xlink:href="#linear-gradient-16"/><linearGradient id="linear-gradient-39" x1="124.38" y1="174.03" x2="163.08" y2="174.03" gradientTransform="matrix(1, 0, 0, 1, 0, 0)" xlink:href="#linear-gradient-16"/><linearGradient id="linear-gradient-40" x1="153.61" y1="144.54" x2="105.97" y2="144.54" xlink:href="#linear-gradient-15"/><linearGradient id="linear-gradient-41" x1="-1487.34" y1="1138.98" x2="-1460.77" y2="1138.98" gradientTransform="matrix(-0.71, 0.71, 0.71, 0.71, -1735.36, 378.81)" xlink:href="#linear-gradient-15"/><linearGradient id="linear-gradient-42" x1="-1473.05" y1="1138.98" x2="-1461.4" y2="1138.98" gradientTransform="matrix(-0.71, 0.71, 0.71, 0.71, -1735.36, 378.81)" xlink:href="#linear-gradient-16"/><linearGradient id="linear-gradient-43" x1="-1670.92" y1="155.69" x2="-1683.32" y2="155.69" gradientTransform="matrix(-1, 0, 0, 1, -1552.51, 0)" xlink:href="#linear-gradient-11"/><linearGradient id="linear-gradient-44" x1="154.85" y1="90.82" x2="148.3" y2="67.71" xlink:href="#linear-gradient-15"/><linearGradient id="linear-gradient-45" x1="-1582.5" y1="-785.92" x2="-1560.08" y2="-785.92" xlink:href="#linear-gradient-16"/><linearGradient id="linear-gradient-46" x1="93.56" y1="67.51" x2="101.55" y2="100.82" xlink:href="#linear-gradient-15"/><linearGradient id="linear-gradient-47" x1="30.47" y1="805.55" x2="52.89" y2="805.55" gradientTransform="matrix(0.71, 0.71, 0.71, -0.71, -497.96, 630.77)" xlink:href="#linear-gradient-16"/><linearGradient id="linear-gradient-48" x1="102.78" y1="98.57" x2="154.04" y2="98.57" xlink:href="#linear-gradient-15"/><linearGradient id="linear-gradient-49" x1="128.66" y1="109.14" x2="143.18" y2="94.93" xlink:href="#linear-gradient-15"/><linearGradient id="linear-gradient-50" x1="138.24" y1="104.23" x2="144.02" y2="94.24" gradientTransform="matrix(1, 0, 0, 1, 0, 0)" xlink:href="#linear-gradient-22"/><linearGradient id="linear-gradient-51" x1="-1542.51" y1="1084.46" x2="-1515.94" y2="1084.46" gradientTransform="matrix(-0.71, 0.71, 0.71, 0.71, -1735.36, 378.81)" xlink:href="#linear-gradient-16"/><linearGradient id="linear-gradient-52" x1="-1528.23" y1="1084.46" x2="-1516.58" y2="1084.46" gradientTransform="matrix(-0.71, 0.71, 0.71, 0.71, -1735.36, 378.81)" xlink:href="#linear-gradient-16"/><linearGradient id="linear-gradient-53" x1="-1671.38" y1="78.12" x2="-1683.78" y2="78.12" gradientTransform="matrix(-1, 0, 0, 1, -1552.51, 0)" xlink:href="#linear-gradient-11"/><linearGradient id="linear-gradient-54" x1="47.52" y1="259.63" x2="98.96" y2="259.63" xlink:href="#linear-gradient-11"/><linearGradient id="linear-gradient-55" x1="108.4" y1="222.74" x2="159.83" y2="222.74" xlink:href="#linear-gradient-11"/><mask id="mask" x="423.01" y="9.68" width="66.43" height="339.57" maskUnits="userSpaceOnUse"><polygon class="cls-1" points="456.22 9.68 423.01 28.86 423.01 329.69 456.22 348.87 489.43 329.69 489.43 28.86 456.22 9.68"/></mask><mask id="mask-2" x="324.04" y="155.32" width="39.21" height="200.45" maskUnits="userSpaceOnUse"><polygon class="cls-2" points="343.65 155.32 324.04 166.64 324.04 344.23 343.65 355.55 363.25 344.23 363.25 166.64 343.65 155.32"/></mask><linearGradient id="linear-gradient-56" x1="343.65" y1="157" x2="343.65" y2="244.91" gradientUnits="userSpaceOnUse"><stop offset="0" stop-color="#0dc9a8"/><stop offset="0.17" stop-color="#16a793" stop-opacity="0.76"/><stop offset="0.38" stop-color="#1f817b" stop-opacity="0.49"/><stop offset="0.57" stop-color="#276368" stop-opacity="0.28"/><stop offset="0.75" stop-color="#2c4d5a" stop-opacity="0.13"/><stop offset="0.9" stop-color="#304052" stop-opacity="0.03"/><stop offset="1" stop-color="#313b4f" stop-opacity="0"/></linearGradient><linearGradient id="linear-gradient-57" x1="353.45" y1="166.64" x2="353.45" y2="355.77" xlink:href="#linear-gradient-56"/><linearGradient id="linear-gradient-58" x1="333.84" y1="166.64" x2="333.84" y2="355.77" xlink:href="#linear-gradient-56"/><mask id="mask-3" x="376.48" y="104.23" width="67.36" height="179.13" maskUnits="userSpaceOnUse"><polygon class=" cls-3" points="410.16 104.23 376.48 123.68 376.48 263.91 410.16 283.36 443.84 263.91 443.84 123.68 410.16 104.23"/></mask><linearGradient id="linear-gradient-59" x1="427" y1="123.68" x2="427" y2="283.36" xlink:href="#linear-gradient-56"/><linearGradient id="linear-gradient-60" x1="393.32" y1="123.68" x2="393.32" y2="283.36" xlink:href="#linear-gradient-56"/><mask id="mask-4" x="335.16" y="185.81" width="62.13" height="165.23" maskUnits="userSpaceOnUse"><polygon class=" cls-4" points="366.22 185.81 335.16 203.75 335.16 333.1 366.22 351.04 397.29 333.1 397.29 203.75 366.22 185.81"/></mask><linearGradient id="linear-gradient-61" x1="426.35" y1="232.81" x2="337.17" y2="321.99" xlink:href="#linear-gradient-56"/><linearGradient id="linear-gradient-62" x1="386.31" y1="241.78" x2="315.07" y2="313.02" xlink:href="#linear-gradient-56"/><mask id="mask-5" x="419.15" y="206.56" width="62.13" height="165.23" maskUnits="userSpaceOnUse"><polygon class="cls-5" points="450.22 206.56 419.15 224.5 419.15 353.85 450.22 371.79 481.29 353.85 481.29 224.5 450.22 206.56"/></mask><linearGradient id="linear-gradient-63" x1="434.69" y1="295.78" x2="434.69" y2="443.07" gradientUnits="userSpaceOnUse"><stop offset="0" stop-color="#0dc9a8"/><stop offset="0.14" stop-color="#16a793" stop-opacity="0.76"/><stop offset="0.32" stop-color="#1f817b" stop-opacity="0.49"/><stop offset="0.48" stop-color="#276368" stop-opacity="0.28"/><stop offset="0.63" stop-color="#2c4d5a" stop-opacity="0.13"/><stop offset="0.76" stop-color="#304052" stop-opacity="0.03"/><stop offset="0.84" stop-color="#313b4f" stop-opacity="0"/></linearGradient><mask id="mask-6" x="368.47" y="267.07" width="66.97" height="123.88" maskUnits="userSpaceOnUse"><polygon class=" cls-6" points="414.95 267.1 368.47 293.94 368.47 379.13 388.93 390.94 435.42 364.1 435.42 278.91 414.95 267.1"/></mask><linearGradient id="linear-gradient-64" x1="376.47" y1="342.44" x2="472.05" y2="342.44" xlink:href="#linear-gradient-56"/><linearGradient id="linear-gradient-65" x1="93.67" y1="353.46" x2="262.92" y2="353.46" xlink:href="#linear-gradient-11"/><linearGradient id="linear-gradient-66" x1="139.56" y1="324.34" x2="307.86" y2="324.34" xlink:href="#linear-gradient-11"/><linearGradient id="linear-gradient-67" x1="184.5" y1="295.36" x2="353.71" y2="295.36" xlink:href="#linear-gradient-11"/><linearGradient id="linear-gradient-68" x1="323.08" y1="316.53" x2="348.53" y2="316.53" xlink:href="#linear-gradient-11"/><linearGradient id="linear-gradient-69" x1="240.47" y1="268.53" x2="260.33" y2="268.53" xlink:href="#linear-gradient-11"/><linearGradient id="linear-gradient-70" x1="255.93" y1="280.03" x2="284.7" y2="280.03" xlink:href="#linear-gradient-11"/><linearGradient id="linear-gradient-71" x1="197.63" y1="268.64" x2="224.69" y2="268.64" xlink:href="#linear-gradient-11"/><linearGradient id="linear-gradient-72" x1="183.69" y1="381" x2="208.85" y2="381" xlink:href="#linear-gradient-11"/><linearGradient id="linear-gradient-73" x1="165.49" y1="369.16" x2="186.02" y2="369.16" xlink:href="#linear-gradient-11"/><linearGradient id="linear-gradient-74" x1="144.18" y1="335.22" x2="296.96" y2="335.22" xlink:href="#linear-gradient-7"/><linearGradient id="linear-gradient-75" x1="153.74" y1="302.07" x2="343.54" y2="302.07" xlink:href="#linear-gradient-11"/><linearGradient id="linear-gradient-76" x1="103.68" y1="349.86" x2="267.99" y2="349.86" xlink:href="#linear-gradient-11"/><linearGradient id="linear-gradient-77" x1="113.09" y1="327.07" x2="327.25" y2="327.07" xlink:href="#linear-gradient-11"/></defs><g class="cls-7"><g id="_ÎÓÈ_1" data-name="—ÎÓÈ_1"><path class=" cls-8" d="M220.92,399.79c-28.73,0-57.46-6.31-79.33-18.94-21.27-12.28-33-28.63-33-46s11.71-33.76,33-46c43.74-25.25,114.91-25.24,158.65,0,21.27,12.27,33,28.62,33,46s-11.71,33.76-33,46C278.38,393.48,249.65,399.79,220.92,399.79Zm0-129.14c-28.58,0-57.15,6.28-78.91,18.84-21,12.12-32.57,28.22-32.57,45.32S121,368,142,380.13c43.52,25.13,114.32,25.13,157.83,0l.21.35-.21-.35c21-12.13,32.57-28.22,32.57-45.33s-11.57-33.19-32.57-45.32C278.07,276.93,249.49,270.65,220.91,270.65Z"/><path class="cls-9 " d="M220.92,417.21c-36.46,0-72.91-8-100.67-24-27-15.57-41.82-36.3-41.82-58.36S93.28,292,120.25,276.45c55.5-32,145.82-32,201.33,0,27,15.58,41.82,36.3,41.82,58.37s-14.85,42.78-41.82,58.35h0C293.83,409.2,257.38,417.21,220.92,417.21Zm0-164c-36.31,0-72.61,8-100.25,23.94-26.7,15.41-41.4,35.89-41.4,57.64S94,377,120.66,392.46c55.29,31.91,145.23,31.91,200.51,0,26.7-15.42,41.4-35.89,41.4-57.64s-14.7-42.23-41.4-57.65C293.53,261.21,257.22,253.23,220.91,253.23Z"/><path class=" cls-10" d="M220.92,386.07c-22.64,0-45.28-5-62.52-14.92-16.78-9.69-26-22.59-26-36.34s9.24-26.64,26-36.33c34.47-19.9,90.56-19.9,125,0,16.78,9.69,26,22.59,26,36.34s-9.24,26.64-26,36.33h0C266.2,381.1,243.56,386.07,220.92,386.07Zm0-101.7c-22.49,0-45,4.94-62.1,14.83-16.51,9.53-25.6,22.18-25.6,35.61s9.09,26.09,25.6,35.62c34.25,19.77,90,19.77,124.21,0h0c16.51-9.53,25.6-22.18,25.6-35.61s-9.09-26.09-25.6-35.62C265.9,289.31,243.4,284.37,220.91,284.37Z"/><path class="cls-11 drone-lidar" d="M248.58,83.7a9.68,9.68,0,0,0-2.2,1.7l-.26.27c-3.25,3.84-9.53,10.38-15.7,13.94-11,6.34-24.27,10.75-36.89,10.44h0c-1.71-.09-3.43-.09-5.13,0l0,0c-12.62.31-25.92-4.1-36.9-10.44-6.17-3.56-12.45-10.1-15.7-13.94l-.45-.44a9.69,9.69,0,0,0-2-1.52c-5-2.87-13-2.87-18,0s-5,7.52,0,10.39a14.29,14.29,0,0,0,2.95,1.28l.46.14c6.65,1.88,18,5.51,24.14,9.07,11,6.34,18.62,14,18.1,21.3h0a10.55,10.55,0,0,0,0,3h0l0,0c.53,7.29-7.11,15-18.1,21.31-6.16,3.56-17.49,7.18-24.14,9.06l-.75.26a15.08,15.08,0,0,0-2.64,1.17c-5,2.87-5,7.53,0,10.4s13,2.87,18,0a9.43,9.43,0,0,0,2.2-1.71l.25-.26c3.25-3.84,9.54-10.38,15.7-13.94,11-6.34,24.28-10.75,36.9-10.45h0c1.7.08,3.42.08,5.12,0h0l0,0c12.62-.3,25.91,4.11,36.9,10.45,6.16,3.56,12.45,10.1,15.7,13.94l.44.43a9.79,9.79,0,0,0,2,1.53c5,2.87,13,2.87,18,0s5-7.53,0-10.4a14.5,14.5,0,0,0-2.95-1.27l-.46-.15c-6.65-1.88-18-5.5-24.14-9.06-11-6.34-18.63-14-18.1-21.31h0a9.79,9.79,0,0,0,0-3h0l0,0c-.53-7.28,7.11-15,18.1-21.3,6.16-3.56,17.49-7.19,24.14-9.07l.75-.26a14,14,0,0,0,2.64-1.17c5-2.87,5-7.52,0-10.39S253.56,80.83,248.58,83.7Z"/><path class="cls-12 drone-lidar" d="M266.21,160.84a14.14,14.14,0,0,0-2.81-1.2l-.43-.14c-3.9-1.1-17.17-5-24.31-9.14-11.63-6.71-18.12-14-18.49-20.65V128.3a9,9,0,0,0,0-2.74l0-1.41c.38-6.66,6.87-13.94,18.48-20.64,7.13-4.12,20.37-8,24.3-9.13l.74-.26a13.6,13.6,0,0,0,2.5-1.11c2.16-1.24,3.35-2.86,3.35-4.54s-1.19-3.29-3.35-4.54a19.17,19.17,0,0,0-17.25,0,8.76,8.76,0,0,0-2,1.58l-.24.24c-1.94,2.29-8.73,10-15.89,14.09-11.79,6.81-24.59,10.57-36,10.57l-1.25,0h0c-.86,0-1.74-.06-2.59-.06s-1.66,0-2.46.06v0h-1.23c-11.45,0-24.25-3.75-36.05-10.56C144,95.71,137.25,88.05,135.3,85.75l-.43-.41A9.33,9.33,0,0,0,133,83.93a19.17,19.17,0,0,0-17.25,0c-2.16,1.25-3.35,2.86-3.35,4.54s1.19,3.3,3.35,4.54a13.74,13.74,0,0,0,2.8,1.21l.44.14c3.9,1.1,17.17,5,24.31,9.14,11.63,6.71,18.12,14,18.49,20.65v1.41a9.32,9.32,0,0,0,0,2.74l0,1.41c-.38,6.66-6.87,13.93-18.49,20.64-7.13,4.12-20.37,8-24.29,9.13l-.74.26a13.58,13.58,0,0,0-2.5,1.1c-2.16,1.25-3.35,2.86-3.35,4.55s1.19,3.29,3.35,4.53a19.09,19.09,0,0,0,17.25,0,8.47,8.47,0,0,0,2-1.57l.24-.25c1.94-2.28,8.73-9.95,15.88-14.08,11.8-6.82,24.6-10.57,36-10.57l1.25,0h0c.83,0,1.68.06,2.52.06s1.69,0,2.52-.06v0l1.23,0c11.45,0,24.25,3.75,36,10.57,7.14,4.12,13.92,11.78,15.87,14.07l.43.42a9,9,0,0,0,1.87,1.4,19.09,19.09,0,0,0,17.25,0c2.16-1.24,3.35-2.85,3.35-4.53S268.37,162.09,266.21,160.84Z"/><path class="drone-lidar cls-13" d="M266.59,94.09A14,14,0,0,1,264,95.26l-.75.26c-6.65,1.88-18,5.51-24.14,9.07-11,6.34-18.63,14-18.1,21.3l0,0a9.79,9.79,0,0,1,0,3h0a11.28,11.28,0,0,0,0,1.3c0-7.08,7.49-14.47,18.13-20.6,6.16-3.57,17.49-7.19,24.14-9.07l.75-.26A14,14,0,0,0,266.59,99c2.37-1.37,3.61-3.14,3.72-4.93l0-4.74C270.11,91.08,268.87,92.77,266.59,94.09Z"/><path class="cls-14 drone-lidar" d="M115.37,99a14.26,14.26,0,0,0,2.95,1.27l.46.15c6.65,1.88,18,5.5,24.14,9.07,10.34,6,17.71,13.11,18.11,20,0-.23,0-.46,0-.7l0,0h0a10.55,10.55,0,0,1,0-3h0c.52-7.29-7.11-15-18.1-21.3-6.16-3.56-17.49-7.19-24.14-9.07l-.46-.14a14.29,14.29,0,0,1-2.95-1.28c-2.49-1.43-3.73-3.31-3.73-5.19h0v4.92C111.64,95.71,112.88,97.58,115.37,99Z"/><polygon class="cls-15 drone-lidar" points="270.29 88.41 270.29 88.4 270.29 88.4 270.29 88.41"/><path class="cls-16 drone-lidar" d="M266.59,171c-5,2.87-13,2.87-18,0a9.79,9.79,0,0,1-2-1.53l-.44-.43c-3.25-3.84-9.54-10.38-15.7-13.94-11-6.34-24.28-10.75-36.9-10.45l0,0c-1.7.08-3.42.08-5.12,0h0c-12.62-.3-25.91,4.11-36.9,10.45-6.16,3.56-12.45,10.1-15.7,13.94l-.25.26a9.43,9.43,0,0,1-2.2,1.71c-5,2.87-13,2.87-18,0-2.46-1.42-3.7-3.28-3.73-5.14h0v5c0,1.85,1.28,3.69,3.73,5.1,5,2.87,13,2.87,18,0a9.4,9.4,0,0,0,2.2-1.7l.25-.26c3.25-3.85,9.54-10.38,15.7-13.94,11-6.35,19.92-4.59,32.49-3.47a74.82,74.82,0,0,0,11,.18c12.57-1.24,23-1.65,35.42,3.3,6.61,2.64,12.45,10.1,15.7,13.93l.44.44a9.43,9.43,0,0,0,2,1.52c5,2.87,13,2.87,18,0,2.49-1.43,3.73-3.31,3.73-5.2v-4.59C270.17,167.91,268.93,169.66,266.59,171Z"/><path class="cls-16 drone-lidar" d="M210.81,115.4c10.95,6.32,10.95,16.57,0,22.9s-28.71,6.32-39.66,0-11-16.58,0-22.9S199.86,109.08,210.81,115.4Z"/><path class="cls-17 drone-lidar" d="M210.81,113.42c10.95,6.32,10.95,16.58,0,22.9s-28.71,6.32-39.66,0-11-16.58,0-22.9S199.86,107.1,210.81,113.42Z"/><path class="cls-16 drone-lidar" d="M204.38,111.11c7.4,4.28,7.4,11.21,0,15.48s-19.4,4.27-26.8,0-7.41-11.2,0-15.48S197,106.84,204.38,111.11Z"/><path class="drone-lidar cls-16" d="M161.2,147.61a.44.44,0,0,1-.21-.07l-5.19-3.49a.38.38,0,1,1,.42-.64l5.2,3.5a.38.38,0,0,1-.22.7Z"/><path class="cls-16 drone-lidar" d="M159.13,148.66a.42.42,0,0,1-.21-.06L154,145.26a.38.38,0,0,1,.43-.63l4.93,3.33a.38.38,0,0,1-.22.7Z"/><path class="drone-lidar cls-16" d="M157.06,149.72a.33.33,0,0,1-.21-.07l-4.67-3.17a.38.38,0,0,1,.43-.63l4.67,3.17a.38.38,0,0,1,.1.53A.37.37,0,0,1,157.06,149.72Z"/><path class="drone-lidar cls-16" d="M155,150.77a.39.39,0,0,1-.21-.06l-4.4-3a.37.37,0,0,1-.1-.53.38.38,0,0,1,.53-.1l4.4,3a.38.38,0,0,1,.1.53A.39.39,0,0,1,155,150.77Z"/><path class="drone-lidar cls-16" d="M152.92,151.83a.38.38,0,0,1-.22-.07l-4.13-2.84a.38.38,0,0,1,.43-.63l4.14,2.84a.38.38,0,0,1,.1.53A.4.4,0,0,1,152.92,151.83Z"/><path class="drone-lidar cls-16" d="M150.85,152.89a.36.36,0,0,1-.22-.07l-3.87-2.68a.38.38,0,0,1,.44-.63l3.87,2.68a.38.38,0,0,1,.09.53A.37.37,0,0,1,150.85,152.89Z"/><path class="cls-16 drone-lidar" d="M148.78,153.94a.36.36,0,0,1-.22-.07l-3.6-2.51a.38.38,0,0,1-.1-.53.38.38,0,0,1,.53-.1l3.61,2.52a.38.38,0,0,1,.09.53A.36.36,0,0,1,148.78,153.94Z"/><path class="cls-16 drone-lidar" d="M220.67,147.61a.4.4,0,0,0,.21-.07l5.2-3.49a.4.4,0,0,0,.1-.54.38.38,0,0,0-.53-.1l-5.2,3.5a.38.38,0,0,0-.1.53A.39.39,0,0,0,220.67,147.61Z"/><path class="cls-16 drone-lidar" d="M222.74,148.66a.46.46,0,0,0,.22-.06l4.92-3.34a.38.38,0,0,0,.11-.53.4.4,0,0,0-.54-.1L222.52,148a.38.38,0,0,0,.22.7Z"/><path class="cls-16 drone-lidar" d="M224.81,149.72a.33.33,0,0,0,.21-.07l4.67-3.17a.38.38,0,0,0-.43-.63L224.6,149a.38.38,0,0,0-.11.53A.4.4,0,0,0,224.81,149.72Z"/><path class="cls-16 drone-lidar" d="M226.88,150.77a.43.43,0,0,0,.22-.06l4.4-3a.38.38,0,0,0,.1-.53.4.4,0,0,0-.54-.1l-4.39,3a.37.37,0,0,0-.1.53A.36.36,0,0,0,226.88,150.77Z"/><path class="cls-16 drone-lidar" d="M229,151.83a.36.36,0,0,0,.22-.07l4.13-2.84a.37.37,0,0,0,.1-.53.38.38,0,0,0-.53-.1l-4.13,2.84a.38.38,0,0,0-.1.53A.37.37,0,0,0,229,151.83Z"/><path class="drone-lidar cls-16" d="M231,152.89a.35.35,0,0,0,.21-.07l3.87-2.68a.38.38,0,0,0,.1-.53.4.4,0,0,0-.54-.1l-3.86,2.68a.38.38,0,0,0,.22.7Z"/><path class="drone-lidar cls-16" d="M233.1,153.94a.38.38,0,0,0,.22-.07l3.6-2.51a.38.38,0,0,0-.44-.63l-3.6,2.52a.38.38,0,0,0-.1.53A.39.39,0,0,0,233.1,153.94Z"/><path class="cls-16 drone-lidar" d="M161.2,106.39a.44.44,0,0,0-.21.07L155.8,110a.37.37,0,0,0-.11.53.38.38,0,0,0,.53.1l5.2-3.5a.38.38,0,0,0-.22-.7Z"/><path class="cls-16 drone-lidar" d="M159.13,105.34a.42.42,0,0,0-.21.06L154,108.74a.38.38,0,1,0,.43.63l4.93-3.33a.38.38,0,0,0-.22-.7Z"/><path class="cls-16 drone-lidar" d="M157.06,104.28a.33.33,0,0,0-.21.07l-4.67,3.17a.38.38,0,1,0,.43.63l4.67-3.17a.38.38,0,0,0,.1-.53A.37.37,0,0,0,157.06,104.28Z"/><path class="cls-16 drone-lidar" d="M155,103.23a.39.39,0,0,0-.21.06l-4.4,3a.37.37,0,0,0-.1.53.38.38,0,0,0,.53.1l4.4-3a.38.38,0,0,0,.1-.53A.39.39,0,0,0,155,103.23Z"/><path class="cls-16 drone-lidar" d="M152.92,102.17a.38.38,0,0,0-.22.07l-4.13,2.84a.38.38,0,1,0,.43.63l4.14-2.84a.38.38,0,0,0,.1-.53A.4.4,0,0,0,152.92,102.17Z"/><path class="cls-16 drone-lidar" d="M150.85,101.11a.36.36,0,0,0-.22.07l-3.87,2.68a.38.38,0,0,0,.44.63l3.87-2.68a.38.38,0,0,0,.09-.53A.37.37,0,0,0,150.85,101.11Z"/><path class="cls-16 drone-lidar" d="M148.78,100.06a.36.36,0,0,0-.22.07l-3.6,2.51a.38.38,0,1,0,.43.63l3.61-2.52a.38.38,0,0,0,.09-.53A.36.36,0,0,0,148.78,100.06Z"/><path class="cls-16 drone-lidar" d="M220.67,106.39a.4.4,0,0,1,.21.07l5.2,3.5a.38.38,0,1,1-.43.63l-5.2-3.5a.38.38,0,0,1-.1-.53A.39.39,0,0,1,220.67,106.39Z"/><path class="cls-16 drone-lidar" d="M222.74,105.34a.46.46,0,0,1,.22.06l4.92,3.34a.39.39,0,0,1,.11.53.4.4,0,0,1-.54.1L222.52,106a.38.38,0,0,1,.22-.7Z"/><path class=" drone-lidar cls-16" d="M224.81,104.28a.33.33,0,0,1,.21.07l4.67,3.17a.38.38,0,1,1-.43.63L224.6,105a.38.38,0,0,1-.11-.53A.4.4,0,0,1,224.81,104.28Z"/><path class="cls-16 drone-lidar" d="M226.88,103.23a.43.43,0,0,1,.22.06l4.4,3a.38.38,0,0,1,.1.53.4.4,0,0,1-.54.1l-4.39-3a.37.37,0,0,1-.1-.53A.36.36,0,0,1,226.88,103.23Z"/><path class="cls-16 drone-lidar" d="M229,102.17a.36.36,0,0,1,.22.07l4.13,2.84a.38.38,0,0,1,.1.53.38.38,0,0,1-.53.1l-4.13-2.84a.38.38,0,0,1-.1-.53A.37.37,0,0,1,229,102.17Z"/><path class="cls-16 drone-lidar" d="M231,101.11a.35.35,0,0,1,.21.07l3.87,2.68a.38.38,0,0,1,.1.53.4.4,0,0,1-.54.1l-3.86-2.68a.38.38,0,0,1,.22-.7Z"/><path class="cls-16 drone-lidar" d="M233.1,100.06a.38.38,0,0,1,.22.07l3.6,2.51a.38.38,0,0,1,.09.53.38.38,0,0,1-.53.1l-3.6-2.52a.38.38,0,0,1-.1-.53A.39.39,0,0,1,233.1,100.06Z"/><path class="cls-16  drone-lidar" d="M120.16,163.38a9.32,9.32,0,0,1,8.42,0c2.32,1.34,2.32,3.52,0,4.86a9.32,9.32,0,0,1-8.42,0C117.84,166.9,117.84,164.72,120.16,163.38Z"/><path class="drone-lidar cls-18" d="M127.19,156.8a5.77,5.77,0,0,0-2.82-.68,5.7,5.7,0,0,0-2.81.68,2,2,0,0,0-1.17,1.62v7.39a2,2,0,0,0,1.17,1.62,5.7,5.7,0,0,0,2.81.68,5.77,5.77,0,0,0,2.82-.68,1.94,1.94,0,0,0,1.16-1.62v-7.39A2,2,0,0,0,127.19,156.8Z"/><path class="drone-lidar cls-16" d="M120.64,85.92a9.3,9.3,0,0,1,8.41,0c2.33,1.35,2.33,3.52,0,4.86a9.24,9.24,0,0,1-8.41,0C118.31,89.44,118.31,87.27,120.64,85.92Z"/><path class="drone-lidar cls-18" d="M127.66,79.34a6.25,6.25,0,0,0-5.63,0A2,2,0,0,0,120.86,81v7.38A2,2,0,0,0,122,90a6.25,6.25,0,0,0,5.63,0,2,2,0,0,0,1.17-1.63V81A2,2,0,0,0,127.66,79.34Z"/><path class="drone-lidar cls-16" d="M262,162.62a9.3,9.3,0,0,0-8.41,0c-2.32,1.34-2.32,3.52,0,4.86a9.3,9.3,0,0,0,8.41,0C264.31,166.14,264.31,164,262,162.62Z"/><path class="drone-lidar cls-18" d="M255,156a6.17,6.17,0,0,1,5.63,0,2,2,0,0,1,1.17,1.62v7.39a2,2,0,0,1-1.17,1.62,6.17,6.17,0,0,1-5.63,0,1.94,1.94,0,0,1-1.16-1.62v-7.39A2,2,0,0,1,255,156Z"/><path class="drone-lidar cls-16" d="M262.59,85.92a9.32,9.32,0,0,0-8.42,0c-2.32,1.35-2.32,3.52,0,4.86a9.26,9.26,0,0,0,8.42,0C264.91,89.44,264.91,87.27,262.59,85.92Z"/><path class="drone-lidar cls-18" d="M255.56,79.34a5.76,5.76,0,0,1,2.82-.67,5.7,5.7,0,0,1,2.81.67A2,2,0,0,1,262.36,81v7.38A2,2,0,0,1,261.19,90a5.7,5.7,0,0,1-2.81.67,5.76,5.76,0,0,1-2.82-.67,2,2,0,0,1-1.16-1.63V81A2,2,0,0,1,255.56,79.34Z"/><path class="drone-lidar cls-19" d="M219.08,137.24c-21.37,12.34-21.37,32.35,0,44.69s56,12.34,77.39,0,21.38-32.35,0-44.69S240.45,124.9,219.08,137.24Z"/><path class="drone-lidar cls-20" d="M310.24,168.61l-52.46-9,38.7-22.34C311.18,145.73,315.77,157.85,310.24,168.61Z"/><path class="drone-lidar cls-21" d="M257.78,159.58l38.7-22.34c8.16,4.72,13.2,10.55,15.13,16.65Z"/><path class="cls-22 drone-lidar" d="M257.78,159.58l38.7-22.34a41.88,41.88,0,0,1,8.75,6.6Z"/><path class="drone-lidar cls-20" drone-lidar d="M205.31,150.57l52.47,9-38.7,22.35C204.37,173.44,199.79,161.32,205.31,150.57Z"/><path class="cls-23 drone-lidar" d="M257.78,159.58l-38.7,22.35c-8.17-4.72-13.21-10.55-15.14-16.65Z"/><path class="cls-24 drone-lidar" d="M257.78,159.58l-38.7,22.35a42,42,0,0,1-8.76-6.6Z"/><path class="cls-20 drone-lidar" d="M242.15,189.87l15.63-30.29,38.69,22.35C281.77,190.42,260.78,193.07,242.15,189.87Z"/><path class="cls-25 drone-lidar" d="M257.78,159.58l38.69,22.35c-8.16,4.71-18.27,7.62-28.83,8.74Z"/><path class="cls-26 drone-lidar" d="M257.78,159.58l38.69,22.35A62.25,62.25,0,0,1,285.05,187Z"/><path class="cls-27 drone-lidar" d="M273.4,129.29l-15.62,30.29-38.7-22.34C233.78,128.75,254.77,126.1,273.4,129.29Z"/><path class="cls-28 drone-lidar" d="M257.78,159.58l-38.7-22.34c8.16-4.71,18.27-7.63,28.83-8.74Z"/><path class="cls-29 drone-lidar" d="M257.78,159.58l-38.7-22.34a62.55,62.55,0,0,1,11.42-5.06Z"/><path class="cls-30 drone-lidar" d="M264.29,159.76c.06,1-.64,1.92-1.91,2.66a10.23,10.23,0,0,1-9.21,0,3.24,3.24,0,0,1-1.9-2.66s0-9.18,6.51-13.4C257.78,146.36,263.61,149.78,264.29,159.76Z"/><path class="cls-16 drone-lidar" d="M253.17,161.05a10.17,10.17,0,0,0,9.21,0,3.57,3.57,0,0,0,1.84-2.06c0,.25,0,.51.07.77.06,1-.64,1.92-1.91,2.66a10.23,10.23,0,0,1-9.21,0,3.24,3.24,0,0,1-1.9-2.66s0-.35,0-.93A3.49,3.49,0,0,0,253.17,161.05Z"/><path class="cls-19 drone-lidar" d="M219.68,60.43c-21.37,12.34-21.37,32.35,0,44.69s56,12.34,77.4,0,21.37-32.35,0-44.69S241.05,48.09,219.68,60.43Z"/><path class="drone-lidar cls-20" d="M310.84,91.8l-52.46-9,38.7-22.35C311.78,68.92,316.37,81,310.84,91.8Z"/><path class="drone-lidar cls-31" d="M258.38,82.78l38.7-22.35c8.16,4.72,13.2,10.55,15.13,16.65Z"/><path class="drone-lidar cls-32" d="M258.38,82.78l38.7-22.35a42.23,42.23,0,0,1,8.76,6.6Z"/><path class="drone-lidar cls-20" d="M205.92,73.76l52.46,9-38.7,22.34C205,96.63,200.39,84.51,205.92,73.76Z"/><path class="cls-33 drone-lidar" d="M258.38,82.78l-38.7,22.34c-8.17-4.72-13.21-10.55-15.13-16.65Z"/><path class="cls-34 drone-lidar" d="M258.38,82.78l-38.7,22.34a42,42,0,0,1-8.76-6.6Z"/><path class="cls-35 drone-lidar" d="M242.75,113.07l15.63-30.29,38.7,22.34C282.37,113.61,261.38,116.26,242.75,113.07Z"/><path class="cls-20 drone-lidar" d="M258.38,82.78l38.7,22.34c-8.17,4.71-18.28,7.62-28.84,8.74Z"/><path class="cls-36 drone-lidar" d="M258.38,82.78l38.7,22.34a62.55,62.55,0,0,1-11.42,5.06Z"/><path class="cls-20 drone-lidar" d="M274,52.49,258.38,82.78l-38.7-22.35C234.38,51.94,255.37,49.29,274,52.49Z"/><path class="cls-37 drone-lidar" d="M258.38,82.78l-38.7-22.35c8.17-4.71,18.27-7.62,28.84-8.73Z"/><path class="cls-38 drone-lidar" d="M258.38,82.78l-38.7-22.35a61.85,61.85,0,0,1,11.42-5Z"/><path class="cls-39 drone-lidar" d="M264.89,83c.06,1-.64,1.92-1.91,2.66a10.21,10.21,0,0,1-9.2,0A3.23,3.23,0,0,1,251.87,83s0-9.18,6.51-13.4C258.38,69.55,264.21,73,264.89,83Z"/><path class="drone-lidar cls-16" d="M253.78,84.24a10.15,10.15,0,0,0,9.2,0,3.63,3.63,0,0,0,1.85-2.06l.06.77c.06,1-.64,1.92-1.91,2.66a10.21,10.21,0,0,1-9.2,0A3.23,3.23,0,0,1,251.87,83s0-.35,0-.93A3.49,3.49,0,0,0,253.78,84.24Z"/><path class="drone-lidar cls-19" d="M85.69,138c-21.38,12.34-21.38,32.35,0,44.69s56,12.34,77.39,0,21.37-32.35,0-44.69S107.06,125.65,85.69,138Z"/><path class="cls-40 drone-lidar" d="M176.84,169.36l-52.46-9L163.08,138C177.79,146.48,182.37,158.6,176.84,169.36Z"/><path class="drone-lidar cls-41" d="M124.38,160.33,163.08,138c8.17,4.72,13.21,10.55,15.14,16.65Z"/><path class="cls-42 drone-lidar" d="M124.38,160.33,163.08,138a42,42,0,0,1,8.76,6.6Z"/><path class="cls-43 drone-lidar" d="M71.92,151.31l52.46,9L85.69,182.68C71,174.19,66.39,162.07,71.92,151.31Z"/><path class="cls-20 drone-lidar" d="M124.38,160.33,85.69,182.68C77.52,178,72.47,172.13,70.55,166Z"/><path class="cls-44 drone-lidar" d="M124.38,160.33,85.69,182.68a41.44,41.44,0,0,1-8.76-6.6Z"/><path class="cls-45 drone-lidar" d="M108.76,190.62l15.62-30.29,38.7,22.35C148.38,191.17,127.39,193.82,108.76,190.62Z"/><path class="cls-46 drone-lidar" d="M124.38,160.33l38.7,22.35a62.55,62.55,0,0,1-11.42,5.06Z"/><path class="cls-47 drone-lidar" d="M140,130l-15.63,30.29L85.69,138C100.39,129.5,121.38,126.85,140,130Z"/><path class="cls-48 drone-lidar" d="M124.38,160.33,85.69,138c8.16-4.71,18.27-7.63,28.83-8.74Z"/><path class="cls-49  drone-lidar" d="M124.38,160.33,85.69,138a62.25,62.25,0,0,1,11.42-5.06Z"/><path class="cls-50  drone-lidar" d="M130.89,160.51c.07,1-.63,1.92-1.9,2.66a10.23,10.23,0,0,1-9.21,0,3.25,3.25,0,0,1-1.91-2.66s0-9.18,6.51-13.4C124.38,147.11,130.22,150.53,130.89,160.51Z"/><path class="cls-16 drone-lidar" d="M119.78,161.8a10.17,10.17,0,0,0,9.21,0,3.68,3.68,0,0,0,1.84-2.06c0,.25,0,.51.06.77.07,1-.63,1.92-1.9,2.66a10.23,10.23,0,0,1-9.21,0,3.25,3.25,0,0,1-1.91-2.66s0-.35,0-.94A3.49,3.49,0,0,0,119.78,161.8Z"/><path class="cls-19 drone-lidar" d="M86.15,60.42c-21.38,12.34-21.38,32.35,0,44.69s56,12.34,77.39,0,21.38-32.35,0-44.69S107.52,48.08,86.15,60.42Z"/><path class="cls-20 drone-lidar" d="M177.31,91.79l-52.47-9,38.7-22.35C178.25,68.91,182.83,81,177.31,91.79Z"/><path class="cls-51 drone-lidar" d="M124.84,82.77l38.7-22.35c8.17,4.72,13.21,10.55,15.14,16.65Z"/><path class="cls-52 drone-lidar" d="M124.84,82.77l38.7-22.35A42,42,0,0,1,172.3,67Z"/><path class="cls-53 drone-lidar" d="M72.38,73.75l52.46,9L86.15,105.11C71.44,96.62,66.85,84.5,72.38,73.75Z"/><path class="cls-20 drone-lidar" d="M124.84,82.77,86.15,105.11C78,100.39,72.94,94.56,71,88.46Z"/><path class="cls-54 drone-lidar" d="M124.84,82.77,86.15,105.11a41.7,41.7,0,0,1-8.76-6.6Z"/><path class="cls-55 drone-lidar" d="M109.22,113.06l15.62-30.29,38.7,22.34C148.84,113.6,127.85,116.25,109.22,113.06Z"/><path class="cls-56 drone-lidar" d="M124.84,82.77l38.7,22.34c-8.16,4.71-18.27,7.62-28.83,8.74Z"/><path class="cls-57 drone-lidar" d="M124.84,82.77l38.7,22.34a62.55,62.55,0,0,1-11.42,5.06Z"/><path class="cls-20 drone-lidar" d="M140.47,52.48,124.84,82.77,86.15,60.42C100.85,51.93,121.84,49.28,140.47,52.48Z"/><path class="cls-58 drone-lidar" d="M124.84,82.77,86.15,60.42c8.16-4.71,18.27-7.62,28.83-8.73Z"/><path class="cls-59 drone-lidar" d="M124.84,82.77,86.15,60.42a61.85,61.85,0,0,1,11.42-5.05Z"/><path class="cls-60 drone-lidar" d="M131.36,82.94c.06,1-.64,1.92-1.91,2.66a10.17,10.17,0,0,1-9.21,0,3.25,3.25,0,0,1-1.91-2.66s0-9.18,6.51-13.4C124.84,69.54,130.68,73,131.36,82.94Z"/><path class="cls-16 drone-lidar" d="M120.24,84.23a10.17,10.17,0,0,0,9.21,0,3.61,3.61,0,0,0,1.84-2.06c0,.25.05.51.07.77.06,1-.64,1.92-1.91,2.66a10.17,10.17,0,0,1-9.21,0,3.25,3.25,0,0,1-1.91-2.66s0-.35,0-.93A3.53,3.53,0,0,0,120.24,84.23Z"/><path class="cls-61" d="M75.77,233.74a8.88,8.88,0,0,1-4.37-1L51.61,221.28a2.91,2.91,0,0,1,0-5.46L71.39,204.4a9.72,9.72,0,0,1,8.76,0l19.78,11.42a2.91,2.91,0,0,1,0,5.46L80.15,232.7A8.92,8.92,0,0,1,75.77,233.74Zm-4-1.65a8.92,8.92,0,0,0,8,0l19.78-11.42a2.22,2.22,0,0,0,0-4.24L79.8,205a8.94,8.94,0,0,0-8.06,0L52,216.43a2.22,2.22,0,0,0,0,4.24Z"/><path class="cls-62" d="M73.24,289.08a7.57,7.57,0,0,1-3.73-.9L49.73,276.76a2.39,2.39,0,0,1,0-4.5l19.78-11.42a8.24,8.24,0,0,1,7.46,0l19.78,11.42a2.39,2.39,0,0,1,0,4.5L77,288.18A7.57,7.57,0,0,1,73.24,289.08Zm0-28.79a7.2,7.2,0,0,0-3.55.85L49.91,272.56a2,2,0,0,0,0,3.9l19.78,11.42a7.82,7.82,0,0,0,7.11,0l19.78-11.42a2,2,0,0,0,0-3.9L76.8,261.14A7.24,7.24,0,0,0,73.24,260.29Z"/><path class="cls-63" d="M99,270.13v-6.78l-1.24-.68c-.35,2.11-2.84,3.5-4.92,3.79l-14.17,8.29L72.44,277,52.7,266.8l.45-.27c-1.69-.78-2.59-2.59-3.51-4.23l-1.33.79-.79.22v6.89h0a2.93,2.93,0,0,0,1.74,2.42L69,284.05a9.34,9.34,0,0,0,8.4,0l19.78-11.42A3,3,0,0,0,99,270.24v-.11Z"/><path class="cls-64" d="M99,264.11v-4.48l-1.24-.69c-.35,2.11-2.84,3.51-4.92,3.79L78.63,271l-6.19,2.24L52.7,263.07l.45-.27c-1.69-.78-2.59-2.59-3.51-4.23l-1.33.79-.79.22v4.6h0a2.93,2.93,0,0,0,1.74,2.42L69,278a9.28,9.28,0,0,0,8.4,0L97.22,266.6A3,3,0,0,0,99,264.22v-.11Z"/><path class="cls-16" d="M92.8,262.73,78.63,271l-5.39,2V279a8.58,8.58,0,0,0,4.2-1L97.22,266.6A3,3,0,0,0,99,264.22v-.11h0v-4.48L97.83,259h-.12C97.32,261.08,94.86,262.45,92.8,262.73Z"/><path class="cls-65" d="M69,273.47,49.26,262.05c-2.32-1.34-2.32-3.51,0-4.85L69,245.78a9.28,9.28,0,0,1,8.4,0L97.22,257.2c2.32,1.34,2.32,3.51,0,4.85L77.44,273.47A9.28,9.28,0,0,1,69,273.47Z"/><path class="cls-66" d="M97.22,262.05,77.44,273.47a9.28,9.28,0,0,1-8.4,0L49.26,262.05a3.14,3.14,0,0,1-1.72-2.15,2.82,2.82,0,0,0,1.72,2.71L69,274a9.28,9.28,0,0,0,8.4,0l19.78-11.42a2.82,2.82,0,0,0,1.72-2.7A3.12,3.12,0,0,1,97.22,262.05Z"/><path class="cls-67" d="M134.11,252.19a7.61,7.61,0,0,1-3.72-.89l-19.78-11.43a2.38,2.38,0,0,1,0-4.5L130.39,224a8.22,8.22,0,0,1,7.45,0l19.78,11.42a2.39,2.39,0,0,1,0,4.51L137.84,251.3A7.68,7.68,0,0,1,134.11,252.19Zm-3.55-1.2a7.82,7.82,0,0,0,7.11,0l19.78-11.41a2.06,2.06,0,0,0,0-3.91l-19.78-11.42a7.88,7.88,0,0,0-7.11,0l-19.78,11.42a2,2,0,0,0,0,3.9Z"/><path class="cls-63" d="M159.83,233.24v-6.77l-1.24-.69c-.35,2.11-2.84,3.5-4.92,3.79l-14.17,8.29-6.19,2.24-19.74-10.19.45-.27c-1.68-.78-2.59-2.59-3.51-4.23l-1.32.79-.79.22v6.89h0a3,3,0,0,0,1.73,2.43l19.78,11.42a9.34,9.34,0,0,0,8.4,0l19.78-11.42a3,3,0,0,0,1.74-2.39v-.11Z"/><path class="cls-64" d="M159.83,227.22v-4.48l-1.24-.69c-.35,2.11-2.84,3.51-4.92,3.8l-14.17,8.28-6.19,2.24-19.74-10.19.45-.26c-1.68-.79-2.59-2.6-3.51-4.24l-1.32.79-.79.22v4.6h0a2.94,2.94,0,0,0,1.73,2.42l19.78,11.43a9.34,9.34,0,0,0,8.4,0l19.78-11.42a3,3,0,0,0,1.74-2.39v-.11Z"/><path class="cls-16" d="M153.67,225.85l-14.17,8.28-5.39,2v6.06a8.66,8.66,0,0,0,4.2-1l19.78-11.42a3,3,0,0,0,1.74-2.39v-.11h0v-4.48l-1.13-.63h-.12C158.19,224.19,155.73,225.56,153.67,225.85Z"/><path class="cls-68" d="M129.91,236.58l-19.78-11.42c-2.31-1.34-2.31-3.51,0-4.85l19.78-11.42a9.28,9.28,0,0,1,8.4,0l19.78,11.42c2.32,1.34,2.32,3.51,0,4.85l-19.78,11.42A9.28,9.28,0,0,1,129.91,236.58Z"/><path class="cls-18" d="M134.11,234.51a6.79,6.79,0,0,1-3.36-.81l-15.46-8.92a2.17,2.17,0,0,1,0-4.09l15.46-8.92a7.46,7.46,0,0,1,6.73,0l15.46,8.92a2.17,2.17,0,0,1,0,4.09l-15.46,8.92A6.86,6.86,0,0,1,134.11,234.51Zm0-23.2a6.51,6.51,0,0,0-3.19.76L115.46,221a1.83,1.83,0,0,0,0,3.49l15.46,8.92a7.05,7.05,0,0,0,6.39,0l15.45-8.92a1.83,1.83,0,0,0,0-3.49l-15.45-8.92A6.53,6.53,0,0,0,134.11,211.31Z"/><path class="cls-66" d="M158.09,225.16l-19.78,11.42a9.28,9.28,0,0,1-8.4,0l-19.78-11.42a3.13,3.13,0,0,1-1.71-2.14,2.79,2.79,0,0,0,1.71,2.7l19.78,11.42a9.28,9.28,0,0,0,8.4,0l19.78-11.42a2.79,2.79,0,0,0,1.72-2.7A3.12,3.12,0,0,1,158.09,225.16Z"/><g class="cls-69"><g class="cls-70"><polygon class="cls-71" points="489.43 28.86 456.22 48.04 423.01 28.86 456.22 9.68 489.43 28.86"/><polygon class="cls-62" points="489.43 330.07 456.22 349.25 456.22 48.04 489.43 28.86 489.43 330.07"/><polygon class="cls-62" points="456.22 48.04 456.22 349.25 423.01 330.07 423.01 28.86 456.22 48.04"/></g></g><g class="cls-72"><g class="cls-70"><polygon class="cls-73" points="363.25 166.64 343.65 177.96 324.04 166.64 343.65 155.32 363.25 166.64"/><polygon class="cls-74" points="363.25 344.45 343.65 355.77 343.65 177.96 363.25 166.64 363.25 344.45"/><polygon class="cls-75" points="343.65 177.96 343.65 355.77 324.04 344.45 324.04 166.64 343.65 177.96"/></g></g><g class="cls-76"><g class="cls-70"><polygon class="cls-71" points="443.84 123.68 410.16 143.13 376.48 123.68 410.16 104.23 443.84 123.68"/><polygon class="cls-77" points="443.84 263.91 410.16 283.36 410.16 143.13 443.84 123.68 443.84 263.91"/><polygon class="cls-78" points="410.16 143.13 410.16 283.36 376.48 263.91 376.48 123.68 410.16 143.13"/></g></g><g class="cls-79"><g class="cls-70"><polygon class="cls-71" points="397.29 203.75 366.22 221.69 335.16 203.75 366.22 185.81 397.29 203.75"/><polygon class="cls-80" points="397.29 333.1 366.22 351.04 366.22 221.69 397.29 203.75 397.29 333.1"/><polygon class="cls-81" points="366.22 221.69 366.22 351.04 335.16 333.1 335.16 203.75 366.22 221.69"/></g></g><g class="cls-82"><g class="cls-70"><polygon class="cls-71" points="481.29 224.5 450.22 242.44 419.15 224.5 450.22 206.56 481.29 224.5"/><polygon class="cls-63" points="481.29 353.85 450.22 371.79 450.22 242.44 481.29 224.5 481.29 353.85"/><polygon class="cls-83" points="450.22 242.44 450.22 371.79 419.15 353.85 419.15 224.5 450.22 242.44"/></g></g><g class="cls-84"><g class="cls-70"><polygon class="cls-71" points="435.44 278.88 388.93 305.75 368.47 293.94 414.98 267.07 435.44 278.88"/><polygon class="cls-63" points="435.44 364.07 388.93 390.94 388.93 305.75 435.44 278.88 435.44 364.07"/><polygon class="cls-85" points="388.93 305.75 388.93 390.94 368.47 379.13 368.47 293.94 388.93 305.75"/></g></g><polygon class="cls-86" points="230.06 252.44 94.64 338.69 217.97 409.9 353.4 323.66 230.06 252.44"/><polygon class="cls-64" points="353.71 323.11 307.86 341.14 307.86 339.99 353.71 321.96 353.71 323.11"/><polygon class="cls-64" points="262.86 381.1 216.97 399.41 217.03 398.23 262.92 379.92 307.86 339.99 307.86 341.14 262.86 381.1"/><polygon class="cls-64" points="217.03 398.23 216.97 399.41 93.61 328.19 93.67 327.01 217.03 398.23"/><polygon class="cls-87" points="262.92 379.92 217.03 398.23 93.67 327.01 139.56 308.69 262.92 379.92"/><polygon class="cls-88" points="262.92 379.92 307.86 339.99 184.5 268.77 139.56 308.69 262.92 379.92"/><polygon class="cls-71" points="260.3 378.4 305.24 338.48 187.11 270.28 142.18 310.2 260.3 378.4"/><polygon class="cls-89" points="353.71 321.96 307.86 339.99 184.5 268.77 230.35 250.74 353.71 321.96"/><polygon class="cls-71" points="348.53 321.46 305.24 338.48 187.11 270.28 230.4 253.25 348.53 321.46"/><polygon class="cls-71" points="260.3 378.4 216.98 395.69 98.85 327.49 142.18 310.2 260.3 378.4"/><polygon class="cls-90" points="328.07 309.65 323.08 311.61 343.54 323.42 348.53 321.46 328.07 309.65"/><polygon class="cls-91" points="248.14 263.5 240.47 266.52 252.66 273.55 260.33 270.54 248.14 263.5"/><polygon class="cls-92" points="255.93 275.44 277.03 287.62 284.7 284.61 263.61 272.43 255.93 275.44"/><polygon class="cls-93" points="197.63 266.14 213.74 275.44 224.69 271.13 208.58 261.84 197.63 266.14"/><polygon class="cls-94" points="180.42 374.59 183.69 376.47 180.42 374.59 180.42 374.59"/><polygon class="cls-95" points="183.69 376.47 203.25 387.77 208.85 385.53 189.29 374.24 183.69 376.47"/><polygon class="cls-96" points="171.09 363.73 165.49 365.97 180.42 374.59 186.02 372.35 171.09 363.73"/><path class="cls-71" d="M268.44,330.47l-.39-.23,0,0a29.31,29.31,0,0,0-6.54-2.9l-.2-.06c-6.44-1.78-13.72-.67-21.44.49-3.71.56-7.59,1.15-11.53,1.41l1.29.52a86.2,86.2,0,0,1,9.4,4.73l.06,0,.15.08a129.76,129.76,0,0,1,17.05,11.93l15.57-13.81C270.69,331.86,269.56,331.13,268.44,330.47Z"/><path class="cls-71" d="M289.14,348a133.73,133.73,0,0,0-14.36-13.21L259,348.8a99.12,99.12,0,0,1,15.59,16.9l17-15.07c-.14-.14-.27-.29-.4-.43C290.53,349.49,289.85,348.76,289.14,348Z"/><path class="cls-71" d="M242.86,362.15l-6.29,2.55-24.24,2a2.66,2.66,0,0,1-1,3.79l14.37,8.29,20.84-8.31v0l1.72-1.53Z"/><path class="cls-71" d="M203.46,327.64c-.36-.32-.7-.64-1-1-.55-.54-1.06-1.09-1.55-1.65l-.49-.57-.09-.1c-.19-.22-.37-.45-.55-.67-.75-.91-1.45-1.83-2.16-2.77a58.51,58.51,0,0,0-8.16-9.09l-.06-.06c-.17-.15-.36-.29-.55-.43s-.35-.23-.54-.34l-.08-.05-.31-.17-.53-.27c-.23-.1-.46-.21-.71-.3a17.52,17.52,0,0,0-2-.67l-.36-.1-9.73,19.41,22.57,4.82,6.56-5.82A2.09,2.09,0,0,1,203.46,327.64Z"/><path class="cls-71" d="M210.53,314.46l.91,1.18c.13.18.27.35.4.52.25.33.51.65.77,1,.1.12.19.24.29.35l.21.27.37.42.5.55,5.8-5.15,3.35-19.65-14.87.48-.17-.1L201,303.93l.2.18A65.43,65.43,0,0,1,210.53,314.46Z"/><path class="cls-71" d="M224.09,314.53l-7,6.21c.42.14.83.27,1.26.39l.63.17c.21.05.42.11.65.15.64.14,1.29.25,1.94.34l1.32.15,1,.08,1,0h2l.7,0,1.09-.06c.57,0,1.15-.08,1.74-.13l1.45-.15.73-.08.74-.09.64-.08c1-.14,2.06-.28,3.12-.44l1.48-.22.85-.13,3-.46,3.42-12H225.18Z"/><path class="cls-71" d="M245.28,350.79l-.8-.63c-.53-.42-1.08-.83-1.62-1.24l-1.62-1.2c-.82-.59-1.64-1.17-2.45-1.73s-1.62-1.1-2.42-1.62l-1.77-1.14-.47-.29-1-.6-.37-.22-1.46-.86-.05,0-.22-.12a61.08,61.08,0,0,0-11.6-5.36l-.58-.18-.8-.24c-.74-.22-1.44-.46-2.12-.69l-1-.35-1.14-.43-.44-.18c-.77-.31-1.5-.63-2.2-1l-1.15-.57c-.47-.24-.92-.48-1.35-.73l-.14-.08-.08,0-.24-.14-.31-.18-.41-.26-.89-.57-.08-.06-5.67,5L242.1,358.9l.22-.09,6.13-5.44c-1-.87-2.08-1.73-3.13-2.56Z"/><polygon class="cls-71" points="128.24 335.5 146.77 335.39 137.11 321.19 128.24 335.5"/><path class="cls-71" d="M206.62,365.73a9.67,9.67,0,0,0-7.43-.7c-2,.81-2,2.44.07,3.64a9.7,9.7,0,0,0,7.43.69C208.71,368.55,208.69,366.92,206.62,365.73Z"/><path class="cls-71" d="M224.12,286.36a9.77,9.77,0,0,0,7.43.73c2-.8,2-2.42-.08-3.62a9.78,9.78,0,0,0-7.42-.72C222,283.55,222.06,285.17,224.12,286.36Z"/><polygon class="cls-71" points="299.77 306.83 296.35 315.71 317.08 319.1 320.19 311.6 299.77 306.83"/><path class="cls-71" d="M246.19,319.71c6.56-.81,13.22-1.11,19.77.7l.53.15,1.05.34,1.06.38h0c.71.27,1.43.57,2.14.9l.54.25.89.44.19.09c.72.37,1.45.77,2.17,1.19l1,.58,0,0,1,.61,1,.65,1,.67L281,324.5l7.3-2.9-36.78-21.23-2.69,5.56-4,13.95Z"/><path class="cls-71" d="M312.27,328.26l-20.07-5-7.94,3.13.05,0,0,0-2.75,2.44c.25.18.5.37.73.56l.73.56.73.58,1.44,1.16.71.6c.48.4.94.8,1.41,1.21l1.38,1.21.31.28,1.06,1,0,0,1.06,1,.26.24,1.3,1.24,4.91-4.36-.07,0,.06,0Z"/><path class="cls-97" d="M283.91,333.37a.52.52,0,0,1-.11-.1c-.9-.74-1.8-1.48-2.71-2.19l-.39-.3-.74-.56-3-2.15c-.67-.46-1.35-.91-2-1.34l0,0c-.25-.15-.49-.31-.74-.45s-.75-.46-1.13-.67l-.35-.21-.26-.14-.39-.22c-.55-.3-1.09-.58-1.63-.85l-.9-.43-1-.43-.1,0-.76-.31c-.48-.19-1-.37-1.44-.53s-.93-.3-1.39-.43c-8.24-2.27-16.91-1-25.3.31-2.17.33-4.28.65-6.34.9-1.65.21-3.27.37-4.86.47h-.23a33.55,33.55,0,0,1-10.21-.78l-.19-.05-.23-.06-.34-.09-.23-.07h0c-.47-.14-.95-.29-1.43-.47l-3.13-2-.15-.16-.53-.58-.11-.12c-.17-.2-.35-.4-.52-.61l-.07-.08-.14-.17-.24-.29c-.6-.74-1.2-1.52-1.83-2.34l-.25-.33-.11-.14a64.18,64.18,0,0,0-9-10,15.63,15.63,0,0,0-2.63-1.88c-5.33-3.07-13.87-4.6-25.5-4.54q-3.58,0-7.57.24c-3.49.19-6.86.47-9.92.8l-9.56,8.47a176,176,0,0,1,26.17-2.14c8.14,0,15.36.94,19.4,3.27a9,9,0,0,1,1.53,1.08,52.93,52.93,0,0,1,6.17,6.52c.78,1,1.48,1.89,2.16,2.77,1.08,1.43,2.15,2.83,3.37,4.19l.46.51c.54.57,1.11,1.14,1.72,1.7l.12.11h0l2.86,2.25.63.43.53.33.85.51c.38.22.78.44,1.19.65l.07.05c.28.14.55.28.84.41l.31.16,1.26.57.12.05A55.08,55.08,0,0,0,220,334a59.06,59.06,0,0,1,11.52,5.1h0l0,0,.38.21.89.51,1.25.73.12.07c2.11,1.27,4.26,2.66,6.42,4.15h0c3.18,2.2,6.35,4.61,9.39,7.16l2.73,2.36c.75.67,1.49,1.34,2.2,2l.41.38c.48.45.95.91,1.41,1.36l.1.11.92.9c.38.39.75.78,1.13,1.16l.82.87.16.18.62.67c.3.32.58.64.86,1l.56.63c.81.94,1.59,1.88,2.32,2.81l.14.18.35.45.44.58.15.19c.64.85,1.24,1.7,1.8,2.53l0,.07c.27.4.53.8.79,1.2l6.6-5.86A99.12,99.12,0,0,0,259,348.8l-2.76-2.35a129.76,129.76,0,0,0-17.05-11.93l-.15-.08-.06,0a86.2,86.2,0,0,0-9.4-4.73l-1.29-.52c3.94-.26,7.82-.85,11.53-1.41,7.72-1.16,15-2.27,21.44-.49l.2.06a29.31,29.31,0,0,1,6.54,2.9l0,0,.39.23c1.12.66,2.25,1.39,3.38,2.17l3,2.17A132.78,132.78,0,0,1,289.14,348c.71.74,1.39,1.47,2.05,2.18.13.14.26.29.4.43l5.37-4.76A152.11,152.11,0,0,0,283.91,333.37Z"/><path class="cls-98" d="M323.4,311.63l4.83-1.89-2-1.13-5,2L279,300.67l5.75-7.26,16.61,2.93.34-.89-17.09-3-6.22-3.59,8.11-3.19-1.94-1.12-7.51,3-36.25-20.93,7.5-3-1.94-1.13-13.68,5.39-6.13-3.54,13.69-5.38-1.29-.75-15,5.89,7.42,4.28-5.08,2-16-9.21-1.93.76,16,9.21L212,276l1.94,1.12,12.36-4.86,36.26,20.93-10.72,4.22-2.36,1.79-2.71,5.61-.45,1.56H224.18l-.38,2h22l-3.35,11.78-1.8.27-2,.3-1.48.22c-1.06.16-2.09.3-3.12.44l-.64.08-.63.08h-.11l-.73.08-1.44.15c-.52.05-1.14.1-1.74.13q-.54,0-1.08.06l-.7,0h-2.08l-1,0c-.33,0-.66,0-1-.08s-.85-.08-1.31-.14c-.64-.09-1.29-.2-1.94-.35-.22,0-.42-.09-.64-.15s-.42-.1-.63-.16c-.4-.11-.82-.24-1.22-.37l-3.08-2c-.17-.17-.33-.36-.5-.54l-.36-.43-.15-.17-.19-.24-.17-.19c-.25-.31-.51-.63-.76-1l-.4-.51-.91-1.18A65.59,65.59,0,0,0,201.29,304l-.1-.09,6.94-9.44.1.06,17.32-.61.39-1.95-16.61.57-19.12-11,6.38-5.66,7.28-2.89,1.42-.61-1.93-1.12-8.57,3.42-6.47,5.77L180.68,276l-1.79,1.6,13.19,7.61-13.57,12c-2-.11-4.15-.17-6.36-.17-2.61,0-5.39.08-8.27.24-2.51.13-5.15.33-7.85.59l-2.46,2.18.18,0c3.33-.35,6.67-.62,9.93-.8,2.63-.14,5.17-.22,7.55-.23h.62c11.26,0,19.61,1.52,24.81,4.52a16,16,0,0,1,2.61,1.86,63.85,63.85,0,0,1,9,10l.35.46c.59.77,1.21,1.58,1.84,2.35l.12.15a1.34,1.34,0,0,1,.11.14l.17.19.1-.09-.06.15.53.61.1-.09-.05.14.06.07c.17.2.35.39.53.58a1.52,1.52,0,0,0,.18.18l3.16,2c.3.11.61.22.91.31l.52.17h.07l.19.06.34.1.23.06.3.07.28.07.46.1.2.05.33.06,1.1.19.39.06c.34,0,.68.09,1,.12l.17,0,.31,0,1.11.08.59,0,.73,0h1.49l.83,0,.85,0,.58,0,1.14-.08,1-.09h.16l.77-.08.9-.1.83-.1c2.06-.26,4.14-.57,6.35-.91a103.29,103.29,0,0,1,15.3-1.54,36.58,36.58,0,0,1,9.93,1.24c.45.12.92.26,1.39.42l.61.21c.27.1.54.2.82.32l.78.32.07,0,1,.43c.3.13.6.28.9.43.52.26,1.07.54,1.62.84l.39.22.67.38c.36.2.71.41,1.07.63l.77.48c.66.42,1.34.87,2,1.33l3,2.15.74.56.38.3c.89.69,1.8,1.43,2.71,2.19l.11.09a154,154,0,0,1,13,12.47l1.82-1.62c-1.5-1.59-3-3.14-4.52-4.63l5.12-4.58L314.82,329l1.57-2,5.86-14.14,19.52,11.27,1.94-.76Zm-125-9.7c-4.19-2.42-10.23-3.95-18-4.56l12.92-11.45,12.89,7.44-6.78,9.22C199.09,302.36,198.74,302.14,198.37,301.93Zm78.72-12.59,6.14,3.54L277.61,300l-11.16-6.44Zm-48.84-17.87,10.61-4.17,36.25,20.93L264.5,292.4ZM317,318.94l-20.62-3.36h-.1l0,.08-.47,1.21,20.7,3.37-2.51,6.06-1.75,1.83-14.7,5.79-4.83,4.31-1.21-1.15-.13-.13-.13-.11-1.08-1-1.06-1-.31-.28c-.45-.41-.92-.81-1.38-1.21l-.32-.27c-.36-.32-.72-.63-1.09-.93s-.47-.41-.71-.6c-.48-.4-1-.79-1.45-1.17l-.72-.58-.73-.56-.74-.56-3-2.15-.77-.51-.34-.22c-.3-.2-.6-.4-.91-.58s-.66-.42-1-.64-.65-.39-1-.58c-.7-.41-1.44-.81-2.18-1.19l-.19-.09c-.29-.16-.59-.3-.89-.44l-.54-.26c-.71-.32-1.43-.63-2.15-.91l-1.06-.38-1.07-.34-.52-.15a39.55,39.55,0,0,0-10.71-1.35,75,75,0,0,0-9.12.64l-1.11.14L249,306l2.68-5.54,2-1.89,10.86-4.27,12.05,6.95-7.68,8.22,1.31.76,7.79-8.35,42,9.83Z"/><path class="cls-99" d="M323.08,311.61l5-2-1.63-.95-5.12,2-42.57-9.95,5.94-7.5,16.57,2.92.24-.63-16.95-3-6.49-3.75,8.28-3.26-1.64-.94-7.67,3-21.1-12.18-15.46-8.92,7.67-3-1.64-.95L232.65,268l-6.43-3.71,13.85-5.45-1-.57-14.81,5.83,7.41,4.28-5.4,2.12-16.1-9.29-1.61.63,16.11,9.29L212.32,276l1.64.94,12.36-4.85L241.79,281l21.1,12.18-10.95,4.3-2.34,1.77-2.69,5.56-.47,1.66-22.14,0-.33,1.7h22l-3.42,12-3,.46-.85.13-1.48.22c-1.06.16-2.1.3-3.12.44l-.64.08-.74.09-.73.08-1.45.15c-.59,0-1.17.1-1.74.13l-1.09.06-.7,0h-2l-1,0-1-.08q-.67-.06-1.32-.15c-.66-.08-1.31-.2-1.94-.34-.23,0-.44-.1-.65-.15l-.63-.17a13.15,13.15,0,0,1-1.26-.39l-3.11-2-.5-.55-.37-.42-.21-.27c-.1-.11-.19-.23-.29-.35-.26-.31-.52-.63-.77-1-.13-.17-.27-.34-.4-.52l-.91-1.18a65.43,65.43,0,0,0-9.33-10.35l-.2-.18,7.09-9.64.17.1,17.17-.6.34-1.67-16.47.56L190,281.52l6.53-5.79,7.3-2.91,1.17-.5-1.63-.95-8.49,3.39-6.52,5.82-7.75-4.47L179,277.5l13.3,7.68-13.76,12.2a131.52,131.52,0,0,0-14.68.07c-2.78.15-5.49.36-8,.6l-2.11,1.88c3.06-.33,6.43-.61,9.93-.81q4-.21,7.56-.23c11.63-.06,20.17,1.47,25.5,4.54a15.63,15.63,0,0,1,2.63,1.88,63.23,63.23,0,0,1,9,10l.11.14.25.33c.63.82,1.23,1.6,1.83,2.34a1.83,1.83,0,0,1,.13.16l.11.13.14.17,0,0,0,0c.17.21.35.41.52.61l.05,0,.06.07.53.58.16.16,3.13,2c.3.11.6.22.91.31l.47.15H217l.19.06.34.09.08,0,.15,0,.19.05.11,0,.28.06.55.13.1,0,.33.06c.36.08.73.14,1.1.2l.38,0,1,.13.49,0c.36,0,.73.06,1.1.08l.59,0,.73,0h1.48l.83,0,.85,0,.27,0h.3l1.14-.08,1.15-.1.78-.08.89-.1.83-.1c2.06-.25,4.17-.57,6.34-.9,8.39-1.27,17.06-2.58,25.3-.31.46.13.92.27,1.39.43l.62.21.82.32.76.31.1,0,1,.43.9.43c.54.27,1.08.55,1.63.85l.39.22.26.14.41.24c.36.2.71.42,1.07.64s.49.3.74.45h0l0,0c.68.43,1.36.88,2,1.34l3,2.15.74.56.39.3c.91.71,1.81,1.45,2.71,2.19l.11.1a152.11,152.11,0,0,1,13,12.5l1.62-1.44c-1.43-1.52-3-3.12-4.63-4.75L299.2,335l15.54-6.11,1.52-1.94,5.93-14.29,19.75,11.4,1.6-.63ZM198.3,302.05c-4.25-2.46-10.35-4-18.23-4.57l13.23-11.73,13.11,7.57-6.95,9.45C199.09,302.52,198.7,302.28,198.3,302.05Zm78.8-12.86,6.34,3.66-5.79,7.3-11.52-6.65Zm-33.71-8.81-15.46-8.93,10.94-4.3,15.46,8.92,21.1,12.18-10.94,4.31Zm73.69,38.72-20.73-3.39h0l-.41,1,20.7,3.38-2.58,6.24-1.79,1.87-14.71,5.79-4.9,4.38-1.3-1.24-.26-.24L290,336l0,0L289,335l-.31-.28-1.38-1.21c-.47-.41-.93-.81-1.41-1.21l-.71-.6-1.44-1.16L283,330l-.73-.56c-.23-.19-.48-.38-.73-.56l-3-2.14-1-.67-1-.65-1-.61,0,0-1-.58c-.72-.42-1.45-.82-2.17-1.19l-.19-.09-.89-.44-.54-.25c-.71-.33-1.43-.63-2.14-.9h0l-1.06-.38-1.05-.34-.53-.15c-6.55-1.81-13.21-1.51-19.77-.7l-1.31.17h0l4-13.95,2.69-5.56,2-1.93,10.95-4.31,12.26,7.08-7.67,8.22,1.05.61,7.77-8.32,42.26,9.88Z"/><path class="cls-98" d="M267.33,370.28l0-.06c-.26-.39-.54-.78-.81-1.17l-.59-.82-.33-.45-.08-.1-.19-.25c-.08-.12-.18-.24-.27-.35l-.13-.18-.49-.63c-.73-.93-1.52-1.87-2.33-2.81l-.55-.63-.87-1-.78-.84-.83-.87c-.37-.39-.74-.78-1.13-1.17l-.39-.39-.52-.51-.72-.7-.8-.77-.41-.39-1-.91-1.21-1.09-2.74-2.36-.07-.06c-.66-.55-1.34-1.12-2-1.67l-1.07-.85-.93-.72-.14-.11c-.72-.55-1.43-1.09-2.15-1.62l-.24-.17-.06-.05-.64-.47-.66-.47-.44-.31-.43-.3-.55-.39-.53-.35-.28-.2,0,0-1.14-.77-.63-.42-1-.65-1-.61-1.08-.66-.08-.05-.68-.41-.29-.17-1-.61c-.25-.15-.5-.3-.75-.43l-.56-.32-.7-.38-.57-.31-.08-.05c-.85-.45-1.6-.84-2.29-1.17l-.38-.19-1.24-.59-.49-.23-1-.44-.79-.33c-.52-.22-1.06-.43-1.6-.63l-.61-.22c-.68-.24-1.29-.44-1.86-.6-.79-.24-1.51-.46-2.21-.7-.47-.16-.93-.31-1.37-.48-.85-.31-1.68-.64-2.45-1l-.24-.11-.4-.17-.74-.35-.31-.15-.59-.29-.32-.17-.45-.24c-.25-.13-.49-.27-.73-.41s-.47-.27-.7-.41l-.15-.1-.54-.34-.56-.37-.05,0-2.87-2.26-.1-.1c-.58-.53-1.14-1.08-1.72-1.7l-.37-.4-.09-.1c-1.2-1.35-2.24-2.71-3.36-4.18-.65-.85-1.38-1.8-2.16-2.78a53.26,53.26,0,0,0-6.19-6.53,9.45,9.45,0,0,0-1.55-1.1c-3.71-2.14-10.26-3.25-19.47-3.29h-.44a176.8,176.8,0,0,0-25.51,2.11l-2.23,2-.42.17-.32.29.48-.08.47-.09,0-.13,0,.14v0a185.58,185.58,0,0,1,18.73-2.1l-1.41,11.53-.25.13-.09,0-19.28-1.21-4.45.25-6.6,10.64-23.33-5-2.33.93L128.33,331l-2.77,4.46.48,2.4,20,11.52-5.44,2.17,1.94,1.12,5.43-2.17,21.22,12.25-5.44,2.16,2,1.12,5.43-2.16,37.45,21.62-5.43,2.17L205,388.8l5.43-2.17,11.95,6.9,1.93-.77-11.95-6.9,15-6,20.85-8.34,1.12-1,2.58,3.21,5.56,5.77,2-.78-2.05-2.13-12.38-15.45-2.89-2.37L200.94,335l-3.79-1.45-22.39-4.79,9.6-19.15.25.07c.72.2,1.39.43,2,.66.24.1.48.2.7.31l.53.26.32.18.06,0c.19.11.36.22.53.34a4.77,4.77,0,0,1,.54.41l.06.06a58.11,58.11,0,0,1,8.14,9.08l.16.21c.64.84,1.31,1.72,2,2.58.18.22.35.44.54.65l.57.67c.57.64,1.07,1.17,1.56,1.66.32.32.66.63,1,1l.23.21,2.89,2.24.08.06c.29.2.59.39.89.57.14.1.27.18.42.27l.32.19.45.26c.44.25.9.5,1.36.74l1.15.57c.7.33,1.44.65,2.21,1l.44.17c.37.15.75.3,1.14.44l1,.35q1,.36,2.13.69l.12,0,.68.2.57.18A61.29,61.29,0,0,1,231,341.22l.27.16c.48.28,1,.56,1.46.86l.36.22,1,.59.48.3c.58.37,1.17.74,1.76,1.13s1.58,1,2.42,1.63l2.45,1.72c.54.4,1.08.79,1.62,1.21l1.62,1.23.83.65c1.06.83,2.11,1.69,3.13,2.55l2.73,2.37a80.46,80.46,0,0,1,15.08,17.31l0,0,1.92-1.7C267.85,371.08,267.6,370.68,267.33,370.28ZM161.44,324.83l9.1,1.89,2.6.07-.48,1-4.91,5.48-8-.46ZM129,337.69l-.58-2.18,8.81-14.21,3.75-1,18.56,1.17-2.35,11.17-8.21-.47,1,1.45,18.2,1.05,6,3.48-18.58,7.42-9.54-5.51-7.67,3.06Zm18.95,10.94-8.25-4.77,6.37-2.54,8.25,4.76ZM171.07,362l-6.49-3.74,12.07-4.82-1.29-.74-12.07,4.81-13.43-7.75,26.24-10.48,21.22,12.25Zm68.6-2,3.08,2.28,5.35,6.68-1.61,1.43-20.81,8.31-15.22,6.08L173,363.12l26.25-10.48,19.55,11.29,2.86-.24-17.21-9.94,7.69-3.07,4.5-4Zm-24.25-14L211,349.88,203.17,353l-10.41-6,7.68-3.08,4.51-4Zm-36-14.11,16,3.41,3.83,1.36,4.47,2.59-4.4,3.9-7.84,3.14L170.17,334l3.58-4Zm-5.63-6.34-5.07-.14-7.07-1.47.47-2.24v-.07l1.61-13.32c2-.09,4-.13,5.8-.13a70.4,70.4,0,0,1,12.51.93Z"/><path class="cls-100" d="M184.64,309.53a17.52,17.52,0,0,1,2,.67c.25.09.48.2.71.3l.53.27.31.17.08.05c.19.11.37.22.54.34s.38.28.55.43l.06.06a58.51,58.51,0,0,1,8.16,9.09c.71.94,1.41,1.86,2.16,2.77.18.22.36.45.55.67l.09.1.49.57c.49.56,1,1.11,1.55,1.65.33.33.67.65,1,1a2.09,2.09,0,0,0,.22.2l2.88,2.24.08.06.89.57.41.26.31.18.24.14.08,0,.14.08c.43.25.88.49,1.35.73l1.15.57c.7.33,1.43.65,2.2,1l.44.18,1.14.43,1,.35c.68.23,1.38.47,2.12.69l.8.24.58.18a61.08,61.08,0,0,1,11.6,5.36l.22.12.05,0,1.46.86.37.22,1,.6.47.29,1.77,1.14c.8.52,1.61,1.06,2.42,1.62s1.63,1.14,2.45,1.73l1.62,1.2c.54.41,1.09.82,1.62,1.24l.8.63,0,0c1.06.83,2.11,1.69,3.14,2.56l2.73,2.37a81.55,81.55,0,0,1,15.1,17.33l1.7-1.51q-.37-.6-.78-1.2l0-.07c-.26-.38-.53-.77-.81-1.16l-.58-.82-.34-.45a.61.61,0,0,0-.07-.1l-.15-.19,0-.06-.27-.35a1.09,1.09,0,0,0-.13-.17l-.35-.45-.06-.08-.08-.1c-.73-.93-1.51-1.87-2.32-2.81l-.56-.63c-.28-.32-.56-.64-.86-1h0l-.62-.66-.16-.18-.23-.24-.59-.63c-.38-.38-.75-.77-1.13-1.16l-.4-.39-.52-.51-.1-.11-.61-.59-.8-.77-.41-.38-1-.92-1.21-1.09L250,352c-.69-.58-1.39-1.16-2.1-1.72l-1.06-.85-1.07-.83-2.16-1.62-.23-.17-.7-.52-.57-.4c-.18-.13-.35-.26-.54-.38s-.28-.2-.42-.29l-.53-.38h0c-.18-.12-.35-.25-.53-.36l-.31-.22-1.09-.73L238,343l-1-.65-1-.61-1.08-.66-.75-.47-.12-.07-.17-.09-1-.59-.79-.45-.18-.11-.38-.21,0,0h0l-.65-.35-.64-.35c-.78-.42-1.54-.81-2.29-1.18l-.38-.19-1.24-.59-.49-.22-.5-.23-.5-.21-.79-.34c-.53-.22-1.07-.43-1.59-.62l-.61-.22c-.63-.22-1.25-.43-1.84-.6-.78-.23-1.51-.46-2.22-.7q-.71-.23-1.38-.48c-.86-.32-1.68-.64-2.46-1l-.12-.05-.52-.23-.74-.34-.31-.16-.6-.29-.24-.12-.07-.05-.45-.24-.74-.41-.71-.42-.14-.09-.53-.33h0l-.63-.42-2.85-2.25h0l-.11-.1c-.61-.56-1.18-1.13-1.72-1.7l-.37-.41-.09-.1c-1.22-1.36-2.29-2.76-3.37-4.19-.68-.88-1.38-1.81-2.16-2.77a52.93,52.93,0,0,0-6.17-6.52,9,9,0,0,0-1.53-1.08c-4-2.33-11.26-3.24-19.4-3.27a176,176,0,0,0-26.17,2.14l-2.05,1.82-.24.1H142l-.13.11.51-.08h0a181.69,181.69,0,0,1,18.92-2.1L159.91,320l-.36.18h-.05L140.16,319l-4.37.24-6.61,10.67-23.63-5.09-1.87.75,24.87,5.35-2.85,4.59.46,2.28,20.14,11.63-5.6,2.24,1.64.94,5.6-2.23,21.51,12.42L163.86,365l1.63,1,5.6-2.24L186,372.35l22.83,13.18-5.6,2.24,1.64.94,5.6-2.23,12.09,7,1.6-.64-12.09-7L224.16,381l3.21-1.28,20.83-8.33,1.21-1.08,2.66,3.32,5.6,5.81,1.69-.68-2-2.08,0,0L245,361.25l-2.87-2.35-41.21-23.79-3.77-1.45-22.57-4.82,9.73-19.41Zm-23.31,15.14,9.21,1.91,2.82.08-.6,1.2-4.95,5.53-8.21-.47Zm-32.48,13.11-.61-2.29,8.87-14.31,3.85-1,18.72,1.17-2.41,11.44-8.05-.46.79,1.17,18.17,1.05,6.3,3.64-11.29,4.5-7.61,3-9.54-5.5-7.67,3.06Zm19.06,11-8.56-4.94,6.71-2.68,8.55,4.95Zm23.15,13.37-6.8-3.93,12.07-4.81-1-.57-12.07,4.81-13.74-7.93,15.28-6.09,11.3-4.51,9.1,5.25,12.41,7.17-11.29,4.51Zm68.69-2.3,3.11,2.3,5.43,6.78-1.73,1.54-20.83,8.32-3.21,1.29-12.07,4.81-22.83-13.18-14.93-8.62L188,357l11.29-4.5,19.57,11.3,2.38-.2-17.08-9.86,7.94-3.17,4.55-4.06Zm-24.1-13.91L211.1,350l-7.94,3.17L192.44,347l7.92-3.18,4.57-4.05Zm-36.21-14.23,16,3.42,3.85,1.37,4.64,2.68-4.57,4.05-7.92,3.18-4.64-2.67L170,334l3.75-4.17Zm-5.57-6.06-5.19-.14L161.55,324l-.15.31.58-2.7,0,0,1.64-13.47c7-.3,13.64-.12,18.63.84Z"/><path class="cls-98" d="M316.26,326.94l-2.2-.55-19.91-5,1.79-4.64.41-1h0l3.42-8.88.41-1.06,3.86-10-4-2.29-.67,1.74-.24.63-3.43,8.88-.4,1.06-5.29,13.71-18.63-10.75-1.06-.62-16.79-9.69-1.63-.95-15.86-9.15c2-1.34,2-3.35,0-5.11l5.67-2.22,1.6-.63,10.94-4.31,1.6-.63,7.68-3-3.28-1.89-7.67,3-1.6.63-10.94,4.31-1.61.63-5.66,2.23a19.24,19.24,0,0,0-10.53-1l-6.95-4-1.63-.95-16.11-9.3h0l-3.2,1.26,7.75,4.48,1.63.94,15.42,8.9c-2.12,1.62-1.55,4,1.69,5.91a15.42,15.42,0,0,0,3.31,1.37l-.66,2.35-.15.87-.29,1.69-3.35,19.65-5.8,5.15-1.62,1.44h0l-7.06,6.27-1.61,1.42-6.56,5.82-1.66,1.47-4,3.54-7.93,3.18-1.6.63L170.65,347l-5.83-3.36-1.63-.95-11.4-6.58L150,333.49l-.79-1.17L141,320.17l-.8-1.17-4.27-6.29-3.58,1.43,3.48,5.1,1.32,1.94h0l9.66,14.2-18.53.1h0l-2.54,0-12.85.07,3.93,2.26,9.38,0h2.69l20.23-.11L160,344l1.63,1,13.74,7.93,1,.57,6.8,3.92,1.64.94,9.74,5.63c-1.9,1.36-1.86,3.31.1,5l-7,2.79-1.6.64-5.6,2.24,3.27,1.88,5.6-2.23,1.6-.64,7-2.79a19.34,19.34,0,0,0,10.27,1l14.37,8.3,1.64.94,12.09,7,3.22-1.28-12.1-7-1.64-.95-14.37-8.29a2.66,2.66,0,0,0,1-3.79l24.24-2,6.28-2.55h0l2-.83.08-.07,6.22-5.51,1.59-1.42h0L259,348.8l15.77-14,5.18-4.59,1.56-1.39,2.75-2.44,7.93-3.15,20.07,5,2.47.62,9.12,2.28,3.61-1.42Zm-92.14-40.58c-2.06-1.19-2.1-2.81-.07-3.61a9.78,9.78,0,0,1,7.42.72c2.07,1.2,2.11,2.82.08,3.62A9.77,9.77,0,0,1,224.12,286.36Zm-17.43,83a9.7,9.7,0,0,1-7.43-.69c-2.07-1.2-2.1-2.83-.07-3.64a9.67,9.67,0,0,1,7.43.7C208.69,366.92,208.71,368.55,206.69,369.36ZM281,324.5l-2.46,2.19L277,328.07l-5.16,4.57-15.57,13.81-6.2,5.51h0l-1.58,1.41-6.14,5.44-.22.09-2.35,1-6.8,2.76-11.73,1-2.38.2-8.89.73-.12-.07a18.85,18.85,0,0,0-12.11-1.83L188,357l-1.64-.94-12.42-7.17,11.3-4.51,1.6-.63,7.93-3.19,4.56-4.05,1.58-1.39,5.67-5,1.58-1.41h0l7.33-6.51h0l1.6-1.42h0l7-6.21,1.09-6.37.29-1.69,2.18-12.77,1.12-3.94a17.34,17.34,0,0,0,4-.22l16.84,9.72,1.92,1.11L288.3,321.6Z"/><path class="cls-101" d="M208.17,371.63h0a15.67,15.67,0,0,1-3.23.31,19.5,19.5,0,0,1-7-1.27l-.05,0-14.34,5.73-3-1.72,14.3-5.7-.17-.15a3.55,3.55,0,0,1-1.45-2.7,2.81,2.81,0,0,1,1.34-2.11l.17-.12-45.65-26.36-32.57.17-3.45-2,12.62-.07h2.53l18.79-.1-9.82-14.45h0l-1.31-1.92-3.43-5.08,3.29-1.32,5.08,7.48,9.06,13.33,1.79,2.63,18.95,10.95,13-5.18,7.94-3.18,28.36-25.16,3.79-22.26.7-2.46-.13,0a15.18,15.18,0,0,1-3.28-1.36c-1.78-1-2.79-2.25-2.87-3.44a2.63,2.63,0,0,1,1.19-2.24l.16-.13-24.86-14.37,2.87-1.13,24.82,14.34h.06a15.65,15.65,0,0,1,3.4-.35,19.77,19.77,0,0,1,7,1.29l0,0,27.64-10.86,3,1.71-27.6,10.85.17.15a3.49,3.49,0,0,1,1.45,2.74,2.87,2.87,0,0,1-1.48,2.14l-.19.13,54.31,31.35,9.42-24.43.66-1.72,3.72,2.15-7.7,20-.41,1.06L294,321.5l20.06,5,2.19.55,11,2.76-3.15,1.24-9.33-2.33-2.47-.61-20.11-5-8,3.17L244.82,361.2l-1.95.8-.07,0-6.29,2.55-24.41,2,.11.19a2.53,2.53,0,0,1-.93,3.6l-.17.13,28.2,16.27-2.89,1.16Zm-6.28-7.19a7.54,7.54,0,0,0-2.75.46c-1,.39-1.54,1-1.59,1.68s.52,1.56,1.64,2.21A10,10,0,0,0,204,370a7.63,7.63,0,0,0,2.76-.46c1-.39,1.53-1,1.58-1.67s-.52-1.57-1.63-2.21A10.05,10.05,0,0,0,201.89,364.44Zm-.9-2a18.37,18.37,0,0,1,8.77,2.13l.15.09,11.32-.93,11.73-1,9.19-3.72.23-.09,6.17-5.47,32.52-28.85,7.55-3-55.83-32.23h0a16.15,16.15,0,0,1-2.93.25c-.34,0-.69,0-1,0h-.11l-1.16,4L224,314.45l-29.3,26-7.9,3.17-13.16,5.25,24.08,13.91.05,0A16.6,16.6,0,0,1,201,362.44Zm25.72-80.26a7.58,7.58,0,0,0-2.71.44c-1,.39-1.53,1-1.59,1.66s.55,1.57,1.65,2.2a10,10,0,0,0,4.83,1.18,7.36,7.36,0,0,0,2.71-.45c1-.38,1.53-1,1.58-1.65s-.52-1.56-1.64-2.21A10.14,10.14,0,0,0,226.71,282.18Z"/></g></g></svg>