<svg xmlns="http://www.w3.org/2000/svg" xmlns:xlink="http://www.w3.org/1999/xlink" viewBox="0 0 385.04 377.06"><defs><style>.cls-1{isolation:isolate;}.cls-16,.cls-19,.cls-2{fill:#0dc9a8;}.cls-3{fill:#60749b;}.cls-4{fill:url(#linear-gradient);}.cls-5{fill:url(#linear-gradient-2);}.cls-6{fill:#313b4f;}.cls-7{opacity:0.2;fill:url(#linear-gradient-3);}.cls-13,.cls-14,.cls-15,.cls-18,.cls-26,.cls-7,.cls-8{mix-blend-mode:lighten;}.cls-13,.cls-14,.cls-15,.cls-18,.cls-26,.cls-8{opacity:0.5;}.cls-8{fill:url(#_ÂÁ_Ï_ÌÌ_È_ËÂÌÚ_45);}.cls-11,.cls-16,.cls-9{opacity:0.4;}.cls-10{fill:#2a354e;}.cls-11,.cls-12{fill:#42e8e0;}.cls-13{fill:url(#linear-gradient-4);}.cls-14{fill:url(#linear-gradient-5);}.cls-15{fill:url(#linear-gradient-6);}.cls-17{fill:url(#radial-gradient);}.cls-18{fill:url(#linear-gradient-7);}.cls-19,.cls-22{opacity:0.3;}.cls-20{fill:#88a4db;}.cls-21{fill:url(#_ÂÁ_Ï_ÌÌ_È_ËÂÌÚ_51);}.cls-22{fill:#0f054c;}.cls-23{fill:url(#_ÂÁ_Ï_ÌÌ_È_ËÂÌÚ_55);}.cls-24{fill:#fff;}.cls-25{fill:url(#linear-gradient-8);}.cls-26{fill:url(#linear-gradient-9);}.cls-27{fill:#202935;}</style><linearGradient id="linear-gradient" x1="27.2" y1="197.49" x2="317.49" y2="197.49" gradientUnits="userSpaceOnUse"><stop offset="0" stop-color="#60749b"/><stop offset="0.22" stop-color="#5d7096"/><stop offset="0.49" stop-color="#526488"/><stop offset="0.77" stop-color="#425170"/><stop offset="1" stop-color="#303c57"/></linearGradient><linearGradient id="linear-gradient-2" x1="27.21" y1="227.68" x2="317.48" y2="227.68" gradientUnits="userSpaceOnUse"><stop offset="0" stop-color="#f1f2f4"/><stop offset="1" stop-color="#eff8f6"/></linearGradient><linearGradient id="linear-gradient-3" x1="30.76" y1="195.19" x2="313.77" y2="195.19" gradientUnits="userSpaceOnUse"><stop offset="0" stop-color="#0dc9a8"/><stop offset="1" stop-color="#313b4f" stop-opacity="0"/></linearGradient><radialGradient id="_ÂÁ_Ï_ÌÌ_È_ËÂÌÚ_45" cx="118.94" cy="149.97" r="185.1" gradientUnits="userSpaceOnUse"><stop offset="0" stop-color="#42e8e0"/><stop offset="0.11" stop-color="#37b6bf"/><stop offset="0.22" stop-color="#2c87a1"/><stop offset="0.34" stop-color="#235f87"/><stop offset="0.46" stop-color="#1c3f72"/><stop offset="0.58" stop-color="#162561"/><stop offset="0.71" stop-color="#121355"/><stop offset="0.85" stop-color="#10084e"/><stop offset="1" stop-color="#0f054c"/></radialGradient><linearGradient id="linear-gradient-4" x1="218.32" y1="195.37" x2="242.72" y2="195.37" xlink:href="#linear-gradient-3"/><linearGradient id="linear-gradient-5" x1="268.76" y1="141.86" x2="268.76" y2="72.98" gradientUnits="userSpaceOnUse"><stop offset="0" stop-color="#0dc9a8"/><stop offset="0.09" stop-color="#11b99e" stop-opacity="0.89"/><stop offset="0.42" stop-color="#1f847d" stop-opacity="0.51"/><stop offset="0.69" stop-color="#295c64" stop-opacity="0.24"/><stop offset="0.89" stop-color="#2f4455" stop-opacity="0.06"/><stop offset="1" stop-color="#313b4f" stop-opacity="0"/></linearGradient><linearGradient id="linear-gradient-6" x1="241.44" y1="157.55" x2="279.31" y2="157.55" xlink:href="#linear-gradient-5"/><radialGradient id="radial-gradient" cx="102.2" cy="121.94" r="44.68" gradientUnits="userSpaceOnUse"><stop offset="0" stop-color="#0ee0b8"/><stop offset="0.1" stop-color="#16bda1"/><stop offset="0.24" stop-color="#1e9588"/><stop offset="0.38" stop-color="#257474"/><stop offset="0.52" stop-color="#2a5b63"/><stop offset="0.67" stop-color="#2e4958"/><stop offset="0.82" stop-color="#303e51"/><stop offset="1" stop-color="#313b4f"/></radialGradient><linearGradient id="linear-gradient-7" x1="106.55" y1="209.87" x2="263.77" y2="209.87" xlink:href="#linear-gradient-5"/><linearGradient id="_ÂÁ_Ï_ÌÌ_È_ËÂÌÚ_51" x1="277.72" y1="298.6" x2="314.11" y2="319.61" gradientUnits="userSpaceOnUse"><stop offset="0.24" stop-color="#5761d7"/><stop offset="0.39" stop-color="#7a82e5"/><stop offset="0.55" stop-color="#979cf0"/><stop offset="0.7" stop-color="#acaff8"/><stop offset="0.85" stop-color="#b8bafd"/><stop offset="1" stop-color="#bcbeff"/></linearGradient><linearGradient id="_ÂÁ_Ï_ÌÌ_È_ËÂÌÚ_55" x1="270.15" y1="309.09" x2="321.59" y2="309.09" gradientUnits="userSpaceOnUse"><stop offset="0" stop-color="#e9e9fd"/><stop offset="0.36" stop-color="#d3d2f9"/><stop offset="0.71" stop-color="#c5c4f7"/><stop offset="1" stop-color="#c0bff6"/></linearGradient><linearGradient id="linear-gradient-8" x1="270.94" y1="309.09" x2="320.8" y2="309.09" xlink:href="#linear-gradient-2"/><linearGradient id="linear-gradient-9" x1="295.87" y1="321.61" x2="295.87" y2="238.53" xlink:href="#linear-gradient-3"/></defs><title>infravieu</title><g class="cls-1"><g id="_ÎÓÈ_1" data-name="—ÎÓÈ_1"><path class="cls-2" d="M129,306.17a14.31,14.31,0,0,1-7-1.62L29.87,251.4C28,250.33,27,248.85,27,247.22c0-1.95,1.46-3.91,4-5.39L206.6,140.46c4.77-2.75,12-3.05,16.17-.66L314.83,193c1.84,1.07,2.86,2.55,2.86,4.18,0,2-1.46,3.92-4,5.39L138.1,303.89A18.74,18.74,0,0,1,129,306.17Zm86.76-167.59a18.35,18.35,0,0,0-8.94,2.23L31.21,242.18c-2.42,1.4-3.81,3.24-3.81,5,0,1.48,1,2.84,2.67,3.84l92.06,53.15c4,2.33,11.11,2,15.77-.66L313.48,202.17c2.43-1.39,3.81-3.23,3.81-5a4.57,4.57,0,0,0-2.66-3.83l-92.06-53.16A14,14,0,0,0,215.73,138.58Z"/><path class="cls-3" d="M317.49,172.58l-13.22,2.28-81.6-47.12c-4.1-2.36-11.25-2.06-16,.67L50.58,218.54l-23.37,4v8.29h0c0,1.51.89,3,2.76,4L122,288c4.09,2.37,11.24,2.07,16-.66L313.58,186c2.55-1.47,3.86-3.34,3.9-5.13h0Z"/><path class="cls-4" d="M122,279.69,30,226.54c-4.1-2.37-3.58-6.49,1.14-9.22L206.7,115.94c4.72-2.72,11.87-3,16-.66l92.06,53.15c4.09,2.37,3.58,6.5-1.15,9.23L138,279C133.27,281.76,126.12,282.05,122,279.69Z"/><path class="cls-5" d="M313.58,177.66,138,279c-4.73,2.73-11.88,3-16,.66L30,226.54a5,5,0,0,1-2.72-3.5c-.25,1.71.63,3.37,2.72,4.57L122,280.76c4.09,2.37,11.24,2.07,16-.66L313.58,178.73c2.83-1.63,4.14-3.77,3.86-5.73C317.2,174.64,315.9,176.32,313.58,177.66Z"/><path class="cls-6" d="M122.21,277.63,33.43,226.36c-4-2.29-3.46-6.28,1.11-8.93L206.86,118c4.58-2.64,11.5-2.93,15.46-.64L311.1,168.6c4,2.29,3.46,6.28-1.11,8.92L137.67,277C133.09,279.63,126.17,279.92,122.21,277.63Z"/><path class="cls-7" d="M122.21,275.34,33.43,224.07c-4-2.29-3.46-6.28,1.11-8.92l172.32-99.47c4.58-2.64,11.5-2.93,15.46-.64l88.78,51.27c4,2.29,3.46,6.28-1.11,8.93L137.67,274.7C133.09,277.34,126.17,277.63,122.21,275.34Z"/><path class="cls-8" d="M122.91,274.63,33.46,224.08c-4-2.28-1.91-4.92,2.66-7.56l170.23-98.27c4.57-2.64,11.84-3.29,15.81-1l89,53.54c4,2.28,3.76,3.88-.81,6.52L138.36,274C133.79,276.63,126.87,276.92,122.91,274.63Z"/><g class="cls-9"><path class="cls-10" d="M93.07,215.61l6.77-3.92c.4-.23.35-.63-.11-.9l-2.94-1.69a1.73,1.73,0,0,0-1.56-.07l-6.78,3.91c-.4.24-.35.64.12.91l2.93,1.69A1.75,1.75,0,0,0,93.07,215.61Z"/><path class="cls-10" d="M100.6,220l6.78-3.91c.4-.24.35-.64-.12-.91l-2.93-1.69a1.75,1.75,0,0,0-1.57-.07L96,217.35c-.4.23-.35.63.11.9L99,219.94A1.73,1.73,0,0,0,100.6,220Z"/><path class="cls-10" d="M108.13,224.41l6.78-3.91c.4-.23.35-.64-.11-.9l-2.94-1.7a1.73,1.73,0,0,0-1.56-.07l-6.78,3.92c-.4.23-.35.63.11.9l2.94,1.7A1.76,1.76,0,0,0,108.13,224.41Z"/><path class="cls-10" d="M115.66,228.81l6.78-3.91c.4-.23.35-.64-.11-.9l-2.94-1.7a1.69,1.69,0,0,0-1.56-.06l-6.78,3.91c-.4.23-.35.63.11.9l2.94,1.7A1.76,1.76,0,0,0,115.66,228.81Z"/><path class="cls-10" d="M123.2,233.21,130,229.3c.4-.23.35-.64-.11-.9l-2.94-1.7a1.72,1.72,0,0,0-1.56-.06l-6.78,3.91c-.4.23-.35.64.12.9l2.93,1.7A1.75,1.75,0,0,0,123.2,233.21Z"/><path class="cls-10" d="M130.73,237.61l6.78-3.91c.4-.23.35-.63-.11-.9l-2.94-1.7a1.78,1.78,0,0,0-1.57-.06L126.12,235c-.4.23-.35.64.11.9l2.94,1.7A1.69,1.69,0,0,0,130.73,237.61Z"/><path class="cls-10" d="M138.26,242,145,238.1c.4-.23.35-.63-.11-.9L142,235.5a1.76,1.76,0,0,0-1.56-.06l-6.78,3.91c-.4.23-.35.64.11.9l2.94,1.7A1.73,1.73,0,0,0,138.26,242Z"/><path class="cls-10" d="M145.8,246.42l6.77-3.92c.4-.23.35-.63-.11-.9l-2.94-1.69a1.73,1.73,0,0,0-1.56-.07l-6.78,3.91c-.4.24-.35.64.12.91l2.93,1.69A1.75,1.75,0,0,0,145.8,246.42Z"/><path class="cls-10" d="M81.13,223.17l6.78-3.92c.4-.23.35-.63-.11-.9l-2.94-1.69a1.73,1.73,0,0,0-1.56-.07l-6.78,3.91c-.4.24-.35.64.11.91l2.94,1.69A1.73,1.73,0,0,0,81.13,223.17Z"/><path class="cls-10" d="M88.67,227.57l6.78-3.91c.4-.24.35-.64-.12-.91l-2.93-1.69a1.75,1.75,0,0,0-1.57-.07l-6.77,3.92c-.41.23-.36.63.11.9l2.94,1.69A1.73,1.73,0,0,0,88.67,227.57Z"/><path class="cls-10" d="M96.2,232l6.78-3.91c.4-.23.35-.64-.11-.91l-2.94-1.69a1.73,1.73,0,0,0-1.56-.07l-6.78,3.92c-.4.23-.35.63.11.9l2.94,1.69A1.73,1.73,0,0,0,96.2,232Z"/><path class="cls-10" d="M103.73,236.37l6.78-3.91c.4-.23.35-.64-.11-.9l-2.94-1.7a1.69,1.69,0,0,0-1.56-.06l-6.78,3.91c-.4.23-.35.63.11.9l2.94,1.7A1.76,1.76,0,0,0,103.73,236.37Z"/><path class="cls-10" d="M111.27,240.77l6.77-3.91c.4-.23.35-.64-.11-.9l-2.94-1.7a1.72,1.72,0,0,0-1.56-.06l-6.78,3.91c-.4.23-.35.63.12.9l2.93,1.7A1.78,1.78,0,0,0,111.27,240.77Z"/><path class="cls-10" d="M118.8,245.17l6.78-3.91c.4-.23.35-.63-.12-.9l-2.93-1.7a1.78,1.78,0,0,0-1.57-.06l-6.77,3.91c-.4.23-.35.64.11.9l2.94,1.7A1.69,1.69,0,0,0,118.8,245.17Z"/><path class="cls-10" d="M126.33,249.58l6.78-3.92c.4-.23.35-.63-.11-.9l-2.94-1.7a1.76,1.76,0,0,0-1.56-.06l-6.78,3.91c-.4.23-.35.64.11.9l2.94,1.7A1.73,1.73,0,0,0,126.33,249.58Z"/><path class="cls-10" d="M133.86,254l6.78-3.92c.4-.23.35-.63-.11-.9l-2.94-1.69a1.73,1.73,0,0,0-1.56-.07l-6.78,3.91c-.4.24-.35.64.11.91l2.94,1.69A1.73,1.73,0,0,0,133.86,254Z"/><path class="cls-10" d="M74.79,232l6.78-3.91c.4-.23.35-.64-.11-.91l-2.94-1.69a1.73,1.73,0,0,0-1.56-.07l-6.78,3.92c-.4.23-.35.63.11.9l2.94,1.69A1.73,1.73,0,0,0,74.79,232Z"/><path class="cls-10" d="M82.33,236.37l6.77-3.91c.4-.23.35-.64-.11-.9l-2.94-1.7a1.69,1.69,0,0,0-1.56-.06l-6.78,3.91c-.4.23-.35.63.12.9l2.93,1.7A1.78,1.78,0,0,0,82.33,236.37Z"/><path class="cls-10" d="M89.86,240.77l6.78-3.91c.4-.23.35-.64-.11-.9l-2.94-1.7A1.75,1.75,0,0,0,92,234.2l-6.77,3.91c-.4.23-.35.63.11.9l2.94,1.7A1.76,1.76,0,0,0,89.86,240.77Z"/><path class="cls-10" d="M97.39,245.17l6.78-3.91c.4-.23.35-.63-.11-.9l-2.94-1.7a1.76,1.76,0,0,0-1.56-.06l-6.78,3.91c-.4.23-.35.64.11.9l2.94,1.7A1.69,1.69,0,0,0,97.39,245.17Z"/><path class="cls-10" d="M104.93,249.58l6.77-3.92c.4-.23.35-.63-.11-.9l-2.94-1.7a1.76,1.76,0,0,0-1.56-.06l-6.78,3.91c-.4.23-.35.64.12.9l2.93,1.7A1.75,1.75,0,0,0,104.93,249.58Z"/><path class="cls-10" d="M112.46,254l6.78-3.92c.4-.23.35-.63-.12-.9l-2.93-1.69a1.75,1.75,0,0,0-1.57-.07l-6.77,3.91c-.4.24-.35.64.11.91l2.94,1.69A1.73,1.73,0,0,0,112.46,254Z"/><path class="cls-10" d="M120,258.38l6.78-3.91c.4-.24.35-.64-.11-.91l-2.94-1.69a1.73,1.73,0,0,0-1.56-.07l-6.78,3.92c-.4.23-.35.63.11.9l2.94,1.69A1.73,1.73,0,0,0,120,258.38Z"/></g><path class="cls-2" d="M92.39,212.52a2.08,2.08,0,0,1-1-.25l-2.93-1.7a.82.82,0,0,1-.49-.68.68.68,0,0,1,.37-.56l6.78-3.91a1.93,1.93,0,0,1,1.76.06l2.94,1.7a.81.81,0,0,1,.48.68.66.66,0,0,1-.37.56l-6.78,3.92A1.59,1.59,0,0,1,92.39,212.52Zm3.52-6.89a1.16,1.16,0,0,0-.58.13l-6.78,3.91c-.06,0-.17.12-.17.22s.11.24.28.34l2.94,1.7A1.54,1.54,0,0,0,93,212l6.77-3.91c.07,0,.17-.12.17-.22s-.1-.24-.28-.34l-2.94-1.7A1.7,1.7,0,0,0,95.91,205.63Z"/><path class="cls-2" d="M99.92,216.92a1.93,1.93,0,0,1-1-.25L96,215a.83.83,0,0,1-.48-.69.66.66,0,0,1,.37-.56l6.77-3.91a1.93,1.93,0,0,1,1.76.06l2.94,1.7a.81.81,0,0,1,.48.68.63.63,0,0,1-.37.56l-6.77,3.92A1.63,1.63,0,0,1,99.92,216.92Zm3.52-6.89a1.16,1.16,0,0,0-.58.13l-6.77,3.91c-.07,0-.18.12-.18.22s.11.24.29.34l2.93,1.7a1.55,1.55,0,0,0,1.37.06l6.78-3.91c.06,0,.17-.11.17-.22s-.11-.24-.29-.34l-2.93-1.69A1.66,1.66,0,0,0,103.44,210Z"/><path class="cls-2" d="M107.45,221.32a1.93,1.93,0,0,1-1-.25l-2.94-1.69a.86.86,0,0,1-.48-.69.66.66,0,0,1,.37-.56l6.78-3.91a1.93,1.93,0,0,1,1.76.06l2.94,1.7a.84.84,0,0,1,.48.68.66.66,0,0,1-.37.57l-6.78,3.91A1.61,1.61,0,0,1,107.45,221.32Zm3.52-6.89a1.23,1.23,0,0,0-.57.13l-6.78,3.92a.27.27,0,0,0-.17.21c0,.11.1.24.28.34l2.94,1.7a1.52,1.52,0,0,0,1.36.06l6.78-3.91c.06,0,.17-.11.17-.22s-.11-.23-.28-.34l-2.94-1.69A1.6,1.6,0,0,0,111,214.43Z"/><path class="cls-2" d="M115,225.72a2.06,2.06,0,0,1-1-.24l-2.94-1.7a.85.85,0,0,1-.48-.68.66.66,0,0,1,.37-.57l6.78-3.91a1.93,1.93,0,0,1,1.76.06l2.94,1.7a.85.85,0,0,1,.48.68.66.66,0,0,1-.37.57l-6.78,3.91A1.61,1.61,0,0,1,115,225.72Zm.58-.52.1.17-.1-.17,6.78-3.92a.27.27,0,0,0,.17-.22c0-.11-.1-.23-.28-.34L119.29,219a1.56,1.56,0,0,0-1.36-.07l-6.78,3.92a.28.28,0,0,0-.17.22c0,.11.11.23.28.33l2.94,1.7A1.56,1.56,0,0,0,115.56,225.2Z"/><path class="cls-2" d="M122.52,230.12a2,2,0,0,1-1-.24l-2.94-1.7a.83.83,0,0,1-.48-.68.66.66,0,0,1,.37-.57l6.77-3.91a1.93,1.93,0,0,1,1.76.07l2.94,1.69a.83.83,0,0,1,.48.68.66.66,0,0,1-.37.57l-6.77,3.91A1.63,1.63,0,0,1,122.52,230.12Zm3.52-6.89a1.27,1.27,0,0,0-.58.13l-6.78,3.92a.28.28,0,0,0-.17.22c0,.11.11.23.29.34l2.93,1.69a1.58,1.58,0,0,0,1.37.07l6.78-3.92a.28.28,0,0,0,.17-.22c0-.11-.11-.23-.29-.33l-2.93-1.7A1.66,1.66,0,0,0,126,223.23Z"/><path class="cls-2" d="M130.05,234.52a2,2,0,0,1-1-.24l-2.94-1.7a.82.82,0,0,1-.48-.68.63.63,0,0,1,.37-.56l6.78-3.92a1.93,1.93,0,0,1,1.76.07l2.93,1.69a.85.85,0,0,1,.49.69.68.68,0,0,1-.37.56l-6.78,3.91A1.61,1.61,0,0,1,130.05,234.52Zm3.52-6.88a1.18,1.18,0,0,0-.58.13l-6.77,3.91c-.07,0-.17.11-.17.22s.1.24.28.34l2.94,1.69a1.56,1.56,0,0,0,1.36.07l6.78-3.91c.06,0,.17-.12.17-.22s-.11-.24-.28-.34l-2.94-1.7A1.62,1.62,0,0,0,133.57,227.64Z"/><path class="cls-2" d="M137.58,238.93a2.07,2.07,0,0,1-1-.25l-2.94-1.7a.83.83,0,0,1-.48-.68.63.63,0,0,1,.37-.56l6.78-3.92a2,2,0,0,1,1.76.07l2.94,1.7a.83.83,0,0,1,.48.68.66.66,0,0,1-.37.56l-6.78,3.91A1.5,1.5,0,0,1,137.58,238.93ZM141.1,232a1.14,1.14,0,0,0-.57.13l-6.78,3.91c-.06,0-.17.11-.17.22s.1.24.28.34l2.94,1.7a1.53,1.53,0,0,0,1.36.06l6.78-3.91c.06,0,.17-.12.17-.22s-.1-.24-.28-.34l-2.94-1.7A1.59,1.59,0,0,0,141.1,232Z"/><path class="cls-2" d="M145.12,243.33a2.08,2.08,0,0,1-1-.25l-2.93-1.7a.82.82,0,0,1-.49-.68.68.68,0,0,1,.37-.56l6.78-3.91a1.93,1.93,0,0,1,1.76.06l2.94,1.7a.81.81,0,0,1,.48.68.65.65,0,0,1-.37.56l-6.78,3.91A1.49,1.49,0,0,1,145.12,243.33Zm3.52-6.89a1.16,1.16,0,0,0-.58.13l-6.78,3.91c-.06,0-.17.12-.17.22s.11.24.28.34l2.94,1.7a1.55,1.55,0,0,0,1.37.06l6.77-3.91c.07,0,.18-.12.18-.22s-.11-.24-.29-.34l-2.94-1.7A1.7,1.7,0,0,0,148.64,236.44Z"/><path class="cls-2" d="M80.45,220.08a2.07,2.07,0,0,1-1-.25l-2.93-1.7a.82.82,0,0,1-.49-.68.66.66,0,0,1,.37-.56L83.2,213A1.93,1.93,0,0,1,85,213l2.94,1.7a.81.81,0,0,1,.48.68A.66.66,0,0,1,88,216l-6.78,3.91A1.5,1.5,0,0,1,80.45,220.08ZM84,213.19a1.16,1.16,0,0,0-.58.13l-6.78,3.91c-.06,0-.17.12-.17.22s.11.24.28.34l2.94,1.7a1.55,1.55,0,0,0,1.37.06l6.77-3.91c.07,0,.17-.12.17-.22s-.1-.24-.28-.34l-2.94-1.7A1.7,1.7,0,0,0,84,213.19Z"/><path class="cls-2" d="M88,224.48a2,2,0,0,1-1-.25l-2.94-1.69a.83.83,0,0,1-.48-.69.66.66,0,0,1,.37-.56l6.77-3.91a1.93,1.93,0,0,1,1.76.06l2.94,1.7a.81.81,0,0,1,.48.68.63.63,0,0,1-.37.56l-6.77,3.92A1.63,1.63,0,0,1,88,224.48Zm3.52-6.89a1.16,1.16,0,0,0-.58.13l-6.78,3.91c-.06,0-.17.12-.17.22s.11.24.29.34l2.93,1.7a1.55,1.55,0,0,0,1.37.06L95.35,220c.06,0,.17-.11.17-.22s-.11-.24-.29-.34l-2.93-1.7A1.77,1.77,0,0,0,91.51,217.59Z"/><path class="cls-2" d="M95.52,228.88a1.93,1.93,0,0,1-1-.25l-2.94-1.69a.83.83,0,0,1-.48-.69.66.66,0,0,1,.37-.56l6.78-3.91a1.93,1.93,0,0,1,1.76.06l2.93,1.7a.83.83,0,0,1,.49.68.63.63,0,0,1-.37.56L96.3,228.7A1.61,1.61,0,0,1,95.52,228.88ZM99,222a1.18,1.18,0,0,0-.58.13L91.69,226c-.07,0-.17.12-.17.22s.1.24.28.34l2.94,1.7a1.52,1.52,0,0,0,1.36.06l6.78-3.91c.06,0,.17-.11.17-.22s-.11-.24-.28-.34l-2.94-1.69A1.6,1.6,0,0,0,99,222Z"/><path class="cls-2" d="M103.05,233.28a2,2,0,0,1-1-.25l-2.94-1.69a.85.85,0,0,1-.48-.68.66.66,0,0,1,.37-.57l6.78-3.91a1.93,1.93,0,0,1,1.76.06l2.94,1.7a.85.85,0,0,1,.48.68.66.66,0,0,1-.37.57l-6.78,3.91A1.61,1.61,0,0,1,103.05,233.28Zm3.53-6.89a1.27,1.27,0,0,0-.58.13l-6.78,3.92a.28.28,0,0,0-.17.22c0,.11.1.23.28.33l2.94,1.7a1.56,1.56,0,0,0,1.36.07l6.78-3.92a.27.27,0,0,0,.17-.22c0-.11-.1-.23-.28-.34l-2.94-1.69A1.59,1.59,0,0,0,106.58,226.39Z"/><path class="cls-2" d="M110.59,237.68a2.1,2.1,0,0,1-1-.24l-2.93-1.7a.83.83,0,0,1-.48-.68.67.67,0,0,1,.36-.57l6.78-3.91a1.93,1.93,0,0,1,1.76.06l2.94,1.7a.83.83,0,0,1,.48.68.66.66,0,0,1-.37.57l-6.77,3.91A1.63,1.63,0,0,1,110.59,237.68Zm3.52-6.89a1.27,1.27,0,0,0-.58.13l-6.78,3.92a.28.28,0,0,0-.17.22c0,.11.11.23.29.34l2.93,1.69a1.58,1.58,0,0,0,1.37.07l6.77-3.92a.28.28,0,0,0,.18-.22c0-.11-.11-.23-.29-.34L114.89,231A1.59,1.59,0,0,0,114.11,230.79Z"/><path class="cls-2" d="M118.12,242.08a2,2,0,0,1-1-.24l-2.94-1.7a.82.82,0,0,1-.48-.68.66.66,0,0,1,.37-.57l6.78-3.91a1.93,1.93,0,0,1,1.76.07l2.93,1.69a.85.85,0,0,1,.49.69.68.68,0,0,1-.37.56l-6.78,3.91A1.61,1.61,0,0,1,118.12,242.08Zm3.52-6.88a1.16,1.16,0,0,0-.58.13l-6.77,3.91c-.07,0-.18.11-.18.22s.11.23.29.34l2.94,1.69a1.53,1.53,0,0,0,1.36.07l6.78-3.92c.06,0,.17-.11.17-.21s-.11-.24-.28-.34l-2.94-1.7A1.62,1.62,0,0,0,121.64,235.2Z"/><path class="cls-2" d="M125.65,246.49a2,2,0,0,1-1-.25l-2.94-1.7a.83.83,0,0,1-.48-.68.63.63,0,0,1,.37-.56l6.78-3.92a2,2,0,0,1,1.76.07l2.94,1.69a.86.86,0,0,1,.48.69.66.66,0,0,1-.37.56l-6.78,3.91A1.5,1.5,0,0,1,125.65,246.49Zm3.52-6.89a1.12,1.12,0,0,0-.57.13l-6.78,3.91c-.07,0-.17.11-.17.22s.1.24.28.34l2.94,1.69a1.5,1.5,0,0,0,1.36.07l6.78-3.91c.06,0,.17-.12.17-.22s-.1-.24-.28-.34l-2.94-1.7A1.59,1.59,0,0,0,129.17,239.6Z"/><path class="cls-2" d="M133.18,250.89a2.07,2.07,0,0,1-1-.25l-2.93-1.7a.82.82,0,0,1-.49-.68.68.68,0,0,1,.37-.56l6.78-3.92a2,2,0,0,1,1.76.07l2.94,1.7a.81.81,0,0,1,.48.68.66.66,0,0,1-.37.56L134,250.7A1.5,1.5,0,0,1,133.18,250.89Zm3.53-6.89a1.16,1.16,0,0,0-.58.13L129.35,248c-.06,0-.17.12-.17.22s.11.24.28.34l2.94,1.7a1.55,1.55,0,0,0,1.37.06l6.77-3.91c.07,0,.17-.12.17-.22s-.1-.24-.28-.34l-2.94-1.7A1.58,1.58,0,0,0,136.71,244Z"/><path class="cls-2" d="M74.11,228.88a2,2,0,0,1-1-.25l-2.94-1.69a.86.86,0,0,1-.48-.69.66.66,0,0,1,.37-.56l6.78-3.91a1.93,1.93,0,0,1,1.76.06l2.94,1.7a.84.84,0,0,1,.48.68.63.63,0,0,1-.37.56l-6.78,3.92A1.61,1.61,0,0,1,74.11,228.88ZM77.64,222a1.16,1.16,0,0,0-.58.13L70.28,226c-.06,0-.17.12-.17.22s.11.24.28.34l2.94,1.7a1.53,1.53,0,0,0,1.36.06l6.78-3.91c.07,0,.17-.11.17-.22s-.1-.24-.28-.34l-2.94-1.69A1.59,1.59,0,0,0,77.64,222Z"/><path class="cls-2" d="M81.65,233.28a1.93,1.93,0,0,1-1-.25l-2.94-1.69a.83.83,0,0,1-.48-.68.66.66,0,0,1,.37-.57l6.77-3.91a1.93,1.93,0,0,1,1.76.06l2.94,1.7a.83.83,0,0,1,.48.68.66.66,0,0,1-.37.57l-6.77,3.91A1.63,1.63,0,0,1,81.65,233.28Zm3.52-6.89a1.27,1.27,0,0,0-.58.13l-6.78,3.92a.28.28,0,0,0-.17.22c0,.11.11.23.29.33l2.93,1.7a1.58,1.58,0,0,0,1.37.07L89,228.84a.28.28,0,0,0,.17-.22c0-.11-.11-.23-.29-.34L86,226.59A1.66,1.66,0,0,0,85.17,226.39Z"/><path class="cls-2" d="M89.18,237.68a2,2,0,0,1-1-.24l-2.94-1.7a.83.83,0,0,1-.48-.68.66.66,0,0,1,.37-.57l6.78-3.91a1.93,1.93,0,0,1,1.76.06l2.93,1.7a.85.85,0,0,1,.49.68.68.68,0,0,1-.37.57L90,237.5A1.61,1.61,0,0,1,89.18,237.68Zm3.52-6.89a1.27,1.27,0,0,0-.58.13l-6.77,3.92a.27.27,0,0,0-.17.22c0,.11.1.23.28.34l2.94,1.69a1.56,1.56,0,0,0,1.36.07l6.78-3.92a.28.28,0,0,0,.17-.22c0-.11-.11-.23-.28-.34L93.49,231A1.63,1.63,0,0,0,92.7,230.79Z"/><path class="cls-2" d="M96.71,242.08a2.06,2.06,0,0,1-1-.24l-2.94-1.7a.84.84,0,0,1-.48-.68.66.66,0,0,1,.37-.57L99.46,235a1.93,1.93,0,0,1,1.76.07l2.94,1.69a.86.86,0,0,1,.48.69.66.66,0,0,1-.37.56l-6.78,3.91A1.61,1.61,0,0,1,96.71,242.08Zm3.52-6.88a1.14,1.14,0,0,0-.57.13l-6.78,3.91c-.06,0-.17.11-.17.22s.1.23.28.34l2.94,1.69a1.53,1.53,0,0,0,1.36.07l6.78-3.92c.06,0,.17-.11.17-.21s-.1-.24-.28-.34l-2.94-1.7A1.59,1.59,0,0,0,100.23,235.2Z"/><path class="cls-2" d="M104.25,246.49a2.08,2.08,0,0,1-1-.25l-2.93-1.7a.82.82,0,0,1-.49-.68.65.65,0,0,1,.37-.56l6.78-3.92a2,2,0,0,1,1.76.07l2.94,1.69a.83.83,0,0,1,.48.69.66.66,0,0,1-.37.56L105,246.3A1.49,1.49,0,0,1,104.25,246.49Zm3.52-6.89a1.16,1.16,0,0,0-.58.13l-6.78,3.91c-.06,0-.17.11-.17.22s.11.24.28.34l2.94,1.69a1.52,1.52,0,0,0,1.37.07l6.77-3.91c.07,0,.17-.12.17-.22s-.1-.24-.28-.34l-2.94-1.7A1.58,1.58,0,0,0,107.77,239.6Z"/><path class="cls-2" d="M111.78,250.89a2,2,0,0,1-1-.25l-2.94-1.7a.81.81,0,0,1-.48-.68.66.66,0,0,1,.37-.56l6.77-3.92a2,2,0,0,1,1.77.07l2.93,1.7a.81.81,0,0,1,.48.68.67.67,0,0,1-.36.56l-6.78,3.91A1.5,1.5,0,0,1,111.78,250.89ZM115.3,244a1.16,1.16,0,0,0-.58.13L107.94,248c-.06,0-.17.12-.17.22s.11.24.29.34l2.94,1.7a1.52,1.52,0,0,0,1.36.06l6.78-3.91c.06,0,.17-.12.17-.22s-.11-.24-.29-.34l-2.93-1.7A1.65,1.65,0,0,0,115.3,244Z"/><path class="cls-2" d="M119.31,255.29a1.93,1.93,0,0,1-1-.25l-2.94-1.69a.86.86,0,0,1-.48-.69.66.66,0,0,1,.37-.56l6.78-3.91a1.93,1.93,0,0,1,1.76.06l2.94,1.7a.83.83,0,0,1,.48.68.63.63,0,0,1-.37.56l-6.78,3.92A1.61,1.61,0,0,1,119.31,255.29Zm3.52-6.89a1.12,1.12,0,0,0-.57.13l-6.78,3.91c-.07,0-.17.12-.17.22s.1.24.28.34l2.94,1.7a1.52,1.52,0,0,0,1.36.06l6.78-3.91c.06,0,.17-.12.17-.22s-.11-.24-.28-.34l-2.94-1.69A1.6,1.6,0,0,0,122.83,248.4Z"/><path class="cls-11" d="M283.38,145.65l-40.85-23.59c-2.49-1.44-2.18-4,.69-5.61h0c2.88-1.66,7.23-1.84,9.72-.4l40.86,23.59c2.49,1.43,2.18,3.94-.7,5.61h0C290.22,146.91,285.87,147.09,283.38,145.65Z"/><path class="cls-10" d="M283.38,171.32l-40.85-23.59c-2.49-1.44-2.18-3.95.69-5.61h0c2.88-1.66,7.23-1.84,9.72-.4l40.86,23.59c2.49,1.44,2.18,3.95-.7,5.61h0C290.22,172.58,285.87,172.76,283.38,171.32Z"/><path class="cls-10" d="M218.74,176.29l-47.6-27.48c-2.49-1.44-2.18-3.95.69-5.61h0c2.88-1.66,7.23-1.84,9.72-.41l47.61,27.49c2.49,1.44,2.18,3.95-.7,5.61h0C225.59,177.55,221.24,177.73,218.74,176.29Z"/><path class="cls-10" d="M230.42,207.37l-10.22-5.91c-2.49-1.43-2.18-4,.7-5.61h0c2.87-1.66,7.22-1.84,9.71-.4l10.23,5.91c2.49,1.43,2.18,3.95-.7,5.61h0C237.27,208.63,232.91,208.81,230.42,207.37Z"/><path class="cls-10" d="M148.82,179.23l-10.23-5.91c-2.49-1.44-2.17-3.95.7-5.61h0c2.88-1.66,7.23-1.84,9.72-.4l10.23,5.9c2.49,1.44,2.17,3.95-.7,5.61h0C155.66,180.48,151.31,180.66,148.82,179.23Z"/><path class="cls-2" d="M258,99.92a8.89,8.89,0,0,1-4.32-1L223.94,81.76a3.08,3.08,0,0,1-1.78-2.61c0-1.21.9-2.43,2.47-3.34,2.93-1.69,7.38-1.87,9.92-.4l29.73,17.16a3.1,3.1,0,0,1,1.78,2.61c0,1.21-.91,2.43-2.48,3.34A11.54,11.54,0,0,1,258,99.92ZM230.23,74.8a11.15,11.15,0,0,0-5.4,1.35c-1.45.84-2.28,1.93-2.28,3a2.71,2.71,0,0,0,1.58,2.27l29.73,17.16c2.43,1.41,6.7,1.23,9.52-.4,1.45-.84,2.28-1.93,2.28-3a2.72,2.72,0,0,0-1.58-2.27L234.35,75.75A8.34,8.34,0,0,0,230.23,74.8Z"/><path class="cls-2" d="M223,166.48a8.85,8.85,0,0,1-4.31-1L171,138a3.08,3.08,0,0,1-1.78-2.61c0-1.21.9-2.43,2.48-3.34,2.92-1.69,7.37-1.87,9.91-.4l47.61,27.48a3.1,3.1,0,0,1,1.78,2.61c0,1.22-.9,2.44-2.48,3.35A11.54,11.54,0,0,1,223,166.48ZM177.33,131a11.15,11.15,0,0,0-5.4,1.35c-1.45.84-2.28,1.93-2.28,3a2.72,2.72,0,0,0,1.59,2.27l47.6,27.48c2.44,1.41,6.7,1.23,9.52-.4,1.45-.83,2.28-1.93,2.28-3a2.7,2.7,0,0,0-1.58-2.26L181.45,132A8.34,8.34,0,0,0,177.33,131Z"/><path class="cls-2" d="M287.6,146.81a8.78,8.78,0,0,1-4.32-1l-40.85-23.59a3.08,3.08,0,0,1-1.78-2.61c0-1.21.9-2.43,2.47-3.34,2.93-1.69,7.38-1.87,9.92-.41l40.86,23.59a3.1,3.1,0,0,1,1.78,2.61c0,1.22-.91,2.44-2.48,3.35A11.54,11.54,0,0,1,287.6,146.81Zm-38.88-31.54a11.15,11.15,0,0,0-5.4,1.35c-1.45.84-2.28,1.93-2.28,3a2.74,2.74,0,0,0,1.59,2.27l40.85,23.59c2.43,1.4,6.7,1.22,9.52-.41,1.45-.83,2.28-1.93,2.28-3a2.71,2.71,0,0,0-1.58-2.26l-40.86-23.59A8.34,8.34,0,0,0,248.72,115.27Z"/><path class="cls-12" d="M271.43,168.67a8.76,8.76,0,0,1-4.32-1L243,153.77a3.08,3.08,0,0,1-1.78-2.6c0-1.22.9-2.44,2.48-3.35,2.93-1.69,7.37-1.87,9.91-.4l24.09,13.91a3.07,3.07,0,0,1,1.78,2.6c0,1.22-.9,2.44-2.48,3.35A11.47,11.47,0,0,1,271.43,168.67Zm-4.12-1.33c2.43,1.4,6.7,1.22,9.52-.41,1.45-.83,2.28-1.93,2.28-3a2.72,2.72,0,0,0-1.59-2.26l-24.08-13.91c-2.44-1.4-6.71-1.22-9.52.4-1.45.84-2.28,1.94-2.28,3a2.71,2.71,0,0,0,1.58,2.26Z"/><path class="cls-10" d="M267.21,185.45l-24.09-13.9c-2.49-1.44-2.18-4,.7-5.61h0c2.87-1.66,7.22-1.84,9.72-.41l24.08,13.91c2.49,1.44,2.18,3.95-.69,5.61h0C274.05,186.71,269.7,186.89,267.21,185.45Z"/><path class="cls-13" d="M234.64,202.5a8.83,8.83,0,0,1-4.31-1L220.1,195.6a3.08,3.08,0,0,1-1.78-2.61c0-1.22.9-2.43,2.48-3.34,2.92-1.69,7.37-1.87,9.91-.41l10.23,5.91a3.08,3.08,0,0,1,1.78,2.61c0,1.21-.9,2.43-2.48,3.34A11.54,11.54,0,0,1,234.64,202.5Zm-4.12-1.34c2.43,1.4,6.71,1.22,9.52-.4,1.45-.84,2.28-1.93,2.28-3a2.72,2.72,0,0,0-1.58-2.27l-10.23-5.9c-2.43-1.4-6.7-1.23-9.52.4-1.44.84-2.28,1.93-2.28,3a2.74,2.74,0,0,0,1.59,2.27Z"/><path class="cls-12" d="M153,177.46a8.78,8.78,0,0,1-4.32-1l-10.22-5.9a3.1,3.1,0,0,1-1.79-2.61c0-1.21.91-2.43,2.48-3.34,2.93-1.69,7.38-1.87,9.92-.41l10.22,5.91a3.1,3.1,0,0,1,1.79,2.61c0,1.21-.91,2.43-2.48,3.34A11.54,11.54,0,0,1,153,177.46Zm-8.25-13.86a11.09,11.09,0,0,0-5.4,1.35c-1.45.84-2.28,1.93-2.28,3a2.72,2.72,0,0,0,1.58,2.27l10.23,5.9c2.43,1.4,6.7,1.23,9.52-.4,1.45-.84,2.28-1.93,2.28-3a2.72,2.72,0,0,0-1.58-2.27l-10.23-5.9A8.34,8.34,0,0,0,144.79,163.6Z"/><path class="cls-14" d="M296.28,141.26V83.47h-55v35.91h0a3.12,3.12,0,0,0,1.83,2.76l40,23.08c2.72,1.57,7.48,1.37,10.62-.44h0c1.72-1,2.59-2.26,2.6-3.46h0Z"/><path class="cls-11" d="M230.42,201.33l-10.22-5.9c-2.49-1.44-2.18-4,.7-5.61h0c2.87-1.66,7.22-1.84,9.71-.4l10.23,5.9c2.49,1.44,2.18,4-.7,5.61h0C237.27,202.59,232.91,202.77,230.42,201.33Z"/><path class="cls-15" d="M267.21,167.51,243.12,153.6c-2.49-1.44-2.18-3.95.7-5.61h0c2.87-1.66,7.22-1.84,9.72-.4l24.08,13.91c2.49,1.44,2.18,3.95-.69,5.61h0C274.05,168.77,269.7,169,267.21,167.51Z"/><path class="cls-10" d="M168.86,237l-61.48-35.5c-4.18-2.42-3.66-6.64,1.18-9.43h0c4.83-2.79,12.14-3.1,16.33-.68l61.48,35.5c4.19,2.42,3.67,6.64-1.17,9.43h0C180.37,239.15,173.05,239.45,168.86,237Z"/><path class="cls-11" d="M168.86,232.64l-61.48-35.5c-4.18-2.42-3.66-6.64,1.18-9.43h0c4.83-2.79,12.14-3.1,16.33-.68l61.48,35.5c4.19,2.41,3.67,6.64-1.17,9.43h0C180.37,234.75,173.05,235.05,168.86,232.64Z"/><path class="cls-2" d="M176,234.46a14.64,14.64,0,0,1-7.19-1.65l-61.49-35.5c-1.88-1.09-2.92-2.6-2.92-4.27,0-2,1.49-4,4.1-5.5,4.88-2.82,12.3-3.13,16.53-.68l61.48,35.49c1.89,1.09,2.93,2.61,2.93,4.27,0,2-1.5,4-4.1,5.51A19.2,19.2,0,0,1,176,234.46Zm-7-2c4.13,2.38,11.37,2.08,16.14-.67,2.48-1.44,3.9-3.32,3.9-5.17,0-1.51-1-2.91-2.73-3.92l-61.48-35.5c-4.12-2.38-11.36-2.08-16.14.68-2.47,1.43-3.9,3.31-3.9,5.16,0,1.52,1,2.91,2.73,3.93Z"/><path class="cls-16" d="M180.05,229.3a5.74,5.74,0,0,1-5.2,0c-1.44-.83-1.44-2.17,0-3a5.74,5.74,0,0,1,5.2,0C181.48,227.13,181.48,228.47,180.05,229.3Z"/><path class="cls-2" d="M177.45,230.06a5.41,5.41,0,0,1-2.67-.64,1.72,1.72,0,0,1,0-3.24,5.91,5.91,0,0,1,5.34,0,1.72,1.72,0,0,1,0,3.24h0A5.44,5.44,0,0,1,177.45,230.06Zm0-4.24a5.2,5.2,0,0,0-2.53.6,1.71,1.71,0,0,0-1,1.38,1.69,1.69,0,0,0,1,1.38,5.57,5.57,0,0,0,5.06,0h0a1.45,1.45,0,0,0,0-2.76A5.23,5.23,0,0,0,177.45,225.82Z"/><path class="cls-16" d="M171.41,224.27a5.74,5.74,0,0,1-5.2,0c-1.43-.83-1.43-2.17,0-3a5.74,5.74,0,0,1,5.2,0C172.85,222.1,172.85,223.44,171.41,224.27Z"/><path class="cls-2" d="M168.81,223.38a5.44,5.44,0,0,1-2.67-.64,1.72,1.72,0,0,1,0-3.24,5.91,5.91,0,0,1,5.34,0,1.72,1.72,0,0,1,0,3.24h0A5.41,5.41,0,0,1,168.81,223.38Zm0-4.24a5.23,5.23,0,0,0-2.53.6,1.71,1.71,0,0,0-1,1.38,1.69,1.69,0,0,0,1,1.38,5.57,5.57,0,0,0,5.06,0h0a1.69,1.69,0,0,0,1-1.38,1.71,1.71,0,0,0-1-1.38A5.2,5.2,0,0,0,168.81,219.14Z"/><path class="cls-2" d="M146.34,205.19a5.41,5.41,0,0,1-2.67-.64,1.72,1.72,0,0,1,0-3.24,5.91,5.91,0,0,1,5.34,0,1.72,1.72,0,0,1,0,3.24A5.41,5.41,0,0,1,146.34,205.19Zm0-4.24a5.2,5.2,0,0,0-2.53.6,1.45,1.45,0,0,0,0,2.76,5.57,5.57,0,0,0,5.06,0,1.69,1.69,0,0,0,1-1.38,1.71,1.71,0,0,0-1-1.38A5.2,5.2,0,0,0,146.34,201Z"/><path class="cls-16" d="M148.94,211.72a5.8,5.8,0,0,1-5.2,0c-1.43-.83-1.43-2.18,0-3a5.8,5.8,0,0,1,5.2,0C150.37,209.54,150.37,210.89,148.94,211.72Z"/><path class="cls-2" d="M137.7,195.89a5.37,5.37,0,0,1-2.66-.64,1.72,1.72,0,0,1,0-3.24,5.89,5.89,0,0,1,5.33,0,1.72,1.72,0,0,1,0,3.24h0A5.38,5.38,0,0,1,137.7,195.89Zm0-4.24a5.23,5.23,0,0,0-2.53.6,1.7,1.7,0,0,0-1,1.38,1.67,1.67,0,0,0,1,1.38,5.57,5.57,0,0,0,5.06,0h0a1.69,1.69,0,0,0,1-1.38,1.71,1.71,0,0,0-1-1.38A5.17,5.17,0,0,0,137.7,191.65Z"/><path class="cls-16" d="M140.3,207.1a5.74,5.74,0,0,1-5.2,0c-1.43-.83-1.43-2.18,0-3a5.74,5.74,0,0,1,5.2,0C141.74,204.92,141.74,206.27,140.3,207.1Z"/><path class="cls-2" d="M129.07,184.58a5.49,5.49,0,0,1-2.67-.64,1.72,1.72,0,0,1,0-3.24,5.91,5.91,0,0,1,5.34,0,1.72,1.72,0,0,1,0,3.24h0A5.55,5.55,0,0,1,129.07,184.58Zm0-4.25a5.18,5.18,0,0,0-2.53.61,1.69,1.69,0,0,0-1,1.38,1.71,1.71,0,0,0,1,1.38,5.57,5.57,0,0,0,5.06,0h0a1.7,1.7,0,0,0,1-1.38,1.67,1.67,0,0,0-1-1.38A5.23,5.23,0,0,0,129.07,180.33Z"/><path class="cls-16" d="M131.52,202.31a5.74,5.74,0,0,1-5.2,0c-1.44-.83-1.44-2.17,0-3a5.72,5.72,0,0,1,5.19,0C133,200.14,133,201.48,131.52,202.31Z"/><path class="cls-16" d="M156.28,212.82l7.52,4.34c1.24.72,1.09,2-.35,2.8h0a5.38,5.38,0,0,1-4.85.2l-7.52-4.34c-1.24-.71-1.09-2,.35-2.8h0A5.38,5.38,0,0,1,156.28,212.82Z"/><path class="cls-2" d="M160.71,217.28a4.39,4.39,0,0,1-2.18-.5L151,212.44a1.59,1.59,0,0,1-.91-1.34,2.13,2.13,0,0,1,1.26-1.7,5.55,5.55,0,0,1,5-.2l7.52,4.34a1.59,1.59,0,0,1,.91,1.34,2.13,2.13,0,0,1-1.26,1.7A5.8,5.8,0,0,1,160.71,217.28ZM154.17,209a5.51,5.51,0,0,0-2.67.67,1.88,1.88,0,0,0-1.12,1.46,1.32,1.32,0,0,0,.77,1.1l7.52,4.34a5.21,5.21,0,0,0,4.71-.2,1.88,1.88,0,0,0,1.12-1.46,1.32,1.32,0,0,0-.77-1.1l-7.52-4.34A4.18,4.18,0,0,0,154.17,209Z"/><circle class="cls-17" cx="102.2" cy="121.94" r="44.68"/><circle class="cls-2" cx="102.2" cy="121.94" r="13.5"/><path class="cls-18" d="M215.55,321c-11.86,0-25-4-38.6-11.82a146.2,146.2,0,0,1-32.19-25.78,1,1,0,1,1,1.44-1.38A144.56,144.56,0,0,0,178,307.48c22.47,13,43.54,15.1,59.33,6s24.49-28.43,24.49-54.37c0-54-38-119.9-84.82-146.91-27.36-15.79-53-15.24-68.67,1.48a1,1,0,1,1-1.46-1.37c16.31-17.44,42.91-18.13,71.13-1.84,47.32,27.32,85.82,94,85.82,148.64,0,26.69-9.06,46.61-25.49,56.1A44.89,44.89,0,0,1,215.55,321Z"/><path class="cls-10" d="M86.47,189.62l9.61,5.55c1.17.68,1,1.86-.33,2.64h0a5.09,5.09,0,0,1-4.58.19l-9.61-5.54c-1.17-.68-1-1.87.33-2.65h0A5.09,5.09,0,0,1,86.47,189.62Z"/><path class="cls-2" d="M86.47,186.18l9.61,5.54c1.17.68,1,1.87-.33,2.65h0a5.09,5.09,0,0,1-4.58.19L81.56,189c-1.17-.68-1-1.86.33-2.64h0A5.09,5.09,0,0,1,86.47,186.18Z"/><path class="cls-2" d="M358.51,326.2a8.77,8.77,0,0,1-4.28-1l-19.78-11.42a2.73,2.73,0,0,1,0-5.15l19.78-11.42a9.45,9.45,0,0,1,8.57,0l19.78,11.42a2.73,2.73,0,0,1,0,5.15L362.8,325.18A8.78,8.78,0,0,1,358.51,326.2Zm-4.11-1.32a9.11,9.11,0,0,0,8.23,0l19.78-11.42a2.39,2.39,0,0,0,0-4.55l-19.78-11.42a9.11,9.11,0,0,0-8.23,0l-19.78,11.42a2.39,2.39,0,0,0,0,4.55Z"/><path class="cls-2" d="M295.87,338.54a7.57,7.57,0,0,1-3.73-.89l-19.78-11.42a2.39,2.39,0,0,1,0-4.5l19.78-11.42a8.22,8.22,0,0,1,7.45,0l19.79,11.42a2.39,2.39,0,0,1,0,4.5L299.6,337.65A7.57,7.57,0,0,1,295.87,338.54Zm-3.56-1.19a7.82,7.82,0,0,0,7.11,0l19.78-11.42a2,2,0,0,0,0-3.9l-19.78-11.42a7.82,7.82,0,0,0-7.11,0L272.53,322a2,2,0,0,0,0,3.9Z"/><path class="cls-19" d="M321.59,319.6v-6.78l-1.24-.69c-.35,2.12-2.84,3.51-4.93,3.8l-14.17,8.29-6.18,2.23-19.75-10.18.46-.27c-1.69-.79-2.6-2.59-3.51-4.23l-1.33.79-.79.22v6.89h0a2.94,2.94,0,0,0,1.74,2.42l19.78,11.42a9.28,9.28,0,0,0,8.4,0l19.78-11.42a2.92,2.92,0,0,0,1.73-2.38.4.4,0,0,0,0-.11Z"/><path class="cls-20" d="M321.59,313.58v-4.49l-1.24-.69c-.35,2.12-2.84,3.51-4.93,3.8l-14.17,8.29-6.18,2.24-19.75-10.19.46-.27c-1.69-.79-2.6-2.59-3.51-4.23l-1.33.79-.79.22v4.6h0a2.94,2.94,0,0,0,1.74,2.42l19.78,11.42a9.28,9.28,0,0,0,8.4,0l19.78-11.42a3,3,0,0,0,1.73-2.38.48.48,0,0,0,0-.12Z"/><path class="cls-3" d="M315.42,312.2l-14.17,8.29-5.38,1.95v6.06a8.58,8.58,0,0,0,4.2-1l19.78-11.42a3,3,0,0,0,1.73-2.38.48.48,0,0,0,0-.12h0v-4.49l-1.14-.63h-.12C320,310.55,317.49,311.92,315.42,312.2Z"/><path class="cls-21" d="M275.78,312.27l18.74-10.82a3,3,0,0,1,2.69,0l18.42,10.63-.21.12c2.09-.29,4.58-1.68,4.93-3.8l-20.67-11.49-6-1.59-4.89,2.88L272.27,308C273.18,309.68,274.09,311.48,275.78,312.27Z"/><path class="cls-22" d="M295.87,295.9l-2.21-.58-4.89,2.88L272.27,308c.91,1.64,1.82,3.44,3.51,4.23l18.74-10.82a2.81,2.81,0,0,1,1.35-.32Z"/><path class="cls-23" d="M291.67,322.94l-19.78-11.42c-2.32-1.34-2.32-3.51,0-4.85l19.78-11.42a9.28,9.28,0,0,1,8.4,0l19.78,11.42c2.31,1.34,2.31,3.51,0,4.85l-19.78,11.42A9.28,9.28,0,0,1,291.67,322.94Zm5.54-26a3,3,0,0,0-2.69,0l-19.78,11.42a.82.82,0,0,0,0,1.55l19.78,11.42a3,3,0,0,0,2.69,0L317,309.87a.82.82,0,0,0,0-1.55Z"/><path class="cls-24" d="M317,308.32,297.21,296.9a3,3,0,0,0-2.69,0l-19.78,11.42c-.49.28-.66.69-.49,1.05a1.1,1.1,0,0,1,.49-.49l19.78-11.42a3,3,0,0,1,2.69,0L317,308.88a1.1,1.1,0,0,1,.49.49C317.65,309,317.49,308.6,317,308.32Z"/><path class="cls-24" d="M319.85,311.52l-19.78,11.42a9.28,9.28,0,0,1-8.4,0l-19.78-11.42a3.11,3.11,0,0,1-1.72-2.15,2.81,2.81,0,0,0,1.72,2.71l19.78,11.42a9.34,9.34,0,0,0,8.4,0l19.78-11.42a2.8,2.8,0,0,0,1.71-2.71A3.12,3.12,0,0,1,319.85,311.52Z"/><path class="cls-25" d="M292.23,322.62,272.45,311.2c-2-1.16-2-3.05,0-4.21l19.78-11.42a8,8,0,0,1,7.28,0L319.29,307c2,1.16,2,3.05,0,4.21l-19.78,11.42A8,8,0,0,1,292.23,322.62Zm5.54-26.05a4.26,4.26,0,0,0-3.81,0L274.18,308a1.16,1.16,0,0,0,0,2.2L294,321.61a4.19,4.19,0,0,0,3.81,0l19.78-11.42a1.16,1.16,0,0,0,0-2.19Z"/><path class="cls-11" d="M297.21,296.9a3,3,0,0,0-2.69,0l-19.78,11.42a.82.82,0,0,0,0,1.55l19.78,11.42a3,3,0,0,0,2.69,0L317,309.87a.82.82,0,0,0,0-1.55Z"/><path class="cls-26" d="M317.55,309.08V238.53H274.19v70.55a.92.92,0,0,0,.55.79l19.78,11.42a3,3,0,0,0,2.69,0L317,309.87A1,1,0,0,0,317.55,309.08Z"/><path class="cls-2" d="M201.81,368.48a13.51,13.51,0,0,1-5.77-1.17L95.69,317.74c-1.58-.78-2.45-1.83-2.45-2.95s.87-2.18,2.45-3l21.16-10.43.22.32L95.91,312.16c-1.44.71-2.23,1.64-2.23,2.63s.79,1.92,2.23,2.63L196.26,367a14.14,14.14,0,0,0,11.09,0l73.45-36.14.22.33-73.45,36.14A13.47,13.47,0,0,1,201.81,368.48Z"/><path class="cls-27" d="M353.67,291.78a8.92,8.92,0,0,1-4.38-1l-19.78-11.42a2.9,2.9,0,0,1,0-5.45l19.78-11.42a9.64,9.64,0,0,1,8.75,0l19.78,11.42a2.89,2.89,0,0,1,0,5.45L358,290.73A8.89,8.89,0,0,1,353.67,291.78Zm-4-1.65a8.92,8.92,0,0,0,8.05,0l19.79-11.42a2.23,2.23,0,0,0,0-4.25L357.69,263a8.92,8.92,0,0,0-8.05,0l-19.78,11.42a2.23,2.23,0,0,0,0,4.25Z"/><path class="cls-2" d="M33.27,204.7a8.67,8.67,0,0,1-4.29-1L9.2,192.25a2.73,2.73,0,0,1,0-5.15L29,175.68a9.51,9.51,0,0,1,8.57,0L57.33,187.1a2.73,2.73,0,0,1,0,5.15L37.55,203.67A8.66,8.66,0,0,1,33.27,204.7Zm-4.12-1.33a9.11,9.11,0,0,0,8.23,0L57.16,192a2.39,2.39,0,0,0,0-4.55L37.38,176a9.11,9.11,0,0,0-8.23,0L9.37,187.4a2.39,2.39,0,0,0,0,4.55Z"/><path class="cls-27" d="M28.42,170.27a9,9,0,0,1-4.37-1L4.27,157.81a2.91,2.91,0,0,1,0-5.46l19.78-11.42a9.7,9.7,0,0,1,8.75,0l19.78,11.42a2.91,2.91,0,0,1,0,5.46L32.8,169.23A9,9,0,0,1,28.42,170.27Zm-4-1.65a8.92,8.92,0,0,0,8.05,0L52.23,157.2a2.22,2.22,0,0,0,0-4.24L32.45,141.54a8.92,8.92,0,0,0-8.05,0L4.62,153a2.22,2.22,0,0,0,0,4.24Z"/></g></g></svg>