<svg xmlns="http://www.w3.org/2000/svg" xmlns:xlink="http://www.w3.org/1999/xlink" viewBox="0 0 387 323"><defs><style>.ss-1{fill:none;}.ss-2{isolation:isolate;}.ss-3,.ss-39{fill:#0dc9a8;}.ss-4{fill:#60749b;}.ss-5{fill:url(#linear-gradient);}.ss-6{fill:url(#linear-gradient-2);}.ss-7{fill:#313b4f;}.ss-23,.ss-8{opacity:0.2;}.ss-15,.ss-16,.ss-32,.ss-8,.ss-9{mix-blend-mode:lighten;}.ss-8{fill:url(#linear-gradient-3);}.ss-15,.ss-16,.ss-32,.ss-9{opacity:0.5;}.ss-10{fill:url(#linear-gradient-4);}.ss-11{fill:url(#linear-gradient-5);}.ss-12{fill:url(#linear-gradient-6);}.ss-13{fill:url(#linear-gradient-7);}.ss-14{fill:url(#linear-gradient-8);}.ss-15{fill:url(#linear-gradient-11);}.ss-16{fill:url(#linear-gradient-12);}.ss-17,.ss-19,.ss-21{opacity:0.4;}.ss-17{fill:url(#linear-gradient-13);}.ss-18{fill:url(#linear-gradient-14);}.ss-19{fill:url(#linear-gradient-15);}.ss-20{fill:url(#linear-gradient-16);}.ss-21{fill:url(#linear-gradient-17);}.ss-22{fill:url(#linear-gradient-18);}.ss-24{clip-path:url(#clip-path);}.ss-25{fill:#42e8e0;}.ss-26{fill:#2fd3c7;}.ss-27{fill:#fff;}.ss-28{fill:#18b2a3;opacity:0.7;}.ss-29{fill:url(#linear-gradient-19);}.ss-30{fill:#a7b2c4;}.ss-31{fill:#0ee0b8;}.ss-32{fill:url(#linear-gradient-20);}.ss-33{fill:#88a4db;}.ss-34{fill:url(#linear-gradient-21);}.ss-35{fill:url(#linear-gradient-22);}.ss-36{fill:url(#linear-gradient-23);}.ss-37{fill:url(#linear-gradient-24);}.ss-38{fill:url(#linear-gradient-25);}.ss-39{opacity:0.3;}.ss-40{fill:url(#linear-gradient-26);}.ss-41{fill:#202935;}</style><linearGradient id="linear-gradient" x1="58.16" y1="208.62" x2="348.45" y2="208.62" gradientUnits="userSpaceOnUse"><stop offset="0" stop-color="#60749b"/><stop offset="0.22" stop-color="#5d7096"/><stop offset="0.49" stop-color="#526488"/><stop offset="0.77" stop-color="#425170"/><stop offset="1" stop-color="#303c57"/></linearGradient><linearGradient id="linear-gradient-2" x1="58.17" y1="238.81" x2="348.44" y2="238.81" gradientUnits="userSpaceOnUse"><stop offset="0" stop-color="#f1f2f4"/><stop offset="1" stop-color="#eff8f6"/></linearGradient><linearGradient id="linear-gradient-3" x1="61.71" y1="206.32" x2="344.73" y2="206.32" gradientUnits="userSpaceOnUse"><stop offset="0" stop-color="#0dc9a8"/><stop offset="1" stop-color="#313b4f" stop-opacity="0"/></linearGradient><linearGradient id="linear-gradient-4" x1="67.72" y1="138.64" x2="257.43" y2="138.64" xlink:href="#linear-gradient-3"/><linearGradient id="linear-gradient-5" x1="81.45" y1="146.7" x2="271.24" y2="146.7" xlink:href="#linear-gradient-3"/><linearGradient id="linear-gradient-6" x1="210.56" y1="53.54" x2="224.82" y2="53.54" xlink:href="#linear-gradient-3"/><linearGradient id="linear-gradient-7" x1="150.91" y1="136.76" x2="165.32" y2="136.76" xlink:href="#linear-gradient-3"/><linearGradient id="linear-gradient-8" x1="107.79" y1="142.26" x2="122.8" y2="142.26" xlink:href="#linear-gradient-3"/><linearGradient id="linear-gradient-11" x1="1678.88" y1="90.46" x2="1583.06" y2="255.22" gradientTransform="matrix(-1, -0.01, -0.01, 1, 1794.81, 14.43)" xlink:href="#linear-gradient-3"/><linearGradient id="linear-gradient-12" x1="1659.91" y1="118.02" x2="1591.44" y2="218.61" gradientTransform="matrix(-1, -0.01, -0.01, 1, 1794.81, 14.43)" xlink:href="#linear-gradient-3"/><linearGradient id="linear-gradient-13" x1="123.56" y1="130.84" x2="130.88" y2="130.84" xlink:href="#linear-gradient-3"/><linearGradient id="linear-gradient-14" x1="125.63" y1="130.84" x2="128.81" y2="130.84" xlink:href="#linear-gradient-3"/><linearGradient id="linear-gradient-15" x1="179.67" y1="67.38" x2="186.99" y2="67.38" xlink:href="#linear-gradient-3"/><linearGradient id="linear-gradient-16" x1="181.74" y1="67.38" x2="184.92" y2="67.38" xlink:href="#linear-gradient-3"/><linearGradient id="linear-gradient-17" x1="74.99" y1="143.2" x2="82.32" y2="143.2" xlink:href="#linear-gradient-3"/><linearGradient id="linear-gradient-18" x1="77.07" y1="143.2" x2="80.24" y2="143.2" xlink:href="#linear-gradient-3"/><clipPath id="clip-path"><path class="ss-1" d="M159.17,283.78,68.92,231.66c-4-2.33-3.52-6.39,1.13-9.07L245.21,121.48c4.65-2.68,11.69-3,15.71-.65L351.17,173c4,2.33,3.52,6.39-1.13,9.07L174.88,283.13C170.23,285.81,163.19,286.1,159.17,283.78Z"/></clipPath><linearGradient id="linear-gradient-19" x1="284.87" y1="196.15" x2="302.83" y2="196.15" xlink:href="#linear-gradient-2"/><linearGradient id="linear-gradient-20" x1="293.79" y1="87.34" x2="344.27" y2="87.34" xlink:href="#linear-gradient-3"/><linearGradient id="linear-gradient-21" x1="119.74" y1="87.21" x2="151.82" y2="87.21" xlink:href="#linear-gradient-2"/><linearGradient id="linear-gradient-22" x1="119.74" y1="73.32" x2="151.82" y2="73.32" xlink:href="#linear-gradient-2"/><linearGradient id="linear-gradient-23" x1="104.64" y1="216.23" x2="140.56" y2="216.23" xlink:href="#linear-gradient-2"/><linearGradient id="linear-gradient-24" x1="284.87" y1="176.28" x2="302.83" y2="176.28" xlink:href="#linear-gradient-2"/><linearGradient id="linear-gradient-25" x1="284.87" y1="160.73" x2="320.79" y2="160.73" xlink:href="#linear-gradient-2"/><linearGradient id="linear-gradient-26" x1="252.5" y1="278.05" x2="303.94" y2="278.05" xlink:href="#linear-gradient-2"/></defs><title>infravieu</title><g class="ss-2"><g id="_ÎÓÈ_1" data-name="—ÎÓÈ_1"><path class="ss-3" d="M159.92,317.3a14.24,14.24,0,0,1-7-1.62L60.82,262.53A5,5,0,0,1,58,258.36c0-2,1.46-3.92,4-5.39L237.55,151.59c4.78-2.75,12-3.05,16.17-.66l92.06,53.16c1.85,1.06,2.87,2.54,2.87,4.17,0,2-1.46,3.92-4,5.39L169.06,315A18.75,18.75,0,0,1,159.92,317.3Zm86.77-167.59a18.33,18.33,0,0,0-8.94,2.23L62.17,253.31c-2.42,1.4-3.81,3.24-3.81,5.05A4.57,4.57,0,0,0,61,262.19l92.06,53.15c4,2.33,11.11,2,15.78-.66L344.44,213.31c2.42-1.4,3.81-3.24,3.81-5.05a4.59,4.59,0,0,0-2.66-3.83l-92.07-53.15A13.85,13.85,0,0,0,246.69,149.71Z"/><path class="ss-4" d="M348.45,183.71,335.22,186l-81.6-47.11c-4.09-2.37-11.24-2.07-16,.66L81.54,229.67l-23.38,4V242h0c0,1.51.89,3,2.75,4L153,299.17c4.09,2.36,11.24,2.06,16-.67L344.54,197.13c2.54-1.47,3.85-3.34,3.9-5.13h0Z"/><path class="ss-5" d="M153,290.82,60.92,237.67c-4.09-2.36-3.58-6.49,1.15-9.22L237.65,127.08c4.73-2.73,11.88-3,16-.67l92.06,53.16c4.1,2.36,3.58,6.49-1.14,9.22L169,290.16C164.23,292.89,157.08,293.18,153,290.82Z"/><path class="ss-6" d="M344.54,188.79,169,290.16c-4.73,2.73-11.88,3-16,.66L60.92,237.67a5,5,0,0,1-2.71-3.49c-.26,1.7.63,3.36,2.71,4.56L153,291.9c4.09,2.36,11.24,2.06,16-.67L344.54,189.86c2.83-1.63,4.14-3.77,3.86-5.73C348.16,185.77,346.86,187.45,344.54,188.79Z"/><path class="ss-7" d="M153.17,288.76,64.39,237.49c-4-2.29-3.47-6.28,1.11-8.92L237.82,129.1c4.57-2.64,11.49-2.93,15.45-.64l88.79,51.27c4,2.29,3.46,6.29-1.11,8.93L168.62,288.12C164.05,290.76,157.13,291.05,153.17,288.76Z"/><path class="ss-8" d="M153.17,286.47,64.39,235.2c-4-2.29-3.47-6.28,1.11-8.92l172.32-99.47c4.57-2.64,11.49-2.92,15.45-.64l88.79,51.27c4,2.29,3.46,6.29-1.11,8.93L168.62,285.83C164.05,288.47,157.13,288.76,153.17,286.47Z"/><g class="ss-9"><path class="ss-10" d="M67.92,228.57a.2.2,0,0,1-.18-.1.21.21,0,0,1,.08-.28c4-2.19,7.56-7.09,8.84-12.17L93,151c2-8,8.32-13.49,13-13.63,2.36-.07,4.12,1.29,4.91,3.81l4.62,14.63a4.74,4.74,0,0,0,2.72,3.17c1.57.63,3.59.32,5.68-.86l3.3-1.87c3.74-2.11,7.17-6.74,8.54-11.51,2.2-7.6,8.19-12.66,12.48-13a4.77,4.77,0,0,1,4.92,3l5.11,11.09a4.46,4.46,0,0,0,2.68,2.49,6.9,6.9,0,0,0,5.43-1l3.78-2.13c4-2.26,7.59-7.36,8.77-12.4l16.38-70.2c1.84-7.88,8.26-13.66,12.87-13.92a4.78,4.78,0,0,1,5,3.55l25,70.12a4.64,4.64,0,0,0,2.71,3c1.56.58,3.55.26,5.61-.9l10.7-6a.21.21,0,0,1,.28.08.2.2,0,0,1-.08.27l-10.7,6c-2.16,1.22-4.28,1.55-5.95.92a5,5,0,0,1-3-3.2L212.78,52.4a4.38,4.38,0,0,0-4.6-3.28c-4.47.25-10.7,5.9-12.49,13.61l-16.39,70.2c-1.22,5.23-4.82,10.31-9,12.66l-3.79,2.14a7.36,7.36,0,0,1-5.75,1,4.84,4.84,0,0,1-2.91-2.71l-5.11-11.09a4.33,4.33,0,0,0-4.53-2.73c-4.16.32-10,5.27-12.12,12.71-1.4,4.86-4.91,9.58-8.73,11.74l-3.3,1.87c-2.2,1.24-4.34,1.56-6,.89a5.12,5.12,0,0,1-2.95-3.43l-4.62-14.63c-.75-2.37-2.31-3.61-4.52-3.52-4.4.13-10.65,5.63-12.58,13.32l-16.35,65c-1.3,5.19-4.94,10.18-9,12.43Z"/><path class="ss-11" d="M81.66,236.63a.2.2,0,0,1-.18-.1.2.2,0,0,1,.08-.27c4-2.2,7.56-7.1,8.84-12.18l16.35-65c2-8,8.32-13.49,13-13.63,2.37-.06,4.12,1.29,4.91,3.81l4.62,14.64a4.74,4.74,0,0,0,2.72,3.17c1.57.61,3.59.31,5.68-.87l3.3-1.87c3.74-2.11,7.17-6.73,8.54-11.5,2.19-7.61,8.19-12.67,12.48-13a4.77,4.77,0,0,1,4.92,3L172,153.9a4.47,4.47,0,0,0,2.68,2.5,7,7,0,0,0,5.42-1l3.79-2.14c4-2.26,7.59-7.35,8.77-12.4L209,70.7c1.84-7.88,8.26-13.66,12.87-13.92a4.81,4.81,0,0,1,5,3.55l24.95,70.12a4.64,4.64,0,0,0,2.71,3c1.56.59,3.55.27,5.61-.89l10.77-6.08a.2.2,0,0,1,.27.08.19.19,0,0,1-.08.27l-10.77,6.08c-2.16,1.22-4.27,1.55-5.94.92a5,5,0,0,1-2.95-3.2L226.52,60.46a4.38,4.38,0,0,0-4.6-3.28c-4.47.25-10.7,5.91-12.49,13.61L193,141c-1.22,5.22-4.82,10.31-9,12.65l-3.78,2.14a7.32,7.32,0,0,1-5.75,1,4.81,4.81,0,0,1-2.91-2.71L166.52,143a4.34,4.34,0,0,0-4.53-2.72c-4.16.31-10,5.26-12.12,12.7-1.4,4.86-4.91,9.58-8.73,11.74l-3.3,1.87c-2.2,1.24-4.34,1.56-6,.89a5.1,5.1,0,0,1-2.95-3.42l-4.62-14.64c-.75-2.37-2.3-3.6-4.52-3.52-4.4.13-10.65,5.63-12.58,13.32l-16.35,65c-1.3,5.19-4.94,10.18-9,12.43A.15.15,0,0,1,81.66,236.63Z"/><path class="ss-12" d="M224.62,57.81a.17.17,0,0,1-.1,0l-13.86-8.13a.2.2,0,0,1-.07-.27.21.21,0,0,1,.28-.08l13.85,8.13a.2.2,0,0,1,.07.28A.21.21,0,0,1,224.62,57.81Z"/><path class="ss-13" d="M165.12,141.09a.19.19,0,0,1-.1,0l-14-8.25a.21.21,0,0,1-.08-.28.22.22,0,0,1,.28-.07l14,8.25a.22.22,0,0,1,.07.28A.22.22,0,0,1,165.12,141.09Z"/><path class="ss-14" d="M122.6,146.74a.19.19,0,0,1-.1,0l-14.61-8.56a.2.2,0,0,1-.07-.27.21.21,0,0,1,.28-.08l14.6,8.56a.21.21,0,0,1,.08.28A.22.22,0,0,1,122.6,146.74Z"/><path class="ss-10" d="M67.92,228.57a.2.2,0,0,1-.18-.1.21.21,0,0,1,.08-.28c4-2.19,7.56-7.09,8.84-12.17L93,151c2-8,8.32-13.49,13-13.63,2.36-.07,4.12,1.29,4.91,3.81l4.62,14.63a4.74,4.74,0,0,0,2.72,3.17c1.57.63,3.59.32,5.68-.86l3.3-1.87c3.74-2.11,7.17-6.74,8.54-11.51,2.2-7.6,8.19-12.66,12.48-13a4.77,4.77,0,0,1,4.92,3l5.11,11.09a4.46,4.46,0,0,0,2.68,2.49,6.9,6.9,0,0,0,5.43-1l3.78-2.13c4-2.26,7.59-7.36,8.77-12.4l16.38-70.2c1.84-7.88,8.26-13.66,12.87-13.92a4.78,4.78,0,0,1,5,3.55l25,70.12a4.64,4.64,0,0,0,2.71,3c1.56.58,3.55.26,5.61-.9l10.7-6a.21.21,0,0,1,.28.08.2.2,0,0,1-.08.27l-10.7,6c-2.16,1.22-4.28,1.55-5.95.92a5,5,0,0,1-3-3.2L212.78,52.4a4.38,4.38,0,0,0-4.6-3.28c-4.47.25-10.7,5.9-12.49,13.61l-16.39,70.2c-1.22,5.23-4.82,10.31-9,12.66l-3.79,2.14a7.36,7.36,0,0,1-5.75,1,4.84,4.84,0,0,1-2.91-2.71l-5.11-11.09a4.33,4.33,0,0,0-4.53-2.73c-4.16.32-10,5.27-12.12,12.71-1.4,4.86-4.91,9.58-8.73,11.74l-3.3,1.87c-2.2,1.24-4.34,1.56-6,.89a5.12,5.12,0,0,1-2.95-3.43l-4.62-14.63c-.75-2.37-2.31-3.61-4.52-3.52-4.4.13-10.65,5.63-12.58,13.32l-16.35,65c-1.3,5.19-4.94,10.18-9,12.43Z"/><path class="ss-11" d="M81.66,236.63a.2.2,0,0,1-.18-.1.2.2,0,0,1,.08-.27c4-2.2,7.56-7.1,8.84-12.18l16.35-65c2-8,8.32-13.49,13-13.63,2.37-.06,4.12,1.29,4.91,3.81l4.62,14.64a4.74,4.74,0,0,0,2.72,3.17c1.57.61,3.59.31,5.68-.87l3.3-1.87c3.74-2.11,7.17-6.73,8.54-11.5,2.19-7.61,8.19-12.67,12.48-13a4.77,4.77,0,0,1,4.92,3L172,153.9a4.47,4.47,0,0,0,2.68,2.5,7,7,0,0,0,5.42-1l3.79-2.14c4-2.26,7.59-7.35,8.77-12.4L209,70.7c1.84-7.88,8.26-13.66,12.87-13.92a4.81,4.81,0,0,1,5,3.55l24.95,70.12a4.64,4.64,0,0,0,2.71,3c1.56.59,3.55.27,5.61-.89l10.77-6.08a.2.2,0,0,1,.27.08.19.19,0,0,1-.08.27l-10.77,6.08c-2.16,1.22-4.27,1.55-5.94.92a5,5,0,0,1-2.95-3.2L226.52,60.46a4.38,4.38,0,0,0-4.6-3.28c-4.47.25-10.7,5.91-12.49,13.61L193,141c-1.22,5.22-4.82,10.31-9,12.65l-3.78,2.14a7.32,7.32,0,0,1-5.75,1,4.81,4.81,0,0,1-2.91-2.71L166.52,143a4.34,4.34,0,0,0-4.53-2.72c-4.16.31-10,5.26-12.12,12.7-1.4,4.86-4.91,9.58-8.73,11.74l-3.3,1.87c-2.2,1.24-4.34,1.56-6,.89a5.1,5.1,0,0,1-2.95-3.42l-4.62-14.64c-.75-2.37-2.3-3.6-4.52-3.52-4.4.13-10.65,5.63-12.58,13.32l-16.35,65c-1.3,5.19-4.94,10.18-9,12.43A.15.15,0,0,1,81.66,236.63Z"/><path class="ss-15" d="M257.55,118.4l-11,6.23c-3.91,2.21-7.36,1.34-8.61-2.17L213,52.33c-2.85-8-14.85-.9-17.48,10.36l-16.38,70.2c-1.2,5.13-4.81,10.22-8.87,12.52l-3.78,2.14c-3.68,2.08-7,1.44-8.39-1.62L153,134.84c-3.17-6.88-14-.52-17,10h0c-1.4,4.85-4.83,9.47-8.64,11.62l-3.3,1.87c-4,2.27-7.52,1.29-8.69-2.42l-4.62-14.63c-2.6-8.26-14.64-1.51-17.49,9.81l-16.34,65c-1.29,5.1-4.91,10.09-8.94,12.3Z"/><path class="ss-16" d="M271.17,126.34l-10.9,6.15c-3.91,2.21-7.36,1.34-8.61-2.17L226.71,60.19c-2.85-8-14.85-.89-17.48,10.36l-16.38,70.2c-1.2,5.13-4.81,10.22-8.87,12.52l-3.78,2.14c-3.68,2.08-7,1.44-8.39-1.62L166.7,142.7c-3.17-6.87-14-.51-17,10h0c-1.4,4.85-4.83,9.47-8.64,11.63l-3.3,1.86c-4,2.27-7.52,1.29-8.69-2.41l-4.62-14.64c-2.6-8.26-14.64-1.51-17.49,9.81l-16.34,65c-1.29,5.1-4.91,10.09-8.94,12.3Z"/><path class="ss-17" d="M123.56,130.81a3.66,3.66,0,1,0,3.69-3.63A3.65,3.65,0,0,0,123.56,130.81Z"/><path class="ss-18" d="M125.63,130.83a1.59,1.59,0,1,0,1.6-1.58A1.59,1.59,0,0,0,125.63,130.83Z"/><path class="ss-19" d="M179.67,67.35a3.66,3.66,0,1,0,3.69-3.63A3.66,3.66,0,0,0,179.67,67.35Z"/><path class="ss-20" d="M181.74,67.36a1.59,1.59,0,1,0,1.6-1.57A1.59,1.59,0,0,0,181.74,67.36Z"/><path class="ss-21" d="M75,143.17a3.67,3.67,0,1,0,3.7-3.63A3.67,3.67,0,0,0,75,143.17Z"/><path class="ss-22" d="M77.07,143.19a1.59,1.59,0,1,0,1.6-1.58A1.59,1.59,0,0,0,77.07,143.19Z"/></g><g class="ss-23"><g class="ss-24"><polygon class="ss-25" points="208.3 240.79 190.34 230.42 190.34 251.16 208.3 261.53 226.27 251.16 226.27 230.42 208.3 240.79"/><polygon class="ss-25" points="208.3 261.53 190.34 251.16 190.34 230.42 208.3 240.79 208.3 261.53"/><polygon class="ss-26" points="226.27 251.16 208.3 261.53 208.3 240.79 226.27 230.42 226.27 251.16"/><polygon class="ss-25" points="208.3 240.79 190.34 230.42 208.3 220.05 226.27 230.42 208.3 240.79"/><polygon class="ss-27" points="208.3 240.79 191.12 230.87 190.34 231.32 208.3 241.69 226.27 231.32 225.49 230.87 208.3 240.79"/><polygon class="ss-25" points="231.64 254.1 213.67 243.73 213.67 264.47 231.64 274.84 249.6 264.47 249.6 243.73 231.64 254.1"/><polygon class="ss-25" points="231.64 274.84 213.67 264.47 213.67 243.73 231.64 254.1 231.64 274.84"/><polygon class="ss-26" points="249.6 264.47 231.64 274.84 231.64 254.1 249.6 243.73 249.6 264.47"/><polygon class="ss-25" points="231.64 254.1 213.67 243.73 231.64 233.36 249.6 243.73 231.64 254.1"/><polygon class="ss-27" points="231.64 254.1 214.45 244.18 213.67 244.63 231.64 255 249.6 244.63 248.82 244.18 231.64 254.1"/><polygon class="ss-25" points="254.97 267.42 237.01 257.04 237.01 277.79 254.97 288.16 272.93 277.79 272.93 257.04 254.97 267.42"/><polygon class="ss-25" points="254.97 288.16 237.01 277.79 237.01 257.05 254.97 267.42 254.97 288.16"/><polygon class="ss-26" points="272.93 277.79 254.97 288.16 254.97 267.42 272.93 257.05 272.93 277.79"/><polygon class="ss-25" points="254.97 267.42 237.01 257.05 254.97 246.67 272.93 257.05 254.97 267.42"/><polygon class="ss-27" points="254.97 267.42 237.78 257.49 237.01 257.94 254.97 268.31 272.93 257.94 272.93 257.04 254.97 267.42"/><polygon class="ss-25" points="184.97 255 167.01 244.63 167.01 265.37 184.97 275.74 202.93 265.37 202.93 244.63 184.97 255"/><polygon class="ss-25" points="184.97 275.74 167.01 265.37 167.01 244.63 184.97 255 184.97 275.74"/><polygon class="ss-26" points="202.93 265.37 184.97 275.74 184.97 255 202.93 244.63 202.93 265.37"/><polygon class="ss-25" points="184.97 255 167.01 244.63 184.97 234.26 202.93 244.63 184.97 255"/><polygon class="ss-27" points="184.97 255 167.79 245.08 167.01 245.53 184.97 255.9 202.93 245.53 202.15 245.08 184.97 255"/><polygon class="ss-25" points="208.3 268.31 190.34 257.94 190.34 278.69 208.3 289.06 226.27 278.69 226.27 257.94 208.3 268.31"/><polygon class="ss-25" points="208.3 289.06 190.34 278.69 190.34 257.94 208.3 268.31 208.3 289.06"/><polygon class="ss-26" points="226.27 278.69 208.3 289.06 208.3 268.31 226.27 257.94 226.27 278.69"/><polygon class="ss-25" points="208.3 268.31 190.34 257.94 208.3 247.57 226.27 257.94 208.3 268.31"/><polygon class="ss-27" points="208.3 268.31 191.12 258.39 190.34 258.84 208.3 269.21 226.27 258.84 225.49 258.39 208.3 268.31"/><polygon class="ss-25" points="231.64 281.63 213.67 271.26 213.67 292 231.64 302.37 249.6 292 249.6 271.26 231.64 281.63"/><polygon class="ss-25" points="231.64 302.37 213.67 292 213.67 271.26 231.64 281.63 231.64 302.37"/><polygon class="ss-26" points="249.6 292 231.64 302.37 231.64 281.63 249.6 271.26 249.6 292"/><polygon class="ss-25" points="231.64 281.63 213.67 271.26 231.64 260.89 249.6 271.26 231.64 281.63"/><polygon class="ss-27" points="231.64 281.63 214.45 271.71 213.67 272.16 231.64 282.53 249.6 272.16 249.6 271.26 231.64 281.63"/><polygon class="ss-25" points="161.64 269.21 143.68 258.84 143.68 279.58 161.64 289.96 179.6 279.58 179.6 258.84 161.64 269.21"/><polygon class="ss-25" points="161.64 289.96 143.68 279.58 143.68 258.84 161.64 269.21 161.64 289.96"/><polygon class="ss-26" points="179.6 279.58 161.64 289.96 161.64 269.21 179.6 258.84 179.6 279.58"/><polygon class="ss-25" points="161.64 269.21 143.68 258.84 161.64 248.47 179.6 258.84 161.64 269.21"/><polygon class="ss-27" points="161.64 269.21 143.68 258.84 143.68 259.74 161.64 270.12 179.6 259.74 178.82 259.29 161.64 269.21"/><polygon class="ss-25" points="184.97 282.53 167.01 272.16 167.01 292.9 184.97 303.27 202.93 292.9 202.93 272.16 184.97 282.53"/><polygon class="ss-25" points="184.97 303.27 167.01 292.9 167.01 272.16 184.97 282.53 184.97 303.27"/><polygon class="ss-26" points="202.93 292.9 184.97 303.27 184.97 282.53 202.93 272.16 202.93 292.9"/><polygon class="ss-25" points="184.97 282.53 167.01 272.16 184.97 261.79 202.93 272.16 184.97 282.53"/><polygon class="ss-27" points="184.97 282.53 167.01 272.16 167.01 273.06 184.97 283.43 202.93 273.06 202.15 272.61 184.97 282.53"/><polygon class="ss-25" points="208.3 295.84 190.34 285.47 190.34 306.21 208.3 316.58 226.27 306.21 226.27 285.47 208.3 295.84"/><polygon class="ss-25" points="208.3 316.58 190.34 306.21 190.34 285.47 208.3 295.84 208.3 316.58"/><polygon class="ss-26" points="226.27 306.21 208.3 316.58 208.3 295.84 226.27 285.47 226.27 306.21"/><polygon class="ss-25" points="208.3 295.84 190.34 285.47 208.3 275.1 226.27 285.47 208.3 295.84"/><polygon class="ss-27" points="208.3 295.84 190.34 285.47 190.34 286.37 208.3 296.74 226.27 286.37 226.27 285.47 208.3 295.84"/><polygon class="ss-25" points="208.3 213.26 190.34 202.89 190.34 223.63 208.3 234 226.27 223.63 226.27 202.89 208.3 213.26"/><polygon class="ss-25" points="208.3 234 190.34 223.63 190.34 202.89 208.3 213.26 208.3 234"/><polygon class="ss-26" points="226.27 223.63 208.3 234 208.3 213.26 226.27 202.89 226.27 223.63"/><polygon class="ss-25" points="208.3 213.26 190.34 202.89 208.3 192.52 226.27 202.89 208.3 213.26"/><polygon class="ss-27" points="208.3 213.26 191.12 203.34 190.34 203.79 208.3 214.16 226.27 203.79 225.49 203.34 208.3 213.26"/><polygon class="ss-28" points="208.3 292.46 196.05 285.39 208.3 278.31 220.56 285.39 208.3 292.46"/><polygon class="ss-28" points="184.97 279.15 172.72 272.08 184.97 265 197.22 272.08 184.97 279.15"/><polygon class="ss-28" points="231.64 278.25 219.38 271.18 231.64 264.1 243.89 271.18 231.64 278.25"/><polygon class="ss-28" points="255.01 264.2 242.76 257.13 255.01 250.05 267.27 257.13 255.01 264.2"/><polygon class="ss-28" points="161.64 265.84 149.38 258.76 161.64 251.69 173.89 258.76 161.64 265.84"/><polygon class="ss-25" points="231.64 226.58 213.67 216.21 213.67 236.95 231.64 247.32 249.6 236.95 249.6 216.21 231.64 226.58"/><polygon class="ss-25" points="231.64 247.32 213.67 236.95 213.67 216.21 231.64 226.58 231.64 247.32"/><polygon class="ss-26" points="249.6 236.95 231.64 247.32 231.64 226.58 249.6 216.21 249.6 236.95"/><polygon class="ss-25" points="231.64 226.58 213.67 216.21 231.64 205.84 249.6 216.21 231.64 226.58"/><polygon class="ss-27" points="231.64 226.58 214.45 216.66 213.67 217.1 231.64 227.48 249.6 217.1 248.82 216.66 231.64 226.58"/><polygon class="ss-25" points="254.97 239.89 237.01 229.52 237.01 250.26 254.97 260.63 272.93 250.26 272.93 229.52 254.97 239.89"/><polygon class="ss-25" points="254.97 260.63 237.01 250.26 237.01 229.52 254.97 239.89 254.97 260.63"/><polygon class="ss-26" points="272.93 250.26 254.97 260.63 254.97 239.89 272.93 229.52 272.93 250.26"/><polygon class="ss-25" points="254.97 239.89 237.01 229.52 254.97 219.15 272.93 229.52 254.97 239.89"/><polygon class="ss-27" points="254.97 239.89 237.78 229.97 237.01 230.42 254.97 240.79 272.93 230.42 272.93 229.52 254.97 239.89"/><polygon class="ss-25" points="184.97 227.48 167.01 217.1 167.01 237.85 184.97 248.22 202.93 237.85 202.93 217.1 184.97 227.48"/><polygon class="ss-25" points="184.97 248.22 167.01 237.85 167.01 217.1 184.97 227.48 184.97 248.22"/><polygon class="ss-26" points="202.93 237.85 184.97 248.22 184.97 227.48 202.93 217.1 202.93 237.85"/><polygon class="ss-25" points="184.97 227.48 167.01 217.1 184.97 206.74 202.93 217.11 184.97 227.48"/><polygon class="ss-27" points="184.97 227.48 167.79 217.56 167.01 218 184.97 228.38 202.93 218 202.15 217.56 184.97 227.48"/><polygon class="ss-25" points="208.3 240.79 190.34 230.42 190.34 251.16 208.3 261.53 226.27 251.16 226.27 230.42 208.3 240.79"/><polygon class="ss-25" points="208.3 261.53 190.34 251.16 190.34 230.42 208.3 240.79 208.3 261.53"/><polygon class="ss-26" points="226.27 251.16 208.3 261.53 208.3 240.79 226.27 230.42 226.27 251.16"/><polygon class="ss-25" points="208.3 240.79 190.34 230.42 208.3 220.05 226.27 230.42 208.3 240.79"/><polygon class="ss-27" points="208.3 240.79 191.12 230.87 190.34 231.32 208.3 241.69 226.27 231.32 225.49 230.87 208.3 240.79"/><polygon class="ss-25" points="231.64 254.1 213.67 243.73 213.67 264.47 231.64 274.84 249.6 264.47 249.6 243.73 231.64 254.1"/><polygon class="ss-25" points="231.64 274.84 213.67 264.47 213.67 243.73 231.64 254.1 231.64 274.84"/><polygon class="ss-26" points="249.6 264.47 231.64 274.84 231.64 254.1 249.6 243.73 249.6 264.47"/><polygon class="ss-25" points="231.64 254.1 213.67 243.73 231.64 233.36 249.6 243.73 231.64 254.1"/><polygon class="ss-27" points="231.64 254.1 214.45 244.18 213.67 244.63 231.64 255 249.6 244.63 249.6 243.73 231.64 254.1"/><polygon class="ss-25" points="161.64 241.69 143.68 231.32 143.68 252.06 161.64 262.43 179.6 252.06 179.6 231.32 161.64 241.69"/><polygon class="ss-25" points="161.64 262.43 143.68 252.06 143.68 231.32 161.64 241.69 161.64 262.43"/><polygon class="ss-26" points="179.6 252.06 161.64 262.43 161.64 241.69 179.6 231.32 179.6 252.06"/><polygon class="ss-25" points="161.64 241.69 143.68 231.32 161.64 220.95 179.6 231.32 161.64 241.69"/><polygon class="ss-27" points="161.64 241.69 144.45 231.77 143.68 232.22 161.64 242.59 179.6 232.22 178.82 231.77 161.64 241.69"/><polygon class="ss-25" points="184.97 255 167.01 244.63 167.01 265.37 184.97 275.74 202.93 265.37 202.93 244.63 184.97 255"/><polygon class="ss-25" points="184.97 275.74 167.01 265.37 167.01 244.63 184.97 255 184.97 275.74"/><polygon class="ss-26" points="202.93 265.37 184.97 275.74 184.97 255 202.93 244.63 202.93 265.37"/><polygon class="ss-25" points="184.97 255 167.01 244.63 184.97 234.26 202.93 244.63 184.97 255"/><polygon class="ss-27" points="184.97 255 167.01 244.63 167.01 245.53 184.97 255.9 202.93 245.53 202.15 245.08 184.97 255"/><polygon class="ss-25" points="208.3 268.32 190.34 257.94 190.34 278.69 208.3 289.06 226.27 278.69 226.27 257.94 208.3 268.32"/><polygon class="ss-25" points="208.3 289.06 190.34 278.69 190.34 257.94 208.3 268.31 208.3 289.06"/><polygon class="ss-26" points="226.27 278.69 208.3 289.06 208.3 268.31 226.27 257.94 226.27 278.69"/><polygon class="ss-25" points="208.3 268.31 190.34 257.94 208.3 247.57 226.27 257.94 208.3 268.31"/><polygon class="ss-27" points="208.3 268.32 190.34 257.94 190.34 258.84 208.3 269.21 226.27 258.84 226.27 257.94 208.3 268.32"/><polygon class="ss-28" points="255.01 236.8 242.76 229.72 255.01 222.65 267.27 229.72 255.01 236.8"/><polygon class="ss-28" points="161.64 238.43 149.38 231.36 161.64 224.28 173.89 231.36 161.64 238.43"/><polygon class="ss-25" points="208.3 185.74 190.34 175.37 190.34 196.11 208.3 206.48 226.27 196.11 226.27 175.37 208.3 185.74"/><polygon class="ss-25" points="208.3 206.48 190.34 196.11 190.34 175.37 208.3 185.74 208.3 206.48"/><polygon class="ss-26" points="226.27 196.11 208.3 206.48 208.3 185.74 226.27 175.37 226.27 196.11"/><polygon class="ss-25" points="208.3 185.74 190.34 175.37 208.3 165 226.27 175.37 208.3 185.74"/><polygon class="ss-27" points="208.3 185.74 190.34 175.37 190.34 176.27 208.3 186.64 226.27 176.27 226.27 175.37 208.3 185.74"/><polygon class="ss-25" points="231.64 199.05 213.67 188.68 213.67 209.42 231.64 219.79 249.6 209.42 249.6 188.68 231.64 199.05"/><polygon class="ss-25" points="231.64 219.79 213.67 209.42 213.67 188.68 231.64 199.05 231.64 219.79"/><polygon class="ss-26" points="249.6 209.42 231.64 219.79 231.64 199.05 249.6 188.68 249.6 209.42"/><polygon class="ss-25" points="231.64 199.05 213.67 188.68 231.64 178.31 249.6 188.68 231.64 199.05"/><polygon class="ss-27" points="231.64 199.05 213.67 188.68 213.67 189.58 231.64 199.95 249.6 189.58 249.6 188.68 231.64 199.05"/><polygon class="ss-25" points="254.97 212.36 237.01 201.99 237.01 222.73 254.97 233.1 272.93 222.73 272.93 201.99 254.97 212.36"/><polygon class="ss-25" points="254.97 233.1 237.01 222.73 237.01 201.99 254.97 212.36 254.97 233.1"/><polygon class="ss-26" points="272.93 222.73 254.97 233.1 254.97 212.36 272.93 201.99 272.93 222.73"/><polygon class="ss-25" points="254.97 212.36 237.01 201.99 254.97 191.62 272.93 201.99 254.97 212.36"/><polygon class="ss-27" points="254.97 212.36 237.01 201.99 237.01 202.89 254.97 213.26 272.93 202.89 272.93 201.99 254.97 212.36"/><polygon class="ss-25" points="184.97 199.95 167.01 189.58 167.01 210.32 184.97 220.69 202.93 210.32 202.93 189.58 184.97 199.95"/><polygon class="ss-25" points="184.97 220.69 167.01 210.32 167.01 189.58 184.97 199.95 184.97 220.69"/><polygon class="ss-26" points="202.93 210.32 184.97 220.69 184.97 199.95 202.93 189.58 202.93 210.32"/><polygon class="ss-25" points="184.97 199.95 167.01 189.58 184.97 179.21 202.93 189.58 184.97 199.95"/><polygon class="ss-27" points="184.97 199.95 167.01 189.58 167.01 190.48 184.97 200.85 202.93 190.48 202.93 189.58 184.97 199.95"/><polygon class="ss-25" points="161.64 214.16 143.68 203.79 143.68 224.53 161.64 234.91 179.6 224.53 179.6 203.79 161.64 214.16"/><polygon class="ss-25" points="161.64 234.91 143.68 224.53 143.68 203.79 161.64 214.16 161.64 234.91"/><polygon class="ss-26" points="179.6 224.53 161.64 234.91 161.64 214.16 179.6 203.79 179.6 224.53"/><polygon class="ss-25" points="161.64 214.16 143.68 203.79 161.64 193.42 179.6 203.79 161.64 214.16"/><polygon class="ss-27" points="161.64 214.16 143.68 203.79 143.68 204.69 161.64 215.06 179.6 204.69 179.6 203.79 161.64 214.16"/><polygon class="ss-25" points="122.6 240.83 104.64 230.46 104.64 251.2 122.6 261.57 140.56 251.2 140.56 230.46 122.6 240.83"/><polygon class="ss-25" points="122.6 261.57 104.64 251.2 104.64 230.46 122.6 240.83 122.6 261.57"/><polygon class="ss-26" points="140.56 251.2 122.6 261.57 122.6 240.83 140.56 230.46 140.56 251.2"/><polygon class="ss-25" points="122.6 240.83 104.64 230.46 122.6 220.09 140.56 230.46 122.6 240.83"/><polygon class="ss-27" points="122.6 240.83 104.64 230.46 104.64 231.36 122.6 241.73 140.56 231.36 140.56 230.46 122.6 240.83"/><polygon class="ss-25" points="302.83 190.96 284.87 180.59 284.87 201.34 302.83 211.71 320.79 201.34 320.79 180.59 302.83 190.96"/><polygon class="ss-29" points="302.83 211.71 284.87 201.34 284.87 180.59 302.83 190.96 302.83 211.71"/><polygon class="ss-30" points="320.79 201.34 302.83 211.71 302.83 190.96 320.79 180.59 320.79 201.34"/><polygon class="ss-25" points="302.83 190.96 284.87 180.59 302.83 170.22 320.79 180.59 302.83 190.96"/><polygon class="ss-27" points="302.83 190.96 284.87 180.59 284.87 181.49 302.83 191.86 320.79 181.49 320.79 180.59 302.83 190.96"/><polygon class="ss-25" points="165.12 272.18 147.16 261.81 147.16 282.55 165.12 292.92 183.09 282.55 183.09 261.81 165.12 272.18"/><polygon class="ss-25" points="165.12 292.92 147.16 282.55 147.16 261.81 165.12 272.18 165.12 292.92"/><polygon class="ss-26" points="183.09 282.55 165.12 292.92 165.12 272.18 183.09 261.81 183.09 282.55"/><polygon class="ss-25" points="165.12 272.18 147.16 261.81 165.12 251.44 183.09 261.81 165.12 272.18"/><polygon class="ss-27" points="165.12 272.18 147.16 261.81 147.16 262.71 165.12 273.08 183.09 262.71 183.09 261.81 165.12 272.18"/></g></g><polygon class="ss-25" points="208.28 165.91 190.31 155.54 190.31 176.28 208.28 186.65 226.24 176.28 226.24 155.54 208.28 165.91"/><polygon class="ss-25" points="208.28 186.65 190.31 176.28 190.31 155.54 208.28 165.91 208.28 186.65"/><polygon class="ss-26" points="226.24 176.28 208.28 186.65 208.28 165.91 226.24 155.54 226.24 176.28"/><polygon class="ss-25" points="208.28 165.91 190.31 155.54 208.28 145.17 226.24 155.54 208.28 165.91"/><polygon class="ss-27" points="208.28 165.91 191.09 155.99 190.31 156.44 208.28 166.81 226.24 156.44 225.46 155.99 208.28 165.91"/><polygon class="ss-25" points="231.61 179.22 213.65 168.85 213.65 189.6 231.61 199.97 249.57 189.6 249.57 168.85 231.61 179.22"/><polygon class="ss-25" points="231.61 199.97 213.65 189.6 213.65 168.85 231.61 179.22 231.61 199.97"/><polygon class="ss-26" points="249.57 189.6 231.61 199.97 231.61 179.22 249.57 168.85 249.57 189.6"/><polygon class="ss-25" points="231.61 179.22 213.65 168.85 231.61 158.48 249.57 168.85 231.61 179.22"/><polygon class="ss-27" points="231.61 179.22 214.43 169.3 213.65 169.75 231.61 180.13 249.57 169.75 248.79 169.3 231.61 179.22"/><polygon class="ss-25" points="254.94 192.54 236.98 182.17 236.98 202.91 254.94 213.28 272.91 202.91 272.91 182.17 254.94 192.54"/><polygon class="ss-31" points="254.94 213.28 236.98 202.91 236.98 182.17 254.94 192.54 254.94 213.28"/><polygon class="ss-3" points="272.91 202.91 254.94 213.28 254.94 192.54 272.91 182.17 272.91 202.91"/><polygon class="ss-31" points="254.94 192.54 236.98 182.17 254.94 171.8 272.91 182.17 254.94 192.54"/><polygon class="ss-27" points="254.94 192.54 237.76 182.62 236.98 183.07 254.94 193.44 272.91 183.07 272.91 182.17 254.94 192.54"/><polygon class="ss-25" points="184.94 180.13 166.98 169.75 166.98 190.5 184.94 200.87 202.91 190.5 202.91 169.75 184.94 180.13"/><polygon class="ss-25" points="184.94 200.87 166.98 190.5 166.98 169.75 184.94 180.13 184.94 200.87"/><polygon class="ss-26" points="202.91 190.5 184.94 200.87 184.94 180.13 202.91 169.75 202.91 190.5"/><polygon class="ss-25" points="184.94 180.13 166.98 169.75 184.94 159.38 202.91 169.75 184.94 180.13"/><polygon class="ss-27" points="184.94 180.13 167.76 170.2 166.98 170.65 184.94 181.03 202.91 170.65 202.13 170.2 184.94 180.13"/><polygon class="ss-25" points="208.28 193.44 190.31 183.07 190.31 203.81 208.28 214.18 226.24 203.81 226.24 183.07 208.28 193.44"/><polygon class="ss-25" points="208.28 214.18 190.31 203.81 190.31 183.07 208.28 193.44 208.28 214.18"/><polygon class="ss-26" points="226.24 203.81 208.28 214.18 208.28 193.44 226.24 183.07 226.24 203.81"/><polygon class="ss-25" points="208.28 193.44 190.31 183.07 208.28 172.7 226.24 183.07 208.28 193.44"/><polygon class="ss-27" points="208.28 193.44 191.09 183.52 190.31 183.97 208.28 194.34 226.24 183.97 225.46 183.52 208.28 193.44"/><polygon class="ss-25" points="231.61 206.75 213.65 196.38 213.65 217.12 231.61 227.49 249.57 217.12 249.57 196.38 231.61 206.75"/><polygon class="ss-31" points="231.61 227.49 213.65 217.12 213.65 196.38 231.61 206.75 231.61 227.49"/><polygon class="ss-3" points="249.57 217.12 231.61 227.49 231.61 206.75 249.57 196.38 249.57 217.12"/><polygon class="ss-31" points="231.61 206.75 213.65 196.38 231.61 186.01 249.57 196.38 231.61 206.75"/><polygon class="ss-27" points="231.61 206.75 214.43 196.83 213.65 197.28 231.61 207.65 249.57 197.28 249.57 196.38 231.61 206.75"/><polygon class="ss-25" points="161.61 194.34 143.65 183.97 143.65 204.71 161.61 215.08 179.57 204.71 179.57 183.97 161.61 194.34"/><polygon class="ss-31" points="161.61 215.08 143.65 204.71 143.65 183.97 161.61 194.34 161.61 215.08"/><polygon class="ss-3" points="179.57 204.71 161.61 215.08 161.61 194.34 179.57 183.97 179.57 204.71"/><polygon class="ss-31" points="161.61 194.34 143.65 183.97 161.61 173.6 179.57 183.97 161.61 194.34"/><polygon class="ss-27" points="161.61 194.34 143.65 183.97 143.65 184.87 161.61 195.24 179.57 184.87 178.79 184.42 161.61 194.34"/><polygon class="ss-25" points="184.94 207.65 166.98 197.28 166.98 218.02 184.94 228.39 202.91 218.02 202.91 197.28 184.94 207.65"/><polygon class="ss-31" points="184.94 228.39 166.98 218.02 166.98 197.28 184.94 207.65 184.94 228.39"/><polygon class="ss-3" points="202.91 218.02 184.94 228.39 184.94 207.65 202.91 197.28 202.91 218.02"/><polygon class="ss-31" points="184.94 207.65 166.98 197.28 184.94 186.91 202.91 197.28 184.94 207.65"/><polygon class="ss-27" points="184.94 207.65 166.98 197.28 166.98 198.18 184.94 208.55 202.91 198.18 202.13 197.73 184.94 207.65"/><polygon class="ss-25" points="208.28 220.96 190.31 210.59 190.31 231.33 208.28 241.71 226.24 231.33 226.24 210.59 208.28 220.96"/><polygon class="ss-31" points="208.28 241.71 190.31 231.33 190.31 210.59 208.28 220.96 208.28 241.71"/><polygon class="ss-3" points="226.24 231.33 208.28 241.71 208.28 220.96 226.24 210.59 226.24 231.33"/><polygon class="ss-31" points="208.28 220.96 190.31 210.59 208.28 200.22 226.24 210.59 208.28 220.96"/><polygon class="ss-27" points="208.28 220.96 190.31 210.59 190.31 211.49 208.28 221.86 226.24 211.49 226.24 210.59 208.28 220.96"/><polygon class="ss-25" points="208.28 138.39 190.31 128.01 190.31 148.76 208.28 159.13 226.24 148.76 226.24 128.01 208.28 138.39"/><polygon class="ss-31" points="208.28 159.13 190.31 148.76 190.31 128.01 208.28 138.39 208.28 159.13"/><polygon class="ss-3" points="226.24 148.76 208.28 159.13 208.28 138.39 226.24 128.01 226.24 148.76"/><polygon class="ss-31" points="208.28 138.39 190.31 128.01 208.28 117.64 226.24 128.02 208.28 138.39"/><polygon class="ss-27" points="208.28 138.39 191.09 128.47 190.31 128.91 208.28 139.29 226.24 128.91 225.46 128.47 208.28 138.39"/><polygon class="ss-28" points="208.28 217.59 196.02 210.51 208.28 203.44 220.53 210.51 208.28 217.59"/><polygon class="ss-28" points="184.94 204.27 172.69 197.2 184.94 190.12 197.2 197.2 184.94 204.27"/><polygon class="ss-28" points="231.61 203.37 219.36 196.3 231.61 189.22 243.86 196.3 231.61 203.37"/><polygon class="ss-28" points="254.99 189.32 242.73 182.25 254.99 175.17 267.24 182.25 254.99 189.32"/><polygon class="ss-28" points="161.61 190.96 149.36 183.88 161.61 176.81 173.87 183.89 161.61 190.96"/><polygon class="ss-25" points="231.61 151.7 213.65 141.33 213.65 162.07 231.61 172.44 249.57 162.07 249.57 141.33 231.61 151.7"/><polygon class="ss-31" points="231.61 172.44 213.65 162.07 213.65 141.33 231.61 151.7 231.61 172.44"/><polygon class="ss-3" points="249.57 162.07 231.61 172.44 231.61 151.7 249.57 141.33 249.57 162.07"/><polygon class="ss-31" points="231.61 151.7 213.65 141.33 231.61 130.96 249.57 141.33 231.61 151.7"/><polygon class="ss-27" points="231.61 151.7 214.43 141.78 213.65 142.23 231.61 152.6 249.57 142.23 248.79 141.78 231.61 151.7"/><polygon class="ss-25" points="254.94 165.01 236.98 154.64 236.98 175.38 254.94 185.75 272.91 175.38 272.91 154.64 254.94 165.01"/><polygon class="ss-31" points="254.94 185.75 236.98 175.38 236.98 154.64 254.94 165.01 254.94 185.75"/><polygon class="ss-3" points="272.91 175.38 254.94 185.75 254.94 165.01 272.91 154.64 272.91 175.38"/><polygon class="ss-31" points="254.94 165.01 236.98 154.64 254.94 144.27 272.91 154.64 254.94 165.01"/><polygon class="ss-27" points="254.94 165.01 237.76 155.09 236.98 155.54 254.94 165.91 272.91 155.54 272.91 154.64 254.94 165.01"/><polygon class="ss-25" points="184.94 152.6 166.98 142.23 166.98 162.97 184.94 173.34 202.91 162.97 202.91 142.23 184.94 152.6"/><polygon class="ss-31" points="184.94 173.34 166.98 162.97 166.98 142.23 184.94 152.6 184.94 173.34"/><polygon class="ss-3" points="202.91 162.97 184.94 173.34 184.94 152.6 202.91 142.23 202.91 162.97"/><polygon class="ss-31" points="184.94 152.6 166.98 142.23 184.94 131.86 202.91 142.23 184.94 152.6"/><polygon class="ss-27" points="184.94 152.6 167.76 142.68 166.98 143.13 184.94 153.5 202.91 143.13 202.13 142.68 184.94 152.6"/><polygon class="ss-25" points="208.28 165.91 190.31 155.54 190.31 176.28 208.28 186.65 226.24 176.28 226.24 155.54 208.28 165.91"/><polygon class="ss-31" points="208.28 186.65 190.31 176.28 190.31 155.54 208.28 165.91 208.28 186.65"/><polygon class="ss-3" points="226.24 176.28 208.28 186.65 208.28 165.91 226.24 155.54 226.24 176.28"/><polygon class="ss-31" points="208.28 165.91 190.31 155.54 208.28 145.17 226.24 155.54 208.28 165.91"/><polygon class="ss-27" points="208.28 165.91 191.09 155.99 190.31 156.44 208.28 166.81 226.24 156.44 225.46 155.99 208.28 165.91"/><polygon class="ss-25" points="231.61 179.22 213.65 168.85 213.65 189.6 231.61 199.97 249.57 189.6 249.57 168.85 231.61 179.22"/><polygon class="ss-31" points="231.61 199.97 213.65 189.6 213.65 168.85 231.61 179.22 231.61 199.97"/><polygon class="ss-3" points="249.57 189.6 231.61 199.97 231.61 179.22 249.57 168.85 249.57 189.6"/><polygon class="ss-31" points="231.61 179.22 213.65 168.85 231.61 158.48 249.57 168.85 231.61 179.22"/><polygon class="ss-27" points="231.61 179.22 214.43 169.3 213.65 169.75 231.61 180.13 249.57 169.75 249.57 168.85 231.61 179.22"/><polygon class="ss-25" points="161.61 166.81 143.65 156.44 143.65 177.18 161.61 187.55 179.57 177.18 179.57 156.44 161.61 166.81"/><polygon class="ss-31" points="161.61 187.55 143.65 177.18 143.65 156.44 161.61 166.81 161.61 187.55"/><polygon class="ss-3" points="179.57 177.18 161.61 187.55 161.61 166.81 179.57 156.44 179.57 177.18"/><polygon class="ss-31" points="161.61 166.81 143.65 156.44 161.61 146.07 179.57 156.44 161.61 166.81"/><polygon class="ss-27" points="161.61 166.81 144.43 156.89 143.65 157.34 161.61 167.71 179.57 157.34 178.79 156.89 161.61 166.81"/><polygon class="ss-25" points="184.94 180.13 166.98 169.75 166.98 190.5 184.94 200.87 202.91 190.5 202.91 169.75 184.94 180.13"/><polygon class="ss-31" points="184.94 200.87 166.98 190.5 166.98 169.75 184.94 180.13 184.94 200.87"/><polygon class="ss-3" points="202.91 190.5 184.94 200.87 184.94 180.13 202.91 169.75 202.91 190.5"/><polygon class="ss-31" points="184.94 180.13 166.98 169.75 184.94 159.38 202.91 169.75 184.94 180.13"/><polygon class="ss-27" points="184.94 180.13 166.98 169.75 166.98 170.65 184.94 181.03 202.91 170.65 202.13 170.2 184.94 180.13"/><polygon class="ss-25" points="208.28 193.44 190.31 183.07 190.31 203.81 208.28 214.18 226.24 203.81 226.24 183.07 208.28 193.44"/><polygon class="ss-31" points="208.28 214.18 190.31 203.81 190.31 183.07 208.28 193.44 208.28 214.18"/><polygon class="ss-3" points="226.24 203.81 208.28 214.18 208.28 193.44 226.24 183.07 226.24 203.81"/><polygon class="ss-31" points="208.28 193.44 190.31 183.07 208.28 172.7 226.24 183.07 208.28 193.44"/><polygon class="ss-27" points="208.28 193.44 190.31 183.07 190.31 183.97 208.28 194.34 226.24 183.97 226.24 183.07 208.28 193.44"/><polygon class="ss-28" points="254.99 161.92 242.73 154.84 254.99 147.77 267.24 154.84 254.99 161.92"/><polygon class="ss-28" points="161.61 163.56 149.36 156.48 161.61 149.41 173.87 156.48 161.61 163.56"/><polygon class="ss-25" points="208.28 110.86 190.31 100.49 190.31 121.23 208.28 131.6 226.24 121.23 226.24 100.49 208.28 110.86"/><polygon class="ss-31" points="208.28 131.6 190.31 121.23 190.31 100.49 208.28 110.86 208.28 131.6"/><polygon class="ss-3" points="226.24 121.23 208.28 131.6 208.28 110.86 226.24 100.49 226.24 121.23"/><polygon class="ss-31" points="208.28 110.86 190.31 100.49 208.28 90.12 226.24 100.49 208.28 110.86"/><polygon class="ss-27" points="208.28 110.86 190.31 100.49 190.31 101.39 208.28 111.76 226.24 101.39 226.24 100.49 208.28 110.86"/><polygon class="ss-25" points="231.61 124.17 213.65 113.8 213.65 134.54 231.61 144.91 249.57 134.54 249.57 113.8 231.61 124.17"/><polygon class="ss-31" points="231.61 144.91 213.65 134.54 213.65 113.8 231.61 124.17 231.61 144.91"/><polygon class="ss-3" points="249.57 134.54 231.61 144.91 231.61 124.17 249.57 113.8 249.57 134.54"/><polygon class="ss-31" points="231.61 124.17 213.65 113.8 231.61 103.43 249.57 113.8 231.61 124.17"/><polygon class="ss-27" points="231.61 124.17 213.65 113.8 213.65 114.7 231.61 125.07 249.57 114.7 249.57 113.8 231.61 124.17"/><polygon class="ss-25" points="254.94 137.49 236.98 127.12 236.98 147.86 254.94 158.23 272.91 147.86 272.91 127.12 254.94 137.49"/><polygon class="ss-31" points="254.94 158.23 236.98 147.86 236.98 127.12 254.94 137.49 254.94 158.23"/><polygon class="ss-3" points="272.91 147.86 254.94 158.23 254.94 137.49 272.91 127.12 272.91 147.86"/><polygon class="ss-31" points="254.94 137.49 236.98 127.12 254.94 116.75 272.91 127.12 254.94 137.49"/><polygon class="ss-27" points="254.94 137.49 236.98 127.12 236.98 128.01 254.94 138.39 272.91 128.02 272.91 127.12 254.94 137.49"/><polygon class="ss-25" points="184.94 125.07 166.98 114.7 166.98 135.44 184.94 145.81 202.91 135.44 202.91 114.7 184.94 125.07"/><polygon class="ss-31" points="184.94 145.81 166.98 135.44 166.98 114.7 184.94 125.07 184.94 145.81"/><polygon class="ss-3" points="202.91 135.44 184.94 145.81 184.94 125.07 202.91 114.7 202.91 135.44"/><polygon class="ss-31" points="184.94 125.07 166.98 114.7 184.94 104.33 202.91 114.7 184.94 125.07"/><polygon class="ss-27" points="184.94 125.07 166.98 114.7 166.98 115.6 184.94 125.97 202.91 115.6 202.91 114.7 184.94 125.07"/><polygon class="ss-25" points="161.61 139.29 143.65 128.91 143.65 149.66 161.61 160.03 179.57 149.66 179.57 128.91 161.61 139.29"/><polygon class="ss-31" points="161.61 160.03 143.65 149.66 143.65 128.91 161.61 139.29 161.61 160.03"/><polygon class="ss-3" points="179.57 149.66 161.61 160.03 161.61 139.29 179.57 128.91 179.57 149.66"/><polygon class="ss-31" points="161.61 139.29 143.65 128.91 161.61 118.55 179.57 128.92 161.61 139.29"/><polygon class="ss-27" points="161.61 139.29 143.65 128.91 143.65 129.81 161.61 140.19 179.57 129.81 179.57 128.91 161.61 139.29"/><path class="ss-3" d="M352.67,122a4.13,4.13,0,0,1-2-.59l-62.32-36a8.31,8.31,0,0,1-3.55-8l4-23.78a4.18,4.18,0,0,1,2.15-3.24,3.58,3.58,0,0,1,3.39.29l62.32,36a8.31,8.31,0,0,1,3.55,8l-4,23.78a4.2,4.2,0,0,1-2.15,3.24A3.13,3.13,0,0,1,352.67,122Zm-1.84-.94a3.24,3.24,0,0,0,3,.28,3.79,3.79,0,0,0,1.92-2.95l4-23.78A7.85,7.85,0,0,0,356.4,87L294.08,51a3.19,3.19,0,0,0-3-.28,3.79,3.79,0,0,0-1.92,2.95l-4,23.78a7.85,7.85,0,0,0,3.36,7.62Z"/><path class="ss-3" d="M345.82,162.87a4.13,4.13,0,0,1-2-.59l-62.32-36a8.29,8.29,0,0,1-3.55-8l4-23.78a4.16,4.16,0,0,1,2.15-3.24,3.58,3.58,0,0,1,3.39.29l62.32,36a8.31,8.31,0,0,1,3.55,8l-4,23.78a4.2,4.2,0,0,1-2.15,3.24A3.16,3.16,0,0,1,345.82,162.87Zm-1.84-.94a3.24,3.24,0,0,0,3,.28,3.79,3.79,0,0,0,1.92-3l4-23.78a7.85,7.85,0,0,0-3.36-7.62l-62.32-36a3.22,3.22,0,0,0-3-.28,3.82,3.82,0,0,0-1.93,3l-4,23.78a7.86,7.86,0,0,0,3.35,7.62Z"/><path class="ss-32" d="M293.79,83.08c1.11.64,2.09.4,2.46-.59l7.26-19.86c.83-2.27,4.22-.22,4.94,3l4.47,20a5.82,5.82,0,0,0,2.49,3.58l1.07.62c1,.6,2,.42,2.39-.44l1.48-3.14c.92-2,4-.11,4.81,2.88h0a5.77,5.77,0,0,0,2.42,3.33l.93.54c1.14.65,2.14.38,2.48-.67l1.35-4.14c.76-2.34,4.16-.39,4.94,2.83l4.48,18.5a5.8,5.8,0,0,0,2.51,3.52Z"/><path class="ss-3" d="M336.49,153.5a6,6,0,0,1-2.6-3.65l-4.48-18.5c-.51-2.13-2.21-3.66-3.4-3.71a1.1,1.1,0,0,0-1.15.89l-1.35,4.15a1.56,1.56,0,0,1-.94,1,2.12,2.12,0,0,1-1.83-.27l-.93-.54a6,6,0,0,1-2.52-3.45c-.56-2-2.15-3.43-3.28-3.53a1.07,1.07,0,0,0-1.15.68l-1.48,3.14a1.49,1.49,0,0,1-.93.83,2.2,2.2,0,0,1-1.74-.31l-1.07-.61a6,6,0,0,1-2.59-3.71l-4.47-20c-.48-2.13-2.17-3.7-3.38-3.78A1.1,1.1,0,0,0,296,103l-7.27,19.86a1.58,1.58,0,0,1-.93,1,2.19,2.19,0,0,1-1.81-.29l.2-.35a1.8,1.8,0,0,0,1.47.26,1.15,1.15,0,0,0,.69-.75l7.27-19.86a1.46,1.46,0,0,1,1.57-1.08c1.39.09,3.23,1.76,3.75,4.1l4.48,20a5.64,5.64,0,0,0,2.39,3.45l1.07.62a1.84,1.84,0,0,0,1.42.27,1.09,1.09,0,0,0,.68-.62l1.48-3.14a1.49,1.49,0,0,1,1.55-.91c1.27.1,3,1.6,3.64,3.82a5.59,5.59,0,0,0,2.33,3.21l.93.54a1.76,1.76,0,0,0,1.49.25,1.22,1.22,0,0,0,.69-.8l1.35-4.15a1.52,1.52,0,0,1,1.55-1.17c1.37.05,3.22,1.68,3.78,4l4.48,18.5a5.69,5.69,0,0,0,2.41,3.39Z"/><path class="ss-33" d="M135.78,113.25,108.4,97.44l27.38-15.8,27.38,15.81ZM109.25,97.44l26.53,15.32,26.53-15.31L135.78,82.13Z"/><rect class="ss-33" x="135.57" y="51.61" width="0.42" height="18.92"/><polygon class="ss-34" points="135.78 82.58 119.74 73.32 119.74 91.83 135.78 101.09 151.82 91.83 151.82 73.32 135.78 82.58"/><polygon class="ss-30" points="151.82 91.83 135.78 101.09 135.78 82.58 151.82 73.32 151.82 91.83"/><polygon class="ss-35" points="135.78 82.58 119.74 73.32 135.78 64.06 151.82 73.32 135.78 82.58"/><polygon class="ss-33" points="135.78 82.58 119.74 73.32 119.74 74.12 135.78 83.38 151.82 74.12 151.82 73.32 135.78 82.58"/><path class="ss-33" d="M135.78,83,108.4,67.17l27.38-15.8,27.38,15.8ZM109.25,67.17l26.53,15.32,26.53-15.32L135.78,51.86Z"/><rect class="ss-33" x="162.52" y="67.17" width="0.42" height="30.27"/><rect class="ss-33" x="108.62" y="67.17" width="0.42" height="30.27"/><rect class="ss-33" x="135.57" y="82.74" width="0.42" height="30.27"/><polygon class="ss-25" points="122.6 220.96 104.64 210.59 104.64 231.34 122.6 241.71 140.56 231.34 140.56 210.59 122.6 220.96"/><polygon class="ss-31" points="122.6 241.71 104.64 231.34 104.64 210.59 122.6 220.96 122.6 241.71"/><polygon class="ss-3" points="140.56 231.34 122.6 241.71 122.6 220.96 140.56 210.59 140.56 231.34"/><polygon class="ss-31" points="122.6 220.96 104.64 210.59 122.6 200.22 140.56 210.59 122.6 220.96"/><polygon class="ss-36" points="122.6 220.96 104.64 210.59 104.64 211.49 122.6 221.86 140.56 211.49 140.56 210.59 122.6 220.96"/><polygon class="ss-25" points="302.83 171.1 284.87 160.73 284.87 181.47 302.83 191.84 320.79 181.47 320.79 160.73 302.83 171.1"/><polygon class="ss-37" points="302.83 191.84 284.87 181.47 284.87 160.73 302.83 171.1 302.83 191.84"/><polygon class="ss-30" points="320.79 181.47 302.83 191.84 302.83 171.1 320.79 160.73 320.79 181.47"/><polygon class="ss-38" points="302.83 171.1 284.87 160.73 302.83 150.36 320.79 160.73 302.83 171.1"/><polygon class="ss-33" points="302.83 171.1 284.87 160.73 284.87 161.63 302.83 172 320.79 161.63 320.79 160.73 302.83 171.1"/><polygon class="ss-25" points="165.12 252.31 147.16 241.94 147.16 262.69 165.12 273.06 183.09 262.69 183.09 241.94 165.12 252.31"/><polygon class="ss-31" points="165.12 273.06 147.16 262.69 147.16 241.94 165.12 252.31 165.12 273.06"/><polygon class="ss-3" points="183.09 262.69 165.12 273.06 165.12 252.31 183.09 241.94 183.09 262.69"/><polygon class="ss-31" points="165.12 252.31 147.16 241.94 165.12 231.57 183.09 241.94 165.12 252.31"/><polygon class="ss-27" points="165.12 252.31 147.16 241.94 147.16 242.84 165.12 253.21 183.09 242.84 183.09 241.94 165.12 252.31"/><path class="ss-3" d="M278.22,307.5a7.68,7.68,0,0,1-3.73-.89l-19.78-11.42a2.39,2.39,0,0,1,0-4.51l19.78-11.42a8.24,8.24,0,0,1,7.46,0l19.78,11.42a2.39,2.39,0,0,1,0,4.51L282,306.61A7.68,7.68,0,0,1,278.22,307.5Zm0-28.79a7.24,7.24,0,0,0-3.56.85L254.88,291a2,2,0,0,0,0,3.9l19.78,11.42a7.82,7.82,0,0,0,7.11,0l19.78-11.42a2,2,0,0,0,0-3.9l-19.78-11.42A7.2,7.2,0,0,0,278.22,278.71Z"/><path class="ss-39" d="M303.94,288.55v-6.77l-1.24-.69c-.35,2.11-2.84,3.5-4.92,3.79l-14.18,8.29-6.18,2.24-19.75-10.19.46-.27c-1.69-.78-2.6-2.59-3.51-4.23l-1.33.79-.79.22v6.89h0a3,3,0,0,0,1.74,2.43L274,302.47a9.34,9.34,0,0,0,8.4,0l19.78-11.42a3,3,0,0,0,1.74-2.39s0-.07,0-.11Z"/><path class="ss-33" d="M303.94,282.53v-4.48l-1.24-.69c-.35,2.11-2.84,3.51-4.92,3.8l-14.18,8.28-6.18,2.24-19.75-10.19.46-.26c-1.69-.79-2.6-2.6-3.51-4.24l-1.33.79-.79.22v4.6h0a2.93,2.93,0,0,0,1.74,2.42L274,296.45a9.34,9.34,0,0,0,8.4,0L302.2,285a3,3,0,0,0,1.74-2.38s0-.07,0-.11Z"/><path class="ss-4" d="M297.78,281.16l-14.18,8.28-5.38,1.95v6.06a8.69,8.69,0,0,0,4.2-1L302.2,285a3,3,0,0,0,1.74-2.38s0-.07,0-.11h0v-4.48l-1.14-.63h-.12C302.3,279.5,299.84,280.87,297.78,281.16Z"/><path class="ss-40" d="M274,291.89l-19.78-11.42c-2.32-1.34-2.32-3.51,0-4.85L274,264.2a9.28,9.28,0,0,1,8.4,0l19.78,11.42c2.31,1.34,2.31,3.51,0,4.85l-19.78,11.42A9.28,9.28,0,0,1,274,291.89Z"/><path class="ss-27" d="M302.2,280.47l-19.78,11.42a9.28,9.28,0,0,1-8.4,0l-19.78-11.42a3.12,3.12,0,0,1-1.72-2.14,2.82,2.82,0,0,0,1.72,2.7L274,292.45a9.28,9.28,0,0,0,8.4,0L302.2,281a2.79,2.79,0,0,0,1.71-2.7A3.1,3.1,0,0,1,302.2,280.47Z"/><path class="ss-41" d="M353,269.7a8.92,8.92,0,0,1-4.38-1.05l-19.78-11.42a2.9,2.9,0,0,1,0-5.45l19.78-11.43a9.67,9.67,0,0,1,8.75,0l19.78,11.42a2.89,2.89,0,0,1,0,5.45l-19.78,11.42A8.89,8.89,0,0,1,353,269.7Zm-4-1.65a8.92,8.92,0,0,0,8,0l19.78-11.42a2.22,2.22,0,0,0,0-4.25L357,241a8.92,8.92,0,0,0-8,0l-19.78,11.42a2.22,2.22,0,0,0,0,4.24Z"/><path class="ss-41" d="M40.13,211.57a8.88,8.88,0,0,1-4.37-1L16,199.11a2.91,2.91,0,0,1,0-5.46l19.78-11.42a9.7,9.7,0,0,1,8.75,0l19.78,11.42a2.91,2.91,0,0,1,0,5.46L44.51,210.53A8.92,8.92,0,0,1,40.13,211.57Zm-4-1.65a8.92,8.92,0,0,0,8,0L63.94,198.5a2.22,2.22,0,0,0,0-4.24L44.16,182.84a8.92,8.92,0,0,0-8,0L16.33,194.26a2.22,2.22,0,0,0,0,4.24Z"/></g></g></svg>