<svg xmlns="http://www.w3.org/2000/svg" xmlns:xlink="http://www.w3.org/1999/xlink" viewBox="0 0 313 308.76"><defs><style>.cls-1{isolation:isolate;}.cls-2,.cls-3,.cls-48{fill:#0dc9a8;}.cls-3,.cls-53,.cls-54,.cls-8,.cls-9{opacity:0.5;}.cls-4{fill:#88a4db;}.cls-5{fill:#60749b;}.cls-6{fill:url(#linear-gradient);}.cls-7{fill:#fff;}.cls-53,.cls-54,.cls-8{mix-blend-mode:lighten;}.cls-10,.cls-15,.cls-20{opacity:0.11;}.cls-11{fill:url(#linear-gradient-2);}.cls-12{fill:url(#linear-gradient-3);}.cls-13{fill:url(#linear-gradient-4);}.cls-14{fill:url(#linear-gradient-5);}.cls-15{fill:url(#linear-gradient-6);}.cls-16{fill:url(#linear-gradient-7);}.cls-17{fill:url(#linear-gradient-8);}.cls-18{fill:url(#linear-gradient-9);}.cls-19{fill:url(#linear-gradient-10);}.cls-20{fill:url(#linear-gradient-11);}.cls-21{fill:#180d5b;opacity:0.2;}.cls-22{fill:#160a5b;}.cls-23{fill:#1d232d;}.cls-24{fill:#28313f;}.cls-25{fill:url(#_ÂÁ_Ï_ÌÌ_È_ËÂÌÚ_22);}.cls-26{fill:url(#_ÂÁ_Ï_ÌÌ_È_ËÂÌÚ_22-2);}.cls-27{fill:#313b4f;}.cls-28{fill:#fcd1c5;}.cls-29{fill:url(#_ÂÁ_Ï_ÌÌ_È_ËÂÌÚ_22-3);}.cls-30{fill:#f0f6ff;}.cls-31{fill:#aa8383;}.cls-32{fill:#c4ccd6;}.cls-33{fill:#e2b1a6;}.cls-34{fill:#4846a5;}.cls-35{fill:#1b2b3a;}.cls-36{fill:#936d6d;}.cls-37{fill:url(#_ÂÁ_Ï_ÌÌ_È_ËÂÌÚ_22-4);}.cls-38{fill:url(#_ÂÁ_Ï_ÌÌ_È_ËÂÌÚ_22-5);}.cls-39{fill:url(#_ÂÁ_Ï_ÌÌ_È_ËÂÌÚ_22-6);}.cls-40{fill:url(#_ÂÁ_Ï_ÌÌ_È_ËÂÌÚ_22-7);}.cls-41{fill:url(#_ÂÁ_Ï_ÌÌ_È_ËÂÌÚ_22-8);}.cls-42{fill:url(#_ÂÁ_Ï_ÌÌ_È_ËÂÌÚ_22-9);}.cls-43{fill:#722318;}.cls-44{fill:url(#_ÂÁ_Ï_ÌÌ_È_ËÂÌÚ_22-10);}.cls-45{fill:#453c9e;}.cls-46{fill:url(#_ÂÁ_Ï_ÌÌ_È_ËÂÌÚ_22-11);}.cls-47{fill:#42e8e0;}.cls-48{opacity:0.3;}.cls-49{fill:url(#linear-gradient-12);}.cls-50{fill:url(#linear-gradient-13);}.cls-51{fill:url(#linear-gradient-14);}.cls-52{fill:url(#linear-gradient-15);}.cls-53{fill:url(#linear-gradient-16);}.cls-54{fill:url(#linear-gradient-17);}</style><linearGradient id="linear-gradient" x1="120.14" y1="180.07" x2="238.48" y2="180.07" gradientUnits="userSpaceOnUse"><stop offset="0" stop-color="#f1f2f4"/><stop offset="1" stop-color="#eff8f6"/></linearGradient><linearGradient id="linear-gradient-2" x1="115.73" y1="265.49" x2="244.25" y2="265.49" gradientUnits="userSpaceOnUse"><stop offset="0" stop-color="#0dc9a8"/><stop offset="1" stop-color="#313b4f" stop-opacity="0"/></linearGradient><linearGradient id="linear-gradient-3" x1="115.73" y1="255.6" x2="244.25" y2="255.6" xlink:href="#linear-gradient-2"/><linearGradient id="linear-gradient-4" x1="115.73" y1="245.71" x2="244.25" y2="245.71" xlink:href="#linear-gradient-2"/><linearGradient id="linear-gradient-5" x1="115.73" y1="235.83" x2="244.25" y2="235.83" xlink:href="#linear-gradient-2"/><linearGradient id="linear-gradient-6" x1="115.73" y1="250.66" x2="244.25" y2="250.66" xlink:href="#linear-gradient-2"/><linearGradient id="linear-gradient-7" x1="115.73" y1="224.59" x2="244.25" y2="224.59" xlink:href="#linear-gradient-2"/><linearGradient id="linear-gradient-8" x1="115.73" y1="214.7" x2="244.25" y2="214.7" xlink:href="#linear-gradient-2"/><linearGradient id="linear-gradient-9" x1="115.73" y1="204.81" x2="244.25" y2="204.81" xlink:href="#linear-gradient-2"/><linearGradient id="linear-gradient-10" x1="115.73" y1="194.93" x2="244.25" y2="194.93" xlink:href="#linear-gradient-2"/><linearGradient id="linear-gradient-11" x1="115.73" y1="209.76" x2="244.25" y2="209.76" xlink:href="#linear-gradient-2"/><linearGradient id="_ÂÁ_Ï_ÌÌ_È_ËÂÌÚ_22" x1="170.71" y1="150.51" x2="176.27" y2="150.51" gradientUnits="userSpaceOnUse"><stop offset="0" stop-color="#5761d7"/><stop offset="0.07" stop-color="#5472d8"/><stop offset="0.28" stop-color="#4e9cdb"/><stop offset="0.48" stop-color="#49bddd"/><stop offset="0.67" stop-color="#45d5df"/><stop offset="0.85" stop-color="#43e3e0"/><stop offset="1" stop-color="#42e8e0"/></linearGradient><linearGradient id="_ÂÁ_Ï_ÌÌ_È_ËÂÌÚ_22-2" x1="173.54" y1="138.28" x2="187.47" y2="138.28" xlink:href="#_ÂÁ_Ï_ÌÌ_È_ËÂÌÚ_22"/><linearGradient id="_ÂÁ_Ï_ÌÌ_È_ËÂÌÚ_22-3" x1="173.6" y1="124.56" x2="188.7" y2="124.56" xlink:href="#_ÂÁ_Ï_ÌÌ_È_ËÂÌÚ_22"/><linearGradient id="_ÂÁ_Ï_ÌÌ_È_ËÂÌÚ_22-4" x1="164.12" y1="33.82" x2="173.27" y2="33.82" gradientTransform="matrix(1, -0.09, 0.09, 1, 29.56, 155.01)" xlink:href="#_ÂÁ_Ï_ÌÌ_È_ËÂÌÚ_22"/><linearGradient id="_ÂÁ_Ï_ÌÌ_È_ËÂÌÚ_22-5" x1="174.7" y1="-37.57" x2="175.99" y2="-37.57" gradientTransform="matrix(1, -0.09, 0.09, 1, 29.56, 155.01)" xlink:href="#_ÂÁ_Ï_ÌÌ_È_ËÂÌÚ_22"/><linearGradient id="_ÂÁ_Ï_ÌÌ_È_ËÂÌÚ_22-6" x1="155.31" y1="8.32" x2="177.29" y2="8.32" gradientTransform="matrix(1, -0.09, 0.09, 1, 29.56, 155.01)" xlink:href="#_ÂÁ_Ï_ÌÌ_È_ËÂÌÚ_22"/><linearGradient id="_ÂÁ_Ï_ÌÌ_È_ËÂÌÚ_22-7" x1="176.16" y1="-17.72" x2="181.35" y2="-17.72" gradientTransform="matrix(1, -0.09, 0.09, 1, 29.56, 155.01)" xlink:href="#_ÂÁ_Ï_ÌÌ_È_ËÂÌÚ_22"/><linearGradient id="_ÂÁ_Ï_ÌÌ_È_ËÂÌÚ_22-8" x1="143.7" y1="28.88" x2="161.48" y2="28.88" gradientTransform="matrix(1, -0.09, 0.09, 1, 29.56, 155.01)" xlink:href="#_ÂÁ_Ï_ÌÌ_È_ËÂÌÚ_22"/><linearGradient id="_ÂÁ_Ï_ÌÌ_È_ËÂÌÚ_22-9" x1="153.69" y1="22.45" x2="155.95" y2="22.45" gradientTransform="matrix(1, -0.09, 0.09, 1, 29.56, 155.01)" xlink:href="#_ÂÁ_Ï_ÌÌ_È_ËÂÌÚ_22"/><linearGradient id="_ÂÁ_Ï_ÌÌ_È_ËÂÌÚ_22-10" x1="149.4" y1="18.15" x2="151.66" y2="18.15" gradientTransform="matrix(1, -0.09, 0.09, 1, 29.56, 155.01)" xlink:href="#_ÂÁ_Ï_ÌÌ_È_ËÂÌÚ_22"/><linearGradient id="_ÂÁ_Ï_ÌÌ_È_ËÂÌÚ_22-11" x1="153.73" y1="-1.43" x2="170.55" y2="-1.43" gradientTransform="matrix(1, -0.09, 0.09, 1, 29.56, 155.01)" xlink:href="#_ÂÁ_Ï_ÌÌ_È_ËÂÌÚ_22"/><linearGradient id="linear-gradient-12" x1="223.06" y1="136.16" x2="271.51" y2="136.16" xlink:href="#linear-gradient"/><linearGradient id="linear-gradient-13" x1="228.52" y1="228.95" x2="276.98" y2="228.95" xlink:href="#linear-gradient"/><linearGradient id="linear-gradient-14" x1="91.5" y1="234.36" x2="139.96" y2="234.36" xlink:href="#linear-gradient"/><linearGradient id="linear-gradient-15" x1="90.14" y1="134.46" x2="138.6" y2="134.46" xlink:href="#linear-gradient"/><linearGradient id="linear-gradient-16" x1="56.61" y1="82.16" x2="112.95" y2="82.16" xlink:href="#linear-gradient-2"/><linearGradient id="linear-gradient-17" x1="27.97" y1="176.24" x2="217.39" y2="176.24" gradientUnits="userSpaceOnUse"><stop offset="0" stop-color="#0dc9a8"/><stop offset="0.75" stop-color="#0ec4a5" stop-opacity="0.96"/></linearGradient></defs><g class="cls-1"><g id="_ÎÓÈ_1" data-name="—ÎÓÈ_1"><path class="cls-2 advantages-scale" d="M279.68,88.3c2.61.68,5.18,1.38,7.69,2.12V109c-2.51-.73-5.08-1.44-7.69-2.11V88.3Z"/><path class="cls-3 advantages-scale" d="M261.86,89.08c2.79.54,5.54,1.1,8.25,1.7V104.6c-2.71-.6-5.46-1.16-8.25-1.7V89.08Z"/><path class="cls-2 advantages-scale" d="M242.91,73.94q4.43.57,8.75,1.26v25.93q-4.32-.69-8.75-1.26V73.94Z"/><path class="cls-3 advantages-scale" d="M223,57.6c3.09.22,6.14.48,9.17.78V98.65c-3-.3-6.08-.56-9.17-.78V57.6Z"/><path class="cls-3 advantages-scale" d="M202.22,66.24q4.82.08,9.55.27V97.23Q207,97,202.22,97V66.24Z"/><path class="advantages-scale cls-2" d="M181.26,34.08q4.69-.18,9.46-.26V97q-4.77.08-9.46.26V34.08Z"/><path class="cls-2 advantages-scale" d="M161,47.09c3-.3,6.05-.55,9.12-.77V97.85c-3.07.21-6.11.47-9.12.76V47.09Z"/><path class="cls-2 advantages-scale" d="M141.55,30.26q4.3-.68,8.72-1.24v70.8q-4.41.57-8.72,1.25V30.26Z"/><path class="cls-4" d="M238.48,190.38V180.07l-2.85-1.58c-.8,4.86-6.53,8.07-11.32,8.73L191.7,206.29l-14.23,5.14L132,188l1.05-.61c-3.88-1.81-6-6-8.07-9.74L122,179.46l-1.82.51v10.58h0c0,2,1.33,4,4,5.58l45.51,26.27c5.33,3.08,14,3.08,19.33,0l45.51-26.27c2.62-1.52,3.95-3.5,4-5.48v-.27Z"/><path class="cls-5" d="M224.31,187.22,191.7,206.29l-12.39,4.48v13.94A19.78,19.78,0,0,0,189,222.4l45.51-26.27c2.62-1.52,3.95-3.5,4-5.48v-.27h0V180.07l-2.6-1.45h-.28C234.71,183.41,229.05,186.56,224.31,187.22Z"/><path class="cls-6" d="M169.65,211.93l-45.51-26.28c-5.33-3.08-5.33-8.08,0-11.16l45.51-26.27c5.33-3.08,14-3.08,19.32,0l45.52,26.27c5.32,3.08,5.32,8.08,0,11.16L189,211.93C183.65,215,175,215,169.65,211.93Z"/><path class="cls-7" d="M234.49,185.65,189,211.93c-5.33,3.07-14,3.07-19.33,0l-45.51-26.28c-2.39-1.37-3.7-3.14-4-4.94-.31,2.23,1,4.52,4,6.23l45.51,26.27c5.33,3.08,14,3.08,19.33,0l45.51-26.27c2.94-1.71,4.26-4,3.94-6.23C238.18,182.52,236.87,184.28,234.49,185.65Z"/><g class="cls-8"><g class="cls-9"><g class="cls-10"><path class="cls-11" d="M185,230.38a9.85,9.85,0,0,0-9.85,0l-58.69,33.8a1.39,1.39,0,0,0,0,2.4l59.18,34.17a8.7,8.7,0,0,0,8.69,0l59.27-34.13a1.4,1.4,0,0,0,0-2.41Z"/></g><g class="cls-10"><path class="cls-12" d="M185,220.49a9.87,9.87,0,0,0-9.85,0L116.42,254.3a1.39,1.39,0,0,0,0,2.4l59.18,34.16a8.65,8.65,0,0,0,8.69,0l59.27-34.13a1.39,1.39,0,0,0,0-2.4Z"/></g><g class="cls-10"><path class="cls-13" d="M185,210.61a9.87,9.87,0,0,0-9.85,0l-58.69,33.81a1.39,1.39,0,0,0,0,2.4L175.6,281a8.7,8.7,0,0,0,8.69,0l59.27-34.14a1.39,1.39,0,0,0,0-2.4Z"/></g><g class="cls-10"><path class="cls-14" d="M185,200.72a9.85,9.85,0,0,0-9.85,0l-58.69,33.8a1.39,1.39,0,0,0,0,2.4l59.18,34.17a8.7,8.7,0,0,0,8.69,0L243.56,237a1.39,1.39,0,0,0,0-2.4Z"/></g><path class="cls-15" d="M243.56,234.55,185,200.72a9.85,9.85,0,0,0-9.85,0l-58.69,33.8a1.39,1.39,0,0,0-.69,1.2v29.66a1.36,1.36,0,0,0,.69,1.2l59.18,34.17a8.7,8.7,0,0,0,8.69,0l59.27-34.13a1.39,1.39,0,0,0,.69-1.21V235.75h0A1.39,1.39,0,0,0,243.56,234.55Z"/></g><g class="cls-10"><path class="cls-16" d="M185,189.48a9.85,9.85,0,0,0-9.85,0l-58.69,33.8a1.39,1.39,0,0,0,0,2.4l59.18,34.17a8.7,8.7,0,0,0,8.69,0l59.27-34.14a1.39,1.39,0,0,0,0-2.4Z"/></g><g class="cls-10"><path class="cls-17" d="M185,179.59a9.87,9.87,0,0,0-9.85,0L116.42,213.4a1.39,1.39,0,0,0,0,2.4L175.6,250a8.7,8.7,0,0,0,8.69,0l59.27-34.13a1.39,1.39,0,0,0,0-2.4Z"/></g><g class="cls-10"><path class="cls-18" d="M185,169.71a9.87,9.87,0,0,0-9.85,0l-58.69,33.81a1.39,1.39,0,0,0,0,2.4l59.18,34.17a8.7,8.7,0,0,0,8.69,0l59.27-34.14a1.39,1.39,0,0,0,0-2.4Z"/></g><g class="cls-10"><path class="cls-19" d="M185,159.82a9.85,9.85,0,0,0-9.85,0l-58.69,33.8a1.39,1.39,0,0,0,0,2.4l59.18,34.17a8.7,8.7,0,0,0,8.69,0l59.27-34.14a1.39,1.39,0,0,0,0-2.4Z"/></g><path class="cls-20" d="M243.56,193.65,185,159.82a9.85,9.85,0,0,0-9.85,0l-58.69,33.8a1.37,1.37,0,0,0-.69,1.2v29.66a1.36,1.36,0,0,0,.69,1.2l59.18,34.17a8.7,8.7,0,0,0,8.69,0l59.27-34.14a1.36,1.36,0,0,0,.69-1.2V194.85h0A1.39,1.39,0,0,0,243.56,193.65Z"/></g><ellipse class="cls-21" cx="182.34" cy="176.5" rx="31.51" ry="18.19"/><path class="cls-22" d="M182.5,161.51l.06.29.09-.19a4,4,0,0,1,.06,2.2,17.37,17.37,0,0,1-1.7,2.66c-.78,1-2,3.16-2.35,3.57a8.07,8.07,0,0,1-4.61,2.25c-2.38.24-3-1.12-2.79-1.86a16.78,16.78,0,0,1,2.87-4.28,20.86,20.86,0,0,0,2.46-3.64Z"/><path class="cls-23" d="M175.35,155.05a11.12,11.12,0,0,1-.09,2.16c-.16.62-3.65.82-4.89,1a18,18,0,0,0-4.09,1.38c-.68.33-5.22.81-5.77-.86s2.28-3.08,4.2-3.52,5-1.4,5-1.4Z"/><path class="cls-24" d="M187.47,124.84A42.71,42.71,0,0,1,186.16,135a40.37,40.37,0,0,0-1.25,10s1.49,6.69.18,11.25-2.43,5.84-2.43,5.84a3.93,3.93,0,0,1-6.07.36,54.8,54.8,0,0,0,2.17-11.25,33.8,33.8,0,0,1-2.3-6.94s-.49,5.2-.79,7.3c0,0,.3,3.08-.52,4.33s-4.53,1.61-5.71-.56,1-1.11.33-11.07c0,0-3.42-4.25-3.91-12.08s-.44-10.92,0-12.45,8-7,8-7l4.26,5.45Z"/><path class="cls-25" d="M176.27,146.25a21.53,21.53,0,0,1-.52-2.18s-.5,5.2-.79,7.3c0,0,.29,3.08-.53,4.33-.52.8-2.25,1.23-3.72.86,1.58.76,3.82.32,4.44-.61.82-1.25.52-4.33.52-4.33C175.85,150.35,176.1,148,176.27,146.25Z"/><path class="cls-26" d="M187.47,124.84l-9.34-6.62-4.26-5.45-.33.24,3.88,5,9.33,6.62a42.33,42.33,0,0,1-1.3,10.18,40.14,40.14,0,0,0-1.26,10s1.5,6.69.18,11.25S182,161.9,182,161.9a4.16,4.16,0,0,1-4,1.55c2.74,1.26,4.68-1.3,4.68-1.3s1.12-1.28,2.43-5.84-.18-11.25-.18-11.25a40.37,40.37,0,0,1,1.25-10A42.71,42.71,0,0,0,187.47,124.84Z"/><path class="cls-23" d="M170.64,133.57c-1.23-1.48-1.93-6.1-1.93-6.1s1.93,3.89,3.3,5a9.34,9.34,0,0,1,2.81,4.87c.25,1.48,1.64,7,1.64,7s-.49,5.2-.79,7.3c0,0,.3,3.08-.52,4.33a2,2,0,0,1-.81.63c0-.06.21-6.88,0-9.77S171.87,135.05,170.64,133.57Z"/><path class="cls-27" d="M198.83,93.27s3.26,6.37,3.58,6.87,6.43,8.26,7,12.76c0,0,.45,1.74-1.65,3.28s-12.69,8.27-13.35,8.37-4.49-1.77-4.66-6c0,0,8.3-3.88,10.11-5.81,0,0-3.23-5.43-4.82-7a3.67,3.67,0,0,1-.75-2,10.92,10.92,0,0,1,3.54-9.57Z"/><path class="cls-24" d="M174.45,78.35s-5,1.87-6.77,1.23-6-1.18-8.86-2.81-15.58-4.89-17.46-5c0,0,0,.08.28.21a2.35,2.35,0,0,1,2,1.72,4.7,4.7,0,0,1-.64,3.37c-.22.13-.34-.4-1.55-1a4.63,4.63,0,0,0-2-.52l-.46.58-.28.43a2.87,2.87,0,0,0,2.22,1.91c1.63.12,12.06,4.48,12.72,4.67s9.41,4,11.05,4.57a18.39,18.39,0,0,1,2.92,1.34s5.12-3.41,5.29-3.41S174.45,78.35,174.45,78.35Z"/><path class="cls-28" d="M128.83,69.64c.22,0,2.86.93,2.86.93s-1.05.55-1.15,1a16.06,16.06,0,0,0,.31,3.31,3.59,3.59,0,0,0,.81.63c.16.1.57,1,1,.9a.84.84,0,0,0,.49-.59s.3-.15.39-.21a6.84,6.84,0,0,1,2.6.52,4.29,4.29,0,0,0,2.63.44,11,11,0,0,0,1.63-.72,4.08,4.08,0,0,1,1,.29c.36.19,1.51,1,1.68,1s2.53-4.56-1.68-5.43a10.14,10.14,0,0,1-2.5-.51c-.76-.36-2.89-2-3.68-2a5.34,5.34,0,0,0-1.59.23s-4.76-1.36-5.15-.93S128.62,69.59,128.83,69.64Zm3.45,3.16a1.3,1.3,0,0,0,1-.57.64.64,0,0,0,.73-.06c0,.09.65.21.65.21s.3.25.67.52-.13,1.07-.13,1.07a2.49,2.49,0,0,1-1.12-.31,5.94,5.94,0,0,0-.91-.24A5.9,5.9,0,0,1,132.28,72.8Z"/><path class="cls-23" d="M165.86,119.79c.45-1.53,8-7,8-7l2.12,2.7,1.82,7.08,9.66,3h0s-.52,4.84-8.38,4.28-8.8-6.66-8.8-6.66-.87,2-4.75,2.53A21.6,21.6,0,0,1,165.86,119.79Z"/><path class="cls-27" d="M189.26,82.32l1.33,3.41s6.4,5.54,8.24,7.54a38.6,38.6,0,0,0-3.76,12.47,39.43,39.43,0,0,0-3.81,3.49c-.89,1.09-3.13,6.18-3.84,7.85s1.28,6.72,1.28,6.72-2.72,5-7.1,4.87-7.37-2.84-7.93-7.6-.39-5.45-.39-5.45-2,5.84-5,5.84-7.72-5.07-7.72-5.07-3.2-2.9-2.91-4.21,7.53-12.67,7.93-14.54,2-8.56,2-8.56l6.82-10.73,4.16.2Z"/><path class="cls-29" d="M181.41,127.46c-4.19-.15-7.08-2.63-7.81-7,0,.2.05.4.07.62.56,4.76,3.55,7.43,7.93,7.6s7.1-4.87,7.1-4.87-.15-.37-.34-.93C187.73,123.9,185.19,127.61,181.41,127.46Z"/><path class="cls-30" d="M189.26,82.32a11.88,11.88,0,0,1-.77,4.05c-.81,2-3.43,13.39-9.39,17.28l-2.29,1.45V97.86a27.31,27.31,0,0,1,1.06-7.27,20.93,20.93,0,0,0,1-6.27s1.66-.46,1.67-.43S189.26,82.32,189.26,82.32Z"/><path class="cls-28" d="M181.92,87.6s-1.06.43-1.51-.26a4.92,4.92,0,0,1-.8-2.72s-2.82.14-3.38-1.33a2.44,2.44,0,0,1,.14-2.32,11.46,11.46,0,0,1,.55-2.55l0-.37s-.57-.5-.31-1,1.8-2.13,2-2.4,0-2.26.56-3.25A23.74,23.74,0,0,1,180.92,69s6-4.69,10.73,0-2.39,13.3-2.39,13.3-.57,2.78-1.95,3.89S181.92,87.6,181.92,87.6Z"/><path class="cls-31" d="M186.31,76.2a1.7,1.7,0,0,1,.07-.51,2.48,2.48,0,0,0-1-3c-1.81-1.31-5-2.49-4.89-3.81s5.12-4.56,8.83-2.82,7.18,6.14,4.65,10.8-4.75,5.41-4.75,5.41-.76-.16-.08-.93,1.91-2.73.88-3.35-2.79.72-3,1c-.09.12-.18.26-.26.39a.5.5,0,0,1-.64.2l-.09,0a.5.5,0,0,1-.26-.62l.45-1.21a1.77,1.77,0,0,0,.09-.56Z"/><path class="cls-32" d="M182.07,88.92a7.11,7.11,0,0,1,2.13,2.77A9.49,9.49,0,0,0,182,89.92s-1.58.73-1.58,1.23a32.54,32.54,0,0,1-.52,5,57.7,57.7,0,0,0-.32,7.16l-1,.66-.47-2.44.18-5.22.93-4.75s.17-1.8.24-1.9S182.07,88.92,182.07,88.92Z"/><path class="cls-24" d="M182.07,88.92s-1.52-1.63-2.3-1.66a1.3,1.3,0,0,0-1.2.48c0,.09-.74,2.63-.74,2.63a31.74,31.74,0,0,0-1.29,9.6c.15,5.17.27,5.13.27,5.13l1.89-1.2a23.93,23.93,0,0,1,.52-8c1-4.28.13-4.92.62-5.36S182.31,89.44,182.07,88.92Z"/><path class="cls-24" d="M191.26,109.23c-.89,1.09-3.08,6.17-3.79,7.85a2.44,2.44,0,0,0-.2,1l-.29.19-1-.93s.86-3.1,2.24-6.94,6.81-4.7,6.81-4.7A39.43,39.43,0,0,0,191.26,109.23Z"/><path class="cls-28" d="M189.78,118.71a17.59,17.59,0,0,0-2.05-2.56s.12.64-.77,1-5.52,2.19-5.68,2.4,0,.47.31.53a6.16,6.16,0,0,1-1.36.32c-.39,0-.92.49-.65.92s.48.39.48.39-.11.48.17.58a4.37,4.37,0,0,0,1,.13.56.56,0,0,0,.25.66,14.29,14.29,0,0,0,2.26.4s1.47-.16,1.89-.17a23,23,0,0,0,3.14.35,25.15,25.15,0,0,0,3.76-1.23C192.78,122.3,189.78,118.71,189.78,118.71Z"/><path class="cls-23" d="M190.89,86.84l-.2,3-1.65.52,1.11.91S185.68,101.48,180,104.7c0,0,5.45-1.94,10.6-13.29,0,0-.54-.64-.71-.82l1.15-.51Z"/><path class="cls-23" d="M176.3,86.52s-2,10.37-.3,18.18c0,0-2.08-3.76-.2-18.18Z"/><path class="cls-33" d="M130.65,71.37a3.61,3.61,0,0,1,1-.8s2.16.88,2.53,1.05C134.22,71.62,132,71.39,130.65,71.37Z"/><path class="cls-33" d="M143,77.19c-.09,0-.43-.26-.79-.49h0c1.43-1.93-.15-4.71-.15-4.72C145.27,73.21,143.2,77.25,143,77.19Z"/><path class="cls-33" d="M192.51,122.46a28,28,0,0,1-2.83,1,15.57,15.57,0,0,1-.56-3.74c.17-.94.56-1.16.56-1.16l.1.15S192.78,122.3,192.51,122.46Z"/><path class="cls-34" d="M189.78,118.58a3.25,3.25,0,0,0,.62,2.87c1.09,1.26,1.21,1.42,1.21,1.42h1.26a13.47,13.47,0,0,0,.55-2Z"/><path class="cls-23" d="M178.07,89.55h0s-1.21,7.11-.94,9.72a46.69,46.69,0,0,1,.18,5.43l-.39.33-.11.07s-.12,0-.27-5.13a31.74,31.74,0,0,1,1.29-9.6S177.94,90,178.07,89.55Z"/><path class="cls-23" d="M177.67,163.3a5.9,5.9,0,0,1-1.08-.79,54.8,54.8,0,0,0,2.17-11.25,33.8,33.8,0,0,1-2.3-6.94c.16.65,2.15,4.16,3,7.76S177.67,163.3,177.67,163.3Z"/><path class="cls-33" d="M186.48,81.17h0Z"/><path class="cls-33" d="M186.48,81.17a10.41,10.41,0,0,1-1.57,3.9c-1.06,1.23-1.87,2.41-1.87,2.41-.66.09-1.12.12-1.12.12s-1.06.43-1.51-.26a4.92,4.92,0,0,1-.8-2.72s3.8-.39,5.25-1.4A3.6,3.6,0,0,0,186.48,81.17Z"/><path class="cls-35" d="M187.85,116.17s-.2.43-.24.47-.09-.33-.09-.33.17-.36.18-.36S187.85,116.17,187.85,116.17Z"/><path class="cls-23" d="M176.81,105.1s-2.65,8.47-3.53,10.52l.05,2S176.71,107.14,176.81,105.1Z"/><path class="cls-23" d="M174.25,108.12a.87.87,0,1,0,1.66.5.87.87,0,1,0-1.66-.5Z"/><path class="cls-23" d="M172.91,111.77a.89.89,0,0,0,.55,1.15.94.94,0,0,0,.55-1.79A.9.9,0,0,0,172.91,111.77Z"/><path class="cls-36" d="M186.24,77.77a1.77,1.77,0,0,0,.09-.56l0-1a1.7,1.7,0,0,1,.07-.51,2.19,2.19,0,0,0,.14-.63s4.13,3,6.75,3.12c-2.2,3.53-4,4.14-4,4.14s-.76-.16-.08-.93,1.91-2.73.88-3.35-2.79.72-3,1c-.09.12-.18.26-.26.39a.5.5,0,0,1-.64.2l-.09,0a.5.5,0,0,1-.26-.62Z"/><path class="cls-22" d="M194.05,188.57a21,21,0,0,1-3.67.53c-1.8.07-6.71,1.05-6.59,2.89s2.69,4.48,5.9,4.87,7.35-.53,9.45-.48a2.94,2.94,0,0,0,2.72-4.13C201,190.21,194.05,188.57,194.05,188.57Z"/><path class="cls-22" d="M204.88,183.64s.69,1.11.36,1.79-1.24,2.37-4.18.73-8.57-3.95-8.57-3.95-3.24-1.73-3.06-3.76,3.15-1.72,3.15-1.72Z"/><path class="cls-24" d="M185.81,154.82s1.25,13.2,3.9,18.2,3.44,14.4,4,16.18,2.32,4.35,5.07,4.9,3.2-1.33,3.07-2.45-.9-2.94-.91-4.16a12.93,12.93,0,0,1,.31-2.33s3.16.93,3.63-1.52a7,7,0,0,1-.29-1.07c0-.36.27-9.2.34-10.27a45.33,45.33,0,0,0-1.37-9.69c-.87-2.82-.58-8.83-.58-8.83l-9-1.25Z"/><path class="cls-37" d="M203.56,162.61c-.87-2.82-.58-8.83-.58-8.83l-.79-.1c0,.83-.22,6.1.58,8.69a45,45,0,0,1,1.36,9.68c-.08,1.07-.4,9.9-.36,10.26a6.52,6.52,0,0,0,.3,1.08c-.49,2.44-3.64,1.51-3.64,1.51a13.08,13.08,0,0,0-.31,2.33c0,1.22.77,3,.9,4.15s-.32,3-3.07,2.45l-.25-.07a6.18,6.18,0,0,0,1.08.34c2.75.54,3.2-1.33,3.07-2.45s-.9-2.94-.91-4.16a14.62,14.62,0,0,1,.31-2.44s3.16,1,3.63-1.41a7,7,0,0,1-.29-1.07c0-.36.27-9.2.34-10.27A45.33,45.33,0,0,0,203.56,162.61Z"/><path class="cls-23" d="M200.32,154.74a10.16,10.16,0,0,1-.9,3.79,72.42,72.42,0,0,1-.7,10.57s1.16,7.13,1.89,9.38a27,27,0,0,1,.64,6.68,3.21,3.21,0,0,0,.88.15c.51,0,.55-8.72-.24-10.26s-1.38-8.35-1.09-10.42.2-8,.59-9a1.33,1.33,0,0,0-.49-1.59Z"/><path class="cls-23" d="M192.77,107.13a6.44,6.44,0,0,0-2.48,5.14l1.94-.42S191.65,108.25,192.77,107.13Z"/><path class="cls-23" d="M193.78,157.62c5.95.18,9.16-2.46,9.16-2.46,0-.83,0-1.38,0-1.38l-9-1.25-8.19,2.29s.25,2.6.76,5.93c1.45.16,2.89-3.42,2.89-3.42l4.08.26S187.83,157.43,193.78,157.62Z"/><path class="cls-27" d="M187,155s12.93,5.27,19.19-4.74a1.81,1.81,0,0,0,.25-1l-.08-2.34a2.45,2.45,0,0,1,.12-.86h0a3.71,3.71,0,0,0,.13-1.87c-.48-2.61-1.8-9.7-2.1-11.67-.38-2.4.89-12,3-16.16s-3.32-13.33-3.32-13.33a3.52,3.52,0,0,0-3.94-1.41s2.49,1.74,1.13,3.57-5.46,3.33-5.46,3.33-7.56,3.92-10.15,8.7a20,20,0,0,0-1,5.62c-.08,3.17.27,10.79.14,11.85s-.53,8.33-.49,8.66S187,155,187,155Z"/><path class="cls-38" d="M201.47,103a1.87,1.87,0,0,0-.05-1.47,3.84,3.84,0,0,0-1.17.14A4.69,4.69,0,0,1,201.47,103Z"/><path class="cls-24" d="M190.88,156.09s7.62-20.56,7.25-28c-.35-7.28-11.11,14.75-11.11,14.75L187,155A22.63,22.63,0,0,0,190.88,156.09Z"/><path class="cls-39" d="M206.23,144.08a2.53,2.53,0,0,0-.13.86l.08,2.32a1.73,1.73,0,0,1-.25,1c-6.23,9.95-19.12,4.7-19.12,4.7s-1.77-8.09-2.33-10.71c0,.64,0,1.09,0,1.16,0,.34,2.51,11.63,2.51,11.63s12.93,5.27,19.19-4.74a1.81,1.81,0,0,0,.25-1l-.08-2.34a2.45,2.45,0,0,1,.12-.86,3.71,3.71,0,0,0,.13-1.87c0-.27-.11-.6-.18-1A3.15,3.15,0,0,1,206.23,144.08Z"/><path class="cls-40" d="M207.31,114.58c-2.14,4.13-3.42,13.68-3,16.06,0,.22.08.51.14.84,0-3.44,1.2-11.39,3.1-15.08a7,7,0,0,0,.27-4.37A5.44,5.44,0,0,1,207.31,114.58Z"/><path class="cls-27" d="M186.77,131.8a33.15,33.15,0,0,0,.46-5.05c0-2.92.85-7.78,6.14-6.93,7.49,1.19,4.29,11.67,3.46,13.5s-4.09,10.14-4.27,10.61-5.33,10.81-7.18,13.3a.45.45,0,0,1-.67.08c-.75-.64-2.44-2.16-2.66-3.12-.28-1.23.8-5.72.8-5.72s2.92-11.2,3.16-11.72S186.32,134.52,186.77,131.8Z"/><path class="cls-28" d="M192.89,107.36a2.63,2.63,0,0,0-2-1.49c-1.38-.14-2.15-.52-2.29-1a10.36,10.36,0,0,0-.48-1.88,14.36,14.36,0,0,1-.61-2.65s-1-.36-1.09-.82.49-2.09.44-2.22a4.17,4.17,0,0,1-.55-1.91,9.86,9.86,0,0,1,.59-2.86c.42-1,3.33-6.76,10.89-3.77s1.84,9.44,2.59,13.6c0,0,.68.88-.56,2.36S195,106.52,192.89,107.36Z"/><path class="cls-33" d="M199.86,104.69c1.24-1.48.56-2.36.56-2.36a5.76,5.76,0,0,1,0-1.85l-3,.57s-4.42-3.94-4.1-1.83-.76,2.49-.76,2.49l.9,1.15c.24.3.1.65-.09,1-1.26,2.17-4.33,1.52-4.33,1.52a4.38,4.38,0,0,0,1.87.52,2.63,2.63,0,0,1,2,1.49C195,106.52,198.6,106.19,199.86,104.69Z"/><path class="cls-31" d="M186.62,90.29s-.53,1.55.32,2.21,1.64,1.27,1.64,1.27v2a1.43,1.43,0,0,0,.23.8l1.08,1.66a2,2,0,0,1,.32,1.08v.81a.46.46,0,0,0,.4.46l.29,0a.46.46,0,0,0,.5-.41l.12-1.12s.56-.9,1.81.17l1.11.46a1.23,1.23,0,0,1,.68.7c.31.87,1,2.57,1.48,2.85.68.38,3.29-1,3.64-1.57s1.23-4.59,1.78-6.49.23-6.57-5.41-7.76S187.39,88.6,186.62,90.29Z"/><path class="cls-36" d="M200.25,101.66c.35-.6,1.23-4.59,1.78-6.49a13.8,13.8,0,0,1-5,1.88c-2.83.43-8.44-2.76-8.44-2.76v1.45a1.43,1.43,0,0,0,.23.8l1.08,1.66a2,2,0,0,1,.32,1.08v.81a.46.46,0,0,0,.4.46l.29,0a.46.46,0,0,0,.5-.41l.12-1.12s.56-.9,1.81.17l1.61.66s1,3,1.66,3.35S199.9,102.26,200.25,101.66Z"/><path class="cls-30" d="M200.36,101.85s2.2,1.35,1.1,3.26-9,5.35-9.43,5.86c0,0-.32-2.87.74-3.84,0,0,6.08-1.19,7-2.74A3.13,3.13,0,0,0,200.36,101.85Z"/><path class="cls-32" d="M200.36,101.85a3.13,3.13,0,0,1-.57,2.54c-.71,1.17-4.37,2.14-6.1,2.54h0a6.33,6.33,0,0,1,1.72,2.21c2.45-1.27,5.41-2.9,6.05-4C202.56,103.2,200.36,101.85,200.36,101.85Z"/><path class="cls-24" d="M201.85,108s-3.54,2-5.27,3-3.61,2.14-3.61,2.14l-.67-.66-.79,1.75a23.51,23.51,0,0,0-4,3,13.92,13.92,0,0,0-2.38,3.56s3.39-4.45,6.07-5.78l.72-.36.4-1.38.66.69S200.77,109.18,201.85,108Z"/><path class="cls-41" d="M192.72,168h0a1.9,1.9,0,0,0-.47-.76L177.69,155c-.39-.32-.76-.08-.83.55l-1.71,14.23a2.31,2.31,0,0,0,.57,1.8L188,182.2l-.42,4.11,3.65-1.68h0a.86.86,0,0,0,.32-.7l1.36-14.87A2.55,2.55,0,0,0,192.72,168Z"/><path class="cls-5" d="M173.72,156.44l3.44-1.48.11-.05a.49.49,0,0,1,.42.13l14.56,12.22a1.9,1.9,0,0,1,.47.76l-.52.26h0l-3,1.43L176.47,158.8h0Z"/><path class="cls-24" d="M172.14,173.22l14.89,13c.4.35.79.08.86-.61l1.44-15a2.27,2.27,0,0,0-.6-1.79L174.2,156.55c-.38-.32-.75-.08-.83.55l-1.79,14.31A2.31,2.31,0,0,0,172.14,173.22Z"/><path class="cls-22" d="M189.74,184.71l1.4-14.91a2.29,2.29,0,0,0-.61-1.79L176,155.75a.54.54,0,0,0-.35-.14.45.45,0,0,1,.47.12L190.65,168a2.31,2.31,0,0,1,.61,1.79l-1.4,14.91c0,.47-.22.77-.48.78C189.57,185.37,189.7,185.1,189.74,184.71Z"/><path class="cls-22" d="M184.41,162.76l.76-.38a.7.7,0,0,1,.47-.09l.06,0c.08,0,.12.09.11.21l0,.14-2.14,1.07v-.14a.72.72,0,0,1,.17-.35l.07-.08A1.55,1.55,0,0,1,184.41,162.76Z"/><polygon class="cls-23" points="184.68 164.6 183.65 163.73 185.77 162.35 186.79 163.2 184.68 164.6"/><path class="cls-42" d="M185.43,163.62l.77-.38a.75.75,0,0,1,.47-.08h.06c.08,0,.12.1.11.22l0,.13-2.14,1.08v-.14a.7.7,0,0,1,.16-.35l.07-.08A2,2,0,0,1,185.43,163.62Z"/><polygon class="cls-43" points="185.89 163.99 185.96 163.36 185.89 163.4 185.82 164.02 185.89 163.99"/><polygon class="cls-43" points="185.96 163.36 184.9 162.51 184.84 162.54 185.89 163.4 185.96 163.36"/><path class="cls-22" d="M179.78,158.87l.76-.38a.76.76,0,0,1,.47-.08h.06c.08,0,.12.1.1.21v.14L179,159.83l0-.14a.63.63,0,0,1,.16-.34l.07-.08A1.66,1.66,0,0,1,179.78,158.87Z"/><polygon class="cls-23" points="180.04 160.69 179.02 159.83 181.14 158.47 182.15 159.31 180.04 160.69"/><path class="cls-44" d="M180.8,159.72l.76-.37a.7.7,0,0,1,.47-.09l.06,0c.07,0,.11.09.1.21v.14L180,160.69v-.14a.72.72,0,0,1,.17-.35l.07-.07A1.74,1.74,0,0,1,180.8,159.72Z"/><polygon class="cls-43" points="181.25 160.09 181.32 159.47 181.25 159.5 181.18 160.12 181.25 160.09"/><polygon class="cls-43" points="181.32 159.47 180.27 158.63 180.22 158.65 181.25 159.5 181.32 159.47"/><path class="cls-5" d="M186.36,160.38l-.27,2.66-.69-.58.27-2.58a1.35,1.35,0,0,0-.41-1.08l-3-2.48c-.27-.22-.52-.1-.56.27l-.28,2.55-.68-.57.29-2.62c.09-.82.64-1.08,1.22-.6l3.16,2.64A3,3,0,0,1,186.36,160.38Z"/><path class="cls-5" d="M181.26,156.14l1.22-.13,3.53,3.3.15,2-.07,1.7-.79.39,0-2.11-.05-1.45-.73-1.05s-1.32-1.07-1.34-1.1S181.26,156.14,181.26,156.14Z"/><polygon class="cls-5" points="180.67 159.53 181.46 159.14 181.67 157.26 180.91 157.32 180.69 157.36 180.67 159.53"/><path class="cls-45" d="M180.7,155.56l.84-.42-.22.46-.29.1Z"/><path class="cls-23" d="M185.58,160.77l-.28,2.66-.69-.58.27-2.58a1.35,1.35,0,0,0-.41-1.08l-3-2.49c-.26-.22-.51-.1-.55.28l-.29,2.55L180,159l.3-2.62c.09-.82.64-1.09,1.22-.6l3.16,2.64A3.06,3.06,0,0,1,185.58,160.77Z"/><path class="cls-28" d="M182.27,154.08a16.46,16.46,0,0,0-.37,3.25,4.36,4.36,0,0,0,2.14,2.14c.74.23.44-.66.61-1.22a8,8,0,0,0,.14-1.78Z"/><path class="cls-33" d="M184.79,156.47l-2.52-2.39s-.11.54-.21,1.18a6.27,6.27,0,0,0,2.65,2.69A9.9,9.9,0,0,0,184.79,156.47Z"/><path class="cls-23" d="M182.08,154.28s.89,2.79,3.13,3.06l-.76-3.06s-1.89-.54-1.95-.54S182.08,154.28,182.08,154.28Z"/><path class="cls-46" d="M196.66,121.46c2.07,6.32-3.13,16.15-3.88,19s-8.66,16.31-8.66,16.31h0l-.08.13a6.19,6.19,0,0,0,.52.36,1.69,1.69,0,0,0,.36.13h0a.47.47,0,0,0,.45-.19c1.85-2.49,7-12.85,7.18-13.3s3.45-8.77,4.28-10.61C197.49,131.85,199.69,124.78,196.66,121.46Z"/><path class="cls-47" d="M247.29,163.91a7.19,7.19,0,0,1-3.52-.84l-18.63-10.76a2.26,2.26,0,0,1,0-4.25l18.63-10.76a7.84,7.84,0,0,1,7,0l18.63,10.76a2.26,2.26,0,0,1,0,4.25L250.8,163.07A7.17,7.17,0,0,1,247.29,163.91Zm-3.35-1.13a7.37,7.37,0,0,0,6.69,0L269.27,152a1.93,1.93,0,0,0,0-3.68l-18.64-10.76a7.37,7.37,0,0,0-6.69,0L225.3,148.35a2.25,2.25,0,0,0-1.34,1.84A2.28,2.28,0,0,0,225.3,152Z"/><path class="cls-48" d="M271.51,146.06v-6.38l-1.16-.65c-.33,2-2.68,3.3-4.64,3.57l-13.35,7.81-5.83,2.11-18.6-9.6.43-.25c-1.59-.74-2.45-2.44-3.31-4l-1.25.75-.74.21v6.48h0a2.78,2.78,0,0,0,1.63,2.29l18.64,10.76a8.75,8.75,0,0,0,7.91,0l18.64-10.76a2.78,2.78,0,0,0,1.63-2.24v-.11Z"/><path class="cls-4" d="M271.51,140.38v-4.22l-1.16-.65c-.33,2-2.68,3.31-4.64,3.58l-13.35,7.81-5.83,2.1-18.6-9.59.43-.25c-1.59-.75-2.45-2.44-3.31-4l-1.25.74-.74.21v4.33h0a2.78,2.78,0,0,0,1.63,2.29l18.64,10.76a8.75,8.75,0,0,0,7.91,0l18.64-10.76a2.78,2.78,0,0,0,1.63-2.25v-.11Z"/><path class="cls-5" d="M265.71,139.09l-13.35,7.81-5.07,1.83v5.71a8.07,8.07,0,0,0,4-.94l18.64-10.76a2.78,2.78,0,0,0,1.63-2.25v-.11h0v-4.22l-1.06-.59h-.11C270,137.53,267.65,138.82,265.71,139.09Z"/><path class="cls-49" d="M243.33,149.21l-18.64-10.76c-2.18-1.26-2.18-3.31,0-4.57l18.64-10.76a8.75,8.75,0,0,1,7.91,0l18.64,10.76c2.18,1.26,2.18,3.31,0,4.57l-18.64,10.76A8.75,8.75,0,0,1,243.33,149.21Z"/><path class="cls-27" d="M247.29,147.25a6.47,6.47,0,0,1-3.18-.76l-14.56-8.4a2,2,0,0,1,0-3.85l14.56-8.41a7,7,0,0,1,6.35,0L265,134.24a2,2,0,0,1,0,3.85l-14.56,8.4A6.46,6.46,0,0,1,247.29,147.25Zm0-21.86a6.08,6.08,0,0,0-3,.72l-14.56,8.41a1.73,1.73,0,0,0,0,3.29l14.56,8.4a6.65,6.65,0,0,0,6,0l14.55-8.4a1.73,1.73,0,0,0,0-3.29l-14.55-8.41A6.21,6.21,0,0,0,247.28,125.39Z"/><path class="cls-7" d="M269.88,138.45l-18.64,10.76a8.75,8.75,0,0,1-7.91,0l-18.64-10.76a3,3,0,0,1-1.61-2,2.63,2.63,0,0,0,1.61,2.54l18.64,10.76a8.75,8.75,0,0,0,7.91,0L269.88,139a2.63,2.63,0,0,0,1.61-2.54A3,3,0,0,1,269.88,138.45Z"/><path class="cls-47" d="M252.75,256.69a7.15,7.15,0,0,1-3.51-.84L230.6,245.1a2.26,2.26,0,0,1,0-4.25l18.64-10.76a7.75,7.75,0,0,1,7,0l18.64,10.76a2.26,2.26,0,0,1,0,4.25l-18.64,10.75A7.17,7.17,0,0,1,252.75,256.69Zm-3.35-1.12a7.39,7.39,0,0,0,6.7,0l18.63-10.76a2.25,2.25,0,0,0,1.34-1.84,2.28,2.28,0,0,0-1.34-1.84L256.1,230.37a7.46,7.46,0,0,0-6.7,0l-18.64,10.76a1.94,1.94,0,0,0,0,3.68Z"/><path class="cls-48" d="M277,238.84v-6.38l-1.17-.65c-.33,2-2.68,3.31-4.64,3.58l-13.35,7.81L252,245.3l-18.6-9.59.43-.25c-1.59-.75-2.44-2.44-3.3-4l-1.26.74-.74.21v6.49h0a2.77,2.77,0,0,0,1.64,2.29L248.79,252a8.77,8.77,0,0,0,7.92,0l18.63-10.75A2.82,2.82,0,0,0,277,239a.45.45,0,0,0,0-.11Z"/><path class="cls-4" d="M277,233.17V229l-1.17-.65c-.33,2-2.68,3.31-4.64,3.58l-13.35,7.81-5.83,2.1-18.6-9.6.43-.25c-1.59-.74-2.44-2.44-3.3-4l-1.26.75-.74.21v4.33h0a2.76,2.76,0,0,0,1.64,2.28l18.63,10.76a8.77,8.77,0,0,0,7.92,0l18.63-10.76a2.82,2.82,0,0,0,1.64-2.24.41.41,0,0,0,0-.11Z"/><path class="cls-5" d="M271.17,231.88l-13.35,7.81-5.07,1.83v5.71a8.14,8.14,0,0,0,4-.95l18.63-10.76a2.82,2.82,0,0,0,1.64-2.24.41.41,0,0,0,0-.11h0V229l-1.07-.59h-.11C275.43,230.32,273.12,231.61,271.17,231.88Z"/><path class="cls-50" d="M248.79,242l-18.63-10.76c-2.19-1.26-2.19-3.31,0-4.57l18.63-10.75a8.75,8.75,0,0,1,7.91,0l18.64,10.75c2.18,1.26,2.18,3.31,0,4.57L256.71,242A8.77,8.77,0,0,1,248.79,242Z"/><path class="cls-27" d="M252.75,240a6.47,6.47,0,0,1-3.18-.76L235,230.88a2,2,0,0,1,0-3.86l14.55-8.4a7,7,0,0,1,6.35,0l14.56,8.4a2,2,0,0,1,0,3.86l-14.56,8.4A6.41,6.41,0,0,1,252.75,240Zm0-21.86a6.15,6.15,0,0,0-3,.72l-14.56,8.41a1.72,1.72,0,0,0,0,3.28L249.74,239a6.65,6.65,0,0,0,6,0l14.56-8.41a1.73,1.73,0,0,0,0-3.28l-14.56-8.41A6.15,6.15,0,0,0,252.75,218.18Z"/><path class="cls-7" d="M275.34,231.23,256.71,242a8.77,8.77,0,0,1-7.92,0l-18.63-10.76a2.91,2.91,0,0,1-1.62-2,2.64,2.64,0,0,0,1.62,2.55l18.63,10.76a8.77,8.77,0,0,0,7.92,0l18.63-10.76a2.63,2.63,0,0,0,1.62-2.55A2.94,2.94,0,0,1,275.34,231.23Z"/><path class="cls-47" d="M115.73,262.11a7.15,7.15,0,0,1-3.51-.84L93.58,250.51a2.26,2.26,0,0,1,0-4.25l18.64-10.76a7.82,7.82,0,0,1,7,0l18.64,10.76a2.26,2.26,0,0,1,0,4.25l-18.64,10.76A7.17,7.17,0,0,1,115.73,262.11ZM112.38,261a7.39,7.39,0,0,0,6.7,0l18.63-10.75a1.93,1.93,0,0,0,0-3.68l-18.63-10.76a7.39,7.39,0,0,0-6.7,0L93.74,246.55a1.93,1.93,0,0,0,0,3.67Z"/><path class="cls-48" d="M140,244.26v-6.38l-1.17-.65c-.33,2-2.68,3.3-4.64,3.57l-13.35,7.81L115,250.72l-18.6-9.6.43-.25c-1.59-.74-2.44-2.44-3.3-4l-1.26.75-.74.2v6.49h0a2.77,2.77,0,0,0,1.64,2.29l18.63,10.76a8.77,8.77,0,0,0,7.92,0l18.63-10.76a2.82,2.82,0,0,0,1.64-2.25.34.34,0,0,0,0-.1Z"/><path class="cls-4" d="M140,238.58v-4.22l-1.17-.65c-.33,2-2.68,3.31-4.64,3.58L120.8,245.1,115,247.2l-18.6-9.6.43-.24c-1.59-.75-2.44-2.44-3.3-4l-1.26.74-.74.21v4.33h0a2.77,2.77,0,0,0,1.64,2.29l18.63,10.76a8.77,8.77,0,0,0,7.92,0l18.63-10.76a2.82,2.82,0,0,0,1.64-2.25.45.45,0,0,0,0-.11Z"/><path class="cls-5" d="M134.15,237.29,120.8,245.1l-5.07,1.83v5.71a8.13,8.13,0,0,0,4-.94l18.63-10.76a2.82,2.82,0,0,0,1.64-2.25.45.45,0,0,0,0-.11h0v-4.22l-1.07-.59h-.11C138.41,235.73,136.1,237,134.15,237.29Z"/><path class="cls-51" d="M111.77,247.41,93.14,236.65c-2.19-1.26-2.19-3.31,0-4.57l18.63-10.76a8.75,8.75,0,0,1,7.91,0l18.64,10.76c2.18,1.26,2.18,3.31,0,4.57l-18.63,10.76A8.77,8.77,0,0,1,111.77,247.41Z"/><path class="cls-27" d="M115.73,245.45a6.47,6.47,0,0,1-3.18-.76L98,236.29a2,2,0,0,1,0-3.85L112.55,224a7,7,0,0,1,6.35,0l14.56,8.41a2,2,0,0,1,0,3.85l-14.56,8.4A6.41,6.41,0,0,1,115.73,245.45Zm0-21.86a6.15,6.15,0,0,0-3,.72l-14.56,8.41a1.72,1.72,0,0,0,0,3.28l14.56,8.41a6.65,6.65,0,0,0,6,0L133.3,236a1.73,1.73,0,0,0,0-3.29l-14.56-8.41A6.15,6.15,0,0,0,115.73,223.59Z"/><path class="cls-7" d="M138.32,236.65l-18.63,10.76a8.77,8.77,0,0,1-7.92,0L93.14,236.65a2.94,2.94,0,0,1-1.62-2,2.63,2.63,0,0,0,1.62,2.55l18.63,10.76a8.77,8.77,0,0,0,7.92,0l18.63-10.76a2.62,2.62,0,0,0,1.62-2.54A3,3,0,0,1,138.32,236.65Z"/><path class="cls-47" d="M114.37,162.21a7.17,7.17,0,0,1-3.51-.84L92.23,150.61a2.25,2.25,0,0,1,0-4.25l18.63-10.76a7.82,7.82,0,0,1,7,0l18.64,10.76a2.26,2.26,0,0,1,0,4.25l-18.63,10.76A7.19,7.19,0,0,1,114.37,162.21ZM111,161.08a7.39,7.39,0,0,0,6.7,0l18.64-10.75a1.94,1.94,0,0,0,0-3.68l-18.64-10.76a7.39,7.39,0,0,0-6.7,0L92.39,146.65a1.93,1.93,0,0,0,0,3.67Z"/><path class="cls-48" d="M138.6,144.36V138l-1.17-.65c-.33,2-2.67,3.3-4.63,3.57l-13.35,7.81-5.83,2.11L95,141.22l.43-.25c-1.59-.74-2.45-2.44-3.31-4l-1.25.75-.75.2v6.49h0a2.79,2.79,0,0,0,1.64,2.29l18.64,10.76a8.75,8.75,0,0,0,7.91,0L137,146.71a2.81,2.81,0,0,0,1.63-2.25v-.1Z"/><path class="cls-4" d="M138.6,138.68v-4.22l-1.17-.65c-.33,2-2.67,3.31-4.63,3.58l-13.35,7.81-5.83,2.1L95,137.7l.43-.24c-1.59-.75-2.45-2.44-3.31-4l-1.25.74-.75.21v4.33h0A2.79,2.79,0,0,0,91.78,141l18.64,10.76a8.75,8.75,0,0,0,7.91,0L137,141a2.81,2.81,0,0,0,1.63-2.25v-.11Z"/><path class="cls-5" d="M132.8,137.39l-13.35,7.81L114.37,147v5.71a8.08,8.08,0,0,0,4-.94L137,141a2.81,2.81,0,0,0,1.63-2.25v-.11h0v-4.22l-1.07-.59h-.11C137.06,135.83,134.74,137.12,132.8,137.39Z"/><path class="cls-52" d="M110.42,147.51,91.78,136.75c-2.18-1.26-2.18-3.31,0-4.57l18.64-10.76a8.75,8.75,0,0,1,7.91,0L137,132.18c2.18,1.26,2.18,3.31,0,4.57l-18.64,10.76A8.75,8.75,0,0,1,110.42,147.51Z"/><path class="cls-27" d="M114.37,145.55a6.41,6.41,0,0,1-3.17-.76l-14.56-8.4a2,2,0,0,1,0-3.85l14.56-8.41a7,7,0,0,1,6.35,0l14.56,8.41a2,2,0,0,1,0,3.85l-14.56,8.4A6.47,6.47,0,0,1,114.37,145.55Zm0-21.86a6.15,6.15,0,0,0-3,.72L96.8,132.82a1.73,1.73,0,0,0,0,3.28l14.56,8.41a6.65,6.65,0,0,0,6,0l14.56-8.4a1.73,1.73,0,0,0,0-3.29l-14.56-8.41A6.15,6.15,0,0,0,114.37,123.69Z"/><path class="cls-7" d="M137,136.75l-18.64,10.76a8.75,8.75,0,0,1-7.91,0L91.78,136.75a3,3,0,0,1-1.62-2,2.64,2.64,0,0,0,1.62,2.55L110.42,148a8.75,8.75,0,0,0,7.91,0L137,137.27a2.63,2.63,0,0,0,1.61-2.54A3,3,0,0,1,137,136.75Z"/><g class="cls-9"><path class="cls-53 advantages-scale" d="M82.81,46.15c24.28-7.31,38.73,20.2,24.54,46.72C95.31,115.37,66,131.63,58.29,108c-4.52-13.9-.78-48,22.19-60.84-6.19,3.2-10.73,7.72-15.19,15.13C73.76,72.7,74.45,73.56,81.76,82c8.66-20.46,9.37-22.13,15.77-36a20.86,20.86,0,0,0-14.72.15Zm-1.7.7-.55.26.55-.26Zm1.23-.52.41-.16-.41.16Zm-.58.23-.57.25.57-.25Zm0,0,.47-.19-.47.19Z"/><path class="cls-2 advantages-scale" d="M41.76,72.23c1.42-1.48,2.94-3,4.56-4.39v70.81q-2.43,2.16-4.56,4.39V72.23Z"/><path class="cls-2 advantages-scale" d="M34.48,106.36a57.46,57.46,0,0,1,3.33-4.69v45.91a57.46,57.46,0,0,0-3.33,4.69V106.36Z"/><path class="cls-2 advantages-scale" d="M28,159.73l.08.16.08-4.65L28,155v4.74Zm0,13.69v-70.8c0-.46,0-.91,0-1.37a36.33,36.33,0,0,1,1.67-9.54v70.81A36.26,36.26,0,0,0,28,172.06c0,.45,0,.91,0,1.36Z"/><polygon class="cls-47 advantages-scale" points="27.97 159.73 28.05 159.89 28.13 155.24 27.97 154.99 27.97 159.73 27.97 159.73"/><path class="cls-47" d="M80.56,47.11l-.08,0,.08,0Zm2.19-.94.06,0-.06,0Zm-1.56.64-.08,0,.08,0Zm1-.44h.11l-.11,0Z"/><path class="advantages-scale cls-2" d="M81.76,46.56A20.79,20.79,0,0,1,97.53,46c-9,20-10,22-15.77,36C72.84,71.59,71.47,70,65.29,62.28c1.75-2.9,7.07-11.75,16.47-15.72Z"/><path class="cls-54 advantages-scale" d="M137.94,220.73c-7.28,2.17-12-2.26-13.66-3.57-13.37-11.32-25.09-25.13-38.5-36.4-4-3.34-6.4-2-7.77-1.59-25,9.92-25,9.92-29,3.86-7.35-13-7.61-14.06-11-22.19-.77-1.86-3.42-4.67-4.6-4.52-5.61,1.58-4.87,2.73-5.39,3.41V155c6.62-2.55,7.3-2.85,10,3.31,12.36,26.23,14.54,25.64,17.42,25,26.33-10.53,26-9.76,32.71-2.79,11.61,12.09,35,35.62,42.25,37.49a25,25,0,0,0,7.83-.55c25.42-8.52,35.5-13.87,60.38-24.59l2.22,3.62c-9.2,4-37,15-62.64,23Zm79.45,28.55v-70.8q-11.73.66-23.91.57C101.47,178.32,28,144.23,28,102.62v70.8c0,41.61,73.5,75.71,165.51,76.44q12.17.09,23.91-.58Z"/><path class="cls-2 advantages-scale" d="M137.94,220.73c-6.55,1.68-12.74,3.27-51.28-38.2-4.88-4.9-4.88-4.9-29.91,5.08-2.84.69-7.14,1.73-19-26.5-3.66-8.34-9.75-1.46-9.81-1.38V155a16.61,16.61,0,0,1,5.32-2.13A2.35,2.35,0,0,1,35,153c.84.43,1.68,1.41,3.14,4.52C45,172.05,45,172.05,49.86,180c2.9,4.29,2.9,4.29,26.39-5,1.61-.43,5-1.33,10,2.69,14.15,11.28,25.67,25.4,39.64,36.88,5.24,3.73,8.4,6,72.68-21.71l2.22,3.62c-9.2,4-37.21,16.23-62.83,24.29Z"/></g></g></g></svg>