<svg xmlns="http://www.w3.org/2000/svg" xmlns:xlink="http://www.w3.org/1999/xlink" viewBox="0 0 375.75 360.33"><defs><style>.cls-1{isolation:isolate;}.cls-102,.cls-2,.cls-3,.cls-52,.cls-98{opacity:0.3;}.cls-2{fill:url(#radial-gradient);}.cls-3{fill:url(#radial-gradient-2);}.cls-17,.cls-4,.cls-5,.cls-6{fill:#42e8e0;}.cls-4{opacity:0.4;}.cls-5{opacity:0.8;}.cls-10,.cls-106,.cls-11,.cls-15,.cls-18,.cls-21,.cls-26,.cls-30,.cls-37,.cls-38,.cls-39,.cls-40,.cls-41,.cls-42,.cls-43,.cls-44,.cls-47,.cls-49,.cls-7,.cls-8,.cls-9{opacity:0.5;}.cls-10,.cls-106,.cls-11,.cls-37,.cls-38,.cls-39,.cls-40,.cls-41,.cls-42,.cls-43,.cls-44,.cls-50,.cls-52,.cls-7,.cls-8,.cls-9{mix-blend-mode:lighten;}.cls-7{fill:url(#linear-gradient);}.cls-8{fill:url(#linear-gradient-2);}.cls-9{fill:url(#linear-gradient-3);}.cls-10{fill:url(#linear-gradient-4);}.cls-11{fill:url(#linear-gradient-5);}.cls-12{fill:url(#_ÂÁ_Ï_ÌÌ_È_ËÂÌÚ_16);}.cls-13{fill:url(#linear-gradient-6);}.cls-14{fill:#251c72;}.cls-15{fill:url(#radial-gradient-3);}.cls-16{fill:url(#linear-gradient-7);}.cls-17{opacity:0.6;}.cls-18{fill:url(#radial-gradient-4);}.cls-19{fill:url(#_ÂÁ_Ï_ÌÌ_È_ËÂÌÚ_16-2);}.cls-20{fill:url(#linear-gradient-8);}.cls-21{fill:url(#radial-gradient-5);}.cls-22,.cls-98{fill:#0dc9a8;}.cls-23{fill:#bcbeff;}.cls-24{fill:url(#_ÂÁ_Ï_ÌÌ_È_ËÂÌÚ_16-3);}.cls-25{fill:url(#linear-gradient-9);}.cls-26{fill:url(#radial-gradient-6);}.cls-27{fill:url(#linear-gradient-10);}.cls-28{fill:url(#_ÂÁ_Ï_ÌÌ_È_ËÂÌÚ_16-4);}.cls-29{fill:url(#linear-gradient-11);}.cls-30{fill:url(#radial-gradient-7);}.cls-31{fill:url(#linear-gradient-12);}.cls-32{fill:#313b4f;}.cls-33{fill:url(#linear-gradient-13);}.cls-34{fill:url(#linear-gradient-14);}.cls-35{fill:url(#_ÂÁ_Ï_ÌÌ_È_ËÂÌÚ_41);}.cls-36{fill:url(#linear-gradient-15);}.cls-37{fill:url(#linear-gradient-16);}.cls-38{fill:url(#linear-gradient-17);}.cls-39{fill:url(#linear-gradient-18);}.cls-40{fill:url(#linear-gradient-19);}.cls-41{fill:url(#linear-gradient-20);}.cls-42{fill:url(#linear-gradient-21);}.cls-43{fill:url(#linear-gradient-22);}.cls-44{fill:url(#linear-gradient-23);}.cls-45{fill:url(#_ÂÁ_Ï_ÌÌ_È_ËÂÌÚ_16-5);}.cls-46{fill:url(#linear-gradient-24);}.cls-47{fill:url(#radial-gradient-8);}.cls-48{fill:url(#linear-gradient-25);}.cls-51{fill:url(#linear-gradient-26);}.cls-53{fill:url(#linear-gradient-27);}.cls-54{fill:url(#linear-gradient-28);}.cls-55{fill:url(#linear-gradient-29);}.cls-56{fill:url(#linear-gradient-30);}.cls-57{fill:url(#linear-gradient-31);}.cls-58{fill:url(#linear-gradient-32);}.cls-59{fill:url(#linear-gradient-33);}.cls-60{fill:url(#linear-gradient-34);}.cls-61{fill:url(#linear-gradient-35);}.cls-62{fill:url(#linear-gradient-36);}.cls-63{fill:url(#linear-gradient-37);}.cls-64{fill:url(#linear-gradient-38);}.cls-65{fill:url(#linear-gradient-39);}.cls-66{fill:url(#linear-gradient-40);}.cls-67{fill:url(#linear-gradient-41);}.cls-68{fill:url(#linear-gradient-42);}.cls-69{fill:url(#linear-gradient-43);}.cls-70{fill:url(#linear-gradient-44);}.cls-71{fill:url(#linear-gradient-45);}.cls-72{fill:url(#linear-gradient-46);}.cls-73{fill:url(#linear-gradient-47);}.cls-74{fill:url(#linear-gradient-48);}.cls-75{fill:url(#linear-gradient-49);}.cls-76{fill:url(#linear-gradient-50);}.cls-77{fill:url(#linear-gradient-51);}.cls-78{fill:url(#linear-gradient-52);}.cls-79{fill:url(#linear-gradient-53);}.cls-80{fill:url(#linear-gradient-54);}.cls-81{fill:url(#linear-gradient-55);}.cls-82{fill:url(#linear-gradient-56);}.cls-83{fill:url(#linear-gradient-57);}.cls-84{fill:url(#linear-gradient-58);}.cls-85{fill:url(#linear-gradient-59);}.cls-86{fill:url(#linear-gradient-60);}.cls-87{fill:url(#linear-gradient-61);}.cls-88{fill:url(#linear-gradient-62);}.cls-89{fill:url(#linear-gradient-63);}.cls-90{fill:url(#linear-gradient-64);}.cls-91{fill:url(#linear-gradient-65);}.cls-92{fill:url(#linear-gradient-66);}.cls-93{fill:url(#linear-gradient-67);}.cls-94{fill:url(#linear-gradient-68);}.cls-95{fill:url(#linear-gradient-69);}.cls-96{fill:url(#linear-gradient-70);}.cls-97{fill:url(#linear-gradient-71);}.cls-99{fill:#88a4db;}.cls-100{fill:#60749b;}.cls-101{fill:url(#_ÂÁ_Ï_ÌÌ_È_ËÂÌÚ_51);}.cls-102{fill:#0f054c;}.cls-103{fill:url(#_ÂÁ_Ï_ÌÌ_È_ËÂÌÚ_55);}.cls-104{fill:#fff;}.cls-105{fill:url(#linear-gradient-72);}.cls-106{fill:url(#linear-gradient-73);}.cls-107{fill:#202935;}.cls-108{fill:url(#linear-gradient-74);}</style><radialGradient id="radial-gradient" cx="-50.64" cy="-197.28" r="92.33" gradientTransform="matrix(0.87, 0.5, -0.87, 0.5, 49.64, 381.4)" gradientUnits="userSpaceOnUse"><stop offset="0" stop-color="#42e8e0"/><stop offset="0.12" stop-color="#3ebdbc"/><stop offset="0.25" stop-color="#3a959b"/><stop offset="0.39" stop-color="#37747f"/><stop offset="0.53" stop-color="#345b6a"/><stop offset="0.67" stop-color="#32495b"/><stop offset="0.83" stop-color="#313e52"/><stop offset="1" stop-color="#313b4f"/></radialGradient><radialGradient id="radial-gradient-2" cx="-964.35" cy="279.83" r="129.07" gradientTransform="matrix(0, 0.41, -1, 0, 508.07, 502.74)" xlink:href="#radial-gradient"/><linearGradient id="linear-gradient" x1="222.14" y1="89.99" x2="224.7" y2="89.99" gradientUnits="userSpaceOnUse"><stop offset="0" stop-color="#313b4f" stop-opacity="0.5"/><stop offset="0.08" stop-color="#295861" stop-opacity="0.6"/><stop offset="0.18" stop-color="#217976" stop-opacity="0.71"/><stop offset="0.28" stop-color="#1a9487" stop-opacity="0.8"/><stop offset="0.39" stop-color="#15a994" stop-opacity="0.88"/><stop offset="0.5" stop-color="#11b89e" stop-opacity="0.93"/><stop offset="0.62" stop-color="#0fc1a3" stop-opacity="0.96"/><stop offset="0.76" stop-color="#0ec4a5" stop-opacity="0.97"/></linearGradient><linearGradient id="linear-gradient-2" x1="206.48" y1="89.8" x2="208.21" y2="89.8" xlink:href="#linear-gradient"/><linearGradient id="linear-gradient-3" x1="203.38" y1="89.45" x2="205.88" y2="89.45" xlink:href="#linear-gradient"/><linearGradient id="linear-gradient-4" x1="203.88" y1="92.84" x2="205.27" y2="92.84" xlink:href="#linear-gradient"/><linearGradient id="linear-gradient-5" x1="218.92" y1="113.72" x2="223.35" y2="113.72" xlink:href="#linear-gradient"/><radialGradient id="_ÂÁ_Ï_ÌÌ_È_ËÂÌÚ_16" cx="-134.69" cy="-18.42" r="36.2" gradientTransform="translate(231.85 246.21) rotate(16.76)" gradientUnits="userSpaceOnUse"><stop offset="0" stop-color="#c0bff6"/><stop offset="1" stop-color="#393091"/></radialGradient><linearGradient id="linear-gradient-6" x1="-151.75" y1="5.11" x2="-130.35" y2="-18" gradientTransform="translate(231.85 246.21) rotate(16.76)" gradientUnits="userSpaceOnUse"><stop offset="0.03" stop-color="#0d9ba8"/><stop offset="0.09" stop-color="#0da5aa"/><stop offset="0.31" stop-color="#0ebfb0"/><stop offset="0.52" stop-color="#0ed1b5"/><stop offset="0.75" stop-color="#0edcb7"/><stop offset="1" stop-color="#0ee0b8"/></linearGradient><radialGradient id="radial-gradient-3" cx="1501.67" cy="1505.86" r="23.49" gradientTransform="translate(-1953.27 -364.39) rotate(-30)" xlink:href="#radial-gradient"/><linearGradient id="linear-gradient-7" x1="95.76" y1="188.74" x2="110.56" y2="188.74" gradientUnits="userSpaceOnUse"><stop offset="0" stop-color="#f1f2f4"/><stop offset="0.69" stop-color="#f0f4f5"/><stop offset="0.87" stop-color="#eff8f6"/></linearGradient><radialGradient id="radial-gradient-4" cx="103.56" cy="186.88" r="1.41" gradientTransform="matrix(1, 0, 0, 1, 0, 0)" xlink:href="#radial-gradient"/><radialGradient id="_ÂÁ_Ï_ÌÌ_È_ËÂÌÚ_16-2" cx="653.22" cy="205.34" r="109.44" gradientTransform="translate(-302.4 -35.38) scale(0.78 1.06)" xlink:href="#_ÂÁ_Ï_ÌÌ_È_ËÂÌÚ_16"/><linearGradient id="linear-gradient-8" x1="127.08" y1="201.74" x2="226.18" y2="201.74" gradientTransform="matrix(1, 0, 0, 1, 0, 0)" xlink:href="#linear-gradient-6"/><radialGradient id="radial-gradient-5" cx="175.32" cy="182.6" r="65.91" gradientTransform="matrix(1, 0, 0, 1, 0, 0)" xlink:href="#radial-gradient"/><radialGradient id="_ÂÁ_Ï_ÌÌ_È_ËÂÌÚ_16-3" cx="210.13" cy="109.75" r="85.41" gradientTransform="translate(251.66 -83.52) rotate(76.72)" xlink:href="#_ÂÁ_Ï_ÌÌ_È_ËÂÌÚ_16"/><linearGradient id="linear-gradient-9" x1="171.56" y1="167.29" x2="185.63" y2="67.19" gradientTransform="translate(251.66 -83.52) rotate(76.72)" xlink:href="#linear-gradient-6"/><radialGradient id="radial-gradient-6" cx="162.86" cy="121.9" r="41.95" gradientTransform="translate(61.41 -47.04) rotate(22.6)" xlink:href="#radial-gradient"/><linearGradient id="linear-gradient-10" x1="133.81" y1="130.17" x2="158.54" y2="130.17" xlink:href="#linear-gradient-7"/><radialGradient id="_ÂÁ_Ï_ÌÌ_È_ËÂÌÚ_16-4" cx="118.65" cy="-81.27" r="40.04" gradientTransform="translate(110.28 249.2) rotate(11.2)" xlink:href="#_ÂÁ_Ï_ÌÌ_È_ËÂÌÚ_16"/><linearGradient id="linear-gradient-11" x1="96.89" y1="-52.69" x2="122.97" y2="-80.86" gradientTransform="translate(110.28 249.2) rotate(11.2)" xlink:href="#linear-gradient-6"/><radialGradient id="radial-gradient-7" cx="237.46" cy="207.29" r="35.76" gradientTransform="matrix(1, 0, 0, 1, 0, 0)" xlink:href="#radial-gradient"/><linearGradient id="linear-gradient-12" x1="233.7" y1="210.32" x2="249.54" y2="210.32" xlink:href="#linear-gradient-7"/><linearGradient id="linear-gradient-13" x1="202.94" y1="130.44" x2="221.25" y2="130.44" xlink:href="#linear-gradient-7"/><linearGradient id="linear-gradient-14" x1="235.18" y1="139.73" x2="187.26" y2="154.3" xlink:href="#linear-gradient-7"/><linearGradient id="_ÂÁ_Ï_ÌÌ_È_ËÂÌÚ_41" x1="226.89" y1="142.77" x2="161.22" y2="150.59" gradientUnits="userSpaceOnUse"><stop offset="0" stop-color="#bcbeff"/><stop offset="0.15" stop-color="#a3a7f5"/><stop offset="0.39" stop-color="#8289e8"/><stop offset="0.61" stop-color="#6a73df"/><stop offset="0.82" stop-color="#5c66d9"/><stop offset="1" stop-color="#5761d7"/></linearGradient><linearGradient id="linear-gradient-15" x1="217.04" y1="162.07" x2="251.26" y2="105.48" gradientTransform="matrix(1, 0, 0, 1, 0, 0)" xlink:href="#linear-gradient-6"/><linearGradient id="linear-gradient-16" x1="216.16" y1="64.61" x2="315.71" y2="64.61" xlink:href="#linear-gradient"/><linearGradient id="linear-gradient-17" x1="305.31" y1="41.95" x2="315.64" y2="41.95" xlink:href="#linear-gradient"/><linearGradient id="linear-gradient-18" x1="253.53" y1="96.21" x2="301.64" y2="96.21" xlink:href="#linear-gradient"/><linearGradient id="linear-gradient-19" x1="313.83" y1="-0.27" x2="317.11" y2="-0.27" xlink:href="#linear-gradient"/><linearGradient id="linear-gradient-20" x1="205.38" y1="73.39" x2="291.79" y2="73.39" xlink:href="#linear-gradient"/><linearGradient id="linear-gradient-21" x1="228.44" y1="79.19" x2="237.34" y2="79.19" xlink:href="#linear-gradient"/><linearGradient id="linear-gradient-22" x1="208.93" y1="99.84" x2="284.52" y2="99.84" xlink:href="#linear-gradient"/><linearGradient id="linear-gradient-23" x1="251.61" y1="70.29" x2="298.02" y2="70.29" xlink:href="#linear-gradient"/><radialGradient id="_ÂÁ_Ï_ÌÌ_È_ËÂÌÚ_16-5" cx="8.61" cy="0.2" r="36.2" xlink:href="#_ÂÁ_Ï_ÌÌ_È_ËÂÌÚ_16"/><linearGradient id="linear-gradient-24" x1="-8.45" y1="23.73" x2="12.95" y2="0.62" xlink:href="#linear-gradient-6"/><radialGradient id="radial-gradient-8" cx="1431.02" cy="1631.92" r="23.49" gradientTransform="matrix(-0.09, -1, 1, -0.09, -1264.8, 1821.46)" xlink:href="#radial-gradient"/><linearGradient id="linear-gradient-25" x1="227.6" y1="247.89" x2="242.4" y2="247.89" xlink:href="#linear-gradient-7"/><linearGradient id="linear-gradient-26" x1="101.32" y1="138.83" x2="176.56" y2="138.83" xlink:href="#linear-gradient-7"/><linearGradient id="linear-gradient-27" x1="94.69" y1="142.05" x2="171.82" y2="142.05" xlink:href="#linear-gradient-7"/><linearGradient id="linear-gradient-28" x1="145.26" y1="109.47" x2="160.81" y2="109.47" xlink:href="#linear-gradient-7"/><linearGradient id="linear-gradient-29" x1="164.81" y1="128.42" x2="168.34" y2="128.42" xlink:href="#linear-gradient-7"/><linearGradient id="linear-gradient-30" x1="168.48" y1="136.68" x2="172.01" y2="136.68" gradientTransform="translate(91.15 -66.81) rotate(30)" xlink:href="#linear-gradient-7"/><linearGradient id="linear-gradient-31" x1="116.02" y1="110.52" x2="123.11" y2="110.52" xlink:href="#linear-gradient-7"/><linearGradient id="linear-gradient-32" x1="125.62" y1="115.05" x2="129.17" y2="115.05" xlink:href="#linear-gradient-7"/><linearGradient id="linear-gradient-33" x1="122.18" y1="117.1" x2="125.21" y2="117.1" xlink:href="#linear-gradient-7"/><linearGradient id="linear-gradient-34" x1="126.73" y1="119.87" x2="130.27" y2="119.87" xlink:href="#linear-gradient-7"/><linearGradient id="linear-gradient-35" x1="122.18" y1="124.44" x2="136.13" y2="124.44" xlink:href="#linear-gradient-7"/><linearGradient id="linear-gradient-36" x1="122.18" y1="125.48" x2="125.21" y2="125.48" xlink:href="#linear-gradient-7"/><linearGradient id="linear-gradient-37" x1="126.73" y1="128.25" x2="130.27" y2="128.25" xlink:href="#linear-gradient-7"/><linearGradient id="linear-gradient-38" x1="122.18" y1="131.01" x2="129.85" y2="131.01" xlink:href="#linear-gradient-7"/><linearGradient id="linear-gradient-39" x1="131.43" y1="135.16" x2="134.98" y2="135.16" xlink:href="#linear-gradient-7"/><linearGradient id="linear-gradient-40" x1="136.59" y1="138.14" x2="140.14" y2="138.14" xlink:href="#linear-gradient-7"/><linearGradient id="linear-gradient-41" x1="141.75" y1="142.03" x2="148.47" y2="142.03" xlink:href="#linear-gradient-7"/><linearGradient id="linear-gradient-42" x1="140.89" y1="149" x2="144.44" y2="149" xlink:href="#linear-gradient-7"/><linearGradient id="linear-gradient-43" x1="146.05" y1="152.9" x2="152.77" y2="152.9" xlink:href="#linear-gradient-7"/><linearGradient id="linear-gradient-44" x1="122.18" y1="138.2" x2="125.73" y2="138.2" xlink:href="#linear-gradient-7"/><linearGradient id="linear-gradient-45" x1="127.34" y1="141.18" x2="130.89" y2="141.18" xlink:href="#linear-gradient-7"/><linearGradient id="linear-gradient-46" x1="132.5" y1="145.07" x2="139.22" y2="145.07" xlink:href="#linear-gradient-7"/><linearGradient id="linear-gradient-47" x1="145.93" y1="147.72" x2="149.48" y2="147.72" xlink:href="#linear-gradient-7"/><linearGradient id="linear-gradient-48" x1="151.09" y1="150.7" x2="154.64" y2="150.7" xlink:href="#linear-gradient-7"/><linearGradient id="linear-gradient-49" x1="156.25" y1="154.59" x2="162.97" y2="154.59" xlink:href="#linear-gradient-7"/><linearGradient id="linear-gradient-50" x1="122.18" y1="146.58" x2="125.73" y2="146.58" xlink:href="#linear-gradient-7"/><linearGradient id="linear-gradient-51" x1="127.34" y1="150.47" x2="134.06" y2="150.47" xlink:href="#linear-gradient-7"/><linearGradient id="linear-gradient-52" x1="143.19" y1="133.57" x2="146.74" y2="133.57" xlink:href="#linear-gradient-7"/><linearGradient id="linear-gradient-53" x1="137.83" y1="130.47" x2="141.37" y2="130.47" xlink:href="#linear-gradient-7"/><linearGradient id="linear-gradient-54" x1="148.35" y1="137.46" x2="155.06" y2="137.46" xlink:href="#linear-gradient-7"/><linearGradient id="linear-gradient-55" x1="122.18" y1="133.91" x2="125.39" y2="133.91" xlink:href="#linear-gradient-7"/><linearGradient id="linear-gradient-56" x1="127.1" y1="138.07" x2="134.88" y2="138.07" xlink:href="#linear-gradient-7"/><linearGradient id="linear-gradient-57" x1="136.59" y1="143.55" x2="144.38" y2="143.55" xlink:href="#linear-gradient-7"/><linearGradient id="linear-gradient-58" x1="156.79" y1="141.32" x2="160" y2="141.32" xlink:href="#linear-gradient-7"/><linearGradient id="linear-gradient-59" x1="161.71" y1="145.48" x2="169.49" y2="145.48" xlink:href="#linear-gradient-7"/><linearGradient id="linear-gradient-60" x1="171.2" y1="150.96" x2="178.99" y2="150.96" xlink:href="#linear-gradient-7"/><linearGradient id="linear-gradient-61" x1="122.25" y1="143.65" x2="130.04" y2="143.65" xlink:href="#linear-gradient-7"/><linearGradient id="linear-gradient-62" x1="131.75" y1="147.58" x2="134.14" y2="147.58" xlink:href="#linear-gradient-7"/><linearGradient id="linear-gradient-63" x1="135.86" y1="149.95" x2="138.25" y2="149.95" xlink:href="#linear-gradient-7"/><linearGradient id="linear-gradient-64" x1="139.97" y1="153.33" x2="145.85" y2="153.33" xlink:href="#linear-gradient-7"/><linearGradient id="linear-gradient-65" x1="141.57" y1="154.26" x2="147.45" y2="154.26" xlink:href="#linear-gradient-7"/><linearGradient id="linear-gradient-66" x1="150.05" y1="145.57" x2="152.44" y2="145.57" xlink:href="#linear-gradient-7"/><linearGradient id="linear-gradient-67" x1="154.16" y1="148.95" x2="160.04" y2="148.95" xlink:href="#linear-gradient-7"/><linearGradient id="linear-gradient-68" x1="155.76" y1="149.88" x2="161.64" y2="149.88" xlink:href="#linear-gradient-7"/><linearGradient id="linear-gradient-69" x1="116.09" y1="146.92" x2="118.48" y2="146.92" xlink:href="#linear-gradient-7"/><linearGradient id="linear-gradient-70" x1="120.2" y1="150.3" x2="126.08" y2="150.3" xlink:href="#linear-gradient-7"/><linearGradient id="linear-gradient-71" x1="127.96" y1="154.78" x2="133.84" y2="154.78" xlink:href="#linear-gradient-7"/><linearGradient id="_ÂÁ_Ï_ÌÌ_È_ËÂÌÚ_51" x1="273.77" y1="298.03" x2="310.17" y2="319.05" gradientUnits="userSpaceOnUse"><stop offset="0.24" stop-color="#5761d7"/><stop offset="0.39" stop-color="#7a82e5"/><stop offset="0.55" stop-color="#979cf0"/><stop offset="0.7" stop-color="#acaff8"/><stop offset="0.85" stop-color="#b8bafd"/><stop offset="1" stop-color="#bcbeff"/></linearGradient><linearGradient id="_ÂÁ_Ï_ÌÌ_È_ËÂÌÚ_55" x1="266.21" y1="308.53" x2="317.64" y2="308.53" gradientUnits="userSpaceOnUse"><stop offset="0" stop-color="#e9e9fd"/><stop offset="0.36" stop-color="#d3d2f9"/><stop offset="0.71" stop-color="#c5c4f7"/><stop offset="1" stop-color="#c0bff6"/></linearGradient><linearGradient id="linear-gradient-72" x1="267" y1="308.53" x2="316.85" y2="308.53" gradientUnits="userSpaceOnUse"><stop offset="0" stop-color="#f1f2f4"/><stop offset="1" stop-color="#eff8f6"/></linearGradient><linearGradient id="linear-gradient-73" x1="291.92" y1="321.04" x2="291.92" y2="237.96" gradientUnits="userSpaceOnUse"><stop offset="0" stop-color="#0dc9a8"/><stop offset="1" stop-color="#313b4f" stop-opacity="0"/></linearGradient><linearGradient id="linear-gradient-74" x1="18.41" y1="224.24" x2="69.85" y2="224.24" xlink:href="#linear-gradient-72"/></defs><g class="cls-1"><g id="_ÎÓÈ_1" data-name="—ÎÓÈ_1"><ellipse class="cls-2" cx="176.63" cy="257.43" rx="95.14" ry="54.93"/><ellipse class="cls-3" cx="228.24" cy="107.78" rx="108.59" ry="44.48" transform="translate(-9.36 192.96) rotate(-45)"/><path class="cls-4" d="M220.26,134.45a2.87,2.87,0,1,0-4.06-.13A2.88,2.88,0,0,0,220.26,134.45Z"/><path class="cls-4" d="M245.26,87.48a3.09,3.09,0,1,0-4.36-.14A3.09,3.09,0,0,0,245.26,87.48Z"/><path class="cls-4" d="M241.8,96.26a1.84,1.84,0,1,0-2.61-.09A1.85,1.85,0,0,0,241.8,96.26Z"/><path class="cls-5" d="M238,90a1.19,1.19,0,0,0-1.73,1.63"/><path class="cls-5" d="M245.9,118a1.19,1.19,0,0,0-1.63-1.73,1.18,1.18,0,0,0-.05,1.67A1.2,1.2,0,0,0,245.9,118Z"/><path class="cls-4" d="M229.17,84a.36.36,0,1,0-.51,0A.36.36,0,0,0,229.17,84Z"/><path class="cls-5" d="M231.33,98.94a.36.36,0,0,0,0-.51.36.36,0,1,0-.52.49A.36.36,0,0,0,231.33,98.94Z"/><path class="cls-5" d="M236,127.3a.36.36,0,1,0-.51,0A.36.36,0,0,0,236,127.3Z"/><path class="cls-5" d="M232.68,122.79a.36.36,0,0,0,0-.51.35.35,0,0,0-.51,0,.36.36,0,0,0,0,.51A.37.37,0,0,0,232.68,122.79Z"/><path class="cls-4" d="M220.42,101a4.38,4.38,0,1,0-6.2-.2A4.38,4.38,0,0,0,220.42,101Z"/><path class="cls-6" d="M196.83,109.48a2.18,2.18,0,1,0-3.08-.1A2.18,2.18,0,0,0,196.83,109.48Z"/><path class="cls-4" d="M236.24,109.43a2.18,2.18,0,1,0-3.08-.1A2.18,2.18,0,0,0,236.24,109.43Z"/><circle class="cls-4" cx="218.92" cy="71.88" r="2.18"/><path class="cls-4" d="M192.88,89.13a2.18,2.18,0,1,0-3.08-.1A2.18,2.18,0,0,0,192.88,89.13Z"/><path class="cls-4" d="M267.67,95.92a2.18,2.18,0,1,0-3.08-.1A2.18,2.18,0,0,0,267.67,95.92Z"/><path class="cls-4" d="M251.92,57.77a2.18,2.18,0,1,0-3.08-.1A2.18,2.18,0,0,0,251.92,57.77Z"/><path class="cls-4" d="M226.77,127.1A1.28,1.28,0,1,0,225,127,1.28,1.28,0,0,0,226.77,127.1Z"/><path class="cls-7" d="M224.3,90.92a1.29,1.29,0,0,0,0-1.81,1.28,1.28,0,1,0,0,1.81Z"/><path class="cls-8" d="M207.94,90.43a.87.87,0,0,0,0-1.22.85.85,0,0,0-1.21,0,.86.86,0,0,0,0,1.22A.87.87,0,0,0,207.94,90.43Z"/><path class="cls-9" d="M205.48,90.36a1.25,1.25,0,1,0-1.76,0A1.25,1.25,0,0,0,205.48,90.36Z"/><path class="cls-10" d="M205.05,93.35a.7.7,0,1,0-1,0A.69.69,0,0,0,205.05,93.35Z"/><path class="cls-4" d="M217.07,113.94a.9.9,0,1,0-1.27,0A.9.9,0,0,0,217.07,113.94Z"/><path class="cls-11" d="M222.65,115.34a2.21,2.21,0,1,0-3.13-.1A2.23,2.23,0,0,0,222.65,115.34Z"/><path class="cls-12" d="M112.43,199.78c-2,6.74-12.93,19.84-19.67,17.81S86,199.17,88,192.43a12.74,12.74,0,0,1,24.4,7.35Z"/><path class="cls-13" d="M112.43,199.78c-2,6.74-12.93,19.84-19.67,17.81S86,199.17,88,192.43a12.74,12.74,0,0,1,24.4,7.35Z"/><ellipse class="cls-14" cx="103.16" cy="189.25" rx="4.55" ry="7.88" transform="translate(-111.93 203.14) rotate(-65.1)"/><ellipse class="cls-15" cx="103.16" cy="189.25" rx="4.55" ry="7.88" transform="translate(-111.93 203.14) rotate(-65.1)"/><path class="cls-16" d="M95.76,187.29a4.75,4.75,0,0,1,2.7-1A12.31,12.31,0,0,1,108.57,191a5,5,0,0,1,1,2.54c1.29-1.08,1.39-2.9,0-4.85A12.31,12.31,0,0,0,99.46,184C97,184.21,95.67,185.53,95.76,187.29Z"/><path class="cls-17" d="M111.33,180.54a1,1,0,0,0,0,2,1,1,0,1,0,0-2Z"/><path class="cls-6" d="M101.86,173.54a2.54,2.54,0,1,0,2.48,2.6A2.54,2.54,0,0,0,101.86,173.54Z"/><path class="cls-17" d="M116.37,167.84a1.42,1.42,0,1,0,1.39,1.45A1.42,1.42,0,0,0,116.37,167.84Z"/><path class="cls-6" d="M110.7,169a1,1,0,1,0,0,1.94,1,1,0,0,0,0-1.94Z"/><path class="cls-6" d="M111.77,166.78a.67.67,0,1,0,.65.68A.66.66,0,0,0,111.77,166.78Z"/><path class="cls-18" d="M103.59,185.48a1.41,1.41,0,1,0,1.37,1.43A1.4,1.4,0,0,0,103.59,185.48Z"/><path class="cls-6" d="M107.85,185a2.11,2.11,0,1,0,2.06,2.15A2.1,2.1,0,0,0,107.85,185Z"/><path class="cls-19" d="M226.18,192.23c0,37.25-22.18,67.45-49.55,67.45s-49.55-30.2-49.55-67.45,22.19-48.42,49.55-48.42S226.18,155,226.18,192.23Z"/><path class="cls-20" d="M226.18,192.23c0,37.25-22.18,67.45-49.55,67.45s-49.55-30.2-49.55-67.45,22.19-48.42,49.55-48.42S226.18,155,226.18,192.23Z"/><ellipse class="cls-14" cx="176.63" cy="163.84" rx="33.82" ry="19.52"/><ellipse class="cls-21" cx="176.63" cy="163.84" rx="33.82" ry="19.52"/><path class="cls-22" d="M152.72,155.23c13.2-7.62,34.62-7.62,47.82,0,5.46,3.15,8.65,7.11,9.6,11.21,1.35-5.82-1.85-11.93-9.6-16.41-13.2-7.62-34.62-7.62-47.82,0-7.75,4.48-10.95,10.59-9.6,16.41C144.07,162.34,147.26,158.38,152.72,155.23Z"/><path class="cls-23" d="M161.88,91.7c0,9.1-6.39,20.16-14.27,24.71s-14.26.86-14.26-8.24,6.39-20.15,14.26-24.7S161.88,82.61,161.88,91.7Z"/><circle class="cls-24" cx="178.6" cy="117.24" r="50.54" transform="translate(23.46 264.12) rotate(-76.72)"/><circle class="cls-25" cx="178.6" cy="117.24" r="50.54" transform="translate(23.46 264.12) rotate(-76.72)"/><ellipse class="cls-14" cx="148.41" cy="130.15" rx="12.83" ry="22.22" transform="translate(-38.62 67.03) rotate(-22.6)"/><ellipse class="cls-26" cx="148.41" cy="130.15" rx="12.83" ry="22.22" transform="translate(-38.62 67.03) rotate(-22.6)"/><path class="cls-22" d="M156.26,132.57c-.47,3.61-3.2,4.75-6.09,2.53a12.59,12.59,0,0,1-4.39-10.54c.47-3.61,3.19-4.75,6.09-2.54A12.68,12.68,0,0,1,156.26,132.57Z"/><path class="cls-27" d="M149.9,146.7c-8-6.09-13.37-19.08-12.08-29,.53-4.05,2.09-7,4.29-8.59-4.16.39-7.32,3.92-8.11,10-1.29,9.94,4.12,22.93,12.08,29,4.71,3.6,9.27,4,12.46,1.62C156,150,153,149,149.9,146.7Z"/><path class="cls-6" d="M146.76,147.82c-8-6.08-13.37-19.08-12.08-29,.6-4.6,2.53-7.74,5.22-9.18-3,1.25-5.25,4.52-5.9,9.5-1.29,9.94,4.12,22.93,12.08,29,4.27,3.26,8.41,3.87,11.53,2.2C154.58,151.59,150.73,150.86,146.76,147.82Z"/><path class="cls-28" d="M249.92,208.77a19.19,19.19,0,1,1-15.1-22.55A19.19,19.19,0,0,1,249.92,208.77Z"/><path class="cls-29" d="M249.92,208.77a19.19,19.19,0,1,1-15.1-22.55A19.19,19.19,0,0,1,249.92,208.77Z"/><path class="cls-14" d="M249.54,205.42c0,5.41-3.8,12-8.49,14.69s-8.48.51-8.48-4.9,3.8-12,8.48-14.69S249.54,200,249.54,205.42Z"/><path class="cls-30" d="M249.54,205.42c0,5.41-3.8,12-8.49,14.69s-8.48.51-8.48-4.9,3.8-12,8.48-14.69S249.54,200,249.54,205.42Z"/><path class="cls-31" d="M245,199.37a7.24,7.24,0,0,1,1.14,4.22c0,5.41-3.8,12-8.49,14.69a7.46,7.46,0,0,1-4,1.15c1.46,2.1,4.21,2.5,7.35.68,4.69-2.7,8.49-9.28,8.49-14.69C249.54,201.67,247.71,199.47,245,199.37Z"/><polygon class="cls-32" points="221.25 135.72 202.94 146.29 202.94 125.16 221.25 114.59 221.25 135.72"/><polygon class="cls-33" points="218.53 116.16 218.53 134.25 202.94 143.25 202.94 146.29 221.25 135.72 221.25 114.59 218.53 116.16"/><polygon class="cls-22" points="206.44 130.93 204.8 131.88 204.8 129.98 206.44 129.04 206.44 130.93"/><polygon class="cls-22" points="209.92 126.5 208.28 127.44 208.28 125.55 209.92 124.6 209.92 126.5"/><polygon class="cls-22" points="213.4 126.91 211.76 127.86 211.76 125.97 213.4 125.02 213.4 126.91"/><polygon class="cls-22" points="213.4 131.88 211.76 132.82 211.76 130.93 213.4 129.98 213.4 131.88"/><polygon class="cls-22" points="211.3 135.7 209.66 136.64 209.66 134.75 211.3 133.8 211.3 135.7"/><polygon class="cls-22" points="216.99 129.81 215.35 130.75 215.35 128.86 216.99 127.91 216.99 129.81"/><polygon class="cls-34" points="236 130.15 238.01 126.68 236 125.53 217.69 136.09 217.69 157.23 219.7 158.38 221.7 154.92 236 146.66 236 130.15"/><polygon class="cls-35" points="238.01 147.82 219.7 158.38 219.7 137.25 238.01 126.68 238.01 147.82"/><polygon class="cls-36" points="238.01 147.82 219.7 158.38 219.7 137.25 238.01 126.68 238.01 147.82"/><polygon class="cls-37" points="216.51 129.5 216.16 129.17 236.4 107.54 293.98 107.54 315.23 86.3 315.23 -0.27 315.71 -0.27 315.71 86.5 315.64 86.57 294.18 108.03 236.61 108.03 216.51 129.5"/><polygon class="cls-38" points="315.3 64.76 305.31 54.77 305.31 19.14 305.79 19.14 305.79 54.57 315.64 64.42 315.3 64.76"/><polygon class="cls-39" points="253.87 107.95 253.53 107.61 264.86 96.28 289.48 96.28 301.3 84.47 301.64 84.81 289.68 96.77 265.06 96.77 253.87 107.95"/><circle class="cls-6" cx="301.47" cy="84.64" r="1.64"/><path class="cls-6" d="M298,59.05a1.64,1.64,0,1,1,1.64-1.64A1.64,1.64,0,0,1,298,59.05Z"/><path class="cls-6" d="M305.55,20.78a1.64,1.64,0,1,1,1.64-1.64A1.63,1.63,0,0,1,305.55,20.78Z"/><circle class="cls-40" cx="315.47" cy="-0.27" r="1.64"/><circle class="cls-6" cx="237.1" cy="68.39" r="1.64"/><polygon class="cls-41" points="205.86 130.46 205.38 130.46 205.38 120.88 205.45 120.81 228.37 97.53 228.37 64.49 228.44 64.42 247.38 45.48 284.7 45.48 291.3 38.87 291.3 16.33 291.79 16.33 291.79 39.07 291.71 39.15 284.9 45.96 247.58 45.96 228.85 64.69 228.85 97.72 228.78 97.8 205.86 121.07 205.86 130.46"/><polygon class="cls-42" points="228.78 89.99 228.44 89.65 236.86 81.23 236.86 68.39 237.34 68.39 237.34 81.43 237.27 81.5 228.78 89.99"/><polygon class="cls-43" points="209.27 126.34 208.93 126 261.57 73.35 284.52 73.35 284.52 73.83 261.77 73.83 209.27 126.34"/><polygon class="cls-44" points="252.09 83.42 251.61 83.42 251.61 66.64 251.68 66.57 261.08 57.17 298.02 57.17 298.02 57.65 261.28 57.65 252.09 66.85 252.09 83.42"/><path class="cls-45" d="M244.27,258.93c-2,6.74-12.93,19.84-19.67,17.81s-6.76-18.42-4.73-25.16a12.74,12.74,0,1,1,24.4,7.35Z"/><path class="cls-46" d="M244.27,258.93c-2,6.74-12.93,19.84-19.67,17.81s-6.76-18.42-4.73-25.16a12.74,12.74,0,1,1,24.4,7.35Z"/><path class="cls-14" d="M231.3,243.13a12.34,12.34,0,0,1,10.11,4.7c2,2.9.83,5.52-2.71,5.83A12.29,12.29,0,0,1,228.59,249C226.54,246.06,227.76,243.45,231.3,243.13Z"/><path class="cls-47" d="M231.3,243.13a12.34,12.34,0,0,1,10.11,4.7c2,2.9.83,5.52-2.71,5.83A12.29,12.29,0,0,1,228.59,249C226.54,246.06,227.76,243.45,231.3,243.13Z"/><path class="cls-48" d="M227.6,246.43a4.77,4.77,0,0,1,2.7-1,12.31,12.31,0,0,1,10.11,4.69,4.9,4.9,0,0,1,1,2.54c1.29-1.08,1.39-2.9,0-4.85a12.34,12.34,0,0,0-10.11-4.7C228.85,243.35,227.51,244.67,227.6,246.43Z"/><path class="cls-17" d="M241.3,235a1,1,0,0,0,0-1.41,1,1,0,1,0,0,1.41Z"/><path class="cls-6" d="M253,233.39a2.53,2.53,0,1,0-3.58-.11A2.53,2.53,0,0,0,253,233.39Z"/><path class="cls-17" d="M246.61,247.64a1.42,1.42,0,1,0-2-.07A1.41,1.41,0,0,0,246.61,247.64Z"/><path class="cls-6" d="M249.87,242.85a1,1,0,1,0-1.37,0A1,1,0,0,0,249.87,242.85Z"/><path class="cls-6" d="M250.63,245.16a.66.66,0,0,0,0-.94.67.67,0,0,0-1,.91A.66.66,0,0,0,250.63,245.16Z"/><path class="cls-17" d="M243.36,226.1a1.41,1.41,0,1,0-2-.07A1.4,1.4,0,0,0,243.36,226.1Z"/><path class="cls-6" d="M240.65,229.42a2.1,2.1,0,0,0-2.88-3.07,2.1,2.1,0,1,0,2.88,3.07Z"/><g class="cls-49"><g class="cls-50"><path class="cls-51" d="M138.94,182.28c-20.74-12-37.62-41.21-37.62-65.15,0-18.3,10-28.95,24.93-26.51a31.15,31.15,0,0,1,4.67,1.15,3.33,3.33,0,0,1,1.87,2.46c.18,1.08-.35,1.74-1.2,1.46a29.49,29.49,0,0,0-4.29-1.06c-13.66-2.23-22.84,7.54-22.84,24.31,0,21.95,15.47,48.74,34.48,59.72s34.48,2,34.48-19.91c0-1,.7-1.4,1.57-.9a3.46,3.46,0,0,1,1.57,2.71C176.56,184.51,159.68,194.25,138.94,182.28Z"/></g><g class="cls-52"><path class="cls-53" d="M138.94,189.85c-24.4-14.09-44.25-48.47-44.25-76.64,0-10.59,2.78-19.14,8-24.73.5-.53,1.48-.16,2.18.82s.88,2.21.38,2.74c-4.88,5.2-7.46,13.14-7.46,23,0,26.17,18.45,58.12,41.12,71.21,11.41,6.59,22.4,7.39,30.16,2.21.59-.39,1.58.14,2.21,1.18s.68,2.21.09,2.61C163.05,197.81,151.22,196.94,138.94,189.85Z"/></g><g class="cls-50"><path class="cls-54" d="M159.24,118a3,3,0,0,1-.88-.83,80,80,0,0,0-6-7.26,68.6,68.6,0,0,0-5.85-5.54,3.28,3.28,0,0,1-1.19-2.84c.19-.87,1-1,1.87-.3a73.55,73.55,0,0,1,6.39,6,84.24,84.24,0,0,1,6.56,7.93c.72,1,.9,2.2.41,2.75A1,1,0,0,1,159.24,118Z"/></g><path class="cls-55" d="M168.34,129.44c0,1.12-.79,1.58-1.77,1a3.92,3.92,0,0,1-1.76-3.06c0-1.12.79-1.58,1.76-1A3.87,3.87,0,0,1,168.34,129.44Z"/><ellipse class="cls-56" cx="170.25" cy="136.68" rx="1.44" ry="2.49" transform="translate(-45.53 103.44) rotate(-30)"/><polygon class="cls-57" points="123.11 113.47 116.02 109.37 116.02 107.58 123.11 111.68 123.11 113.47"/><polygon class="cls-58" points="129.17 116.96 125.62 114.92 125.62 113.13 129.17 115.18 129.17 116.96"/><polygon class="cls-59" points="125.21 118.87 122.19 117.12 122.19 115.33 125.21 117.08 125.21 118.87"/><polygon class="cls-60" points="130.27 121.79 126.72 119.74 126.72 117.95 130.27 120 130.27 121.79"/><polygon class="cls-61" points="136.13 129.36 122.19 121.31 122.19 119.52 136.13 127.58 136.13 129.36"/><polygon class="cls-62" points="125.21 127.25 122.19 125.5 122.19 123.71 125.21 125.46 125.21 127.25"/><polygon class="cls-63" points="130.27 130.17 126.72 128.12 126.72 126.33 130.27 128.38 130.27 130.17"/><polygon class="cls-64" points="129.85 134.12 122.19 129.69 122.19 127.9 129.85 132.33 129.85 134.12"/><polygon class="cls-65" points="134.98 137.08 131.44 135.03 131.44 133.24 134.98 135.29 134.98 137.08"/><polygon class="cls-66" points="140.14 140.06 136.59 138.01 136.59 136.22 140.14 138.27 140.14 140.06"/><polygon class="cls-67" points="148.47 144.87 141.75 140.99 141.75 139.2 148.47 143.08 148.47 144.87"/><polygon class="cls-68" points="144.44 150.92 140.89 148.87 140.89 147.09 144.44 149.13 144.44 150.92"/><polygon class="cls-69" points="152.77 155.73 146.05 151.85 146.05 150.06 152.77 153.94 152.77 155.73"/><polygon class="cls-70" points="125.73 140.12 122.19 138.07 122.19 136.28 125.73 138.33 125.73 140.12"/><polygon class="cls-71" points="130.89 143.1 127.34 141.05 127.34 139.26 130.89 141.31 130.89 143.1"/><polygon class="cls-72" points="139.22 147.9 132.5 144.03 132.5 142.24 139.22 146.12 139.22 147.9"/><polygon class="cls-73" points="149.48 149.64 145.93 147.59 145.93 145.8 149.48 147.85 149.48 149.64"/><polygon class="cls-74" points="154.64 152.62 151.09 150.57 151.09 148.78 154.64 150.83 154.64 152.62"/><polygon class="cls-75" points="162.97 157.43 156.25 153.55 156.25 151.76 162.97 155.64 162.97 157.43"/><polygon class="cls-76" points="125.73 148.5 122.19 146.45 122.19 144.66 125.73 146.71 125.73 148.5"/><polygon class="cls-77" points="134.06 153.31 127.34 149.43 127.34 147.64 134.06 151.52 134.06 153.31"/><polygon class="cls-78" points="146.74 135.49 143.19 133.44 143.19 131.65 146.74 133.7 146.74 135.49"/><polygon class="cls-79" points="141.37 132.39 137.82 130.34 137.82 128.55 141.37 130.6 141.37 132.39"/><polygon class="cls-80" points="155.06 140.29 148.35 136.42 148.35 134.63 155.06 138.51 155.06 140.29"/><polygon class="cls-81" points="125.39 135.73 122.19 133.88 122.19 132.09 125.39 133.94 125.39 135.73"/><polygon class="cls-82" points="134.88 141.21 127.1 136.72 127.1 134.93 134.88 139.42 134.88 141.21"/><polygon class="cls-83" points="144.38 146.69 136.59 142.2 136.59 140.41 144.38 144.91 144.38 146.69"/><polygon class="cls-84" points="160 143.14 156.79 141.29 156.79 139.5 160 141.35 160 143.14"/><polygon class="cls-85" points="169.49 148.62 161.71 144.13 161.71 142.34 169.49 146.84 169.49 148.62"/><polygon class="cls-86" points="178.99 154.1 171.2 149.61 171.2 147.82 178.99 152.32 178.99 154.1"/><polygon class="cls-87" points="130.04 146.79 122.25 142.3 122.25 140.51 130.04 145.01 130.04 146.79"/><polygon class="cls-88" points="134.14 149.16 131.75 147.78 131.75 146 134.14 147.38 134.14 149.16"/><polygon class="cls-89" points="138.25 151.54 135.86 150.16 135.86 148.37 138.25 149.75 138.25 151.54"/><polygon class="cls-90" points="145.85 155.93 139.97 152.53 139.97 150.74 145.85 154.14 145.85 155.93"/><polygon class="cls-91" points="147.45 156.85 141.57 153.45 141.57 151.66 147.45 155.06 147.45 156.85"/><polygon class="cls-92" points="152.44 147.16 150.05 145.78 150.05 143.99 152.44 145.37 152.44 147.16"/><polygon class="cls-93" points="160.04 151.54 154.16 148.15 154.16 146.36 160.04 149.76 160.04 151.54"/><polygon class="cls-94" points="161.63 152.47 155.75 149.07 155.75 147.28 161.63 150.68 161.63 152.47"/><polygon class="cls-95" points="118.48 148.5 116.09 147.12 116.09 145.33 118.48 146.71 118.48 148.5"/><polygon class="cls-96" points="126.08 152.89 120.2 149.49 120.2 147.71 126.08 151.1 126.08 152.89"/><polygon class="cls-97" points="133.84 157.37 127.96 153.98 127.96 152.19 133.84 155.59 133.84 157.37"/></g><path class="cls-22" d="M339.5,295.48a8.78,8.78,0,0,1-4.29-1L315.43,283a2.73,2.73,0,0,1,0-5.15l19.78-11.42a9.45,9.45,0,0,1,8.57,0l19.78,11.42a2.73,2.73,0,0,1,0,5.15l-19.78,11.42A8.77,8.77,0,0,1,339.5,295.48Zm-4.12-1.32a9.11,9.11,0,0,0,8.23,0l19.78-11.42a2.39,2.39,0,0,0,0-4.55l-19.78-11.42a9.11,9.11,0,0,0-8.23,0L315.6,278.19a2.39,2.39,0,0,0,0,4.55Z"/><path class="cls-22" d="M291.92,338a7.61,7.61,0,0,1-3.72-.89l-19.78-11.42a2.39,2.39,0,0,1,0-4.51l19.78-11.42a8.22,8.22,0,0,1,7.45,0l19.78,11.42a2.39,2.39,0,0,1,0,4.51l-19.78,11.42A7.62,7.62,0,0,1,291.92,338Zm-3.55-1.19a7.88,7.88,0,0,0,7.11,0l19.78-11.42a2.06,2.06,0,0,0,0-3.91L295.48,310a7.88,7.88,0,0,0-7.11,0l-19.78,11.42a2,2,0,0,0,0,3.9Z"/><path class="cls-98" d="M317.64,319v-6.77l-1.24-.69c-.35,2.11-2.84,3.51-4.92,3.8l-14.17,8.28-6.19,2.24L271.38,315.7l.46-.27c-1.69-.78-2.6-2.59-3.51-4.23L267,312l-.79.22v6.89h0a3,3,0,0,0,1.73,2.43L287.72,333a9.36,9.36,0,0,0,8.41,0l19.78-11.42a3,3,0,0,0,1.73-2.39V319Z"/><path class="cls-99" d="M317.64,313v-4.48l-1.24-.69c-.35,2.11-2.84,3.51-4.92,3.8l-14.17,8.28-6.19,2.24L271.38,312l.46-.26c-1.69-.79-2.6-2.6-3.51-4.24l-1.33.79-.79.22v4.6h0a3,3,0,0,0,1.73,2.43l19.78,11.42a9.36,9.36,0,0,0,8.41,0l19.78-11.42a3,3,0,0,0,1.73-2.39V313Z"/><path class="cls-100" d="M311.48,311.64l-14.17,8.28-5.39,1.95v6.06a8.7,8.7,0,0,0,4.21-1l19.78-11.42a3,3,0,0,0,1.73-2.39V313h0v-4.48l-1.13-.63h-.12C316,310,313.54,311.35,311.48,311.64Z"/><path class="cls-101" d="M271.84,311.71l18.74-10.83a3,3,0,0,1,2.69,0l18.42,10.64-.21.12c2.08-.29,4.57-1.69,4.92-3.8l-20.67-11.5-6-1.59-4.9,2.88-16.49,9.84C269.24,309.11,270.15,310.92,271.84,311.71Z"/><path class="cls-102" d="M291.92,295.34l-2.2-.59-4.9,2.88-16.49,9.84c.91,1.64,1.82,3.45,3.51,4.24l18.74-10.83a2.79,2.79,0,0,1,1.34-.32Z"/><path class="cls-103" d="M287.72,322.37,267.94,311c-2.31-1.34-2.31-3.51,0-4.85l19.78-11.42a9.28,9.28,0,0,1,8.4,0l19.79,11.42c2.31,1.34,2.31,3.52,0,4.85l-19.78,11.42A9.3,9.3,0,0,1,287.72,322.37Zm5.55-26a3,3,0,0,0-2.69,0L270.8,307.75a.82.82,0,0,0,0,1.55l19.78,11.42a3,3,0,0,0,2.69,0l19.78-11.42a.82.82,0,0,0,0-1.55Z"/><path class="cls-104" d="M313.05,307.75l-19.78-11.42a3,3,0,0,0-2.69,0L270.8,307.75c-.5.29-.66.69-.49,1.06a1.07,1.07,0,0,1,.49-.5l19.78-11.42a3,3,0,0,1,2.69,0l19.78,11.42a1.07,1.07,0,0,1,.49.5C313.71,308.44,313.54,308,313.05,307.75Z"/><path class="cls-104" d="M315.91,311l-19.78,11.42a9.3,9.3,0,0,1-8.41,0L267.94,311a3.13,3.13,0,0,1-1.71-2.14,2.79,2.79,0,0,0,1.71,2.7l19.78,11.42a9.3,9.3,0,0,0,8.41,0l19.78-11.42a2.78,2.78,0,0,0,1.71-2.7A3.13,3.13,0,0,1,315.91,311Z"/><path class="cls-105" d="M288.28,322.05,268.5,310.63c-2-1.16-2-3.05,0-4.21L288.28,295a8.13,8.13,0,0,1,7.29,0l19.78,11.42c2,1.16,2,3.05,0,4.21l-19.78,11.42A8.07,8.07,0,0,1,288.28,322.05Zm5.55-26a4.19,4.19,0,0,0-3.81,0l-19.78,11.42a1.16,1.16,0,0,0,0,2.2L290,321.05a4.26,4.26,0,0,0,3.81,0l19.78-11.42a1.16,1.16,0,0,0,0-2.2Z"/><path class="cls-4" d="M293.27,296.33a3,3,0,0,0-2.69,0L270.8,307.75a.82.82,0,0,0,0,1.55l19.78,11.42a3,3,0,0,0,2.69,0l19.78-11.42a.82.82,0,0,0,0-1.55Z"/><path class="cls-106" d="M313.6,308.51V238H270.24v70.55a.9.9,0,0,0,.55.79l19.78,11.42a3,3,0,0,0,2.69,0l19.78-11.42A.9.9,0,0,0,313.6,308.51Z"/><path class="cls-107" d="M330.24,246.38a8.92,8.92,0,0,1-4.38-1l-19.78-11.42a2.9,2.9,0,0,1,0-5.45L325.86,217a9.7,9.7,0,0,1,8.75,0l19.78,11.42a2.9,2.9,0,0,1,0,5.45l-19.78,11.42A8.91,8.91,0,0,1,330.24,246.38Zm-4-1.65a8.92,8.92,0,0,0,8.05,0L354,233.31a2.23,2.23,0,0,0,0-4.25l-19.78-11.42a8.92,8.92,0,0,0-8.05,0l-19.78,11.42a2.23,2.23,0,0,0,0,4.25Z"/><path class="cls-107" d="M48.14,302.41a8.92,8.92,0,0,1-4.38-1.05L24,289.94a2.9,2.9,0,0,1,0-5.45l19.78-11.42a9.64,9.64,0,0,1,8.75,0l19.78,11.42a2.89,2.89,0,0,1,0,5.45L52.51,301.36A8.89,8.89,0,0,1,48.14,302.41Zm-4-1.65a8.92,8.92,0,0,0,8,0l19.78-11.42a2.22,2.22,0,0,0,0-4.25L52.16,273.67a8.92,8.92,0,0,0-8,0L24.33,285.09a2.23,2.23,0,0,0,0,4.25Z"/><path class="cls-22" d="M44.13,253.69a7.57,7.57,0,0,1-3.73-.89L20.62,241.38a2.39,2.39,0,0,1,0-4.5L40.4,225.46a8.24,8.24,0,0,1,7.46,0l19.78,11.42a2.39,2.39,0,0,1,0,4.5L47.86,252.8A7.57,7.57,0,0,1,44.13,253.69Zm0-28.78a7.2,7.2,0,0,0-3.55.85L20.8,237.18a2,2,0,0,0,0,3.9L40.58,252.5a7.88,7.88,0,0,0,7.11,0l19.78-11.42a2,2,0,0,0,0-3.9L47.69,225.76A7.24,7.24,0,0,0,44.13,224.91Z"/><path class="cls-98" d="M69.85,234.75V228l-1.24-.69c-.35,2.12-2.84,3.51-4.92,3.8l-14.17,8.29-6.19,2.23L23.59,231.41l.45-.26c-1.69-.79-2.59-2.59-3.51-4.23l-1.33.79-.79.22v6.89h0a2.94,2.94,0,0,0,1.74,2.42l19.78,11.42a9.28,9.28,0,0,0,8.4,0l19.78-11.42a3,3,0,0,0,1.74-2.38v-.11Z"/><path class="cls-99" d="M69.85,228.73v-4.49l-1.24-.69c-.35,2.12-2.84,3.51-4.92,3.8l-14.17,8.29-6.19,2.23L23.59,227.69l.45-.27c-1.69-.79-2.59-2.59-3.51-4.23L19.2,224l-.79.22v4.6h0a2.94,2.94,0,0,0,1.74,2.42l19.78,11.42a9.28,9.28,0,0,0,8.4,0l19.78-11.42a3,3,0,0,0,1.74-2.38v-.12Z"/><path class="cls-100" d="M63.69,227.35l-14.17,8.29-5.39,2v6.06a8.58,8.58,0,0,0,4.2-1l19.78-11.42a3,3,0,0,0,1.74-2.38v-.12h0v-4.49l-1.13-.63H68.6C68.21,225.7,65.75,227.07,63.69,227.35Z"/><path class="cls-108" d="M39.93,238.09,20.15,226.67c-2.32-1.34-2.32-3.51,0-4.85L39.93,210.4a9.28,9.28,0,0,1,8.4,0l19.78,11.42c2.32,1.34,2.32,3.51,0,4.85L48.33,238.09A9.28,9.28,0,0,1,39.93,238.09Z"/><path class="cls-104" d="M68.11,226.67,48.33,238.09a9.28,9.28,0,0,1-8.4,0L20.15,226.67a3.14,3.14,0,0,1-1.72-2.15,2.82,2.82,0,0,0,1.72,2.71l19.78,11.42a9.34,9.34,0,0,0,8.4,0l19.78-11.42a2.82,2.82,0,0,0,1.72-2.71A3.11,3.11,0,0,1,68.11,226.67Z"/></g></g></svg>