<?xml version="1.0" encoding="UTF-8"?>
<svg width="17px" height="20px" viewBox="0 0 17 20" version="1.1" xmlns="http://www.w3.org/2000/svg" xmlns:xlink="http://www.w3.org/1999/xlink">
    <!-- Generator: sketchtool 54.1 (76490) - https://sketchapp.com -->
    <title>55701381-D495-44A9-B4FD-6EFFA4E49B8F</title>
    <desc>Created with sketchtool.</desc>
    <g id="Page-1" stroke="none" stroke-width="1" fill="none" fill-rule="evenodd">
        <g id="Homepage" transform="translate(-216.000000, -1325.000000)" fill="#313B4F">
            <g id="Content" transform="translate(-12.000000, 568.000000)">
                <g id="Our-Platforms-&amp;-Applications" transform="translate(12.000000, 0.000000)">
                    <g id="Infra-VIEU" transform="translate(214.000000, 332.000000)">
                        <g id="app" transform="translate(2.000000, 400.000000)">
                            <g id="Icon" transform="translate(0.000000, 24.000000)">
                                <path d="M1.24937293,7.68520863 C0.560298987,7.68520863 0,8.05411125 0,8.51084782 L0,13.5324406 C0,13.9891772 0.560298987,14.3589163 1.24937293,14.3589163 C1.94100532,14.3589163 2.50215712,13.9891772 2.50215712,13.5324406 L2.50215712,8.51084782 C2.50215712,8.05494776 1.94100532,7.68520863 1.24937293,7.68520863 Z M3.45730912,15.5877552 C3.45730912,16.8801692 3.98434835,17.5159197 5.13479482,17.6330316 L5.13479482,20.1902546 C5.13479482,20.6361165 5.69168255,20.9991635 6.37649243,20.9991635 C7.0613023,20.9991635 7.61904284,20.6361165 7.61904284,20.1902546 L7.61904284,17.6598001 C8.20236781,17.6614731 8.81298284,17.6631461 9.39886626,17.6648192 L9.39886626,20.1910911 C9.39886626,20.636953 9.95575399,21 10.6405639,21 C11.3253737,21 11.8831143,20.636953 11.8831143,20.1910911 L11.8831143,17.6413968 C13.0625564,17.5167562 13.5853316,16.8191036 13.5853316,15.6145237 C13.5853316,14.2811205 13.5853316,8.55601957 13.5853316,8.55601957 L3.46839571,8.55601957 C3.46839571,8.55601957 3.45730912,14.1514609 3.45730912,15.5877552 Z M15.7574496,7.737909 C15.0726397,7.737909 14.515752,8.10011951 14.515752,8.54681792 L14.515752,13.4989801 C14.515752,13.944842 15.0726397,14.307889 15.7574496,14.307889 C16.4422595,14.307889 17,13.944842 17,13.4989801 L17,8.54681792 C17,8.09928299 16.4422595,7.737909 15.7574496,7.737909 Z M11.0567372,4.15762961 C11.0703823,4.14173584 11.0908498,4.13504373 11.1019364,4.11664043 L12.7035216,1.62801165 C12.8322966,1.42892134 12.7563961,1.17211158 12.5329588,1.05583615 C12.311227,0.941233752 12.0263871,1.00815486 11.8976121,1.20975471 L10.2968797,3.69838349 C10.2747065,3.73351707 10.2653256,3.77199671 10.2550918,3.80963984 C9.71355473,3.6264433 9.13364102,3.51936952 8.52558443,3.51936952 C7.91070533,3.51936952 7.3239691,3.62727981 6.77731514,3.8138224 C6.76622855,3.77450625 6.75770041,3.7351901 6.73382161,3.69838349 L5.13223638,1.21059122 C5.00431424,1.00982789 4.71947427,0.94290678 4.49774255,1.05667267 C4.27430521,1.1729481 4.19755192,1.42892134 4.32717969,1.62884816 L5.92791211,4.11747694 C5.94070432,4.13671676 5.96373031,4.14675493 5.9807866,4.16432172 C4.63504565,4.88874274 3.66283736,6.16191686 3.42234373,7.66764183 L13.6279723,7.66764183 C13.3857731,6.15689777 12.4075951,4.88205063 11.0567372,4.15762961 Z M6.44215913,6.30245119 C6.06777365,6.30245119 5.76417177,6.00548876 5.76417177,5.63742266 C5.76417177,5.26935655 6.06692084,4.97239412 6.44215913,4.97239412 C6.81569178,4.97239412 7.11929367,5.26935655 7.11929367,5.63742266 C7.11929367,6.00548876 6.81569178,6.30245119 6.44215913,6.30245119 Z M10.5586937,6.30245119 C10.1843082,6.30245119 9.88070633,6.00548876 9.88070633,5.63742266 C9.88070633,5.26935655 10.1834554,4.97239412 10.5586937,4.97239412 C10.9322263,4.97239412 11.2358282,5.26935655 11.2358282,5.63742266 C11.2358282,6.00548876 10.9330792,6.30245119 10.5586937,6.30245119 Z" id="android_icon"></path>
                            </g>
                        </g>
                    </g>
                </g>
            </g>
        </g>
    </g>
</svg>