<?xml version="1.0" encoding="UTF-8"?>
<svg width="21px" height="25px" viewBox="0 0 21 25" version="1.1" xmlns="http://www.w3.org/2000/svg" xmlns:xlink="http://www.w3.org/1999/xlink">
    <!-- Generator: Sketch 54.1 (76490) - https://sketchapp.com -->
    <title>google-play</title>
    <desc>Created with Sketch.</desc>
    <g id="Symbols" stroke="none" stroke-width="1" fill="none" fill-rule="evenodd">
        <g id="btn_google-play" transform="translate(-17.000000, -13.000000)">
            <g id="google">
                <g id="google-play" transform="translate(17.000000, 13.000000)">
                    <g id="Path">
                        <path d="M11.6116902,11.9807992 L0.798218295,24.0509747 C0.281295218,23.5051657 0.00187733888,22.7566277 0.00187733888,21.9457115 L0.00187733888,3.01393762 C0.00187733888,2.1874269 0.295266112,1.43888889 0.826160083,0.87748538 L11.6116902,11.9807992 Z" fill="#289DF9" fill-rule="nonzero"></path>
                        <path d="M20.9582183,12.4798246 C20.9582183,13.5714425 20.4273243,14.5383041 19.547158,15.0841131 L16.4735613,16.9866472 L12.6595073,13.0568226 L11.6116902,11.9807992 L15.6492786,7.47397661 L19.547158,9.87553606 C20.4273243,10.421345 20.9582183,11.3882066 20.9582183,12.4798246 Z" fill="#FFD24A" fill-rule="nonzero"></path>
                        <path d="M11.6116902,11.9807992 L0.826160083,0.87748538 C0.965869023,0.721539961 1.14749064,0.581189084 1.32911227,0.456432749 C2.20927859,-0.136159844 3.27106653,-0.151754386 4.17917464,0.409649123 L15.6492786,7.47397661 L11.6116902,11.9807992 Z" fill="#5AD25E" fill-rule="nonzero"></path>
                        <path d="M16.4735613,16.9866472 L4.17917464,24.55 C3.74607692,24.8307018 3.25709563,24.9554581 2.78208524,24.9554581 C2.27913306,24.9554581 1.77618087,24.8151072 1.32911227,24.5032164 C1.13351975,24.37846 0.951898129,24.2225146 0.798218295,24.0509747 L11.6116902,11.9807992 L12.6595073,13.0568226 L16.4735613,16.9866472 Z" fill="#F44336" fill-rule="nonzero"></path>
                    </g>
                </g>
            </g>
        </g>
    </g>
</svg>