<?xml version="1.0" encoding="UTF-8"?>
<svg width="15px" height="20px" viewBox="0 0 15 20" version="1.1" xmlns="http://www.w3.org/2000/svg" xmlns:xlink="http://www.w3.org/1999/xlink">
    <!-- Generator: sketchtool 54.1 (76490) - https://sketchapp.com -->
    <title>6636F2EA-3FE5-4604-8B1B-936D13E9AED4</title>
    <desc>Created with sketchtool.</desc>
    <g id="Page-1" stroke="none" stroke-width="1" fill="none" fill-rule="evenodd">
        <g id="Homepage" transform="translate(-316.000000, -1324.000000)" fill="#313B4F">
            <g id="Content" transform="translate(-12.000000, 568.000000)">
                <g id="Our-Platforms-&amp;-Applications" transform="translate(12.000000, 0.000000)">
                    <g id="Infra-VIEU" transform="translate(214.000000, 332.000000)">
                        <g id="app" transform="translate(2.000000, 400.000000)">
                            <g id="Icon" transform="translate(0.000000, 24.000000)">
                                <path d="M112.495231,11.0006665 C112.526154,13.9133824 114.938154,14.8842877 115,14.8519242 C114.969077,14.9166512 114.598,16.2435551 113.701231,17.6028225 C112.928154,18.8002723 112.155077,19.9329951 110.887231,19.9653586 C109.681231,19.9977222 109.248308,19.2209979 107.856769,19.2209979 C106.434308,19.2209979 106.001385,19.9329951 104.826308,19.9977222 C103.620308,20.0624492 102.692616,18.7355453 101.919539,17.5704589 C100.373385,15.1755592 99.136462,10.838849 100.775385,7.86140611 C101.548462,6.40504819 103.001847,5.46650642 104.548,5.43414291 C105.754,5.4017794 106.867231,6.27559415 107.609385,6.27559415 C108.320616,6.27559415 109.712154,5.23996185 111.134616,5.4017794 C111.722154,5.4017794 113.422923,5.62832396 114.505231,7.31122645 C114.412462,7.37595347 112.464308,8.57340332 112.495231,11.0006665 Z M111.045641,3.22678745 C110.392484,4.06709669 109.334992,4.7057317 108.2775,4.6048946 C108.121986,3.46207404 108.650732,2.25202874 109.241684,1.51255662 C109.894841,0.672247386 111.045641,0.0336123693 111.978722,0 C112.103133,1.2100453 111.667695,2.35286585 111.045641,3.22678745 Z" id="ios_icon"></path>
                            </g>
                        </g>
                    </g>
                </g>
            </g>
        </g>
    </g>
</svg>