<?xml version="1.0" encoding="UTF-8"?>
<svg width="24px" height="16px" viewBox="0 0 24 16" version="1.1" xmlns="http://www.w3.org/2000/svg" xmlns:xlink="http://www.w3.org/1999/xlink">
    <!-- Generator: sketchtool 54.1 (76490) - https://sketchapp.com -->
    <title>E0D2574B-37A3-4915-B767-12C220AE5321</title>
    <desc>Created with sketchtool.</desc>
    <g id="Page-1" stroke="none" stroke-width="1" fill="none" fill-rule="evenodd">
        <g id="Homepage" transform="translate(-376.000000, -1328.000000)" fill="#313B4F" fill-rule="nonzero">
            <g id="Content" transform="translate(-12.000000, 568.000000)">
                <g id="Our-Platforms-&amp;-Applications" transform="translate(12.000000, 0.000000)">
                    <g id="Infra-VIEU" transform="translate(214.000000, 332.000000)">
                        <g id="app" transform="translate(2.000000, 400.000000)">
                            <g id="Icon" transform="translate(0.000000, 24.000000)">
                                <path d="M183.970455,17.6455285 C183.993374,17.6725453 184.003725,17.708818 183.998796,17.7445904 C183.995099,17.7671044 183.63677,20 180.855895,20 L163.144208,20 C160.363087,20 160.004757,17.7671044 160.001307,17.7445904 C159.996131,17.708818 160.006482,17.6725453 160.029648,17.6455285 C160.052813,17.6182614 160.08633,17.6025016 160.121818,17.6025016 L183.878285,17.6025016 C183.913773,17.6025016 183.947536,17.6185116 183.970455,17.6455285 Z M173.786647,19.2180113 L173.786647,18.38399 L170.213209,18.38399 L170.213209,19.2180113 L173.786647,19.2180113 Z M162.589462,16.734459 C162.317388,16.734459 162.096574,16.5103189 162.096574,16.2341463 L162.096574,4.5003127 C162.096574,4.22414009 162.317388,4 162.589462,4 L181.410394,4 C181.682468,4 181.903282,4.22414009 181.903282,4.5003127 L181.903282,16.2341463 C181.903282,16.5103189 181.682468,16.734459 181.410394,16.734459 L162.589462,16.734459 Z M163.821682,5.75109443 L163.821682,14.9833646 L180.178174,14.9833646 L180.178174,5.75109443 L163.821682,5.75109443 Z" id="web_icon"></path>
                            </g>
                        </g>
                    </g>
                </g>
            </g>
        </g>
    </g>
</svg>