<?xml version="1.0" encoding="UTF-8"?>
<svg width="211px" height="17px" viewBox="0 0 211 17" version="1.1" xmlns="http://www.w3.org/2000/svg" xmlns:xlink="http://www.w3.org/1999/xlink">
    <!-- Generator: Sketch 54.1 (76490) - https://sketchapp.com -->
    <title>logo_InfraDrone</title>
    <desc>Created with Sketch.</desc>
    <defs>
        <linearGradient x1="0%" y1="49.7124947%" x2="100%" y2="50.2875053%" id="linearGradient-1drone">
            <stop stop-color="#6D929C" offset="0%"></stop>
            <stop stop-color="#2A354E" offset="100%"></stop>
        </linearGradient>
        <path d="M4.37871961e-13,8 L4.37871961e-13,0 L3.90740741,0 L7.81481481,0 L7.81481481,8 L7.81481481,16 L3.90740741,16 L4.37871961e-13,16 L4.37871961e-13,8 Z M9.61823362,8 L9.61823362,0 L14.9082621,0 C20.9797721,0 21.5809117,0.307692308 24.045584,4.61538462 L25.8490028,7.69230769 L25.8490028,3.81538462 L25.8490028,0 L29.7564103,0 L33.6638177,0 L33.6638177,8 L33.6638177,16 L28.4940171,16 C25.668661,16 22.8433048,15.7538462 22.2421652,15.3846154 C21.6410256,15.0769231 20.3786325,13.4769231 19.4769231,11.8769231 L17.7336182,8.92307692 L17.5532764,12.4307692 L17.3729345,16 L13.525641,16 L9.61823362,16 L9.61823362,8 Z M35.8880342,1.10769231 C36.7296296,0.123076923 37.8717949,0 44.9051282,0 L52.9002849,0 L52.9002849,2.15384615 L52.9002849,4.24615385 L47.9709402,4.43076923 C45.145584,4.55384615 42.9814815,4.86153846 42.9814815,5.23076923 C42.9814815,5.6 45.145584,5.90769231 47.9709402,6.03076923 L52.9002849,6.21538462 L52.9002849,8.30769231 L52.9002849,10.4 L47.9709402,10.5846154 L42.9814815,10.7692308 L42.8011396,13.3538462 L42.6207977,16 L38.7133903,16 L34.8660969,16 L34.8660969,9.10769231 C34.8660969,3.56923077 35.0464387,2.03076923 35.8880342,1.10769231 Z M54.1025641,8 L54.1025641,0 L62.9994302,0 C73.2789174,0 73.9401709,0.246153846 74.3609687,4.36923077 C74.6014245,6.46153846 74.4210826,7.44615385 73.4592593,8.61538462 L72.2569801,10.1538462 L74.1205128,12.7384615 C75.1424501,14.2153846 75.9840456,15.3846154 76.0441595,15.3846154 C76.1042735,15.3846154 78.8094017,11.9384615 81.9954416,7.69230769 L87.8264957,0 L94.0783476,0 L100.390313,0 L100.390313,8 L100.390313,16 L96.482906,16 L92.6356125,16 L92.4552707,11.3230769 L92.2749288,6.58461538 L88.968661,11.3230769 L85.7225071,16 L75.9239316,16 L66.1854701,16 L64.5623932,13.8461538 C63.7207977,12.6769231 62.7589744,11.6923077 62.4584046,11.6923077 C62.1578348,11.6923077 61.9173789,12.6769231 61.9173789,13.8461538 L61.9173789,16 L58.0099715,16 L54.1025641,16 L54.1025641,8 Z M65.8247863,5.84615385 C65.8247863,4.92307692 65.3438746,4.55384615 63.9011396,4.43076923 C62.0977208,4.24615385 61.9173789,4.36923077 61.9173789,5.84615385 C61.9173789,7.32307692 62.0977208,7.44615385 63.9011396,7.26153846 C65.3438746,7.13846154 65.8247863,6.76923077 65.8247863,5.84615385 Z M102.193732,8 L102.193732,0 L111.27094,0 C119.266097,0 120.468376,0.123076923 121.189744,1.04615385 C122.271795,2.52307692 122.331909,14.2153846 121.309972,15.2615385 C120.82906,15.7538462 117.763248,16 111.391168,16 L102.193732,16 L102.193732,8 Z M113.85584,5.90769231 C113.615385,5.29230769 112.773789,4.92307692 111.751852,4.92307692 C110.068661,4.92307692 110.008547,4.98461538 110.008547,8.30769231 C110.008547,11.4461538 110.128775,11.6923077 111.391168,11.6923077 C112.17265,11.6923077 113.074359,11.3846154 113.495157,10.9538462 C114.276638,10.1538462 114.45698,7.50769231 113.85584,5.90769231 Z M123.834758,8 L123.834758,0 L132.731624,0 C143.011111,0 143.672365,0.246153846 144.093162,4.36923077 C144.333618,6.46153846 144.153276,7.44615385 143.191453,8.61538462 L141.989174,10.1538462 L144.093162,13.0461538 L146.197151,16 L141.02735,16 L135.917664,16 L134.294587,13.8461538 C133.452991,12.6769231 132.491168,11.6923077 132.190598,11.6923077 C131.890028,11.6923077 131.649573,12.6769231 131.649573,13.8461538 L131.649573,16 L127.742165,16 L123.834758,16 L123.834758,8 Z M135.55698,5.84615385 C135.55698,4.92307692 135.076068,4.55384615 133.633333,4.43076923 C131.829915,4.24615385 131.649573,4.36923077 131.649573,5.84615385 C131.649573,7.32307692 131.829915,7.44615385 133.633333,7.26153846 C135.076068,7.13846154 135.55698,6.76923077 135.55698,5.84615385 Z M147.279202,1.23076923 C148.361254,0.123076923 149.262963,-5.15143483e-14 156.296296,-5.15143483e-14 C166.395442,-5.15143483e-14 166.51567,0.0615384615 166.51567,8.12307692 C166.51567,16.0615385 166.635897,16 156.416524,16 C145.956695,16 146.076923,16.0615385 146.076923,8.18461538 C146.076923,3.26153846 146.257265,2.27692308 147.279202,1.23076923 Z M158.460399,5.78461538 C158.159829,4.61538462 157.678917,4.30769231 156.236182,4.30769231 C154.132194,4.30769231 153.77151,5.04615385 154.011966,8.67692308 C154.192308,11.3230769 154.252422,11.3846154 156.296296,11.3846154 C158.219943,11.3846154 158.400285,11.2615385 158.580627,9.29230769 C158.700855,8.12307692 158.640741,6.58461538 158.460399,5.78461538 Z M167.717949,8 L167.717949,0 L173.007977,0 C179.079487,0 179.680627,0.307692308 182.145299,4.61538462 L183.948718,7.69230769 L183.948718,3.81538462 L183.948718,0 L187.856125,0 L191.763533,0 L191.763533,8 L191.763533,16 L186.593732,16 C183.768376,16 180.94302,15.7538462 180.34188,15.3846154 C179.740741,15.0769231 178.478348,13.4769231 177.576638,11.8769231 L175.833333,8.92307692 L175.652991,12.4307692 L175.47265,16 L171.625356,16 L167.717949,16 L167.717949,8 Z M194.168091,1.23076923 C195.250142,0.123076923 196.151852,5.5067062e-14 203.185185,5.5067062e-14 L211,5.5067062e-14 L211,2.15384615 L211,4.24615385 L206.070655,4.43076923 C203.245299,4.55384615 201.081197,4.86153846 201.081197,5.23076923 C201.081197,5.6 203.245299,5.90769231 206.070655,6.03076923 L211,6.21538462 L211,8.30769231 L211,10.4615385 L206.190883,10.4615385 C203.365527,10.4615385 201.381766,10.7076923 201.381766,11.0769231 C201.381766,11.4461538 203.365527,11.6923077 206.190883,11.6923077 L211,11.6923077 L211,13.8461538 L211,16.0000074 L203.064957,16 C192.905698,16 192.965812,16.0615385 192.965812,8.18461538 C192.965812,3.26153846 193.146154,2.27692308 194.168091,1.23076923 Z" id="path-2drone"></path>
    </defs>
    <g id="Page-1" stroke="none" stroke-width="1" fill="none" fill-rule="evenodd">
        <g id="Homepage" transform="translate(-1080.000000, -900.000000)">
            <g id="Content" transform="translate(-12.000000, 568.000000)">
                <g id="Our-Platforms-&amp;-Applications" transform="translate(12.000000, 0.000000)">
                    <g id="InfraDrone" transform="translate(1080.000000, 332.538462)">
                        <g id="logo_InfraDrone">
                            <g>
                                <mask id="mask-3drone" fill="white">
                                    <use xlink:href="#path-2drone"></use>
                                </mask>
                                <use id="Mask" fill="url(#linearGradient-1drone)" xlink:href="#path-2drone"></use>
                                <rect id="Rectangle" fill="#0DC9A8" mask="url(#mask-3drone)" x="75.7435897" y="-2" width="25.2478632" height="20.9230769"></rect>
                            </g>
                        </g>
                    </g>
                </g>
            </g>
        </g>
    </g>
</svg>