<?xml version="1.0" encoding="UTF-8"?>
<svg width="146px" height="21px" viewBox="0 0 146 21" version="1.1" xmlns="http://www.w3.org/2000/svg" xmlns:xlink="http://www.w3.org/1999/xlink">
    <!-- Generator: Sketch 54.1 (76490) - https://sketchapp.com -->
    <defs>
        <linearGradient x1="0%" y1="49.0485686%" x2="41.1682434%" y2="50.3110773%" id="linearGradient-1drone">
            <stop stop-color="#6D929C" offset="0%"></stop>
            <stop stop-color="#2A354E" offset="100%"></stop>
        </linearGradient>
        <path d="M1.368,7.2 L7.032,7.2 L7.032,19.608 L14.616,19.608 L14.616,24 L1.368,24 L1.368,7.2 Z M15.008,10.872 L20.432,10.872 L20.432,24 L15.008,24 L15.008,10.872 Z M17.72,9.816 C16.7439951,9.816 15.956003,9.5560026 15.356,9.036 C14.755997,8.5159974 14.456,7.856004 14.456,7.056 C14.456,6.255996 14.755997,5.5960026 15.356,5.076 C15.956003,4.5559974 16.7439951,4.296 17.72,4.296 C18.712005,4.296 19.503997,4.54399752 20.096,5.04 C20.688003,5.53600248 20.984,6.17599608 20.984,6.96 C20.984,7.79200416 20.688003,8.47599732 20.096,9.012 C19.503997,9.54800268 18.712005,9.816 17.72,9.816 Z M22,7.2 L30.28,7.2 C32.1520094,7.2 33.8039928,7.5399966 35.236,8.22 C36.6680072,8.9000034 37.779996,9.87199368 38.572,11.136 C39.364004,12.4000063 39.76,13.8879914 39.76,15.6 C39.76,17.3120086 39.364004,18.7999937 38.572,20.064 C37.779996,21.3280063 36.6680072,22.2999966 35.236,22.98 C33.8039928,23.6600034 32.1520094,24 30.28,24 L22,24 L22,7.2 Z M30.04,19.584 C31.2560061,19.584 32.2279964,19.2360035 32.956,18.54 C33.6840036,17.8439965 34.048,16.8640063 34.048,15.6 C34.048,14.3359937 33.6840036,13.3560035 32.956,12.66 C32.2279964,11.9639965 31.2560061,11.616 30.04,11.616 L27.664,11.616 L27.664,19.584 L30.04,19.584 Z M52.032,21.072 L45.648,21.072 L44.52,24 L38.76,24 L46.104,7.2 L51.672,7.2 L59.016,24 L53.16,24 L52.032,21.072 Z M50.472,16.992 L48.84,12.768 L47.208,16.992 L50.472,16.992 Z M66.128,19.776 L64.592,19.776 L64.592,24 L58.928,24 L58.928,7.2 L67.016,7.2 C68.5680078,7.2 69.9199942,7.45599744 71.072,7.968 C72.2240058,8.48000256 73.1119969,9.2159952 73.736,10.176 C74.3600031,11.1360048 74.672,12.2559936 74.672,13.536 C74.672,14.736006 74.4000027,15.7839955 73.856,16.68 C73.3119973,17.5760045 72.5280051,18.2879974 71.504,18.816 L75.032,24 L68.984,24 L66.128,19.776 Z M68.96,13.536 C68.96,12.9119969 68.7680019,12.4280017 68.384,12.084 C67.9999981,11.7399983 67.4240038,11.568 66.656,11.568 L64.592,11.568 L64.592,15.504 L66.656,15.504 C67.4240038,15.504 67.9999981,15.3320017 68.384,14.988 C68.7680019,14.6439983 68.96,14.1600031 68.96,13.536 Z M98.568,7.2 L98.568,24 L93.912,24 L87.528,16.368 L87.528,24 L82.008,24 L82.008,7.2 L86.664,7.2 L93.048,14.832 L93.048,7.2 L98.568,7.2 Z M109.112,24.384 C107.303991,24.384 105.680007,24.0080038 104.24,23.256 C102.799993,22.5039962 101.672004,21.4600067 100.856,20.124 C100.039996,18.7879933 99.632,17.2800084 99.632,15.6 C99.632,13.9199916 100.039996,12.4120067 100.856,11.076 C101.672004,9.73999332 102.799993,8.69600376 104.24,7.944 C105.680007,7.19199624 107.303991,6.816 109.112,6.816 C110.920009,6.816 112.543993,7.19199624 113.984,7.944 C115.424007,8.69600376 116.551996,9.73999332 117.368,11.076 C118.184004,12.4120067 118.592,13.9199916 118.592,15.6 C118.592,17.2800084 118.184004,18.7879933 117.368,20.124 C116.551996,21.4600067 115.424007,22.5039962 113.984,23.256 C112.543993,24.0080038 110.920009,24.384 109.112,24.384 Z M109.112,19.8 C109.816004,19.8 110.451997,19.6280017 111.02,19.284 C111.588003,18.9399983 112.039998,18.4520032 112.376,17.82 C112.712002,17.1879968 112.88,16.4480042 112.88,15.6 C112.88,14.7519958 112.712002,14.0120032 112.376,13.38 C112.039998,12.7479968 111.588003,12.2600017 111.02,11.916 C110.451997,11.5719983 109.816004,11.4 109.112,11.4 C108.407996,11.4 107.772003,11.5719983 107.204,11.916 C106.635997,12.2600017 106.184002,12.7479968 105.848,13.38 C105.511998,14.0120032 105.344,14.7519958 105.344,15.6 C105.344,16.4480042 105.511998,17.1879968 105.848,17.82 C106.184002,18.4520032 106.635997,18.9399983 107.204,19.284 C107.772003,19.6280017 108.407996,19.8 109.112,19.8 Z M146.992,7.2 L141.616,24 L135.544,24 L132.832,15.024 L129.976,24 L123.904,24 L118.528,7.2 L124.36,7.2 L127.288,16.752 L130.384,7.2 L135.592,7.2 L138.52,16.872 L141.616,7.2 L146.992,7.2 Z" id="path-2lidar"></path>
    </defs>
    <g id="Page-1" stroke="none" stroke-width="1" fill="none" fill-rule="evenodd">
        <g id="Homepage" transform="translate(-649.000000, -897.000000)" fill-rule="nonzero">
            <g id="Content" transform="translate(-12.000000, 568.000000)">
                <g id="Our-Platforms-&amp;-Applications" transform="translate(12.000000, 0.000000)">
                    <g id="LiDAR-Now" transform="translate(598.000000, 263.000000)">
                        <g id="text" transform="translate(50.000000, 62.000000)">
                            <g id="LiDARNOW">
                                <use fill="#313B4F" xlink:href="#path-2lidar"></use>
                                <use fill="url(#linearGradient-1drone)" xlink:href="#path-2lidar"></use>
                            </g>
                        </g>
                    </g>
                </g>
            </g>
        </g>
    </g>
</svg>